<?xml version="1.0" encoding="UTF-8"?>
<svg width="120px" height="120px" viewBox="0 0 120 120" version="1.1" xmlns="http://www.w3.org/2000/svg" xmlns:xlink="http://www.w3.org/1999/xlink">
    <title>12083588_Wavy_Bus-25_Single-11</title>
    <defs>
        <linearGradient x1="114.72184%" y1="23.421456%" x2="46.6679386%" y2="54.7180758%" id="linearGradient-1">
            <stop stop-color="#AA80F9" offset="0%"></stop>
            <stop stop-color="#6165D7" offset="99.64%"></stop>
        </linearGradient>
        <linearGradient x1="26.7166951%" y1="24.7988742%" x2="58.5292721%" y2="76.2636932%" id="linearGradient-2">
            <stop stop-color="#E38DDD" offset="0.36%"></stop>
            <stop stop-color="#9571F6" offset="100%"></stop>
        </linearGradient>
        <linearGradient x1="43.3935946%" y1="96.4945587%" x2="50.6989682%" y2="55.1118601%" id="linearGradient-3">
            <stop stop-color="#444B8C" offset="0%"></stop>
            <stop stop-color="#26264F" offset="99.64%"></stop>
        </linearGradient>
        <linearGradient x1="37.784056%" y1="49.1019399%" x2="13.2110305%" y2="51.0006939%" id="linearGradient-4">
            <stop stop-color="#444B8C" offset="0%"></stop>
            <stop stop-color="#383C74" offset="39.46%"></stop>
            <stop stop-color="#26264F" offset="99.64%"></stop>
        </linearGradient>
        <linearGradient x1="78.763779%" y1="18.9878387%" x2="12.804767%" y2="85.9622397%" id="linearGradient-5">
            <stop stop-color="#444B8C" offset="0%"></stop>
            <stop stop-color="#26264F" offset="99.64%"></stop>
        </linearGradient>
        <linearGradient x1="70.9851675%" y1="29.8283153%" x2="-10.1898343%" y2="102.175625%" id="linearGradient-6">
            <stop stop-color="#FFC444" offset="0%"></stop>
            <stop stop-color="#F36F56" offset="99.64%"></stop>
        </linearGradient>
        <linearGradient x1="61.4599807%" y1="-8.0896603%" x2="43.4676975%" y2="92.9048715%" id="linearGradient-7">
            <stop stop-color="#311944" offset="0%"></stop>
            <stop stop-color="#A03976" offset="100%"></stop>
        </linearGradient>
        <linearGradient x1="48.9040745%" y1="115.15489%" x2="55.109608%" y2="-506.99416%" id="linearGradient-8">
            <stop stop-color="#FFC444" offset="0%"></stop>
            <stop stop-color="#F36F56" offset="99.64%"></stop>
        </linearGradient>
        <linearGradient x1="63.8350621%" y1="-148.45245%" x2="44.3893999%" y2="147.187107%" id="linearGradient-9">
            <stop stop-color="#311944" offset="0%"></stop>
            <stop stop-color="#A03976" offset="100%"></stop>
        </linearGradient>
        <linearGradient x1="49.0947212%" y1="135.27473%" x2="53.4359127%" y2="-303.200659%" id="linearGradient-10">
            <stop stop-color="#FFC444" offset="0%"></stop>
            <stop stop-color="#F36F56" offset="99.64%"></stop>
        </linearGradient>
        <linearGradient x1="99.9997511%" y1="50.0000181%" x2="1.81253738e-05%" y2="50.0000181%" id="linearGradient-11">
            <stop stop-color="#444B8C" offset="0%"></stop>
            <stop stop-color="#3E4177" offset="99.64%"></stop>
        </linearGradient>
        <linearGradient x1="107.428182%" y1="50.0000238%" x2="0.000382664841%" y2="50.0000238%" id="linearGradient-12">
            <stop stop-color="#444B8C" offset="0%"></stop>
            <stop stop-color="#3E4177" offset="99.64%"></stop>
        </linearGradient>
        <linearGradient x1="99.9999281%" y1="49.9999983%" x2="2.72083572e-05%" y2="49.9999983%" id="linearGradient-13">
            <stop stop-color="#444B8C" offset="0%"></stop>
            <stop stop-color="#3E4177" offset="99.64%"></stop>
        </linearGradient>
        <linearGradient x1="41.5557831%" y1="124.741281%" x2="61.512954%" y2="1.71964323%" id="linearGradient-14">
            <stop stop-color="#311944" offset="0%"></stop>
            <stop stop-color="#893976" offset="100%"></stop>
        </linearGradient>
        <linearGradient x1="50.0001854%" y1="112.157322%" x2="50.0001854%" y2="-8.76544495%" id="linearGradient-15">
            <stop stop-color="#FFC444" offset="0%"></stop>
            <stop stop-color="#F36F56" offset="99.64%"></stop>
        </linearGradient>
        <linearGradient x1="100.000697%" y1="50.0006117%" x2="0.000265072788%" y2="50.0006117%" id="linearGradient-16">
            <stop stop-color="#FFC444" offset="0%"></stop>
            <stop stop-color="#F36F56" offset="99.64%"></stop>
        </linearGradient>
        <linearGradient x1="-64.9071935%" y1="109.452161%" x2="73.9370429%" y2="22.9770704%" id="linearGradient-17">
            <stop stop-color="#444B8C" offset="0%"></stop>
            <stop stop-color="#3E4177" offset="99.64%"></stop>
        </linearGradient>
        <linearGradient x1="118.122683%" y1="157.848191%" x2="6.08545142%" y2="-43.5305616%" id="linearGradient-18">
            <stop stop-color="#FFC444" offset="0%"></stop>
            <stop stop-color="#F36F56" offset="99.64%"></stop>
        </linearGradient>
        <linearGradient x1="78.3779685%" y1="44.3949447%" x2="5.0243744%" y2="58.4477756%" id="linearGradient-19">
            <stop stop-color="#AA80F9" offset="0%"></stop>
            <stop stop-color="#6165D7" offset="99.64%"></stop>
        </linearGradient>
        <linearGradient x1="29.6795404%" y1="151.583633%" x2="59.174906%" y2="-3.25666942%" id="linearGradient-20">
            <stop stop-color="#311944" offset="0%"></stop>
            <stop stop-color="#893976" offset="100%"></stop>
        </linearGradient>
        <linearGradient x1="34.1696362%" y1="140.525539%" x2="59.397516%" y2="1.04188238%" id="linearGradient-21">
            <stop stop-color="#FFC444" offset="0%"></stop>
            <stop stop-color="#F36F56" offset="99.64%"></stop>
        </linearGradient>
        <linearGradient x1="97.8830705%" y1="80.673667%" x2="49.9394549%" y2="48.9676417%" id="linearGradient-22">
            <stop stop-color="#FF9085" offset="0%"></stop>
            <stop stop-color="#FB6FBB" offset="100%"></stop>
        </linearGradient>
        <linearGradient x1="30.4516786%" y1="37.5401234%" x2="38.3124676%" y2="43.5592377%" id="linearGradient-23">
            <stop stop-color="#FF9085" offset="0%"></stop>
            <stop stop-color="#FB6FBB" offset="100%"></stop>
        </linearGradient>
        <linearGradient x1="83.1120489%" y1="97.5867181%" x2="-37.7595084%" y2="-76.2173211%" id="linearGradient-24">
            <stop stop-color="#FF9085" offset="0%"></stop>
            <stop stop-color="#FB6FBB" offset="100%"></stop>
        </linearGradient>
        <linearGradient x1="98.6484961%" y1="80.8198417%" x2="49.9560498%" y2="48.9507325%" id="linearGradient-25">
            <stop stop-color="#FF9085" offset="0%"></stop>
            <stop stop-color="#FB6FBB" offset="100%"></stop>
        </linearGradient>
        <linearGradient x1="30.1161667%" y1="37.5164503%" x2="38.1125585%" y2="43.5700905%" id="linearGradient-26">
            <stop stop-color="#FF9085" offset="0%"></stop>
            <stop stop-color="#FB6FBB" offset="100%"></stop>
        </linearGradient>
        <linearGradient x1="33.5225746%" y1="24.6999058%" x2="86.1832572%" y2="105.406383%" id="linearGradient-27">
            <stop stop-color="#FF9085" offset="0%"></stop>
            <stop stop-color="#FB6FBB" offset="100%"></stop>
        </linearGradient>
    </defs>
    <g id="Page-1" stroke="none" stroke-width="1" fill="none" fill-rule="evenodd">
        <g id="Artboard" transform="translate(-659, -21)" fill-rule="nonzero">
            <g id="Group" transform="translate(659, 21)">
                <path d="M30.5818872,11.2389194 C26.6283205,16.8256956 31.2640015,25.8832243 25.3975481,30.0849449 C19.6870331,34.174995 12.6717912,27.4708469 7.29001466,30.9915738 C-0.693608942,36.2143051 0.764351729,60.1126988 12.4368271,74.9612392 C15.9471316,79.4266806 18.8802104,81.1641426 20.1792322,86.2143834 C22.9686702,97.0584724 13.1652158,103.509245 15.0308138,108.872597 C19.231431,120.948857 83.8337106,131.08221 109.755026,94.789147 C121.86134,77.838766 123.672718,53.3622473 112.856087,34.7722671 C93.3106662,1.18031951 39.4530497,-1.29678716 30.5818872,11.2389194 Z" id="Path" fill="#F4F7FA"></path>
                <g>
                    <g transform="translate(0, 7.4999)">
                        <g id="SVGID_1_-link" transform="translate(29.2236, 7.7054)" fill="url(#linearGradient-1)">
                            <path d="M0,48.7982206 C6.72863641,50.1600411 15.4732732,50.8160476 24.3428298,48.2355717 C26.6063877,47.5770206 40.5893715,43.5087873 40.0803531,36.5739982 C39.9010451,34.1312228 38.0750021,33.3957497 37.7844665,30.1344052 C37.440261,26.2699904 39.7836898,24.8291204 41.919412,20.5118916 C43.1937964,17.9358375 46.9232598,10.3970185 43.3298305,5.12206026 C41.1824868,1.96988341 36.5173508,-0.231238328 32.6696869,0.0194257457 C27.0259845,0.387099758 24.2469002,5.95764888 19.6897377,15.474499 C15.6499611,23.9108113 15.9948851,26.2417077 12.9915283,32.2596061 C10.7624966,36.72584 6.9364275,42.7276782 0,48.7982206 Z" id="SVGID_1_"></path>
                        </g>
                        <g opacity="0.5" fill="#FFFFFF" id="Path">
                            <path d="M18.7483177,57.99509 C12.4995828,57.99509 6.20529192,56.3742208 0,53.1623918 L0.133583005,52.91081 C7.16615139,56.5508411 14.31037,58.1329156 21.3690549,57.6149433 C30.7726899,56.9237712 39.5395976,52.369686 47.4262351,44.0791668 C55.6429211,35.4415389 60.8452206,24.9136896 63.762452,17.6029669 C65.7836926,12.5380009 66.455242,6.6253906 65.7585481,0.0294089152 L66.0446042,0 C66.7462002,6.64178451 66.0684809,12.5992799 64.0302519,17.7069619 C61.1036811,25.0408779 55.8838861,35.6032254 47.6360124,44.2735993 C39.6984097,52.6176386 30.8681546,57.2015499 21.3904383,57.8981449 C20.5108865,57.9627611 19.6301093,57.99509 18.7483177,57.99509 Z"></path>
                            <path d="M56.8459711,31.9293636 L56.7828773,31.8024672 C56.7680442,31.772516 55.2867984,28.7606677 54.3829473,24.4261273 C53.5480641,20.4224685 53.0473708,14.4358145 55.4034775,8.651644 L55.6704322,8.75759953 C53.3422169,14.4733995 53.8375855,20.3976482 54.6631293,24.3609688 C55.4547385,28.1611847 56.6923992,30.9342159 56.980188,31.5492586 C72.8665923,23.8843358 74.5642925,11.911445 74.7054822,8.41687326 C74.7097082,8.31120974 74.7113986,8.27333272 74.7156245,8.24767814 L74.9998212,8.29289695 L74.8576595,8.27028755 L74.9998212,8.29193751 C74.9972856,8.31091773 74.9958911,8.35697084 74.9929329,8.42826139 C74.8497569,11.9723485 73.1275039,24.1367102 56.9749055,31.8676674 L56.8459711,31.9293636 Z"></path>
                            <path d="M58.1813786,46.214838 C55.2162246,46.214838 51.6944255,45.6692922 47.6177139,44.1643066 L47.5464218,44.1379429 L47.5283769,44.0649837 C47.5036549,43.9651186 45.0876239,33.9370956 47.8756673,21.4818986 L50.6888553,8.91494765 L50.9698402,8.97622666 L48.1566523,21.5431776 C45.5076434,33.3770748 47.5777785,42.9970021 47.7907253,43.9249055 C52.4951206,45.6506457 59.4303226,47.1353162 65.8945821,44.494479 C69.7714475,42.9107777 71.6576683,40.5637377 71.6763471,40.5401688 L71.9031128,40.714912 C71.8840114,40.7390231 69.95084,43.1448393 66.0045842,44.7569901 C64.0905565,45.5388918 61.4807224,46.214838 58.1813786,46.214838 Z"></path>
                        </g>
                    </g>
                    <g transform="translate(4.2552, 0)">
                        <g id="SVGID_00000015339417139571719910000003139228734173462403_-link" transform="translate(4.3001, 3.1986)" fill="url(#linearGradient-2)">
                            <path d="M0,64.3839416 C3.87940092,61.8700425 9.164614,57.612299 12.4083863,50.8638499 C16.6625043,42.0133515 13.6677263,36.6548803 16.8819168,20.983808 C18.9141872,11.0751727 20.4336358,4.18034637 26.1748313,1.34115546 C30.6739289,-0.883701977 37.2269761,-0.351588328 40.6650587,3.02088424 C43.5237604,5.82499303 44.5636033,10.9210783 44.5362612,14.4261622 C44.5139904,17.2827898 43.781587,19.2335812 45.144252,20.9750479 C46.5368368,22.7548087 48.474868,22.2167298 49.8283204,23.5903973 C52.5731744,26.3761516 49.4399535,33.4984486 48.9335551,34.649526 C43.3005867,47.4541677 29.228942,54.3210034 23.0542884,57.2433736 C17.9488904,59.6596601 10.1722127,62.7118884 0,64.3839416 Z" id="SVGID_00000015339417139571719910000003139228734173462403_"></path>
                        </g>
                        <g opacity="0.5" fill="#FFFFFF" id="Path">
                            <path d="M0.0545150512,69.3995336 L0,69.1206287 C6.17254063,67.9461492 11.6106494,66.2150278 16.1632478,63.9750696 C22.875741,60.6727196 27.4556815,56.3470228 29.7759097,51.1182428 C31.5932471,47.0227697 32.0002928,42.5254166 32.5636572,36.3009467 C33.0135121,31.3319246 32.8781964,27.7699418 32.7588549,24.6273593 C32.6029165,20.5202479 32.4796872,17.2762568 33.7524657,12.8192419 C35.0440498,8.29635928 37.3912397,3.983302 40.7288286,0 L40.9505232,0.181125546 C37.6386704,4.13360033 35.3100326,8.41174234 34.0293937,12.8963308 C32.768955,17.3102127 32.8913392,20.5345144 33.0463901,24.6168055 C33.1660697,27.7677309 33.3017234,31.3392664 32.8502627,36.3261841 C32.3057039,42.3423722 31.8756266,47.0942272 30.0394836,51.2322492 C27.691533,56.5235597 23.0660788,60.8963942 16.2916751,64.2292795 C11.7156226,66.4807509 6.25270733,68.2202153 0.0545150512,69.3995336 Z"></path>
                            <path d="M33.0094129,32.8201408 L32.8738437,32.7316638 C32.8433744,32.7118493 29.795814,30.6987778 27.0880218,26.7776308 C24.5889505,23.1587908 21.8715231,17.1254162 23.1178047,8.93405302 L23.4022972,8.97622666 C22.1698345,17.0766099 24.8556516,23.0407797 27.3257751,26.6176129 C29.6807408,30.0278791 32.2866447,31.9719961 32.8989037,32.4030348 C37.1760109,24.0079367 42.9770885,19.2809437 47.1016804,16.79053 C51.6008202,14.074064 55.1391006,13.3562779 55.174303,13.3493532 L55.2306352,13.627841 C55.1958132,13.6347657 51.6978486,14.3460443 47.240081,17.0399009 C43.1273641,19.525434 37.332541,24.2558059 33.0818883,32.6766837 L33.0094129,32.8201408 Z"></path>
                            <path d="M31.4076846,46.2110003 L31.3644106,46.1171003 C31.3402381,46.0645397 28.9055283,40.8084782 25.4199458,36.0111124 C21.9526195,31.2389006 12.4055127,28.1446656 12.3094986,28.1138801 L12.3981595,27.8437352 C12.4951033,27.8746459 22.132012,30.998415 25.6537689,35.8455048 C28.8983441,40.311113 31.2360256,45.1712595 31.5822173,45.9050224 C37.2121007,45.2091365 43.9905191,38.9241802 48.6989291,33.7565958 C53.8430792,28.1109601 57.6909967,22.5449161 57.7291995,22.4893104 L57.9672062,22.6490779 C57.9288344,22.7048089 54.0699295,28.2866627 48.9129324,33.9465649 C41.9743074,41.561847 36.1196867,45.6842261 31.5116435,46.1994035 L31.4076846,46.2110003 Z"></path>
                            <path d="M19.8292794,63.3445091 C18.9184977,63.3445091 18.405211,63.3187294 18.3894059,63.3177282 L18.1030962,63.3024606 L18.2867147,63.0850015 C20.1689208,60.8567235 21.1572914,58.3590931 21.2243153,55.661357 C21.2779852,53.4985295 20.7436954,51.2004626 19.6361947,48.8311469 C17.7442688,44.7835207 14.7965682,41.8969001 14.7669864,41.8682003 L14.9687343,41.6657168 C14.9985697,41.6947086 17.9793174,44.6122398 19.8941903,48.7050848 C21.6435318,52.4441468 22.8348759,57.943614 18.6915207,63.0449136 C19.8473243,63.0804129 24.3847514,63.1381044 30.2596145,62.1850887 C36.5285919,61.168166 45.6462553,58.7588875 53.482477,53.0562694 L68.701093,41.9810805 L68.8719491,42.2096358 L53.6532063,53.2848247 C45.768724,59.0226918 36.6011096,61.4449852 30.2988316,62.4666217 C25.6298921,63.2234529 21.7999351,63.3445091 19.8292794,63.3445091 Z"></path>
                        </g>
                    </g>
                </g>
                <g transform="translate(5.4058, 26.0729)" id="Path">
                    <g transform="translate(43.9182, 66.7832)">
                        <path d="M29.0722658,16.0476316 C27.4042743,15.5015018 26.1576122,14.1041403 25.8060536,12.3867014 L23.3783589,0.526231866 L2.61116706,1.25415466 L0.0553408771,13.6101123 C-0.302599033,15.3405245 1.13030162,17.0766099 2.7805018,17.7139282 L11.4690599,21.0695898 C13.085072,21.6937262 14.8221582,21.9423045 16.5486372,21.7965114 L34.9106587,20.2459316 C35.4474418,20.2006293 35.877984,19.7841073 35.9404438,19.2497828 C36.002946,18.7154582 36.3790153,18.1154746 35.8671655,17.9478647 L29.0722658,16.0476316 Z" fill="#97A6B7"></path>
                        <path d="M29.2777749,15.3262998 C27.6114737,14.7870529 26.3660372,13.4072533 26.0148589,11.7113392 L23.5896153,0 L3.32865275,0.719579841 L0.77536215,12.9201916 C0.417760318,14.6288705 1.3639134,16.3423465 3.01246546,16.9716973 L11.6922758,20.2851852 C13.306682,20.9014792 15.0419933,21.1469289 16.7667397,21.0029713 L35.1102514,19.4718722 C35.6464852,19.4271123 36.0766047,19.0158463 36.1390223,18.4882379 C36.2014399,17.9606294 35.8788291,17.4625967 35.3674864,17.2971142 L29.2777749,15.3262998 Z" fill="url(#linearGradient-3)"></path>
                    </g>
                    <g>
                        <g>
                            <path d="M4.09446068,75.1924714 C1.84239743,75.3249992 0,73.8828361 0,71.9769715 L0,3.28575475 C0,1.3799319 1.84239743,-0.0918487371 4.09446068,0.00447067469 L108.243142,4.45894104 C109.896554,4.52964758 111.235342,5.90569281 111.235342,7.52656204 L111.235342,65.9479771 C111.235342,67.568888 109.896511,68.9664163 108.243142,69.0636952 L4.09446068,75.1924714 Z" fill="url(#linearGradient-4)"></path>
                            <path d="M5.03042917,75.1924714 C2.77836592,75.3249992 0.935968491,73.8828361 0.935968491,71.9769715 L0.935968491,3.28575475 C0.935968491,1.3799319 2.77836592,-0.0918487371 5.03042917,0.00447067469 L109.17911,4.45894104 C110.832522,4.52964758 112.17131,5.90569281 112.17131,7.52656204 L112.17131,65.9479771 C112.17131,67.568888 110.832522,68.9664163 109.17911,69.0636952 L5.03042917,75.1924714 Z" fill="url(#linearGradient-5)"></path>
                            <path d="M109.179152,5.83381825 L5.03047143,1.60456595 C3.82649174,1.55567624 2.84762962,2.34095685 2.84762962,3.35863046 L2.84762962,56.7823236 L2.84762962,71.873352 C2.84762962,72.8910674 3.826534,73.6605381 5.03047143,73.5923344 L109.179152,67.6887763 C110.065381,67.6385517 110.781979,66.8929418 110.781979,66.0232305 L110.781979,52.6682875 L110.781979,7.47358428 C110.781979,6.60391469 110.065381,5.8698181 109.179152,5.83381825 Z" fill="#D8DEE8" opacity="0.3"></path>
                            <path d="M5.03042917,67.7568131 C4.56172651,67.7796728 4.17995212,67.4761561 4.17995212,67.0803663 L4.17995212,3.40939734 C4.17995212,3.01360757 4.56172651,2.70637826 5.03042917,2.72473276 L109.17911,6.79630322 C109.524753,6.80981881 109.805737,7.09698331 109.805737,7.43633299 L109.805737,62.0284987 C109.805737,62.3678483 109.524753,62.657766 109.17911,62.6746605 L5.03042917,67.7568131 Z" fill="url(#linearGradient-6)"></path>
                        </g>
                        <path d="M98.3064424,64.8118752 C89.5444791,59.4617886 95.6644064,44.2501211 85.8244819,36.607182 C75.9040104,28.9016708 61.9446497,38.3524447 54.9955443,30.3724503 C49.8213053,24.4306814 55.8756877,17.2561992 50.935145,11.6682968 C43.1873307,2.90523259 23.3534873,14.9573815 14.2411908,6.32425885 C12.9474092,5.09851194 11.6418371,3.23895077 10.8987843,0.255468466 L5.03038691,0.00447067469 C2.77832366,-0.0918487371 0.935926232,1.3799319 0.935926232,3.28575475 L0.935926232,71.9770133 C0.935926232,73.8828778 2.77832366,75.3249992 5.03038691,75.1925131 L109.179068,69.0637369 C110.83248,68.9664581 112.171268,67.5689297 112.171268,65.9480188 L112.171268,64.9093626 C105.255886,67.2256588 101.028265,66.4737918 98.3064424,64.8118752 Z" fill="#FFFFFF" opacity="0.6"></path>
                    </g>
                </g>
                <g transform="translate(14.2868, 33.9257)" fill="#FFFFFF" fill-opacity="0.34" id="Path">
                    <path d="M94.2014168,2.70357403 L42.5263885,1.19583526 C41.6712206,1.17093154 40.9642576,1.84837946 40.9642576,2.69289504 L40.9642576,23.9691815 C40.9642576,24.7987632 41.6473861,25.4702459 42.4878054,25.4668383 L94.1627914,25.2566663 C94.9983086,25.2532874 95.6738726,24.5837235 95.6738726,23.758939 L95.6738726,4.2005921 C95.6738726,3.39074149 95.0215937,2.72747659 94.2014168,2.70357403 Z"></path>
                    <path d="M94.1429716,28.505685 L42.4679856,28.9633993 C41.6353844,28.9707411 40.9642999,29.6390952 40.9642999,30.4610848 L40.9642999,33.4509912 C40.9642999,34.2882484 41.659726,34.9629432 42.5077942,34.9484264 L94.1827803,34.0671184 C95.0103948,34.0530605 95.6738726,33.3867505 95.6738726,32.5696832 L95.6738726,30.0033486 C95.6738726,29.1709303 94.9862645,28.4982796 94.1429716,28.505685 Z"></path>
                    <path d="M94.1244619,36.6878073 L42.4493913,37.7685954 C41.6241433,37.7859487 40.9642576,38.4511742 40.9642576,39.2659889 L40.9642576,52.5491825 C40.9642576,53.4020827 41.6847015,54.0827844 42.5478564,54.0454497 L94.222927,51.8123744 C95.0342716,51.7772923 95.6738726,51.1177818 95.6738726,50.3161072 L95.6738726,38.1852426 C95.6738726,37.3456493 94.9748121,36.6699951 94.1244619,36.6878073 Z"></path>
                    <path d="M9.55255832,0.233850867 L1.5621309,0.000665283465 C0.706963017,-0.0242384363 0,0.653209484 0,1.49772507 L0,15.6702776 C0,16.4933518 0.672901675,17.1621648 1.50668614,17.1679214 L9.49711355,17.2231478 C10.3391387,17.2289501 11.0249718,16.5566748 11.0249718,15.7254663 L11.0249718,1.73095237 C11.0249718,0.9209349 10.3726506,0.257753432 9.55255832,0.233850867 Z"></path>
                    <path d="M23.3614743,0.636690434 L15.7700633,0.415226702 C14.9149799,0.390281267 14.2080169,1.0677709 14.2080169,1.91228649 L14.2080169,15.7684325 C14.2080169,16.5915067 14.8808341,17.2603196 15.7146185,17.2660763 L23.3060296,17.3185495 C24.1481392,17.3243518 24.8339301,16.65216 24.8339301,15.8208262 L24.8339301,2.13375022 C24.8339301,1.3238579 24.1816512,0.660634713 23.3614743,0.636690434 Z"></path>
                    <path d="M36.6786139,1.02526355 L29.4648781,0.814729086 C28.6097102,0.789741937 27.9027471,1.46727329 27.9027471,2.31178887 L27.9027471,15.8630416 C27.9027471,16.6861158 28.5756488,17.3549287 29.4094333,17.3607271 L36.6231269,17.4106135 C37.465152,17.4163746 38.1509851,16.744141 38.1509851,15.9128907 L38.1509851,2.52232334 C38.1509851,1.7123893 37.4987907,1.04920783 36.6786139,1.02526355 Z"></path>
                </g>
                <path d="M59.4977691,57.6062666 C59.2998246,57.6062666 59.1389418,57.4482928 59.1380933,57.2527756 C59.1372514,57.0566745 59.2976271,56.8970738 59.49629,56.8962395 L61.2230649,56.8891897 C61.223572,56.8891897 61.2240368,56.8891897 61.2245439,56.8891897 C61.4224885,56.8891897 61.5833713,57.0471635 61.5842198,57.2426807 C61.5850617,57.4387818 61.424686,57.5983825 61.226023,57.5992168 L59.4992482,57.6063083 C59.4987411,57.6062666 59.498234,57.6062666 59.4977691,57.6062666 Z M62.9513188,57.5922505 C62.7533742,57.5922505 62.5924914,57.4343183 62.5916429,57.2387595 C62.590801,57.0426583 62.7512612,56.8830576 62.9497551,56.8822233 L64.6764032,56.8751318 C64.6769526,56.8751318 64.6775442,56.8751318 64.6779245,56.8751318 C64.8758691,56.8751318 65.0367519,57.0331056 65.0376004,57.2286228 C65.0384423,57.4247239 64.8779821,57.5843246 64.6794881,57.5851589 L62.9528401,57.5922087 C62.9522907,57.5922505 62.9517414,57.5922505 62.9513188,57.5922505 Z M66.4046993,57.5781091 C66.2067548,57.5781091 66.045872,57.420177 66.0450235,57.224493 C66.0441816,57.0285587 66.2046418,56.8689163 66.4032625,56.868082 L68.1300373,56.8611569 C68.3256154,56.8608653 68.4902593,57.0188392 68.4911078,57.2147735 C68.4919496,57.4107495 68.3314895,57.5703502 68.1328687,57.5711845 L66.4060939,57.5781091 C66.4056713,57.5781091 66.4051219,57.5781091 66.4046993,57.5781091 Z M69.858249,57.564093 C69.6603044,57.564093 69.4994216,57.4061191 69.4986153,57.2104768 C69.4977735,57.0145008 69.6581914,56.8549001 69.8568544,56.8540658 L71.5835024,56.8471412 C71.583925,56.8471412 71.5844744,56.8471412 71.584897,56.8471412 C71.7828416,56.8471412 71.9437244,57.0050733 71.9445306,57.2007573 C71.9453725,57.3966916 71.7849123,57.556334 71.5862916,57.5571683 L69.8596435,57.564093 C69.8592209,57.564093 69.8586716,57.564093 69.858249,57.564093 Z M73.3116718,57.5500768 C73.1137272,57.5500768 72.9528867,57.392103 72.9520382,57.1965858 C72.9511963,57.0004847 73.1116565,56.840884 73.3101505,56.8400497 L75.0369253,56.8329582 C75.0374746,56.8329582 75.0380663,56.8329582 75.0384889,56.8329582 C75.2364335,56.8329582 75.3973162,56.990932 75.3981225,57.1864491 C75.3989644,57.3825503 75.2385042,57.542151 75.0400102,57.5429853 L73.3132354,57.5500768 C73.3126438,57.5500768 73.3120944,57.5500768 73.3116718,57.5500768 Z M76.7652214,57.5360607 C76.5672769,57.5360607 76.4063941,57.3781285 76.4055878,57.1825697 C76.4047459,56.9864685 76.5652061,56.8268678 76.7637001,56.8260335 L78.4903481,56.818942 C78.4908975,56.818942 78.4914891,56.818942 78.4919117,56.818942 C78.6898563,56.818942 78.8507391,56.9769158 78.8515876,57.172433 C78.8524295,57.3685341 78.6919693,57.5281348 78.4934753,57.5289691 L76.7668273,57.5360189 C76.7661934,57.5360607 76.765644,57.5360607 76.7652214,57.5360607 Z M80.218602,57.5220862 C80.0206574,57.5220862 79.8597747,57.3641541 79.8589261,57.1685952 C79.8580843,56.9724941 80.0185445,56.8128933 80.2170384,56.812059 L81.9438132,56.8049675 C81.9443626,56.8049675 81.944912,56.8049675 81.9453346,56.8049675 C82.1432791,56.8049675 82.3041619,56.9629414 82.3050104,57.1584585 C82.3058523,57.3545597 82.1453921,57.5141604 81.9468982,57.5149947 L80.2201234,57.5220445 C80.2196162,57.5220862 80.2190246,57.5220862 80.218602,57.5220862 Z M83.6721516,57.5079449 C83.4742071,57.5079449 83.3133243,57.3500128 83.3124758,57.1543288 C83.3116339,56.9583528 83.4720941,56.798752 83.6707571,56.7979177 L85.3973628,56.7909931 C85.3977854,56.7909931 85.3983348,56.7909931 85.3987574,56.7909931 C85.596702,56.7909931 85.7575848,56.9489252 85.7584333,57.1446092 C85.7592752,57.3405435 85.598815,57.500186 85.4001942,57.5010202 L83.6735462,57.5079449 C83.6731236,57.5079449 83.6725742,57.5079449 83.6721516,57.5079449 Z M87.1255745,57.4939287 C86.9276299,57.4939287 86.7667471,57.3359549 86.7659409,57.1403126 C86.765099,56.9443366 86.9255592,56.7847359 87.1241799,56.7839016 L88.8509547,56.7769769 C88.8513773,56.7769769 88.8519267,56.7769769 88.8523493,56.7769769 C89.0502939,56.7769769 89.2111344,56.9349091 89.2119829,57.1305931 C89.2128248,57.3265691 89.0523646,57.4861698 88.8537439,57.4870041 L87.1269691,57.4939287 C87.1265465,57.4939287 87.1259971,57.4939287 87.1255745,57.4939287 Z M90.5789551,57.4799126 C90.3810105,57.4799126 90.22017,57.3219387 90.2193214,57.1264216 C90.2184796,56.9303204 90.3789398,56.7707197 90.5774337,56.7698854 L92.3042085,56.7627939 C92.3047579,56.7627939 92.3053495,56.7627939 92.3057721,56.7627939 C92.5037167,56.7627939 92.6645995,56.920726 92.665448,57.1162849 C92.6662899,57.312386 92.5058297,57.4719868 92.3073357,57.4728211 L90.5805609,57.4799126 C90.5799693,57.4799126 90.5793777,57.4799126 90.5789551,57.4799126 Z M57.797618,57.4750737 C57.7304672,57.4750737 57.6625981,57.4566357 57.6020399,57.4177993 C57.2559327,57.1959184 57.0493672,56.8205271 57.0493672,56.4137664 L57.0493672,55.5475591 C57.0493672,55.351458 57.2103767,55.1925247 57.4090397,55.1925247 C57.6077027,55.1925247 57.7687123,55.351458 57.7687123,55.5475591 L57.7687123,56.4137664 C57.7687123,56.5792072 57.8528514,56.7318833 57.9939144,56.8223209 C58.16046,56.9291107 58.2078331,57.149031 58.0996482,57.3133872 C58.0306804,57.4180496 57.9153536,57.4750737 57.797618,57.4750737 Z M94.0325047,57.4658964 C93.8345601,57.4658964 93.6737196,57.3079643 93.6728711,57.1124054 C93.6720292,56.9163043 93.8324894,56.7567035 94.0309833,56.7558692 L95.7577582,56.7487777 C95.7583075,56.7487777 95.7588992,56.7487777 95.7593218,56.7487777 C95.9572663,56.7487777 96.1181491,56.9067516 96.1189554,57.1022687 C96.1197973,57.2983699 95.9593371,57.4579706 95.7608431,57.4588049 L94.0340683,57.4658964 C94.0335189,57.4658964 94.0329273,57.4658964 94.0325047,57.4658964 Z M97.4859275,57.4517551 C97.287983,57.4517551 97.1271002,57.293823 97.1262517,57.098139 C97.1254098,56.902163 97.28587,56.7425622 97.484533,56.7417279 L99.2113078,56.7348033 C99.4040544,56.7303815 99.5715297,56.8924851 99.5723782,57.0884194 C99.5732201,57.2843954 99.4127599,57.4439962 99.2141392,57.4448304 L97.4873644,57.4517551 C97.4868995,57.4517551 97.4863501,57.4517551 97.4859275,57.4517551 Z M100.939477,57.4377807 C100.741533,57.4377807 100.58065,57.2798068 100.579801,57.0841645 C100.578959,56.8881885 100.73942,56.7285878 100.938083,56.7277535 L102.664857,56.7208288 C102.66528,56.7208288 102.665829,56.7208288 102.666252,56.7208288 C102.864197,56.7208288 103.025079,56.8788027 103.025928,57.074445 C103.02677,57.2703793 102.86631,57.4300217 102.667689,57.430856 L100.940914,57.4377807 C100.940449,57.4377807 100.9399,57.4377807 100.939477,57.4377807 Z M104.392858,57.4237645 C104.194913,57.4237645 104.034073,57.2657906 104.033224,57.0702735 C104.032382,56.8741723 104.192842,56.7145716 104.391336,56.7137373 L106.118111,56.7066458 C106.118661,56.7066458 106.119252,56.7066458 106.119675,56.7066458 C106.317619,56.7066458 106.478502,56.8646197 106.479351,57.0601368 C106.480193,57.256238 106.319732,57.4158387 106.121238,57.416673 L104.394464,57.4237645 C104.393872,57.4237645 104.39328,57.4237645 104.392858,57.4237645 Z M107.68992,56.9896806 C107.629235,56.9896806 107.567704,56.9745798 107.511203,56.942668 C107.338953,56.8450554 107.279409,56.6281386 107.37817,56.4579841 C107.420725,56.3848998 107.443207,56.3011365 107.443207,56.2159967 L107.443207,54.949703 C107.443207,54.7536018 107.604217,54.5946686 107.802838,54.5946686 C108.001458,54.5946686 108.162468,54.7536018 108.162468,54.949703 L108.162468,56.2159967 C108.162468,56.4249877 108.106981,56.6307666 108.002177,56.8113499 C107.935618,56.9257735 107.814544,56.9896806 107.68992,56.9896806 Z M57.4089975,54.1980862 C57.2103345,54.1980862 57.0493249,54.0391529 57.0493249,53.8430518 L57.0493249,52.1386696 C57.0493249,51.9425684 57.2103345,51.7836351 57.4089975,51.7836351 C57.6076605,51.7836351 57.76867,51.9425684 57.76867,52.1386696 L57.76867,53.8430518 C57.76867,54.0391529 57.6076605,54.1980862 57.4089975,54.1980862 Z M107.80288,53.6002301 C107.604217,53.6002301 107.44325,53.4412968 107.44325,53.2451956 L107.44325,51.5408134 C107.44325,51.3447123 107.604259,51.185779 107.80288,51.185779 C108.001501,51.185779 108.16251,51.3447123 108.16251,51.5408134 L108.16251,53.2451956 C108.16251,53.4412968 108.001501,53.6002301 107.80288,53.6002301 Z M57.4089975,50.7891966 C57.2103345,50.7891966 57.0493249,50.6302633 57.0493249,50.4342039 L57.0493249,48.7296966 C57.0493249,48.5335954 57.2103345,48.3746621 57.4089975,48.3746621 C57.6076605,48.3746621 57.76867,48.5335954 57.76867,48.7296966 L57.76867,50.4342039 C57.76867,50.6302633 57.6076605,50.7891966 57.4089975,50.7891966 Z M107.80288,50.1913405 C107.604217,50.1913405 107.44325,50.0324072 107.44325,49.8363061 L107.44325,48.1317987 C107.44325,47.9356976 107.604259,47.7767643 107.80288,47.7767643 C108.001501,47.7767643 108.16251,47.9356976 108.16251,48.1317987 L108.16251,49.8363061 C108.16251,50.0324072 108.001501,50.1913405 107.80288,50.1913405 Z M57.4089975,47.3801819 C57.2103345,47.3801819 57.0493249,47.2212486 57.0493249,47.0251475 L57.0493249,45.3206401 C57.0493249,45.124539 57.2103345,44.9656474 57.4089975,44.9656474 C57.6076605,44.9656474 57.76867,45.1245807 57.76867,45.3206401 L57.76867,47.0251475 C57.76867,47.2212486 57.6076605,47.3801819 57.4089975,47.3801819 Z M107.80288,46.7823258 C107.604217,46.7823258 107.44325,46.6233925 107.44325,46.4273331 L107.44325,44.7228257 C107.44325,44.5267246 107.604259,44.3677913 107.80288,44.3677913 C108.001501,44.3677913 108.16251,44.5267246 108.16251,44.7228257 L108.16251,46.4273331 C108.16251,46.6234342 108.001501,46.7823258 107.80288,46.7823258 Z M57.4089975,43.9711672 C57.2103345,43.9711672 57.0493249,43.8122339 57.0493249,43.6161328 L57.0493249,41.9117506 C57.0493249,41.7156494 57.2103345,41.5567161 57.4089975,41.5567161 C57.6076605,41.5567161 57.76867,41.7156494 57.76867,41.9117506 L57.76867,43.6161328 C57.76867,43.8122339 57.6076605,43.9711672 57.4089975,43.9711672 Z M107.80288,43.3733528 C107.604217,43.3733528 107.44325,43.2144195 107.44325,43.0183184 L107.44325,41.3139361 C107.44325,41.117835 107.604259,40.9589017 107.80288,40.9589017 C108.001501,40.9589017 108.16251,41.117835 108.16251,41.3139361 L108.16251,43.0183184 C108.16251,43.2144195 108.001501,43.3733528 107.80288,43.3733528 Z M57.4089975,40.5623194 C57.2103345,40.5623194 57.0493249,40.4033861 57.0493249,40.2072849 L57.0493249,38.5027776 C57.0493249,38.3066764 57.2103345,38.1477431 57.4089975,38.1477431 C57.6076605,38.1477431 57.76867,38.3066764 57.76867,38.5027776 L57.76867,40.2072849 C57.76867,40.4033861 57.6076605,40.5623194 57.4089975,40.5623194 Z M107.80288,39.9644632 C107.604217,39.9644632 107.44325,39.8055299 107.44325,39.6094288 L107.44325,39.5582448 C107.44325,39.2929388 107.232669,39.0788169 106.963897,39.0710579 L106.605112,39.0605041 C106.406576,39.054664 106.250384,38.891017 106.256258,38.6950827 C106.262006,38.5027359 106.421874,38.3506021 106.615635,38.3506021 C106.619143,38.3506021 106.622777,38.3506021 106.626453,38.3507272 L106.985281,38.3612811 C107.645462,38.3805533 108.162595,38.9062846 108.162595,39.558203 L108.162595,39.6093871 C108.16251,39.8055299 108.001501,39.9644632 107.80288,39.9644632 Z M104.88979,39.0103629 C104.886282,39.0103629 104.882606,39.0103629 104.878971,39.0102378 L103.153042,38.9598881 C102.954506,38.954048 102.798314,38.7905678 102.80423,38.5944666 C102.810104,38.3986575 102.971959,38.24473 103.174425,38.2501112 L104.900355,38.3004609 C105.098891,38.306301 105.255083,38.4697812 105.249209,38.6658823 C105.243419,38.8582292 105.083509,39.0103629 104.88979,39.0103629 Z M101.437804,38.9096635 C101.434296,38.9096635 101.430662,38.9096635 101.426985,38.9095383 L99.7010558,38.8591886 C99.5025196,38.8533485 99.3463276,38.6898683 99.3522017,38.4937672 C99.357949,38.3014204 99.5178176,38.1492866 99.7115785,38.1492866 C99.715086,38.1492866 99.7187203,38.1492866 99.7223969,38.1494117 L101.448327,38.1997615 C101.646821,38.2056015 101.803055,38.3690817 101.797181,38.5651829 C101.791391,38.7575297 101.631522,38.9096635 101.437804,38.9096635 Z M97.9857756,38.808964 C97.9822681,38.808964 97.9786337,38.808964 97.9749571,38.8088389 L96.2490275,38.7584891 C96.0504913,38.7526491 95.8942993,38.5891689 95.9001734,38.3930677 C95.9060898,38.1972586 96.0681981,38.0420796 96.2703687,38.0487123 L97.9962983,38.099062 C98.1948345,38.1049021 98.3510265,38.2683823 98.3451524,38.4644834 C98.339405,38.6568302 98.1795365,38.808964 97.9857756,38.808964 Z M94.5337896,38.7081811 C94.530282,38.7081811 94.5266477,38.7081811 94.5229711,38.708056 L92.7970415,38.6577062 C92.5985053,38.6518662 92.4423133,38.488386 92.4481874,38.2922848 C92.4541038,38.0964757 92.6124087,37.9408796 92.8183827,37.9479294 L94.5443123,37.9982791 C94.7428485,38.0041192 94.8990404,38.1675994 94.8931663,38.3637005 C94.887419,38.5560473 94.7275505,38.7081811 94.5337896,38.7081811 Z M91.0818036,38.6074816 C91.078296,38.6074816 91.0746194,38.6074816 91.0709851,38.6073565 L89.3450555,38.5570068 C89.1465193,38.5511667 88.9903273,38.3876865 88.9962014,38.1915854 C89.0021178,37.9957762 89.1645219,37.8395961 89.3663966,37.8472299 L91.0923263,37.8975796 C91.2908625,37.9034197 91.4470544,38.0668999 91.4411803,38.263001 C91.4353907,38.4553479 91.2755222,38.6074816 91.0818036,38.6074816 Z M87.6297753,38.5068239 C87.6262678,38.5068239 87.6225912,38.5068239 87.6189568,38.5066988 L85.8930272,38.456349 C85.694491,38.450509 85.538299,38.2870288 85.5441731,38.0909276 C85.5499205,37.8985808 85.7098313,37.746447 85.9035499,37.746447 C85.9070574,37.746447 85.910734,37.746447 85.9143684,37.7465722 L87.640298,37.7969219 C87.8388342,37.802762 87.9950262,37.9662422 87.9891521,38.1623433 C87.9834047,38.3546484 87.8235362,38.5068239 87.6297753,38.5068239 Z M84.1777893,38.4059993 C84.1742817,38.4059993 84.1706474,38.4059993 84.1669708,38.4058741 L82.4410412,38.3555244 C82.242505,38.3496843 82.086313,38.1862042 82.0921871,37.990103 C82.0979345,37.7977562 82.257803,37.6456224 82.4515639,37.6456224 C82.4550714,37.6456224 82.458748,37.6456224 82.4623824,37.6457475 L84.188312,37.6960973 C84.3868059,37.7019373 84.5430401,37.8654175 84.5371238,38.0615187 C84.5314187,38.2538655 84.3715079,38.4059993 84.1777893,38.4059993 Z M80.7258033,38.3052998 C80.7222957,38.3052998 80.7186191,38.3052998 80.7149848,38.3051747 L78.9890552,38.254825 C78.790519,38.2489849 78.634327,38.0855047 78.6402011,37.8894035 C78.6459484,37.6970567 78.805817,37.5449229 78.9995779,37.5449229 C79.0030854,37.5449229 79.006762,37.5449229 79.0103963,37.5450481 L80.736326,37.5953978 C80.9348622,37.6012379 81.0910541,37.7647181 81.08518,37.9608192 C81.0793904,38.1531661 80.9195219,38.3052998 80.7258033,38.3052998 Z M77.273775,38.2046421 C77.2702675,38.2046421 77.2665909,38.2046421 77.2629565,38.2045169 L75.5370269,38.1541672 C75.338533,38.1483271 75.1822987,37.9848469 75.1882151,37.7887458 C75.1939624,37.596399 75.353831,37.4442652 75.5475918,37.4442652 C75.5510994,37.4442652 75.5547337,37.4442652 75.5584103,37.4443903 L77.28434,37.4947401 C77.4828762,37.5005801 77.6390681,37.6640603 77.633194,37.8601615 C77.6274044,38.0524666 77.4675359,38.2046421 77.273775,38.2046421 Z M73.821789,38.1038175 C73.8182814,38.1038175 73.8146049,38.1038175 73.8109705,38.1036923 L72.0850409,38.0533426 C71.8865047,38.0475025 71.7303127,37.8840223 71.7361868,37.6879212 C71.7419342,37.4955744 71.901845,37.3434406 72.0955636,37.3434406 C72.0990711,37.3434406 72.1027055,37.3434406 72.1063821,37.3435657 L73.8323117,37.3939155 C74.0308479,37.3997555 74.1870398,37.5632357 74.1811657,37.7593369 C74.1753762,37.9516837 74.0155076,38.1038175 73.821789,38.1038175 Z M70.3697607,38.003118 C70.3662532,38.003118 70.3626188,38.003118 70.3589422,38.0029929 L68.6330126,37.9526431 C68.4344764,37.9468031 68.2782845,37.7833229 68.2841586,37.5872217 C68.2900749,37.3914126 68.4493941,37.2399879 68.6543538,37.2428663 L70.3802834,37.293216 C70.5788196,37.2990561 70.7350538,37.4625363 70.7291375,37.6586374 C70.7233901,37.8509842 70.5635216,38.003118 70.3697607,38.003118 Z M66.9177747,37.9024603 C66.9142672,37.9024603 66.9105906,37.9024603 66.9069562,37.9023351 L65.1810266,37.8519854 C64.9825327,37.8461453 64.8262984,37.6826651 64.8321725,37.486564 C64.8380889,37.2907548 64.9975349,37.1387462 65.2023678,37.1422085 L66.9282974,37.1925582 C67.1267913,37.1983983 67.2830256,37.3618785 67.2771515,37.5579797 C67.2714041,37.7503265 67.1115356,37.9024603 66.9177747,37.9024603 Z M63.4657887,37.8016357 C63.4622811,37.8016357 63.4586046,37.8016357 63.4549702,37.8015105 L61.7290406,37.7511608 C61.5305044,37.7453207 61.3743547,37.5818405 61.3801865,37.3857394 C61.3861029,37.1899302 61.5456756,37.0375044 61.7503818,37.0413839 L63.4763114,37.0917336 C63.6748476,37.0975737 63.8310395,37.2610539 63.8251654,37.4571551 C63.8193759,37.6495019 63.6595073,37.8016357 63.4657887,37.8016357 Z M60.0139295,37.7009362 C60.0103374,37.7009362 60.0067031,37.7009362 60.003111,37.700811 L58.2770968,37.6504613 C58.0806314,37.6447881 57.9203825,37.4841862 57.9233406,37.2901708 C57.9262143,37.0961554 58.0816033,36.9402673 58.2781533,36.9402673 C58.2833513,36.9402673 58.2978886,36.9406844 58.3031711,36.9408096 L60.0243254,36.9909925 C60.2229038,36.9968325 60.3790535,37.1603127 60.3732217,37.3564139 C60.3674744,37.5488024 60.2075636,37.7009362 60.0139295,37.7009362 Z" id="Shape" fill="#FFFFFF"></path>
                <g transform="translate(11.9088, 54.8596)" id="Path">
                    <path d="M23.0890857,58.2314012 C23.0890857,58.2314012 26.7044901,59.8533968 26.7635692,60.1123204 C26.8226483,60.371244 24.4384811,60.0255536 23.4651973,60.0628467 C22.4919557,60.1002231 21.6913029,59.8162706 21.7793722,59.409343 C21.8675682,59.0023737 22.2082239,57.9789017 22.2082239,57.9789017 L23.0890857,58.2314012 Z" fill="url(#linearGradient-7)"></path>
                    <path d="M23.2213587,56.9150916 L23.001439,58.5219029 C23.001439,58.5219029 22.4290733,58.7230098 22.044552,58.4852356 L21.8804997,56.7229533 L23.2213587,56.9150916 Z" fill="url(#linearGradient-8)"></path>
                    <path d="M6.19504039,56.953636 L5.77451382,57.6199878 C5.65690499,57.8063694 5.62182941,58.0307115 5.67820389,58.2431231 C5.82526775,58.7972621 6.11897287,59.8772159 6.24706211,60.1587906 C6.42142576,60.5423997 8.76113569,60.7702458 8.76113569,60.7702458 C8.76113569,60.7702458 8.96977197,60.4804533 8.48399638,60.1303829 C7.99826305,59.7803542 7.68600591,59.7253324 7.51455818,59.2087367 C7.34315272,58.6922243 7.22875563,57.2311227 7.22875563,57.2311227 L6.19504039,56.953636 Z" fill="url(#linearGradient-9)"></path>
                    <path d="M7.94543839,55.2601414 C7.79182427,55.3810308 7.04036176,57.6324188 7.04036176,57.6324188 C7.04036176,57.6324188 6.79715701,57.9394395 6.33504687,57.4863337 C5.87306351,57.0332278 6.12594573,57.2830993 6.12594573,57.2830993 L6.21262043,55.068754 L7.94543839,55.2601414 Z" fill="url(#linearGradient-10)"></path>
                    <path d="M25.2106087,24.6332799 C25.4013691,29.4263491 25.4091449,34.6338128 25.1297235,40.1969367 C24.8151844,46.4614528 24.1830211,52.2514633 23.3863829,57.5000996 C23.0902267,57.5094437 22.7789838,57.5109454 22.453922,57.5019767 C22.2344249,57.4959698 22.0216895,57.4853742 21.8160959,57.4713998 C21.4027112,56.3830613 20.9140197,54.9518692 20.4764624,53.2423978 C20.016423,51.4448248 19.7388611,49.8324236 19.5411279,48.2905622 C18.8448988,42.8617181 19.6608497,42.3881303 19.0957948,38.3648238 C18.5953974,34.8016313 17.8837858,34.6625126 17.0483532,29.6035117 C16.1419665,24.1143898 16.8166853,23.2908568 17.1448744,22.9933887 C18.5417275,21.7268865 21.8229842,22.5890891 25.2106087,24.6332799 Z" fill="url(#linearGradient-11)"></path>
                    <path d="M17.1448744,22.9933887 C18.4771969,21.7854123 21.5241234,22.516714 24.7422863,24.3603401 C21.0400805,28.3086434 20.6365,30.8700139 21.080354,32.5318888 C21.5819347,34.4101799 23.1069616,34.9511788 23.1011297,37.0050057 C23.0939456,39.528958 20.7863108,40.1975624 20.8353743,42.8683508 C20.8678298,44.6344291 21.881852,44.6161164 22.1213379,46.7974653 C22.4046894,49.3784 21.0798891,50.2677173 21.5089944,52.1773362 C21.6935849,52.9988252 22.2204792,54.0723132 23.72108,55.1781301 C23.6128528,55.9622844 23.5019633,56.7385129 23.3863407,57.500183 C23.0903112,57.5094019 22.7790261,57.5110288 22.4539642,57.501935 C22.2344672,57.4959698 22.0216472,57.4854159 21.8162227,57.4713998 C21.4027535,56.3830613 20.9140619,54.9519109 20.4765047,53.2424395 C20.0164653,51.4448248 19.7389034,49.8324653 19.5411701,48.2905622 C18.8449833,42.8617598 19.6608919,42.3881303 19.0958371,38.3648238 C18.5954396,34.8016313 17.883828,34.6624291 17.0484377,29.60347 C16.1419665,24.1142647 16.8166853,23.290815 17.1448744,22.9933887 Z" fill="url(#linearGradient-12)" opacity="0.3"></path>
                    <path d="M22.9173844,24.5528121 C19.7296908,29.156955 16.2913124,34.8870632 13.2164522,41.7457645 C10.8927587,46.9288668 9.20744069,51.795354 7.97007581,56.1324807 C7.80264276,56.2089856 7.40768333,56.36162 6.90297538,56.295794 C6.21456438,56.2058987 5.8020249,55.7721902 5.69417807,55.6510922 C5.19056887,52.5420067 5.24609816,49.9088034 5.41699651,48.0084034 C5.5264492,46.7916669 5.72012555,44.7653718 6.50581844,42.2639454 C7.38587731,39.4619641 7.9908676,39.3044908 9.13902219,36.3400722 C10.330662,33.2631488 10.0420281,32.4953049 11.1832098,28.6446976 C11.6520393,27.0628734 12.4368447,24.7089088 13.7318096,21.8931198 C16.7936961,22.7796422 19.8555825,23.666248 22.9173844,24.5528121 Z" fill="url(#linearGradient-13)"></path>
                    <path d="M37.6347579,30.396009 C37.021696,31.3370942 34.9117522,31.2270507 33.4706531,30.7184224 C30.1012426,29.529176 27.9449399,25.2992979 27.7551515,21.9332912 C27.7143709,21.2105827 27.7401916,20.5040596 27.5918599,20.4825765 C27.218622,20.428389 26.2600868,24.7982201 25.5076946,28.5029925 C24.9027888,28.7214945 23.9857949,28.9535955 22.9377959,28.7840667 C21.2226848,28.5067469 21.0184857,27.4549506 19.1002321,26.769118 C17.9810254,26.3689899 16.8844277,26.3680722 14.6911477,26.366195 C12.2152769,26.3640675 12.1470697,26.6654568 11.6701687,26.4468296 C11.6701687,26.4468296 11.5522218,26.3829643 11.4507139,26.3110063 C9.68751122,25.0615655 14.7316748,15.5643213 13.2793769,6.80159083 C13.1179448,5.8276343 12.8704718,4.82760604 13.4215387,3.85273179 C14.845607,1.33345148 20.4738001,0.97825018 23.9606504,2.63616213 C24.9163542,3.09060288 26.5169837,4.08479107 27.9464613,5.13258275 C28.5178128,5.55135736 29.1119846,6.02010627 29.7318504,6.55455594 C31.2351557,7.85063395 32.2817179,8.75284107 33.1439854,10.0051603 C36.6209892,15.0549422 32.6025538,19.263504 35.7567777,25.7214515 C36.8413737,27.9419706 38.2767677,29.4105392 37.6347579,30.396009 Z" fill="url(#linearGradient-14)"></path>
                    <path d="M28.2860605,1.72611264 C28.2860605,1.72611264 27.3808148,2.74069936 26.4079113,3.26647236 C25.5286131,3.74160363 23.5903706,2.94122227 23.1418681,2.8472806 C22.6934501,2.7532555 23.2315433,3.94529687 24.0776676,4.76682762 C24.9237074,5.58835836 27.7203295,7.46727519 28.4746234,7.49868641 C29.228875,7.53018106 28.3531689,6.87813744 27.8900023,6.11888685 C27.4267934,5.35963626 28.0795372,3.78990934 28.6641583,3.30626825 C29.2488216,2.82254374 28.2860605,1.72611264 28.2860605,1.72611264 Z" fill="url(#linearGradient-15)"></path>
                    <path d="M36.2790657,30.3620949 C36.2790657,30.3620949 37.579778,30.9753437 38.5002794,31.1038252 C39.4207808,31.2322233 39.6208806,31.9580604 39.3653361,32.2247846 C39.1098337,32.4914672 37.6449002,32.199422 37.1550254,31.9273583 C36.6651929,31.655378 36.2790657,30.3620949 36.2790657,30.3620949 Z" fill="url(#linearGradient-16)"></path>
                    <g transform="translate(27.4294, 0)">
                        <path d="M2.93667219,2.51977792 C3.96383718,2.44281416 5.00165162,1.19408242 4.7920011,0.649037188 C4.73203454,0.493232509 4.59862058,0.468537364 2.58786038,0.14157697 C1.58930523,-0.0207352137 1.09017556,-0.087687425 0.745124871,0.184668331 C0.534460119,0.350901703 0.370027511,0.647368597 0.318132563,0.927399871 C0.291466674,1.07152441 0.290072103,1.26996159 0.315089863,1.66525078 C0.33736074,2.01607203 0.330768222,2.00072099 0.340023103,2.10434049 C0.362209461,2.35321083 0.430966041,2.79104909 0.676748629,3.39799904 C0.779143953,3.28716289 0.914755426,3.1547602 1.08594959,3.02427639 C1.15179025,2.97409351 1.41236374,2.77970267 1.70864671,2.66190015 C2.2185526,2.45916635 2.60328518,2.54480678 2.93667219,2.51977792 Z" fill="url(#linearGradient-17)"></path>
                        <path d="M0.30143997,2.72159399 C0.30143997,2.72159399 0.347164997,3.69171276 1.27320245,4.11766231 C2.10242287,4.49897706 3.20295075,2.79004793 2.90020204,2.13750373 C2.79924355,1.91979433 2.48639477,1.68302128 2.16589698,1.60964499 C1.97657339,1.56630334 1.88372877,1.60367978 1.57582438,1.52692459 C1.29188125,1.45617634 1.23669005,1.39093443 1.12702605,1.41279297 C0.989850965,1.44003272 0.815022464,1.59408538 0.68431312,2.19703071 C0.616274956,1.96171768 0.465365461,1.80403583 0.301947087,1.79435801 C0.275872834,1.79281456 0.200396956,1.7999895 0.138486453,1.8392431 C-0.0857859324,1.98119848 -0.0419625928,2.34090497 0.30143997,2.72159399 Z" fill="url(#linearGradient-18)"></path>
                    </g>
                    <g transform="translate(3.3604, 16.5953)">
                        <path d="M63.894894,0 L0.863070458,0.756135462 C0.386592006,0.761850386 0,1.12385119 0,1.56469291 L0,14.9364052 C0,15.377247 0.386592006,15.7242722 0.863070458,15.7115492 L63.894894,14.0231437 C64.3134766,14.0119224 64.6524842,13.6682761 64.6524842,13.2556336 L64.6524842,0.738281539 C64.6524842,0.325597286 64.3134766,-0.00490886397 63.894894,0 Z" fill="url(#linearGradient-19)"></path>
                        <path d="M62.5795177,1.37674523 L2.35500795,2.18545046 C1.92023985,2.19133224 1.56754015,2.52258926 1.56754015,2.92530368 L1.56754015,13.5148492 C1.56754015,13.9176053 1.92023985,14.2352633 2.35500795,14.2242089 L62.5795177,12.6972814 C62.9636586,12.6875618 63.274817,12.3731158 63.274817,11.994888 L63.274817,2.05217176 C63.274817,1.67406905 62.9636163,1.37167866 62.5795177,1.37674523 Z" fill="#FFFFFF" opacity="0.48"></path>
                    </g>
                    <path d="M5.57416044,22.2995886 C4.18580154,21.6278139 1.18848796,19.9074966 0.266972297,16.7383836 C-1.26726719,11.4626328 4.18918232,6.43032935 7.0062159,4.54740791 C10.2360003,2.38850152 13.481463,2.03989116 15.4537668,1.82802183 C17.9006897,1.56517704 19.394233,1.40478374 20.5159753,2.3116212 C23.4171057,4.65690919 21.6732157,12.3955837 18.8013713,13.192169 C17.8611768,13.452928 17.5053922,12.7741035 15.5353703,12.3055632 C14.8938254,12.153054 10.1054177,11.0143658 7.61543216,13.514499 C5.87268317,15.2643503 5.65010117,18.4006339 6.88057772,21.3324316 C6.44509121,21.6548033 6.00960469,21.9771751 5.57416044,22.2995886 Z" fill="url(#linearGradient-20)"></path>
                    <path d="M5.85438471,22.0921827 L6.58945044,21.5479718 C6.58945044,21.5479718 7.05063087,21.8631686 7.61424889,21.8200356 C7.92143486,21.7965501 8.32911447,21.9786768 8.42098712,22.0749963 C8.51285978,22.1712739 8.94103536,22.4027075 8.3281425,22.3423045 C7.71537642,22.2818181 7.61699577,22.4504292 7.70236042,22.7526527 C7.78772508,23.054918 8.29911006,23.9011439 8.55883836,24.082478 C8.81856666,24.2638538 8.07348537,24.3847015 7.76731363,24.2739488 C7.46114189,24.1630709 6.97122484,23.9615886 6.61404561,23.3067501 C6.48375886,23.067933 5.85438471,22.0921827 5.85438471,22.0921827 Z" fill="url(#linearGradient-21)"></path>
                </g>
                <g transform="translate(57.1546, 33.8008)">
                    <path d="M16.9315434,18.0025497 C17.7006282,18.4973287 18.6674886,18.1873879 19.0907198,17.3098759 C19.51412,16.4320302 19.2330083,15.3193721 18.4630783,14.8252189 C18.4232273,14.799606 18.382489,14.7774554 18.3417083,14.7561392 C18.4847152,14.2626117 18.5925198,13.7621179 18.6648262,13.2583285 C18.7089454,13.261916 18.7532336,13.2648778 18.7982402,13.264252 C19.6769045,13.252697 20.3746126,12.426244 20.3561874,11.4182482 C20.3378044,10.4102941 19.6101764,9.60344696 18.7315966,9.61616996 C18.6857025,9.6168374 18.6405691,9.62100888 18.5957738,9.62601465 C18.5040702,9.11997273 18.3783475,8.62264921 18.2198313,8.13834069 C18.2602316,8.11577299 18.3004206,8.09232929 18.3396799,8.06538155 C19.0911424,7.55028753 19.3314735,6.43057958 18.8762516,5.56495632 C18.4211989,4.69966677 17.4436045,4.41659032 16.6930718,4.93222663 C16.6545731,4.9586738 16.6184411,4.98766557 16.5826893,5.0171162 C16.2863641,4.63342371 15.9614291,4.27384236 15.6099549,3.94129219 C15.6346346,3.89882655 15.6588494,3.85573519 15.6807822,3.81022437 C16.1031259,2.93146096 16.6553338,1.97848696 15.8807552,1.50114481 C14.0906331,0.397830763 13.3231541,1.15712307 12.9015288,2.03534419 C12.8796805,2.0808133 12.860875,2.12728355 12.8427878,2.17392067 C12.4127528,2.00722844 11.9771817,1.88079096 11.5393287,1.79515053 C11.5420756,1.74467565 11.5441886,1.69407563 11.5432588,1.64255789 C11.5249181,0.637815855 11.795803,0.116589761 10.9187023,0.0275287198 C9.00797088,-0.166444977 8.36384808,0.693588507 8.38210429,1.69720424 C8.38307626,1.74968142 8.38704868,1.80119917 8.39173951,1.85242491 C7.95439356,1.95425067 7.52503471,2.09487117 7.10721277,2.2731184 C7.08739295,2.226815 7.0667702,2.18076189 7.04318927,2.13570994 C6.59189762,1.27455016 5.62245942,0.993851446 4.87805429,1.50831975 C4.13407175,2.02249604 3.89631851,3.1365725 4.34672271,3.99718999 C4.36979652,4.04132422 4.3951101,4.08287213 4.42076175,4.12391947 C4.09134716,4.4600154 3.78293565,4.82889914 3.49802056,5.22831809 C3.46117007,5.1998269 3.42377021,5.17183629 3.38434189,5.14651542 C2.6229906,4.65782685 1.66703325,4.97056251 1.24891549,5.84461216 C0.830924503,6.7183698 1.10840189,7.82301871 1.8689925,8.31233301 C1.90837857,8.33769559 1.94860983,8.35959584 1.98901013,8.38070352 C1.84765134,8.8716864 1.7410723,9.36942708 1.6696111,9.87025465 C1.62599906,9.86679232 1.58226024,9.86387229 1.53784526,9.86449801 C0.670295271,9.87705416 -0.0178199067,10.698418 0.000351777039,11.6991972 C0.0185234608,12.6999763 0.736135929,13.5019845 1.60368592,13.4905547 C1.64898835,13.4899707 1.6935301,13.4858826 1.7378183,13.4809603 C1.82846542,13.9842073 1.95270903,14.4788194 2.10945036,14.9607919 C2.06951492,14.9831093 2.02979077,15.0063444 1.99099634,15.0330001 C1.24857741,15.5430884 1.01124677,16.6549123 1.46076351,17.5168229 C1.9104493,18.3790256 3.40014702,18.8911578 4.14370697,18.3815702 C4.18182524,18.355415 3.69461282,18.1009549 3.73002647,18.0717962 C4.02373159,18.455155 4.34591977,18.8148615 4.69464706,19.147954 C4.67017868,19.1901276 4.64609063,19.2328853 4.62441139,19.2781041 C4.20540617,20.150944 4.48360197,21.2581792 5.24596749,21.751665 C6.00875561,22.2454428 6.96762888,21.9380049 7.38747929,21.0646227 C7.40924305,21.0193204 7.42796411,20.9731422 7.44600902,20.9267136 C7.87452268,21.0959505 8.30882592,21.2250994 8.745707,21.3137016 C8.74296012,21.364093 8.74084713,21.4146513 8.74177685,21.4661274 C8.76003305,22.4699934 9.48208279,23.2769657 10.3549998,23.2686047 C11.2284239,23.2600295 11.9220328,22.438457 11.9037343,21.4334647 C11.9027624,21.3809458 11.8987899,21.3293029 11.8940146,21.277952 C12.3325861,21.1789629 12.7634663,21.0410121 13.1828941,20.8651843 C13.2028407,20.9116963 13.223548,20.9579997 13.2471711,21.0033019 C13.700618,21.8695926 14.6755923,22.1583006 15.4251108,21.6475032 C16.175052,21.1364555 16.414876,20.0190419 15.9605839,19.1521672 C15.9372987,19.1077826 15.9118161,19.0659844 15.8859532,19.0246034 C16.2181569,18.6887995 16.5292308,18.3197906 16.8168082,17.9199128 C16.8539968,17.9486542 16.8917347,17.9769369 16.9315434,18.0025497 Z M7.37881605,17.3112108 C4.60852173,15.5237327 3.59876775,11.5064749 5.11999124,8.33223095 C6.6428206,5.15456637 10.129037,4.01621192 12.9100653,5.79597273 C15.6965873,7.57915415 16.7150046,11.6121802 15.1813567,14.7976454 C13.6492725,17.97969 10.1544351,19.1022346 7.37881605,17.3112108 Z" id="Shape" fill="url(#linearGradient-22)"></path>
                    <path d="M18.7982402,13.264252 C19.6769045,13.2526553 20.3746126,12.4261605 20.3561874,11.4182065 C20.3378044,10.4102524 19.6101764,9.60340524 18.7315966,9.61616996 C18.6857025,9.6168374 18.6405691,9.62105059 18.5957738,9.62601465 C18.5041125,9.11997273 18.3783475,8.62269092 18.2198313,8.13834069 C18.2602316,8.11577299 18.3004206,8.09232929 18.3396799,8.06538155 C19.0911424,7.55028753 20.0213213,6.23164182 19.4908349,5.41532542 C18.4844194,3.8667896 17.4436045,4.41663203 16.6930718,4.93226835 C16.6545731,4.95871551 16.6184411,4.98766557 16.5826893,5.0171162 C16.2863641,4.63342371 15.9614291,4.27388408 15.6099126,3.94129219 C15.6345923,3.89882655 15.6588071,3.85573519 15.6807399,3.81022437 C15.9105906,3.33200621 15.9308753,2.78570954 15.7790783,2.30765823 C15.0549579,3.64803733 14.3408952,4.99438164 13.6400598,6.34873519 C15.8637246,8.32151026 16.5724202,11.908355 15.1813567,14.7976454 C14.0036626,17.2437997 11.6654317,18.4711735 9.38606868,18.0948645 C9.28447629,18.3758969 9.18474333,18.6586814 9.07596679,18.9362098 C8.78082484,19.6894117 8.4455784,20.4228826 8.11003615,21.155102 C8.32108124,21.2173822 8.53305604,21.2704851 8.74566474,21.3136181 C8.74291786,21.3640096 8.74080487,21.4145679 8.74173459,21.4660022 C8.75999079,22.46991 9.31317065,23.3704068 10.8953749,23.4180033 C11.7714191,23.4443253 11.9219905,22.4384153 11.9036921,21.4333813 C11.9027201,21.3808624 11.8987477,21.3292612 11.8940146,21.2779103 C12.3325438,21.1789211 12.763424,21.0409704 13.1828518,20.8651009 C13.2027984,20.9116546 13.2235057,20.9579163 13.2472134,21.0031768 C13.700618,21.8695509 15.2746239,22.3591155 16.0245228,21.8482764 C16.7748021,21.337187 16.414876,20.0190002 15.9605839,19.1520837 C15.9372987,19.1076992 15.9118161,19.0658593 15.8859532,19.0244782 C16.2181569,18.688716 16.5292308,18.3196654 16.8168082,17.9197876 C16.8539968,17.9486125 16.8917347,17.9768951 16.9315434,18.0024246 C17.7006282,18.4972452 18.6674886,18.1873045 19.090762,17.3097091 C19.51412,16.4319051 19.2330083,15.3192469 18.4631205,14.825052 C18.4232273,14.7994391 18.382489,14.7773303 18.3417083,14.7560141 C18.4847152,14.2624866 18.5925198,13.761951 18.6648262,13.2582451 C18.7089454,13.2618743 18.7532758,13.2647943 18.7982402,13.264252 Z" id="Path" fill="url(#linearGradient-23)"></path>
                    <path d="M17.7587354,18.1771678 C18.5282428,18.6721136 19.4956948,18.3621728 19.9192218,17.4843688 C20.3428333,16.6062728 20.0615948,15.4933227 19.2911999,14.9989192 C19.2513067,14.973348 19.2106106,14.9511975 19.1697455,14.9298812 C19.3127946,14.4361869 19.420726,13.9355262 19.4930747,13.4316117 C19.5372361,13.4352409 19.5815243,13.4381609 19.6265309,13.4375769 C20.5057023,13.4260636 21.2037908,12.5993603 21.1854078,11.5910725 C21.1669825,10.5828264 20.4389742,9.77572897 19.559845,9.78836855 C19.5139087,9.78903598 19.4687753,9.79324918 19.4239377,9.79825495 C19.3321496,9.29204617 19.2064269,8.79455579 19.0477416,8.31008041 C19.0881842,8.287471 19.1283732,8.2640273 19.1676325,8.23712127 C19.9195176,7.7219021 20.1599754,6.60186044 19.7045001,5.73598689 C19.2491938,4.87040534 18.2710501,4.58720374 17.5200101,5.1029652 C17.4815538,5.12937065 17.4453372,5.15836242 17.4095855,5.18785476 C17.1130912,4.80403713 16.7879871,4.44437236 16.4362594,4.11165532 C16.4609813,4.0692314 16.4851961,4.02609832 16.5070867,3.98058751 C16.9297262,3.1015738 16.6491216,1.99125168 15.8805862,1.50114481 C15.1124733,1.01124651 14.1480641,1.32661019 13.7262274,2.20508161 C13.7043792,2.25059242 13.6855736,2.29706268 13.6674442,2.34361637 C13.2371556,2.17688242 12.8013733,2.05044494 12.3632244,1.96467937 C12.365929,1.91420449 12.368042,1.86356276 12.3671545,1.81208673 C12.3488138,0.80705269 11.6253272,0.00496102736 10.7516073,0.0203385647 C9.87847905,0.0361636779 9.18588435,0.862658483 9.20414055,1.86652451 C9.20507026,1.91900169 9.20904268,1.97056115 9.21377577,2.02182861 C8.77621853,2.12365437 8.34656386,2.26427487 7.92853061,2.44256381 C7.90866854,2.39626041 7.88800353,2.35012387 7.86446486,2.30511363 C7.41291965,1.44366185 6.44288982,1.16283799 5.69806208,1.67738972 C4.95365694,2.19164945 4.71577693,3.30605962 5.16647694,4.16701083 C5.18959301,4.21110334 5.21486433,4.25269297 5.24055825,4.29374031 C4.91097462,4.62987795 4.60235181,4.99888684 4.31722542,5.39843094 C4.28037493,5.36989803 4.24297507,5.34190742 4.20350448,5.31658655 C3.44168834,4.82768941 2.48518162,5.14046678 2.0668103,6.014725 C1.64856575,6.88873293 1.92625443,7.99367385 2.68722539,8.483155 C2.72665371,8.50851759 2.76692724,8.53041784 2.80728528,8.55156723 C2.66588422,9.04267526 2.55922066,9.54058279 2.48775946,10.0415772 C2.44410516,10.0380732 2.40032408,10.0351531 2.35590911,10.0357789 C1.48789426,10.048335 0.799356485,10.8698658 0.817528168,11.8709369 C0.835699852,12.8719663 1.55373492,13.6742665 2.4217075,13.6629201 C2.46709445,13.6622944 2.51167847,13.6582481 2.55596667,13.6533257 C2.6466983,14.1566562 2.77098417,14.6514768 2.92781003,15.1335745 C2.88783232,15.1559336 2.84810818,15.179127 2.80927148,15.2057827 C2.06642996,15.7159544 1.82897254,16.8281537 2.2787851,17.6903146 C2.72868218,18.5528093 3.69617643,18.8391812 4.43990541,18.3295518 C4.47802369,18.3034384 4.5139022,18.2747803 4.54931585,18.2455383 C4.84323227,18.6290639 5.16558949,18.9888955 5.51452808,19.3220714 C5.49001743,19.3642451 5.46597165,19.4070444 5.44425015,19.452305 C5.02499137,20.3253535 5.30331395,21.4329224 6.06614433,21.9266167 C6.82935504,22.4205614 7.7888622,22.1131235 8.2088394,21.239491 C8.23064542,21.1942305 8.24936648,21.1479688 8.26741138,21.1015402 C8.6961786,21.2709022 9.13077766,21.4000929 9.5679123,21.4887368 C9.56520768,21.5391282 9.56305243,21.5897282 9.56398215,21.6412043 C9.58223835,22.645404 10.3047107,23.4526683 11.1781348,23.4443484 C12.052066,23.435899 12.7460975,22.6140762 12.7277568,21.6087502 C12.7268271,21.5561896 12.7228547,21.5045884 12.7180793,21.4531958 C13.1569044,21.3542066 13.5879959,21.2162559 14.0076772,21.0404281 C14.0276238,21.0869401 14.0483734,21.1332852 14.0720388,21.178504 C14.525697,22.0451701 15.5012629,22.3339615 16.251204,21.8231224 C17.0015678,21.3119496 17.2415608,20.1942856 16.7870151,19.3270355 C16.76373,19.2826927 16.7382051,19.2408111 16.7122999,19.19943 C17.0446304,18.8635844 17.3559579,18.494492 17.6437044,18.0944474 C17.6811465,18.1232306 17.7188844,18.1515132 17.7587354,18.1771678 Z M8.20047197,17.4849945 C5.42861405,15.6968073 4.41826843,11.6783815 5.94037937,8.50326152 C7.46413844,5.32476265 10.9522988,4.18636648 13.7349752,5.96675301 C16.5231031,7.75064358 17.542112,11.7848793 16.0075767,14.9711789 C14.474605,18.1540995 10.9777814,19.2766858 8.20047197,17.4849945 Z" id="Shape" fill="url(#linearGradient-24)"></path>
                </g>
                <g transform="translate(75.6922, 7.0877)">
                    <path d="M30.843094,32.4700663 C32.2543999,33.3622619 34.0298579,32.7963593 34.8075637,31.2042315 C35.5858189,29.6110609 35.0690247,27.5966128 33.6544225,26.7067532 C33.5812286,26.6606584 33.5064712,26.6209042 33.4315024,26.5826101 C33.6941466,25.6875362 33.8921757,24.7799479 34.0250403,23.8667698 C34.1060945,23.8729018 34.1874444,23.8778242 34.2701045,23.8763642 C35.8850178,23.8479147 37.168319,22.34368 37.1344689,20.5164894 C37.1005766,18.6893824 35.7625068,17.2349134 34.1477203,17.2678263 C34.0633699,17.2695783 33.9804985,17.277671 33.8981766,17.2872654 C33.729687,16.3715844 33.4988221,15.4721722 33.2076526,14.5968711 C33.2818184,14.55549 33.3556039,14.5125238 33.4277413,14.4632587 C34.8082821,13.5205465 35.2499808,11.4884113 34.4134072,9.92640164 C33.5774252,8.36543482 31.7826123,7.86761071 30.405579,8.8123669 C30.3350475,8.86075604 30.268742,8.9137338 30.2031549,8.96762928 C29.6597793,8.27762522 29.0640861,7.63175538 28.4199633,7.03540098 C28.4652235,6.95818694 28.5095539,6.87988831 28.5496584,6.79716791 C29.3238567,5.20024295 30.336273,3.4663684 28.9162193,2.61572074 C25.6375827,0.651789207 24.2334609,2.03822142 23.4625167,3.63276863 C23.4226235,3.71536388 23.3881818,3.79966944 23.3551347,3.88418357 C22.5690615,3.59021956 21.7732263,3.36925641 20.9733341,3.22191983 C20.978363,3.13073133 20.9822086,3.03929255 20.9805605,2.9462686 C20.9470908,1.13175939 21.4418255,0.185376325 19.8402662,0.0406260618 C16.3552754,-0.274320477 15.1817649,1.28898237 15.2150233,3.09906982 C15.216756,3.19372064 15.2240247,3.28657772 15.2325611,3.37897595 C14.4361343,3.57002961 13.6544561,3.83087209 12.8941613,4.15920907 C12.8580292,4.07611324 12.8205448,3.99335113 12.7776089,3.9125079 C11.9566714,2.36776813 10.1941449,1.87887098 8.84174901,2.81857968 C7.49091675,3.75724551 7.05944491,5.76718844 7.87700164,7.30988419 C7.91888103,7.3889754 7.96481736,7.46335284 8.01138758,7.53689599 C7.41345466,8.14714141 6.85368229,8.81595437 6.33676127,9.5391634 C6.26990638,9.4883548 6.20207952,9.43854736 6.13053379,9.39353712 C4.74982391,8.52507725 3.01755533,9.101784 2.2603455,10.6798956 C1.50355826,12.257006 2.00594192,14.2399595 3.38339781,15.1107554 C3.45477449,15.1559325 3.52771479,15.1948107 3.60082412,15.2323122 C3.34473016,16.1172912 3.15164545,17.0139502 3.0222039,17.9157402 C2.94322047,17.9099001 2.86398347,17.9051863 2.78360547,17.9067715 C1.21285358,17.9388502 -0.0321603157,19.4228532 0.00063323452,21.2217194 C0.0335113042,23.0206273 1.33198376,24.4564498 2.90277791,24.4287929 C2.9848463,24.4273329 3.06560464,24.4196574 3.14581361,24.4103967 C3.31003492,25.3149815 3.53511024,26.2039234 3.81909562,27.0698386 C3.74674697,27.1103437 3.67477865,27.1523922 3.60445846,27.2006562 C2.25966934,28.1232618 1.83001467,30.1244446 2.64402158,31.6721462 C3.45849335,33.2210157 6.15914363,34.1359875 7.50841228,33.2152591 C7.57759145,33.1679962 6.69339113,32.7120955 6.75766818,32.6594097 C7.29064789,33.3483292 7.87552255,33.9945744 8.50861556,34.5930563 C8.46415832,34.6691023 8.42050402,34.7462329 8.38111795,34.8277436 C7.62044282,36.4011832 8.12540433,38.3944402 9.51000211,39.2815883 C10.896248,40.1697792 12.6400958,39.6139716 13.4040672,38.0382794 C13.4436223,37.9566019 13.4777259,37.8731724 13.5105617,37.7894508 C14.2905918,38.0935515 15.0815249,38.3254022 15.8774023,38.4841269 C15.8724157,38.5750234 15.8685701,38.6662536 15.8702605,38.759069 C15.9035611,40.5701993 17.2195714,42.0255026 18.8115376,42.0095741 C20.4056592,41.9932988 21.6724368,40.5083363 21.6389671,38.6927842 C21.6371922,38.5979248 21.6299235,38.5046506 21.6212603,38.4119187 C22.422547,38.2320028 23.2100148,37.9815891 23.9769444,37.6626796 C24.0134145,37.7467349 24.0512793,37.8303313 24.0945955,37.9120922 C24.9239427,39.4771054 26.7084443,39.9972469 28.0812938,39.0718464 C29.4557493,38.1453195 29.8954618,36.1223199 29.062607,34.5551376 C29.0199247,34.4749201 28.9732277,34.3993329 28.92577,34.3246217 C29.5346482,33.7155443 30.1051546,33.0462308 30.6325137,32.3209777 C30.7008054,32.3728709 30.7700269,32.4238464 30.843094,32.4700663 Z M13.3884311,31.2704329 C8.35246586,28.0659457 6.51966138,20.8404047 9.28133471,15.1072931 C12.0493893,9.36079102 18.399463,7.25536298 23.4782796,10.4290229 C28.5788176,13.6162402 30.4458948,20.9035608 27.6348198,26.6809735 C24.8301683,32.4448706 18.4457797,34.4885608 13.3884311,31.2704329 Z" id="Shape" fill="url(#linearGradient-25)"></path>
                    <path d="M34.2701045,23.8763642 C35.8850178,23.8478312 37.168319,22.3435965 37.1344689,20.516406 C37.1005766,18.6892989 35.7625068,17.2348299 34.1477203,17.2677846 C34.0633699,17.2694949 33.9804985,17.2776293 33.8981766,17.287182 C33.729687,16.3714176 33.4988221,15.4721722 33.2076526,14.5967877 C33.2818184,14.5554483 33.3556039,14.5124404 33.4277413,14.4631335 C34.8082821,13.5204631 36.5184489,11.1183179 35.542883,9.64628693 C33.6935127,6.85573545 31.7826123,7.86748557 30.405579,8.81224175 C30.3350475,8.86063089 30.268742,8.91356694 30.2031971,8.96742071 C29.6597793,8.27737493 29.0640861,7.63163024 28.4199633,7.03519241 C28.4652235,6.95797836 28.5095539,6.87972145 28.5496584,6.79704277 C28.9709457,5.92804061 29.0081342,4.93923362 28.7298539,4.07669725 C27.403152,6.51338231 26.0956782,8.95932804 24.8131799,11.4180802 C28.8850316,14.9574953 30.1842648,21.4410557 27.634693,26.6809318 C25.4784748,31.1125425 21.2036919,33.3424057 17.0444893,32.6736761 C16.8593072,33.1813032 16.6775058,33.6920172 16.4792654,34.1933453 C15.9414681,35.5534555 15.3307305,36.8778162 14.7195703,38.1996322 C15.1039225,38.3114695 15.4900497,38.4066209 15.8774023,38.4839601 C15.8724157,38.57494 15.8685701,38.6661285 15.8702605,38.7589439 C15.9035611,40.5701159 16.911667,42.1943223 19.7977952,42.2787947 C21.397326,42.3256404 21.6723946,40.5082946 21.6390094,38.6926591 C21.6372345,38.5977997 21.6299658,38.5045672 21.6213448,38.4118352 C22.4225893,38.2319194 23.2100571,37.9814639 23.9769866,37.6625545 C24.0134568,37.7466097 24.0513215,37.8302061 24.0946377,37.9119671 C24.9240272,39.4771054 27.8056759,40.3595397 29.1797933,39.4338889 C30.5554742,38.5071535 29.8954618,36.1222365 29.062607,34.5550541 C29.0199247,34.4747949 28.9732277,34.3992077 28.92577,34.3244549 C29.5346482,33.7153775 30.1051546,33.0461056 30.6325137,32.3208526 C30.7007632,32.3728292 30.7699846,32.4238464 30.8430094,32.4698578 C32.2543154,33.3621785 34.0297734,32.7961924 34.8075214,31.2040647 C35.5857344,29.6109775 35.0689824,27.5964459 33.6543379,26.7066698 C33.5811018,26.660575 33.5063866,26.6208208 33.4314179,26.5825266 C33.6940621,25.6874528 33.8920912,24.7798227 34.0249558,23.866728 C34.1060945,23.8728601 34.1874444,23.8777825 34.2701045,23.8763642 Z" id="Path" fill="url(#linearGradient-26)"></path>
                    <path d="M32.3611057,32.7821346 C33.7742288,33.675081 35.5519266,33.1090532 36.3306889,31.515966 C37.1098738,29.9218777 36.5924879,27.9061364 35.1760263,27.0154843 C35.1027479,26.9693895 35.0278637,26.9295936 34.9528104,26.891216 C35.2157927,25.9955998 35.4141176,25.0875109 35.5471512,24.1737071 C35.6282899,24.1799226 35.7097244,24.1848449 35.7925112,24.1833849 C37.4094953,24.155144 38.6944023,22.650075 38.66051,20.8217164 C38.6265755,18.9933996 37.286773,17.5378878 35.669958,17.5705921 C35.5855231,17.5723442 35.5026095,17.5803951 35.4200762,17.5899895 C35.2513754,16.6736411 35.0202147,15.7737283 34.7286648,14.8978015 C34.8029574,14.8563787 34.8767851,14.8133708 34.949007,14.7641056 C36.3312805,13.821018 36.7736131,11.7876314 35.9359407,10.2244954 C35.0989023,8.66248572 33.301765,8.16403589 31.9229991,9.10925094 C31.8523831,9.15768179 31.7859508,9.21065955 31.7203214,9.26455504 C31.1762274,8.57400868 30.5798158,7.9277217 29.9348478,7.33086672 C29.9801503,7.25361096 30.0245653,7.17527062 30.0647543,7.09250851 C30.8398822,5.49466583 30.3251587,3.48943667 28.9161348,2.61555388 C27.5087168,1.74267225 25.7429785,2.33001626 24.9711045,3.92548119 C24.9311268,4.00807645 24.8966429,4.09242372 24.8635535,4.17702128 C24.0765083,3.88276527 23.2796166,3.66155182 22.478837,3.51404838 C22.4837814,3.42277646 22.487627,3.33129596 22.4859789,3.23818859 C22.4524669,1.42255308 21.1307093,-0.0133945698 19.5355736,0.0308648048 C17.9425931,0.074999035 16.6798301,1.57915033 16.7131308,3.39036408 C16.7148634,3.48505662 16.7221743,3.57799713 16.7307108,3.67039535 C15.9332697,3.86149073 15.1506195,4.12241664 14.3893105,4.45087877 C14.3531362,4.36769951 14.3156095,4.2849374 14.2726736,4.20401074 C13.4507219,2.65818638 11.6859556,2.16874694 10.3318693,3.1089145 C8.97934669,4.0480392 8.54732547,6.05919185 9.36593869,7.60297219 C9.4079026,7.6820634 9.45383893,7.75656598 9.50053593,7.83015084 C8.90184234,8.44068827 8.34135155,9.10983495 7.82375438,9.83346112 C7.75685723,9.78261081 7.6889881,9.73276166 7.6173156,9.6877097 C6.23491533,8.81849897 4.50044924,9.39541429 3.74222517,10.9744019 C2.98450822,12.5523883 3.48752578,14.536635 4.86671432,15.40814 C4.93826004,15.4533588 5.01120034,15.4922787 5.08439419,15.529822 C4.82800441,16.4153432 4.63466614,17.3125028 4.50509781,18.2148768 C4.42602986,18.2090368 4.34666609,18.204323 4.26611904,18.2059081 C2.69350772,18.2378199 1.4468457,19.7226156 1.47968151,21.5226081 C1.51255958,23.3226005 2.81268016,24.7595076 4.38541826,24.7320593 C4.46765569,24.7305993 4.54849856,24.7229238 4.62879204,24.7137048 C4.79322465,25.618832 5.01855353,26.5083578 5.30291925,27.3748988 C5.23048607,27.4153621 5.15843323,27.4574523 5.08798626,27.505758 C3.7414645,28.4287808 3.31134497,30.4311316 4.1262816,31.9799178 C4.94180986,33.5298302 6.69656061,34.0411281 8.04642089,33.1201494 C8.11564233,33.0728448 8.18076458,33.0210768 8.24512614,32.9683076 C8.77882427,33.6577277 9.36441734,34.3045152 9.99831329,34.9034142 C9.95377153,34.979502 9.91011723,35.0566743 9.87064664,35.1382684 C9.10895728,36.7125839 9.61459494,38.7070924 11.0009676,39.5950331 C12.3889462,40.4839749 14.1349914,39.9280421 14.8998925,38.3513905 C14.9395322,38.269713 14.973678,38.1862417 15.0065138,38.1024368 C15.7875582,38.4068295 16.5795055,38.6389305 17.376355,38.7978637 C17.3714106,38.8888854 17.3675227,38.9801573 17.3691708,39.0730144 C17.402556,40.885271 18.7201721,42.3417006 20.3142091,42.3259361 C21.9103591,42.3098722 23.1787426,40.8241589 23.1451884,39.0074388 C23.1434557,38.9124959 23.1361871,38.81918 23.1274816,38.7264063 C23.9297825,38.5464905 24.7182646,38.2959933 25.4861661,37.9770004 C25.5226785,38.0610557 25.5605855,38.1447773 25.6039862,38.2265382 C26.4344322,39.7926777 28.2211736,40.3134032 29.5957135,39.3875438 C30.9718594,38.4606415 31.4121635,36.4364321 30.5782945,34.8680818 C30.5355699,34.7878643 30.4887884,34.712152 30.4412884,34.6373991 C31.0509273,34.0280297 31.6221521,33.3583824 32.1502297,32.6327122 C32.2186482,32.6848974 32.2879119,32.7358729 32.3611057,32.7821346 Z M14.884341,31.5794559 C9.84203681,28.3723407 8.00695031,21.1420442 10.7720889,15.4056371 C13.5436933,9.65588133 19.9017119,7.549911 24.9869097,10.726199 C30.0939135,13.916086 31.9633994,21.2082455 29.1487324,26.9889954 C26.3405733,32.756188 19.9481976,34.8002953 14.884341,31.5794559 Z" id="Shape" fill="url(#linearGradient-27)"></path>
                </g>
            </g>
        </g>
    </g>
</svg>