<?xml version="1.0" encoding="UTF-8"?>
<svg width="120px" height="120px" viewBox="0 0 120 120" version="1.1" xmlns="http://www.w3.org/2000/svg" xmlns:xlink="http://www.w3.org/1999/xlink">
    <title>Illustration 2</title>
    <defs>
        <linearGradient x1="-0.769368941%" y1="38.7787724%" x2="247.883405%" y2="121.741132%" id="linearGradient-1">
            <stop stop-color="#FF9085" offset="0%"></stop>
            <stop stop-color="#FB6FBB" offset="100%"></stop>
        </linearGradient>
        <linearGradient x1="-3853.17124%" y1="-4446.42251%" x2="12264.501%" y2="14106.7909%" id="linearGradient-2">
            <stop stop-color="#AA80F9" offset="0%"></stop>
            <stop stop-color="#6165D7" offset="99.64%"></stop>
        </linearGradient>
        <linearGradient x1="-4970.4467%" y1="-1920.92723%" x2="11973.8156%" y2="4731.0206%" id="linearGradient-3">
            <stop stop-color="#AA80F9" offset="0%"></stop>
            <stop stop-color="#6165D7" offset="99.64%"></stop>
        </linearGradient>
        <linearGradient x1="34.3188977%" y1="25.7148705%" x2="114.102517%" y2="132.30908%" id="linearGradient-4">
            <stop stop-color="#AA80F9" offset="0%"></stop>
            <stop stop-color="#6165D7" offset="99.64%"></stop>
        </linearGradient>
        <linearGradient x1="80.527393%" y1="-3.84486699%" x2="-7.94712178%" y2="148.151705%" id="linearGradient-5">
            <stop stop-color="#E38DDD" offset="0.36%"></stop>
            <stop stop-color="#9571F6" offset="100%"></stop>
        </linearGradient>
        <linearGradient x1="41.8496841%" y1="46.8532543%" x2="58.0097754%" y2="53.5365422%" id="linearGradient-6">
            <stop stop-color="#E38DDD" offset="0.36%"></stop>
            <stop stop-color="#9571F6" offset="100%"></stop>
        </linearGradient>
        <linearGradient x1="86.3715606%" y1="-2.74614808%" x2="68.4997155%" y2="19.2263722%" id="linearGradient-7">
            <stop stop-color="#AA80F9" offset="0%"></stop>
            <stop stop-color="#6165D7" offset="99.64%"></stop>
        </linearGradient>
        <linearGradient x1="31.925358%" y1="2.26059663%" x2="91.8733518%" y2="129.356527%" id="linearGradient-8">
            <stop stop-color="#AA80F9" offset="0%"></stop>
            <stop stop-color="#6165D7" offset="99.64%"></stop>
        </linearGradient>
        <linearGradient x1="63.8422724%" y1="75.7839662%" x2="12.9033568%" y2="-57.0653199%" id="linearGradient-9">
            <stop stop-color="#AA80F9" offset="0%"></stop>
            <stop stop-color="#6165D7" offset="99.64%"></stop>
        </linearGradient>
        <linearGradient x1="28.4373437%" y1="-53.9085965%" x2="46.5382204%" y2="22.468138%" id="linearGradient-10">
            <stop stop-color="#AA80F9" offset="0%"></stop>
            <stop stop-color="#6165D7" offset="99.64%"></stop>
        </linearGradient>
        <linearGradient x1="43.4096196%" y1="56.3138055%" x2="8.85117799%" y2="160.766411%" id="linearGradient-11">
            <stop stop-color="#AA80F9" offset="0%"></stop>
            <stop stop-color="#6165D7" offset="99.64%"></stop>
        </linearGradient>
        <linearGradient x1="75.4776847%" y1="-119.938077%" x2="39.0977229%" y2="105.823048%" id="linearGradient-12">
            <stop stop-color="#AA80F9" offset="0%"></stop>
            <stop stop-color="#6165D7" offset="99.64%"></stop>
        </linearGradient>
        <linearGradient x1="37.1262535%" y1="-26.0093507%" x2="57.3066707%" y2="105.861688%" id="linearGradient-13">
            <stop stop-color="#26264F" offset="0.36%"></stop>
            <stop stop-color="#444B8C" offset="100%"></stop>
        </linearGradient>
        <linearGradient x1="50.9425158%" y1="115.156763%" x2="45.6101048%" y2="-507.282518%" id="linearGradient-14">
            <stop stop-color="#FFC444" offset="0%"></stop>
            <stop stop-color="#F36F56" offset="99.64%"></stop>
        </linearGradient>
        <linearGradient x1="38.0565433%" y1="-149.547551%" x2="54.855935%" y2="147.804111%" id="linearGradient-15">
            <stop stop-color="#26264F" offset="0.36%"></stop>
            <stop stop-color="#444B8C" offset="100%"></stop>
        </linearGradient>
        <linearGradient x1="50.7779409%" y1="135.274429%" x2="47.0478222%" y2="-303.339852%" id="linearGradient-16">
            <stop stop-color="#FFC444" offset="0%"></stop>
            <stop stop-color="#F36F56" offset="99.64%"></stop>
        </linearGradient>
        <linearGradient x1="8.11583202e-05%" y1="50.0000627%" x2="99.9998739%" y2="50.0000627%" id="linearGradient-17">
            <stop stop-color="#AB316D" offset="0%"></stop>
            <stop stop-color="#792D3D" offset="100%"></stop>
        </linearGradient>
        <linearGradient x1="-6.38944845e-05%" y1="50.0000277%" x2="100.0003%" y2="50.0000277%" id="linearGradient-18">
            <stop stop-color="#AB316D" offset="0%"></stop>
            <stop stop-color="#792D3D" offset="100%"></stop>
        </linearGradient>
        <linearGradient x1="-8.86334013e-05%" y1="49.9999365%" x2="99.9997782%" y2="49.9999365%" id="linearGradient-19">
            <stop stop-color="#AB316D" offset="0%"></stop>
            <stop stop-color="#792D3D" offset="100%"></stop>
        </linearGradient>
        <linearGradient x1="44.3104641%" y1="39.3068692%" x2="81.3167962%" y2="60.7452404%" id="linearGradient-20">
            <stop stop-color="#26264F" offset="0.36%"></stop>
            <stop stop-color="#444B8C" offset="100%"></stop>
        </linearGradient>
        <linearGradient x1="-0.000348194534%" y1="49.9994925%" x2="99.9993357%" y2="49.9994925%" id="linearGradient-21">
            <stop stop-color="#FFC444" offset="0%"></stop>
            <stop stop-color="#F36F56" offset="99.64%"></stop>
        </linearGradient>
        <linearGradient x1="59.117678%" y1="34.1594364%" x2="22.3079207%" y2="98.3980888%" id="linearGradient-22">
            <stop stop-color="#6165D7" offset="0.36%"></stop>
            <stop stop-color="#AA80F9" offset="100%"></stop>
        </linearGradient>
        <linearGradient x1="85.7490964%" y1="30.1887167%" x2="-8.2773082%" y2="82.2953099%" id="linearGradient-23">
            <stop stop-color="#FF9085" offset="0%"></stop>
            <stop stop-color="#FB6FBB" offset="100%"></stop>
        </linearGradient>
        <linearGradient x1="89.998613%" y1="0.192387268%" x2="47.653809%" y2="52.9214436%" id="linearGradient-24">
            <stop stop-color="#26264F" offset="0.36%"></stop>
            <stop stop-color="#444B8C" offset="100%"></stop>
        </linearGradient>
        <linearGradient x1="84.6608757%" y1="24.6533767%" x2="12.6060094%" y2="78.1039156%" id="linearGradient-25">
            <stop stop-color="#FF9085" offset="0%"></stop>
            <stop stop-color="#FB6FBB" offset="100%"></stop>
        </linearGradient>
        <linearGradient x1="-0.000645259506%" y1="50.0009307%" x2="99.9997896%" y2="50.0009307%" id="linearGradient-26">
            <stop stop-color="#FFC444" offset="0%"></stop>
            <stop stop-color="#F36F56" offset="99.64%"></stop>
        </linearGradient>
        <linearGradient x1="7.31550895e-05%" y1="49.999994%" x2="100.00014%" y2="49.999994%" id="linearGradient-27">
            <stop stop-color="#AA80F9" offset="0%"></stop>
            <stop stop-color="#6165D7" offset="99.64%"></stop>
        </linearGradient>
        <linearGradient x1="47.8539831%" y1="68.8129622%" x2="99.4142551%" y2="-14.0073492%" id="linearGradient-28">
            <stop stop-color="#FFC444" offset="0%"></stop>
            <stop stop-color="#F36F56" offset="99.64%"></stop>
        </linearGradient>
        <linearGradient x1="30.7548088%" y1="63.9923044%" x2="239.727343%" y2="-185.432458%" id="linearGradient-29">
            <stop stop-color="#FFC444" offset="0%"></stop>
            <stop stop-color="#F36F56" offset="99.64%"></stop>
        </linearGradient>
        <linearGradient x1="28.2665433%" y1="92.408283%" x2="-44.8433063%" y2="239.216972%" id="linearGradient-30">
            <stop stop-color="#FFC444" offset="0%"></stop>
            <stop stop-color="#F36F56" offset="99.64%"></stop>
        </linearGradient>
        <linearGradient x1="162.316899%" y1="28.0205559%" x2="-25.3694291%" y2="61.5621009%" id="linearGradient-31">
            <stop stop-color="#FFC444" offset="0%"></stop>
            <stop stop-color="#F36F56" offset="99.64%"></stop>
        </linearGradient>
        <linearGradient x1="107.431411%" y1="-78.8000113%" x2="17.5871525%" y2="127.993046%" id="linearGradient-32">
            <stop stop-color="#311944" offset="0%"></stop>
            <stop stop-color="#893976" offset="100%"></stop>
        </linearGradient>
        <linearGradient x1="68.4368143%" y1="247.173162%" x2="36.3366729%" y2="-180.702896%" id="linearGradient-33">
            <stop stop-color="#FFC444" offset="0%"></stop>
            <stop stop-color="#F36F56" offset="99.64%"></stop>
        </linearGradient>
        <linearGradient x1="121.221551%" y1="-110.537924%" x2="31.3765797%" y2="96.2568239%" id="linearGradient-34">
            <stop stop-color="#311944" offset="0%"></stop>
            <stop stop-color="#893976" offset="100%"></stop>
        </linearGradient>
        <linearGradient x1="63.4223656%" y1="180.345474%" x2="31.3224734%" y2="-247.529858%" id="linearGradient-35">
            <stop stop-color="#FFC444" offset="0%"></stop>
            <stop stop-color="#F36F56" offset="99.64%"></stop>
        </linearGradient>
        <linearGradient x1="52.5455642%" y1="48.9467396%" x2="48.4625602%" y2="50.5233049%" id="linearGradient-36">
            <stop stop-color="#444B8C" offset="0%"></stop>
            <stop stop-color="#26264F" offset="99.64%"></stop>
        </linearGradient>
        <linearGradient x1="52.4953389%" y1="48.9467664%" x2="48.7804716%" y2="50.5233097%" id="linearGradient-37">
            <stop stop-color="#444B8C" offset="0%"></stop>
            <stop stop-color="#26264F" offset="99.64%"></stop>
        </linearGradient>
        <linearGradient x1="53.7119128%" y1="48.603202%" x2="46.8201569%" y2="50.9299591%" id="linearGradient-38">
            <stop stop-color="#444B8C" offset="0%"></stop>
            <stop stop-color="#26264F" offset="99.64%"></stop>
        </linearGradient>
        <linearGradient x1="7.31791971%" y1="153.898068%" x2="60.6126903%" y2="24.1459786%" id="linearGradient-39">
            <stop stop-color="#FFC444" offset="0%"></stop>
            <stop stop-color="#F36F56" offset="99.64%"></stop>
        </linearGradient>
        <linearGradient x1="-1.27090022%" y1="163.878643%" x2="66.5183796%" y2="10.1141593%" id="linearGradient-40">
            <stop stop-color="#FFC444" offset="0%"></stop>
            <stop stop-color="#F36F56" offset="99.64%"></stop>
        </linearGradient>
        <linearGradient x1="100.546094%" y1="48.1121034%" x2="0.702953816%" y2="51.4779672%" id="linearGradient-41">
            <stop stop-color="#FFC444" offset="0%"></stop>
            <stop stop-color="#F36F56" offset="99.64%"></stop>
        </linearGradient>
        <linearGradient x1="20.5531856%" y1="165.373926%" x2="63.5268508%" y2="8.10858742%" id="linearGradient-42">
            <stop stop-color="#FFC444" offset="0%"></stop>
            <stop stop-color="#F36F56" offset="99.64%"></stop>
        </linearGradient>
        <linearGradient x1="-364.866435%" y1="-252.500956%" x2="-594.546929%" y2="-427.392556%" id="linearGradient-43">
            <stop stop-color="#FFC444" offset="0%"></stop>
            <stop stop-color="#F36F56" offset="99.64%"></stop>
        </linearGradient>
        <linearGradient x1="18.4937009%" y1="175.009876%" x2="61.0477636%" y2="11.8848627%" id="linearGradient-44">
            <stop stop-color="#444B8C" offset="0%"></stop>
            <stop stop-color="#3E4177" offset="99.64%"></stop>
        </linearGradient>
        <linearGradient x1="-938.966408%" y1="-965.369219%" x2="-1516.18532%" y2="-1555.43033%" id="linearGradient-45">
            <stop stop-color="#FFC444" offset="0%"></stop>
            <stop stop-color="#F36F56" offset="99.64%"></stop>
        </linearGradient>
        <linearGradient x1="0.00013035056%" y1="50.0000518%" x2="99.9999068%" y2="50.0000518%" id="linearGradient-46">
            <stop stop-color="#AB316D" offset="0%"></stop>
            <stop stop-color="#792D3D" offset="100%"></stop>
        </linearGradient>
        <linearGradient x1="2.59800251e-05%" y1="50.0001449%" x2="100.000104%" y2="50.0001449%" id="linearGradient-47">
            <stop stop-color="#AB316D" offset="0%"></stop>
            <stop stop-color="#792D3D" offset="100%"></stop>
        </linearGradient>
        <linearGradient x1="75.9777871%" y1="1.1094055%" x2="-37.2573799%" y2="214.221368%" id="linearGradient-48">
            <stop stop-color="#FF9085" offset="0%"></stop>
            <stop stop-color="#FB6FBB" offset="100%"></stop>
        </linearGradient>
        <linearGradient x1="-0.000156542661%" y1="50.0005918%" x2="100.000022%" y2="50.0005918%" id="linearGradient-49">
            <stop stop-color="#AB316D" offset="0%"></stop>
            <stop stop-color="#792D3D" offset="100%"></stop>
        </linearGradient>
        <linearGradient x1="-0.000299605603%" y1="49.9996246%" x2="100.000036%" y2="49.9996246%" id="linearGradient-50">
            <stop stop-color="#AB316D" offset="0%"></stop>
            <stop stop-color="#792D3D" offset="100%"></stop>
        </linearGradient>
        <linearGradient x1="75.9773527%" y1="1.10898514%" x2="-37.2571617%" y2="214.220721%" id="linearGradient-51">
            <stop stop-color="#FF9085" offset="0%"></stop>
            <stop stop-color="#FB6FBB" offset="100%"></stop>
        </linearGradient>
        <linearGradient x1="84.2875461%" y1="112.556746%" x2="40.5605966%" y2="25.2809251%" id="linearGradient-52">
            <stop stop-color="#311944" offset="0%"></stop>
            <stop stop-color="#6B3976" offset="100%"></stop>
        </linearGradient>
        <linearGradient x1="59.8355589%" y1="-22.7120658%" x2="36.5999552%" y2="156.366514%" id="linearGradient-53">
            <stop stop-color="#444B8C" offset="0%"></stop>
            <stop stop-color="#26264F" offset="99.64%"></stop>
        </linearGradient>
        <linearGradient x1="-0.00360657427%" y1="50.0017655%" x2="99.9979391%" y2="50.0017655%" id="linearGradient-54">
            <stop stop-color="#FFC444" offset="0%"></stop>
            <stop stop-color="#F36F56" offset="99.64%"></stop>
        </linearGradient>
        <linearGradient x1="56.8691463%" y1="-118.859939%" x2="41.6265257%" y2="268.385485%" id="linearGradient-55">
            <stop stop-color="#444B8C" offset="0%"></stop>
            <stop stop-color="#26264F" offset="99.64%"></stop>
        </linearGradient>
        <linearGradient x1="0.0012458612%" y1="49.9994836%" x2="100%" y2="49.9994836%" id="linearGradient-56">
            <stop stop-color="#FFC444" offset="0%"></stop>
            <stop stop-color="#F36F56" offset="99.64%"></stop>
        </linearGradient>
        <linearGradient x1="0.000250208011%" y1="49.9999659%" x2="100.000505%" y2="49.9999659%" id="linearGradient-57">
            <stop stop-color="#444B8C" offset="0%"></stop>
            <stop stop-color="#26264F" offset="99.64%"></stop>
        </linearGradient>
        <linearGradient x1="-5.28027711e-05%" y1="50.0000064%" x2="100.000053%" y2="50.0000064%" id="linearGradient-58">
            <stop stop-color="#444B8C" offset="0%"></stop>
            <stop stop-color="#26264F" offset="99.64%"></stop>
        </linearGradient>
        <linearGradient x1="49.4894715%" y1="26.5212199%" x2="55.6000314%" y2="210.472187%" id="linearGradient-59">
            <stop stop-color="#FF9085" offset="0%"></stop>
            <stop stop-color="#FB6FBB" offset="100%"></stop>
        </linearGradient>
        <linearGradient x1="100.000294%" y1="49.9997762%" x2="-0.00032951042%" y2="49.9997762%" id="linearGradient-60">
            <stop stop-color="#FF9085" offset="0%"></stop>
            <stop stop-color="#FB6FBB" offset="100%"></stop>
        </linearGradient>
        <linearGradient x1="100.000257%" y1="50.000174%" x2="-0.000188930129%" y2="50.000174%" id="linearGradient-61">
            <stop stop-color="#FF9085" offset="0%"></stop>
            <stop stop-color="#FB6FBB" offset="100%"></stop>
        </linearGradient>
        <linearGradient x1="26.1584586%" y1="9.46655281%" x2="55.4077421%" y2="71.5960972%" id="linearGradient-62">
            <stop stop-color="#FFC444" offset="0%"></stop>
            <stop stop-color="#F36F56" offset="99.64%"></stop>
        </linearGradient>
        <linearGradient x1="50.218568%" y1="65.6465219%" x2="63.2991132%" y2="572.720259%" id="linearGradient-63">
            <stop stop-color="#FFC444" offset="0%"></stop>
            <stop stop-color="#F36F56" offset="99.64%"></stop>
        </linearGradient>
        <linearGradient x1="85.8041574%" y1="50.7076062%" x2="5.30799334%" y2="49.116722%" id="linearGradient-64">
            <stop stop-color="#444B8C" offset="0%"></stop>
            <stop stop-color="#26264F" offset="99.64%"></stop>
        </linearGradient>
        <linearGradient x1="50.7259024%" y1="22.8338636%" x2="44.9485658%" y2="239.446666%" id="linearGradient-65">
            <stop stop-color="#444B8C" offset="0%"></stop>
            <stop stop-color="#26264F" offset="99.64%"></stop>
        </linearGradient>
        <linearGradient x1="0.000240216158%" y1="50%" x2="100%" y2="50%" id="linearGradient-66">
            <stop stop-color="#444B8C" offset="0%"></stop>
            <stop stop-color="#26264F" offset="99.64%"></stop>
        </linearGradient>
        <linearGradient x1="-313.266828%" y1="537.789563%" x2="206.812004%" y2="-177.263728%" id="linearGradient-67">
            <stop stop-color="#FFC444" offset="0%"></stop>
            <stop stop-color="#F36F56" offset="99.64%"></stop>
        </linearGradient>
        <linearGradient x1="48.9509286%" y1="25.9139581%" x2="56.6985319%" y2="328.401251%" id="linearGradient-68">
            <stop stop-color="#FF9085" offset="0%"></stop>
            <stop stop-color="#FB6FBB" offset="100%"></stop>
        </linearGradient>
        <linearGradient x1="503.343299%" y1="661.592223%" x2="-119.835674%" y2="-195.151537%" id="linearGradient-69">
            <stop stop-color="#FFC444" offset="0%"></stop>
            <stop stop-color="#F36F56" offset="99.64%"></stop>
        </linearGradient>
    </defs>
    <g id="Page-1" stroke="none" stroke-width="1" fill="none" fill-rule="evenodd">
        <g id="Artboard" transform="translate(-659, -21)" fill-rule="nonzero">
            <g id="Group" transform="translate(659, 21)">
                <path d="M117.696283,50.7252158 C114.482603,29.5378854 101.306552,3.50774037 75.2758637,0.783654419 C75.2758637,0.783654419 55.512127,-1.6377315 36.0294262,2.03212595 C24.4664059,4.210169 14.3273717,10.6937267 7.91179695,20.0121989 C1.49613711,29.3306711 -0.646883817,40.6933007 1.95396392,51.526173 C3.64320018,58.5622022 4.78466113,65.8442314 4.47137314,73.0741892 C3.92615077,85.6572188 4.2398217,97.4026055 16.3635947,104.906763 C27.1886884,111.607178 40.8122697,117.516664 53.8093176,118.551707 C62.6420563,119.255122 72.5473691,118.116836 81.0604374,115.800579 C124.444974,103.99622 120.909964,71.9125462 117.696283,50.7252158 Z" id="Path" fill="#F4F7FA"></path>
                <g transform="translate(2.1051, 19.8504)" id="Path">
                    <path d="M29.6507174,54.2519618 C35.7013497,53.2395045 41.6248457,51.6549473 47.5150259,49.9537328 C50.3488718,49.1352471 53.1845046,48.3558898 56.044433,47.6352469 C58.7339102,46.9575897 61.42126,46.2501468 64.0201079,45.2699182 C64.3370551,45.1442181 64.6515345,45.0128181 64.9646523,44.8783753 C63.4965855,39.4881891 63.863315,32.4093028 54.7193307,33.14126 C45.4167665,33.8859029 39.5853464,39.582132 35.3102397,26.3045165 C31.0351754,13.0268583 11.456314,-6.38708626 1.5165791,8.11542926 C-4.18787488,16.4385014 8.09260597,24.2234164 7.33268155,33.9474458 C6.61058315,43.1877894 12.3848174,48.2121041 22.3522943,49.5393899 C27.2438504,50.1907329 29.0310769,51.802333 29.6507174,54.2519618 Z" fill="url(#linearGradient-1)"></path>
                    <g transform="translate(3.3682, 0)" fill="#FCFDFE">
                        <path d="M28.8916374,42.3750893 C32.8575409,45.5669182 37.0528684,48.3559327 41.4286885,50.7275615 C41.4970647,50.7084043 41.5654409,50.6893329 41.6337319,50.6701329 C23.6640296,41.0080749 9.04667479,24.4025592 0.195001884,2.72674309 L0,2.8074431 C6.49271601,18.7064587 16.4832544,32.3887742 28.8916374,42.3750893 Z"></path>
                        <path d="M56.560205,46.6052611 C55.0529081,42.3915465 54.0696016,37.3390318 53.6347512,31.5615027 L53.4245594,31.577617 C53.8604309,37.3675318 54.8459074,42.4341465 56.3567784,46.6631183 C56.424644,46.6439611 56.492467,46.6246754 56.560205,46.6052611 Z"></path>
                        <path d="M27.1850837,40.8887178 L27.2677138,40.6934178 C18.8743357,37.0903746 9.47471733,39.0281176 3.06735453,41.2881035 L3.13709228,41.4885464 C9.50926709,39.2409034 18.8539122,37.3122889 27.1850837,40.8887178 Z"></path>
                        <path d="M12.7966423,25.6400165 L12.9859426,25.5466736 C8.46749835,16.2477014 10.5651195,5.58780048 12.2175509,0.0612857195 L12.0157412,0 C10.3544171,5.55638619 8.2465416,16.2759014 12.7966423,25.6400165 Z"></path>
                    </g>
                </g>
                <g transform="translate(17.136, 0.9982)" id="Path">
                    <path d="M19.104015,64.775604 C19.0862296,64.8818468 19.0681888,64.9888183 19.0499779,65.0965611 C19.1523507,65.1650468 19.2552766,65.2329754 19.3566708,65.3023183 C19.2704666,65.1285326 19.1864324,64.9528611 19.104015,64.775604 Z" fill="url(#linearGradient-2)"></path>
                    <path d="M29.01771,66.4959327 C29.0506854,66.5156898 29.0833205,66.5359184 29.1162534,66.5556327 C29.2199877,66.6176041 29.3239349,66.679147 29.4278394,66.7408184 C29.8280549,66.9782041 30.3629805,67.2752899 29.01771,66.4959327 Z" fill="url(#linearGradient-3)"></path>
                    <path d="M34.0609531,42.429802 C33.9142443,41.575102 31.5096749,40.0869304 31.5238437,33.8746585 C31.5542237,20.5734287 20.9317056,-5.8129878 5.86460827,4.48575594 C-2.78253179,10.3962707 6.14934591,23.1699718 2.75636418,32.7125441 C1.74212462,35.5650729 1.56069586,38.1966731 2.06490103,40.5993733 C3.19844788,46.0011309 7.83551864,48.3723311 13.6046896,52.9613029 C24.6946931,61.7825894 25.0037262,68.2985471 28.4082387,67.6246613 C33.2683086,66.6625613 35.9321287,53.3341173 34.0609531,42.429802 Z" fill="url(#linearGradient-4)"></path>
                    <g fill="#FCFDFE">
                        <path d="M67.850529,71.7243331 C67.7267115,71.4143902 67.8498908,71.5400045 67.8252549,71.4045759 C26.0875759,61.7573465 13.5875424,41.9238306 9.04356872,0.00799841625 C9.00808289,0.0789698509 8.82805824,-0.119158737 8.88907345,0.131598427 C10.3447159,16.9196856 14.7424913,34.6336585 24.349153,48.1553454 C34.4488294,62.3709752 51.9965312,67.6094899 67.850529,71.7243331 Z"></path>
                        <path d="M17.3227879,74.1213333 C25.1622636,69.9781187 41.5053617,65.8635755 50.2649161,65.5970469 C50.2688732,65.5223469 50.2726601,65.4476469 50.2771277,65.3729897 C41.516935,65.6397326 25.0584442,69.7875758 17.2166708,73.9326762 C17.2519439,73.9955905 17.2875574,74.0583762 17.3227879,74.1213333 Z"></path>
                        <path d="M61.6595277,70.2545044 C61.66808,70.103133 61.7045019,70.0397044 61.7481146,70.0649901 C56.8117119,66.8373756 54.527088,62.8277895 52.5314141,56.9418319 C51.0681554,52.6259886 50.4555355,46.2206024 50.8660053,41.3452162 C50.7592074,41.2388448 50.6992985,41.2367877 50.6494736,41.3434591 C50.2761491,46.2389452 50.8208183,52.6673458 52.3219456,57.0011033 C54.379741,62.9416181 56.6437711,66.9961613 61.6595277,70.2545044 Z"></path>
                        <path d="M23.2060752,46.458931 C23.2473051,46.4011595 23.2878968,46.3430881 23.328914,46.2851024 C16.7063386,40.8260019 8.393761,39.0467446 0,39.3902875 C0.00565901169,39.4646018 0.0128923349,39.5387875 0.0185087976,39.6130589 C8.35767948,39.2716589 16.6258785,41.0357876 23.2060752,46.458931 Z"></path>
                        <path d="M13.7185081,26.4540292 C13.7876927,26.4436578 13.8568773,26.4333292 13.926147,26.423515 C13.0694662,17.4782428 16.4523638,8.73632773 21.5311354,1.52629855 C21.4736092,1.48438426 21.4160404,1.4426414 21.3588546,1.40021282 C16.2514477,8.65039915 12.8465522,17.4588285 13.7185081,26.4540292 Z"></path>
                    </g>
                </g>
                <g transform="translate(14.1446, 18.9899)" id="Path">
                    <path d="M82.8982666,2.23416979 L4.75369747,0.00251245742 C2.13327721,-0.0723161204 4.25489602e-05,1.72412689 4.25489602e-05,4.0153128 L4.25489602e-05,70.2048327 C4.25489602e-05,72.4960187 2.13327721,74.2742045 4.75369747,74.1770045 L82.8983091,71.2771614 C85.1585524,71.19329 86.9837326,69.410647 86.9837326,67.2951754 L86.9837326,6.18131299 C86.9837326,4.06579852 85.1585524,2.29871265 82.8982666,2.23416979 Z" fill="url(#linearGradient-5)"></path>
                    <path d="M4.75369747,72.8579044 C2.97127898,72.9219758 1.52218905,71.7114329 1.52218905,70.1539185 L1.52218905,4.05324137 C1.52218905,2.49572696 2.97123643,1.27284114 4.75365492,1.32165543 L82.8982666,3.46202704 C84.4379007,3.50419847 85.6827131,4.70711286 85.6827131,6.14887013 L85.6827131,67.3386325 C85.6827131,68.7804326 84.4379007,69.9939327 82.8983091,70.0493042 L4.75369747,72.8579044 Z" fill="#FFFFFF" opacity="0.74"></path>
                    <path d="M82.8982666,2.23416979 L4.75369747,0.00251245742 C2.13327721,-0.0723161204 0,1.72412689 0,4.0153128 L0,6.99122734 L86.9837752,8.92897036 L86.9837752,6.18122727 C86.9837752,4.06579852 85.158595,2.29871265 82.8982666,2.23416979 Z" fill="url(#linearGradient-6)"></path>
                    <path d="M8.38529376,3.83394136 C8.38529376,4.57819856 7.74995269,5.16499861 6.96513712,5.1445129 C6.17913018,5.12398432 5.54106597,4.50229856 5.54106597,3.75598421 C5.54106597,3.00966986 6.17913018,2.42295552 6.96513712,2.44554124 C7.74995269,2.46804124 8.38529376,3.08964129 8.38529376,3.83394136 Z" fill="#FFFFFF"></path>
                    <path d="M13.3425454,3.96979851 C13.3425454,4.71054143 12.7132889,5.29455577 11.9359619,5.27428434 C11.1574436,5.25397005 10.5255064,4.63532714 10.5255064,3.89256993 C10.5255064,3.14981273 11.1574862,2.56584125 11.9359619,2.58821268 C12.7132889,2.61054125 13.3425454,3.22909845 13.3425454,3.96979851 Z" fill="#FFFFFF"></path>
                    <path d="M18.2526529,4.10441281 C18.2526529,4.84159859 17.6293106,5.42295578 16.8593872,5.40285578 C16.0882724,5.38271292 15.4623346,4.76715572 15.4623346,4.02795566 C15.4623346,3.2887556 16.0882724,2.70748412 16.8593872,2.7295984 C17.6293532,2.75166984 18.2526529,3.36718417 18.2526529,4.10441281 Z" fill="#FFFFFF"></path>
                    <g opacity="0.5" transform="translate(0, 0)" fill="#FFFFFF">
                        <path d="M52.5229469,27.6791005 C43.3957695,16.1373281 27.5977235,19.8094999 17.6038664,7.05709877 C15.8014924,4.75725572 14.5785502,2.41712695 13.73974,0.258883908 L4.75369747,0.00225531454 C2.13323466,-0.0725732633 0,1.72386975 0,4.01505566 L0,70.2045756 C0,72.4957187 2.13323466,74.2739474 4.75365492,74.1767045 L80.0362959,71.3830614 C78.3117014,69.2215184 63.2908973,61.2150748 59.4106449,48.9221881 C55.8620191,37.6802442 58.0296333,34.6426154 52.5229469,27.6791005 Z"></path>
                    </g>
                </g>
                <g transform="translate(38.1749, 34.7305)" id="Path">
                    <path d="M19.4312591,48.2428597 C18.4653551,48.2710169 17.5231935,48.0258312 16.7071045,47.5332311 C14.220756,46.0319453 10.5469086,43.5527879 7.24162026,40.3074734 C3.04756927,36.1893301 0.637808912,32.0032155 0.110584747,27.8926152 L0.102330249,27.8282009 L0,10.2883994 C0,6.82198478 2.24471294,4.00824168 6.45901724,2.15925581 C9.94088374,0.631698535 14.555829,-0.12520153 19.4312165,0.016912768 C24.2498863,0.157398494 28.7087194,1.15884144 32.008987,2.82748444 C35.9320436,4.81108461 37.9904772,7.59868484 37.9904772,10.9036566 L37.8971674,27.6630294 L37.8895937,27.724658 C37.4077692,31.6609583 35.190628,35.7297301 31.2719539,39.8442305 C28.1287771,43.1442736 24.5769176,45.7595881 22.1376282,47.379974 C21.3306447,47.9161169 20.394993,48.2147883 19.4312591,48.2428597 Z" fill="url(#linearGradient-7)"></path>
                    <path d="M20.387547,48.2428597 C19.4344077,48.2710169 18.5046704,48.0258312 17.6993462,47.5332311 C15.2458455,46.0319453 11.6205039,43.5527879 8.35895595,40.3074734 C4.2203037,36.1893301 1.84241252,32.0032155 1.32216639,27.8926152 L1.31399699,27.8282009 L1.2130283,10.2883994 C1.2130283,6.82198478 3.42804207,4.00824168 7.58669233,2.15925581 C11.022606,0.631698535 15.576536,-0.12520153 20.387547,0.016912768 C25.1424784,0.157398494 29.5424238,1.15884144 32.7990361,2.82748444 C36.6703532,4.81108461 38.7015129,7.59868484 38.7015129,10.9036566 L38.6093944,27.6630294 L38.6019483,27.724658 C38.1265488,31.6609583 35.9386813,35.7297301 32.0717467,39.8442305 C28.9700977,43.1442736 25.4652122,45.7595881 23.0580899,47.379974 C22.2618287,47.9161169 21.3385162,48.2147883 20.387547,48.2428597 Z" fill="url(#linearGradient-8)"></path>
                    <path d="M2.3627863,10.3009994 L2.46443577,27.7521723 C3.60491809,36.6562159 13.9939275,43.8651737 18.518669,46.604131 C19.8148805,47.3887597 21.4720774,47.3422168 22.7591409,46.4891882 C27.1894663,43.5528736 37.0094684,36.1605301 38.0586832,27.5996437 L38.1518654,10.886428 C38.1518654,-1.51334451 2.3627863,-2.64691603 2.3627863,10.3009994 Z" fill="url(#linearGradient-9)"></path>
                    <path d="M20.6442874,43.9143691 C20.5613595,43.9161308 20.43584,43.9022451 20.3090016,43.8248022 C18.4459528,42.688445 14.8344822,40.3082019 11.6926244,37.1997731 C8.29896192,33.8420442 6.34166721,30.5775297 5.89286077,27.5114865 L5.79329621,10.3492994 C5.79742346,8.70259922 7.09159263,7.29328482 9.62840418,6.16558472 C12.4603353,4.90665604 16.482063,4.24609884 20.6443299,4.345656 C24.7650691,4.44418457 28.6694468,5.2797275 31.3743267,6.63169905 C33.7669824,7.82749915 34.9765642,9.23724213 34.9804362,10.827028 L34.8876794,27.3950437 C34.4687849,30.3620011 32.6317336,33.5606013 29.4063522,36.9228731 C26.3736325,40.0842733 22.8310061,42.590345 20.9793179,43.8090308 C20.8526496,43.8923022 20.7272153,43.9122308 20.6442874,43.9143691 Z" fill="url(#linearGradient-10)"></path>
                    <path d="M20.2191807,42.7411593 C18.3377083,41.5739449 14.992041,39.3201304 12.0730121,36.4265873 C8.88375483,33.2651013 7.03810858,30.2313725 6.60427939,27.4242723 L6.5054807,10.3617279 C6.50841658,9.18435641 7.58290547,8.10435632 9.69086605,7.16428481 C12.373578,5.96779899 16.2171957,5.33732751 20.2190956,5.4278418 C24.1826589,5.5174561 27.9185427,6.30598473 30.4858619,7.58544199 C32.4806422,8.57955636 33.4898184,9.66392788 33.4925416,10.8122423 L33.3999976,27.3193151 C32.9929317,30.0428439 31.2520835,33.0214584 28.2078756,36.189073 C25.3815184,39.1299733 22.0921009,41.4948306 20.2191807,42.7411593 Z" fill="url(#linearGradient-11)"></path>
                    <g transform="translate(12.5142, 12.4044)">
                        <path d="M14.4371174,7.9972328 L1.7674838,8.11082862 C0.793538105,8.11957147 0,8.8843144 0,9.81842876 L0,17.994758 C0,18.9233867 0.790559678,19.6432153 1.76097381,19.6031867 L14.3858885,19.0824724 C15.2838843,19.0454438 16.0121098,18.2966866 16.016705,17.4094151 L16.0568505,9.5985716 C16.061424,8.70637152 15.3381768,7.98924289 14.4371174,7.9972328 Z" fill="#FFFFFF"></path>
                        <path d="M9.83588057,12.6859147 C9.83868114,11.7828718 9.06918319,11.0690432 8.12965961,11.1288717 C7.29778489,11.1818003 6.60772585,11.8584718 6.56104964,12.670529 C6.52484048,13.3004005 6.86306216,13.8461005 7.37798968,14.1230863 C7.59686153,14.2408577 7.70510608,14.487672 7.66191889,14.7313149 L7.29574254,16.7967722 C7.24915143,17.059658 7.45602447,17.2910008 7.72880585,17.281358 L8.65564985,17.2485723 C8.92664418,17.239058 9.13275134,16.9944294 9.08798983,16.7360436 L8.73368464,14.690172 C8.69134843,14.4458863 8.81635727,14.2037006 9.03603755,14.0706291 C9.51356453,13.7813434 9.8340433,13.2663719 9.83588057,12.6859147 Z" fill="url(#linearGradient-12)"></path>
                        <path d="M14.2591777,7.18631425 C13.8786623,7.18879997 13.5709908,6.8843428 13.5726077,6.50612848 L13.580309,4.72507118 C13.5880529,2.93621389 12.1198585,1.46462805 10.289998,1.44632805 L6.15457943,1.40501376 C4.26081031,1.3860709 2.70368857,2.87347103 2.70211426,4.71889975 L2.70053995,6.55622848 C2.70019956,6.94635709 2.37044511,7.26474283 1.96316647,7.26741718 C1.55495175,7.27009997 1.2234528,6.95475709 1.22362293,6.56299991 L1.22434633,4.71799975 C1.2253675,2.0805281 3.4553585,-0.0373435092 6.15734511,0.000499351189 L10.2945932,0.0584422133 C12.8936965,0.0948279307 14.9698304,2.19007097 14.9577568,4.72584261 L14.9492367,6.49982848 C14.9473646,6.87645708 14.638757,7.18378568 14.2591777,7.18631425 Z" fill="#FFFFFF"></path>
                    </g>
                </g>
                <g transform="translate(65.1499, 55.7591)" id="Path">
                    <path d="M23.7180579,60.5490052 C23.7180579,60.5490052 20.7632879,62.061391 20.7150799,62.3027625 C20.6668294,62.5441768 22.6152739,62.2218053 23.4106842,62.2566482 C24.206137,62.291491 24.8604549,62.0267196 24.7885046,61.6473053 C24.7164692,61.2678052 24.4380714,60.313548 24.4380714,60.313548 L23.7180579,60.5490052 Z" fill="url(#linearGradient-13)"></path>
                    <path d="M23.6099835,59.3216622 L23.7897103,60.8198623 C23.7897103,60.8198623 24.2574936,61.0074052 24.5717177,60.7856623 L24.7057469,59.1425193 L23.6099835,59.3216622 Z" fill="url(#linearGradient-14)"></path>
                    <path d="M37.5249401,59.3575765 L37.8686506,59.9789623 C37.9647687,60.1527051 37.9933616,60.3618909 37.9472811,60.5599337 C37.8271229,61.0766624 37.5871042,62.083591 37.4824337,62.3462196 C37.3398947,62.7038196 35.427787,62.9163054 35.427787,62.9163054 C35.427787,62.9163054 35.2572508,62.6460911 35.6542751,62.3197339 C36.0512144,61.9933339 36.306423,61.9420339 36.4465368,61.4603624 C36.5866079,60.9787766 36.6801305,59.6163908 36.6801305,59.6163908 L37.5249401,59.3575765 Z" fill="url(#linearGradient-15)"></path>
                    <path d="M36.0944016,57.7786335 C36.2199635,57.8913049 36.8340727,59.9905337 36.8340727,59.9905337 C36.8340727,59.9905337 37.0328614,60.2767766 37.4104834,59.8543337 C37.7880629,59.4318479 37.5813601,59.6648194 37.5813601,59.6648194 L37.5105586,57.6001764 L36.0944016,57.7786335 Z" fill="url(#linearGradient-16)"></path>
                    <path d="M21.9842729,29.2220168 C21.8283735,33.6910743 21.8220337,38.5465747 22.050394,43.733618 C22.3074322,49.5747042 22.8241042,54.9732904 23.4751459,59.8671051 C23.7172069,59.8758051 23.9715221,59.8772623 24.2371978,59.8688623 C24.4166267,59.863248 24.5904818,59.8533908 24.7584651,59.8403194 C25.0963464,58.8255479 25.4957109,57.4911049 25.8533349,55.8971619 C26.2292975,54.2211046 26.456126,52.7176759 26.617727,51.2800758 C27.1867342,46.2182182 26.5199069,45.7766182 26.9816482,42.0252893 C27.3906288,38.7029605 27.972188,38.5732319 28.6549712,33.8562029 C29.3957486,28.7381167 28.8442715,27.9702452 28.576128,27.6929167 C27.4344543,26.5120737 24.7528061,27.3160309 21.9842729,29.2220168 Z" fill="url(#linearGradient-17)"></path>
                    <path d="M28.576128,27.6930024 C27.4872575,26.5666308 24.9970796,27.2485309 22.3670008,28.967531 C25.3926999,32.6489599 25.7225394,35.0371744 25.3598095,36.5866746 C24.9498928,38.3380318 23.7035487,38.8424605 23.7082716,40.7574463 C23.7141434,43.110818 25.6000409,43.7341752 25.5600024,46.2244754 C25.5334518,47.8711755 24.7047257,47.8540755 24.5090005,49.8879471 C24.2774491,52.2944188 25.3601074,53.1236617 25.0094614,54.904119 C24.8585828,55.6701048 24.4279873,56.6710334 23.2016412,57.7021335 C23.2900579,58.4332764 23.3807297,59.1570908 23.475231,59.8671908 C23.7171644,59.8757623 23.9715221,59.8773051 24.2371978,59.8687765 C24.4166267,59.863248 24.5904818,59.8533908 24.7584225,59.8403194 C25.0963038,58.8255479 25.4957109,57.4911478 25.8532924,55.8972048 C26.229255,54.2211046 26.4560835,52.7177188 26.6176844,51.2800758 C27.1866491,46.2182182 26.5198644,45.7766182 26.9816057,42.0252893 C27.3905863,38.7029605 27.9721455,38.5731462 28.6548861,33.8562029 C29.3956635,28.7381167 28.8442715,27.9702881 28.576128,27.6930024 Z" fill="url(#linearGradient-18)" opacity="0.3"></path>
                    <path d="M23.8584269,29.1469739 C26.4636572,33.4398886 29.2736756,38.7826319 31.7866172,45.1776896 C33.6857049,50.0105186 35.0630573,54.5480189 36.0742759,58.5919336 C36.2111134,58.6632907 36.5338898,58.8056193 36.9464019,58.744205 C37.5089843,58.6604193 37.8461848,58.2559764 37.9343037,58.1430907 C38.3458798,55.2441476 38.3005226,52.7889474 38.1608344,51.0170615 C38.0713539,49.8825471 37.9131143,47.9932327 37.2709654,45.6609039 C36.5517178,43.0482894 36.0572563,42.9014608 35.1189666,40.1374749 C34.145021,37.2684889 34.3809549,36.5526031 33.4482817,32.9622885 C33.0651709,31.4873598 32.4237879,29.2925168 31.3654676,26.6671309 C28.8630356,27.4936738 26.3606887,28.3203881 23.8584269,29.1469739 Z" fill="url(#linearGradient-19)"></path>
                    <path d="M23.1650916,10.4944295 C20.2884415,8.60202931 19.0557981,8.82021504 18.2218385,7.12062918 C17.3969844,5.43947189 17.398814,2.77217167 18.7638697,1.35912869 C18.8640725,1.25532868 19.9038415,0.21252859 21.3108505,0.391200033 C23.4389367,0.661542914 23.5956445,3.369386 25.9825986,4.60992897 C28.0051635,5.66117191 30.2108165,4.92180042 31.7035191,4.42140038 C35.2979701,3.2164717 35.8317043,0.937328652 37.6953913,1.30062868 C40.030691,1.75581444 40.2372236,5.53791476 42.5637582,5.77092906 C44.1187099,5.92662908 44.4891412,4.28357179 46.5333634,3.83108604 C48.935465,3.29927171 51.5712454,4.87140042 53.0494814,6.78308629 C55.7513829,10.2772723 55.0396664,15.4926442 53.3490686,18.6762016 C51.960228,21.2916447 48.9740569,24.3000449 46.4584347,23.6528592 C44.4711004,23.1415734 43.8240584,20.6182732 42.1143561,20.8693732 C40.8987748,21.0480018 40.8547792,22.3779876 39.4180285,23.062502 C37.0586461,24.1866021 34.1458294,22.0441733 33.3512701,21.4597304 C31.0866017,19.7939588 31.4472892,18.7286159 28.5271541,15.3891442 C27.3736518,14.0699583 25.7124978,12.170101 23.1650916,10.4944295 Z" fill="url(#linearGradient-20)"></path>
                    <path d="M2.56186397,3.13380027 C2.56186397,3.13380027 2.0757421,2.44864307 1.76726214,1.93958588 C1.45878218,1.43044298 0.018840269,0 0.018840269,0 C0.018840269,0 -0.09085095,0.226971448 0.219118224,0.590228622 C0.529087398,0.953442939 1.18140551,1.57590013 1.03142042,1.83921444 C0.881435337,2.10257161 0.459179457,2.33472877 0.763915109,2.83200024 C1.06865076,3.32922886 1.59851296,2.98967168 1.86942219,3.38850029 C2.14028887,3.7873289 2.41775064,4.22241465 2.41775064,4.22241465 L2.56186397,3.13380027 Z" fill="url(#linearGradient-21)"></path>
                    <path d="M2.75158978,2.68671452 C2.42370749,3.24544313 2.09582521,3.80391461 1.76790037,4.36260037 C2.10927068,5.48558618 2.6976377,7.04494346 3.7285139,8.69018646 C4.18323464,9.41592938 5.59300933,11.5449438 7.97987835,13.2570868 C11.2290871,15.5877013 17.1486687,17.7620587 18.8815176,15.2819584 C20.4277894,13.068944 17.9320376,8.16364355 17.4724237,7.28297205 C16.5422183,7.77415781 15.0136469,8.42558643 13.0488211,8.57970073 C12.4048851,8.63022931 10.7288816,8.74525789 8.84068636,8.09202926 C5.34622536,6.88311487 3.40620553,3.83194318 2.75158978,2.68671452 Z" fill="#FFFFFF"></path>
                    <path d="M13.681439,10.1744152 C13.8449546,11.0019867 16.4005303,10.558158 16.9279672,12.0603867 C17.2109603,12.866444 16.6100839,13.3785011 16.5848949,14.747487 C16.556685,16.2800585 17.281932,17.1504443 17.8383022,18.3561016 C18.6531148,20.1219446 18.6561358,21.8530304 18.6622203,25.3148593 C18.6708152,30.2427883 17.5890078,31.2337312 18.5124054,32.8219742 C19.7143709,34.8893173 22.6006797,35.0212744 23.3807723,35.057103 C26.0488048,35.1791601 26.365284,33.7515886 29.2602727,33.5811029 C32.5665396,33.3864029 33.037429,35.1964744 35.4019172,34.4245315 C37.5619577,33.7192315 38.2887791,31.8431599 39.9706969,32.231617 C41.0219115,32.4742742 41.3006923,33.3372028 42.2925086,33.2437743 C43.2891754,33.1498743 44.3194134,32.1549885 44.3896617,31.1349027 C44.4769722,29.866974 43.1008963,28.2696453 40.9443448,28.2671167 C40.0874087,28.6059024 38.6669117,28.9985596 37.0870688,28.5624024 C34.4986028,27.8477595 33.1522686,25.3689879 31.6569705,22.6158448 C30.6224776,20.7113161 28.7211348,17.2107015 28.6984988,12.6205725 C28.689138,10.7276581 29.0068085,10.173858 28.5487264,9.16221507 C27.0612148,5.87682907 21.2901717,6.36711483 20.8014543,6.41455769 C16.869122,6.79637201 13.4839693,9.17507221 13.681439,10.1744152 Z" fill="#FFFFFF"></path>
                    <g transform="translate(12.0763, 13.9587)">
                        <path d="M0.315823767,0.350353125 L7.56459225,0.669042914 C7.64415881,0.672514343 7.71389655,0.730028634 7.74091514,0.814414355 L11.1556819,11.4826296 C11.2046558,11.6356724 11.0511391,12.0184296 10.9075364,12.0010296 L3.74080231,10.9030724 C3.66795849,10.8942438 3.60558171,10.8402009 3.57924391,10.7631866 L0.0265333875,0.805542926 C-0.0238871302,0.657900056 0.175497297,0.344271458 0.315823767,0.350353125 Z" fill="url(#linearGradient-22)"></path>
                        <path d="M0.203366866,0.611528624 L7.4520928,0.930128651 C7.53165936,0.93360008 7.60143965,0.99111437 7.62841569,1.07550009 L11.0431399,11.7437153 C11.0921138,11.8967153 10.981912,12.0546867 10.8383092,12.0373296 L3.62826031,11.1641581 C3.55537394,11.1553295 3.49299716,11.1012867 3.46665936,11.0242724 L0.013215563,0.910628649 C-0.0371624057,0.762942922 0.0629978463,0.605357195 0.203366866,0.611528624 Z" fill="url(#linearGradient-23)"></path>
                        <path d="M2.18551017,1.00885723 L1.90617625,0.158400014 C1.88094471,0.0816428641 1.93140778,0 2.00412395,0 L4.64267007,0 C4.6881549,0 4.72840622,0.0331714314 4.74219208,0.0820285784 L5.00748485,1.02270009 C5.02926992,1.09992867 4.97672195,1.17831439 4.90481421,1.17582867 L2.28030925,1.08561438 C2.23776029,1.08415724 2.20027466,1.05377152 2.18551017,1.00885723 Z" fill="url(#linearGradient-24)"></path>
                        <path d="M6.64766216,9.45484367 C6.17681537,7.7354578 6.95171703,6.61577199 6.16081696,5.27957188 C5.0421197,3.38970029 2.63882679,4.18958607 1.8916245,2.66464308 C1.69011263,2.25342876 1.59373923,1.64061443 1.86558454,0.684514344 L0.203366866,0.611614338 C0.0629978463,0.605442909 -0.0371624057,0.762857208 0.0133006609,0.910628649 L3.46674446,11.0242724 C3.49308226,11.1013724 3.55541649,11.1552438 3.62834541,11.1641581 L8.01029261,11.6949867 C7.22977449,10.9283581 6.83896229,10.1536723 6.64766216,9.45484367 Z" fill="url(#linearGradient-25)" opacity="0.3"></path>
                    </g>
                    <path d="M24.0173898,22.1358876 C24.0173898,22.1358876 22.9220094,21.8904876 22.4995833,21.5910876 C22.0771147,21.2914732 21.6291167,20.8103589 21.006285,20.8365446 C20.3834533,20.8629446 19.7566646,21.2194732 20.0443807,21.3014161 C20.3321393,21.3831875 20.8695752,22.025959 21.2801301,22.2790305 C21.6907276,22.5321019 22.6289322,22.5549448 22.8036807,22.5411448 C22.9783868,22.5273448 23.6681054,22.9944877 23.6681054,22.9944877 L24.0173898,22.1358876 Z" fill="url(#linearGradient-26)"></path>
                    <path d="M40.9443448,28.2671167 C40.0874087,28.6059024 38.6669117,28.9985596 37.0870688,28.5624024 C34.4986028,27.8477595 33.1522686,25.3689879 31.6569705,22.6158448 C30.6224776,20.7113161 28.7211348,17.2107015 28.6984988,12.6205725 C28.689138,10.7276581 29.0068085,10.173858 28.5487264,9.16221507 C28.4757975,9.0013722 28.3898912,8.85184361 28.2975599,8.70852932 C27.1675872,9.5687151 26.729418,10.4301437 26.6013456,11.1865724 C26.2896745,13.0275868 27.7593156,14.532987 26.9945831,16.1209299 C26.2620602,17.6418872 24.4511339,17.2211158 24.0735545,18.524873 C23.6662333,19.9314017 25.6704169,20.7797589 25.7587486,22.9531305 C25.8648231,25.5614165 23.0799086,26.8387737 23.5679877,28.5834024 C23.991052,30.0954454 26.3216288,29.9865026 26.3204799,30.7975312 C26.3190758,31.7617741 26.3925153,29.7708025 23.5679877,28.5834024 C22.7119877,28.2236167 18.6832394,31.2186455 18.193586,30.6930026 C18.0881497,31.542817 18.1071691,32.1250313 18.5123628,32.8219314 C19.7143284,34.8892744 22.6006371,35.0212316 23.3807297,35.0570601 C26.0487623,35.1791173 26.3652414,33.7515457 29.2602301,33.58106 C32.5664971,33.38636 33.0373439,35.1964316 35.4018747,34.4244887 C37.5619152,33.7191886 38.2887365,31.843117 39.9706544,32.2315742 C41.021869,32.4742313 41.3006498,33.33716 42.292466,33.2437314 C43.2891329,33.1498314 44.3193708,32.1549456 44.3896192,31.1348598 C44.4769722,29.8669311 43.1008537,28.2696024 40.9443448,28.2671167 Z" fill="url(#linearGradient-27)" opacity="0.3"></path>
                    <path d="M23.9893075,21.6246876 C23.6522347,22.299559 23.3152043,22.9742162 22.9782166,23.6490449 C23.4978245,23.9357163 29.053272,26.8959023 33.080063,23.9653735 C33.577971,23.603102 34.9011585,22.6401019 35.6143642,20.7543446 C36.4004562,18.6759016 35.9595214,16.7434729 35.6734647,15.4883585 C34.9653649,12.3813868 32.9628406,9.12218649 30.1216338,7.81272924 C29.0363801,7.31254348 27.7478699,7.05951489 26.5358628,6.82152915 C25.5080501,6.61962914 23.8926788,6.37230054 23.8582567,6.54750056 C23.8414499,6.63300057 24.2168168,6.74220058 24.4774717,6.90827202 C26.0784189,7.92810068 24.04577,12.1399296 25.927285,14.1598298 C27.7297015,16.0947442 30.0690008,15.7752442 30.4459846,17.5287444 C30.6212863,18.343973 30.2584713,19.0773873 30.0968278,19.4040874 C29.1950026,21.2271018 26.7674993,22.0430162 23.9893075,21.6246876 Z" fill="#FFFFFF"></path>
                    <path d="M20.2186187,3.38532886 C20.2186187,3.38532886 20.8710219,5.52128619 21.6836219,5.85402907 C22.4961794,6.1864291 23.7807325,6.56820056 23.9419505,6.71622915 C24.103126,6.86391487 19.624933,8.50157216 17.1139913,7.74784352 L17.1139913,7.74784352 C17.829452,7.39530063 18.0208372,7.28258634 18.0208372,7.28258634 C18.2118821,7.1699149 18.5683147,6.96017202 18.9025793,6.62670057 C19.1301737,6.39985769 19.4864787,5.97750051 19.7546223,5.27571474 L19.5199222,4.06302892 L20.2186187,3.38532886 Z" fill="url(#linearGradient-28)"></path>
                    <path d="M20.5115683,4.31781465 C20.5115683,4.31781465 20.1333931,5.26444331 19.2366312,5.11915758 C18.4336047,4.98908614 18.4745368,2.71435737 19.020057,2.32705734 C19.2019538,2.19792876 19.5711511,2.14877161 19.8451239,2.26170019 C20.0378281,2.34107163 20.6113456,2.87005739 20.4835285,3.64495745 C20.6604896,3.53892887 20.8367274,3.55551459 20.8978277,3.65087174 C20.9754796,3.77168604 20.8497048,3.9909432 20.8212396,4.04057177 C20.7224835,4.21277179 20.5787956,4.28832894 20.5115683,4.31781465 Z" fill="url(#linearGradient-29)"></path>
                </g>
                <g transform="translate(0, 48.6732)" id="Path">
                    <path d="M40.5025984,6.04525768 C40.5025984,6.04525768 40.8906449,4.72371471 41.5558979,4.6865147 C42.2211509,4.64927184 44.7343478,3.60694318 44.4386751,4.2025718 C44.1430023,4.79820043 43.1048503,5.03220045 43.1048503,5.03220045 C43.1048503,5.03220045 43.6072684,6.20040055 42.4826568,6.49200057 C41.3580878,6.78355774 39.0015137,8.14825786 40.5025984,6.04525768 Z" fill="url(#linearGradient-30)"></path>
                    <path d="M40.3653355,5.60777193 C40.6738154,6.29922913 40.9822528,6.99034347 41.2907328,7.68175782 C40.6611358,8.86620077 39.6441306,10.4873581 38.0589265,12.1136153 C37.3597195,12.8309583 35.2136776,14.9199013 31.9227283,16.3425871 C27.4428334,18.279173 19.6560758,19.4930588 17.9405017,16.3668871 C16.4096753,13.577444 20.4143834,8.61017218 21.1477573,7.72071496 C22.2206718,8.46030074 21.0253439,6.73401488 26.4380822,10.0771723 C27.1344385,10.5072866 29.3056694,10.7382438 31.7821465,10.3961152 C36.3654354,9.76290085 39.3405438,6.75274345 40.3653355,5.60777193 Z" fill="url(#linearGradient-31)"></path>
                    <path d="M21.2945937,67.5432486 C21.2945937,67.5432486 21.112782,68.6641773 21.1359712,69.0630488 C21.1590327,69.462006 25.554085,69.6659203 25.5985061,69.3670345 C25.6428847,69.0681916 24.8720252,68.5929916 24.3294834,68.4252916 C23.7868991,68.2575487 22.1989293,67.8099487 22.1989293,67.8099487 L21.2945937,67.5432486 Z" fill="url(#linearGradient-32)"></path>
                    <path d="M22.3613812,66.4257914 L22.221225,67.8195487 C22.221225,67.8195487 21.71068,68.159363 21.2608949,67.8970772 L21.0358109,66.3799771 L22.3613812,66.4257914 Z" fill="url(#linearGradient-33)"></path>
                    <path d="M13.4531182,69.3603059 C13.4531182,69.3603059 13.271264,70.4811918 13.2944106,70.8801061 C13.3175147,71.2790633 17.7126095,71.4829776 17.7569455,71.1840918 C17.8013666,70.8852489 17.0304646,70.4100489 16.4879228,70.242306 C15.945381,70.074606 14.3573687,69.6269631 14.3573687,69.6269631 L13.4531182,69.3603059 Z" fill="url(#linearGradient-34)"></path>
                    <path d="M14.5199057,68.2428487 L14.3797069,69.636606 C14.3797069,69.636606 13.8692045,69.9764631 13.4193769,69.7141345 L13.1943354,68.1970344 L14.5199057,68.2428487 Z" fill="url(#linearGradient-35)"></path>
                    <path d="M21.5638435,30.039774 C22.0718356,31.0771741 22.5798702,32.1145742 23.0879473,33.1519314 C23.4965024,39.0721748 23.699546,45.5097039 23.5691335,52.3942759 C23.4721218,57.5163906 23.2003191,62.3685482 22.8099749,66.9231486 C22.1211924,66.8913914 21.4323673,66.8593772 20.7435847,66.82762 C19.7475561,64.8365198 18.5718007,61.8199767 18.4635987,58.0963336 C18.3507163,54.2121904 19.519834,53.6964903 19.4456712,49.9775614 C19.3495531,45.1574182 17.3428165,43.8713609 16.2737313,38.073389 C15.8648784,35.8560888 15.5896292,32.9599743 15.9167881,29.4463311 C17.7991541,29.6441168 19.6814775,29.842074 21.5638435,30.039774 Z" fill="url(#linearGradient-36)"></path>
                    <path d="M15.9167881,29.446374 C16.9333679,29.5531311 17.9499476,29.6599311 18.9665699,29.7669454 C20.7965156,32.9745028 21.3074435,36.3130745 20.986284,37.7898032 C20.5319887,39.8791749 19.3301933,40.5484749 19.3962293,42.6461608 C19.4615845,44.7217753 20.6756765,45.2600182 21.4458978,47.7064327 C21.9790363,49.4002328 21.8383269,50.9576187 21.5350379,54.0032189 C20.924205,60.138048 19.4534577,62.0141625 20.6853777,64.0255769 C21.0354706,64.597077 21.6661738,65.2776913 22.9019232,65.7973342 C22.8716709,66.1735342 22.8418867,66.5509343 22.8099749,66.9231057 C22.1211924,66.8914343 21.4323673,66.8593343 20.7435847,66.8276629 C19.7475561,64.8363484 18.5718007,61.8199767 18.4635987,58.0962907 C18.3506737,54.2121046 19.5197915,53.6963189 19.4456712,49.9774329 C19.3495531,45.1572896 17.3428591,43.8713609 16.2737313,38.0733461 C15.8648358,35.8561317 15.5895866,32.9600171 15.9167881,29.446374 Z" fill="url(#linearGradient-37)" opacity="0.3"></path>
                    <path d="M18.8307962,31.9074027 C17.8771463,37.1452318 17.0348471,42.7509894 16.3775933,48.6960899 C15.5840978,55.8743619 15.1605654,62.6416768 14.9940714,68.9248345 C14.2380614,68.9465202 13.4820515,68.9679059 12.7260416,68.9895488 C9.7469336,63.0533625 9.56490915,59.0287336 9.9944409,56.4084048 C10.1599564,55.3986905 10.6095287,53.418776 10.7121568,50.4598329 C10.783639,48.3972042 10.6530137,46.8274754 10.4898384,44.9404753 C10.1320868,40.8031749 9.69787465,39.8999606 9.63549788,36.735346 C9.57686541,33.7653886 9.5647815,32.2626028 10.406485,31.3854027 C12.6240517,29.0745025 18.3931376,31.7028884 18.8307962,31.9074027 Z" fill="url(#linearGradient-38)"></path>
                    <path d="M23.6665706,34.2141029 C24.3909241,33.0034743 23.4811422,31.8358742 23.2740139,29.5422454 C23.0393138,26.9427023 24.0335128,26.5098451 25.0167767,22.2018448 C25.6706266,19.336716 26.2983514,16.5861443 25.5491068,13.3664583 C25.1900787,11.8233867 24.5810754,9.20618652 22.430651,7.94207212 C21.3209315,7.2897435 19.8057631,7.35497207 16.8206982,7.51230066 C13.1293206,7.70670068 11.2836744,7.80390068 9.90721553,8.53397218 C9.70574621,8.64090076 5.5182052,10.9351295 5.22997855,14.6747584 C4.93656092,18.4809016 9.05185379,18.9925302 9.60073538,24.0681878 C9.8471364,26.3467308 9.40790349,29.8512026 9.1231233,32.124217 C8.84966113,34.3067172 8.66142453,34.8655316 9.08904158,35.5262602 C10.1196625,37.1189175 13.2748381,36.6649317 19.5853594,35.7573031 C22.0606452,35.4012459 23.1260286,35.1174887 23.6665706,34.2141029 Z" fill="url(#linearGradient-39)"></path>
                    <path d="M14.0651425,23.2517163 C13.7983179,24.2409878 12.8386687,24.9798879 12.1706075,27.3861452 C12.026409,27.9057453 10.9991495,31.6053884 12.3316127,32.5160599 C13.1013234,33.04196 13.7922334,32.0455313 15.6602179,31.9153742 C18.8971726,31.6898599 20.4391469,34.4300601 22.5536174,33.6817743 C22.920432,33.5517457 23.4048094,33.2749743 23.8883783,32.6389314 C23.9846666,33.2121457 23.9681576,33.7099315 23.6665706,34.2140601 C23.1260712,35.1174459 22.0606452,35.401203 19.5853169,35.7573031 C13.2748381,36.6648889 10.1196199,37.1189175 9.08899903,35.5262602 C8.66138198,34.8655316 8.84961858,34.3067172 9.12308075,32.124217 C9.40790349,29.8512026 9.84709385,26.3467308 9.60069283,24.0681878 C9.05185379,18.9924874 4.93651837,18.4808587 5.229936,14.6747584 C5.30835373,13.657244 5.67997635,12.7512011 6.17686311,11.9626296 C11.3974078,14.0904441 14.9038676,20.1430303 14.0651425,23.2517163 Z" fill="url(#linearGradient-40)" opacity="0.3"></path>
                    <path d="M7.47137267,30.7387312 L8.51586454,31.4104741 C8.70342036,31.1923741 9.13758994,30.7522741 9.81552253,30.6020169 C10.5793189,30.4329455 11.4560402,30.6754741 11.4764637,30.9209598 C11.4928025,31.1176741 10.9589407,31.3160598 10.8764383,31.3467884 C10.2100365,31.5945027 9.71561757,31.3887456 9.446155,31.6585742 C9.35088788,31.754017 9.23213373,31.9314456 8.95905451,32.0959313 C8.88735951,32.1391313 8.8121755,32.1772742 8.77260497,32.1928742 C8.32784069,32.3670456 7.56485273,31.5871313 7.49919969,31.5190313 L7.47137267,30.7387312 Z" fill="url(#linearGradient-41)"></path>
                    <path d="M10.5571934,16.9404872 C11.3127779,15.1177299 11.8362577,12.3269582 10.6428445,8.18245786 C2.77924355,11.3034438 -1.23116614,18.7021302 0.334720692,24.5672593 C1.62557104,29.4023168 6.32195506,31.7574027 7.36959556,32.2528313 C7.61335855,31.6939313 7.85716409,31.1352455 8.10092708,30.5763455 C6.88683505,29.2145597 5.51875834,27.2010452 5.71227101,24.903345 C5.98041456,21.7179447 9.02747324,20.6307018 10.5571934,16.9404872 Z" fill="url(#linearGradient-42)"></path>
                    <path d="M16.6274408,3.76251462 C16.6274408,3.76251462 16.5653619,5.14808617 16.1383405,6.18565769 C15.752464,7.12341491 13.7228361,7.71291496 13.3114302,7.92222927 C12.8999817,8.13154357 14.0822046,8.74341505 15.2694482,8.8636722 C16.4566068,8.98392936 19.8470781,8.71238648 20.4582514,8.25904358 C21.0694246,7.80574354 19.9671513,7.83985783 19.1197036,7.52644352 C18.2723411,7.21315778 17.7823898,5.54387192 17.9319494,4.78624328 C18.0814665,4.02857179 16.6274408,3.76251462 16.6274408,3.76251462 Z" fill="url(#linearGradient-43)"></path>
                    <path d="M18.505169,3.26018601 C19.1211928,2.6505431 19.2071843,2.57935738 19.274284,2.36862879 C19.5434913,1.52288586 18.8922369,0.36462862 18.038024,0.079457167 C17.9935603,0.0646714514 17.4207236,-0.12004285 17.2020645,0.1303286 C17.0163383,0.342900047 17.2895452,0.636514357 17.1596432,1.04622868 C17.0379532,1.42980014 16.7078158,1.45855728 16.0960043,1.96157161 C15.5919693,2.37578593 15.2787239,2.63335739 15.2064758,2.99562884 C15.0575119,3.74250034 15.9550822,4.82490043 16.749684,4.79545757 C17.0354003,4.784829 17.1131372,4.63778613 18.505169,3.26018601 Z" fill="url(#linearGradient-44)"></path>
                    <path d="M16.827421,4.91078615 C16.827421,4.91078615 17.4822494,5.65757193 18.4797673,5.41071477 C19.3728699,5.18970046 19.1449777,3.12501457 18.4913831,2.79518597 C18.2733623,2.68521453 17.8771463,2.69430025 17.5792185,2.83890026 C17.4031935,2.92435741 17.3542622,3.0130717 17.0640357,3.147086 C16.7963177,3.2706003 16.711475,3.2535003 16.6394822,3.3405003 C16.5493635,3.44927174 16.5106014,3.68335747 16.7928712,4.24842895 C16.5894446,4.10340037 16.3706153,4.07305751 16.2363308,4.1689718 C16.2148861,4.18431466 16.1603384,4.23797181 16.1368088,4.30860039 C16.0516258,4.56437184 16.3155144,4.82421472 16.827421,4.91078615 Z" fill="url(#linearGradient-45)"></path>
                </g>
                <g transform="translate(64.3183, 2.7163)">
                    <path d="M22.7352342,21.4378688 C23.7615151,21.9626974 25.0509188,21.4808117 25.615118,20.3614687 C26.1793598,19.2421686 25.8047162,17.9093114 24.7784353,17.3844828 C24.7252916,17.3572685 24.6709991,17.3344256 24.6166216,17.3125685 C24.8072834,16.693197 24.9510564,16.0690255 25.0474723,15.444554 C25.106275,15.4443826 25.1653329,15.4433969 25.2252844,15.4379969 C26.3961893,15.3328683 27.3254586,14.2491396 27.3009929,13.0173395 C27.2764847,11.7855394 26.3073896,10.8721679 25.1364848,10.9773394 C25.0752993,10.9828679 25.0151777,10.9925965 24.9553964,11.0032679 C24.8331107,10.3928536 24.6655103,9.79653926 24.4540845,9.21942492 C24.5079515,9.18766778 24.5615632,9.15488206 24.6138984,9.1179392 C25.6156286,8.41105342 25.9359372,7.01579616 25.3292315,6.00162465 C24.7225685,4.98741027 23.418613,4.7383674 22.4168829,5.44525317 C22.3655263,5.48151032 22.3172758,5.52059603 22.2695358,5.56032461 C21.873873,5.11975314 21.4399162,4.71145311 20.9703884,4.33885308 C21.0034064,4.28433879 21.0357011,4.22909592 21.0649322,4.1711102 C21.6291314,3.05181011 22.3664624,1.82913858 21.3321397,1.32055282 C18.9393989,0.144038431 17.91265,1.15118137 17.3484507,2.27048147 C17.3192196,2.32846719 17.2940306,2.38735291 17.2698203,2.44632434 C16.6940903,2.28441004 16.1107866,2.17246718 15.5241641,2.11066717 C15.5278233,2.04843859 15.5306741,1.98608145 15.5294402,1.92295287 C15.5048894,0.691238478 15.8677469,0.0246384212 14.692417,0.00162413347 C12.1294379,-0.0485615851 11.2647153,1.07193851 11.2892235,2.3036529 C11.2905,2.36806719 11.2958612,2.43098148 11.3021584,2.49351006 C10.7148126,2.66215293 10.1379763,2.87772438 9.5765428,3.13851012 C9.5498646,3.08356725 9.52216523,3.02896725 9.49046625,2.9759101 C8.88376063,1.96173859 7.5798903,1.71269571 6.57807503,2.41962434 C5.57630232,3.12655297 5.25603629,4.52176738 5.86269937,5.53593889 C5.89376011,5.58792461 5.92784182,5.63648176 5.96239158,5.6844389 C5.51877612,6.13131037 5.10328553,6.61658184 4.71940881,7.13712474 C4.66975417,7.10575331 4.61941875,7.0750676 4.56623255,7.04789616 C3.53995163,6.52306755 2.2505905,7.0049533 1.68639129,8.1242534 C1.12214953,9.24355349 1.49675057,10.5764108 2.52303149,11.1012394 C2.57621769,11.1284537 2.63046761,11.1512965 2.68488773,11.1731537 C2.49422584,11.7925251 2.35045291,12.4166966 2.25403696,13.0411252 C2.19519175,13.0412967 2.13617634,13.0422824 2.07622486,13.0476395 C0.905234929,13.152811 -0.0240343591,14.2365396 0.000473841901,15.4683826 C0.0249820429,16.7001827 0.994119707,17.6134685 2.16502454,17.5083399 C2.22620994,17.5028542 2.28633162,17.4931685 2.34607036,17.4824542 C2.46839862,18.0929114 2.63595643,18.6891829 2.84738221,19.2663401 C2.79355778,19.2980972 2.73994609,19.3308829 2.68756832,19.3678258 C1.6857956,20.0747116 1.36552958,21.4699688 1.9722352,22.4841832 C2.57894082,23.4983976 4.58746448,23.969569 5.58919465,23.2626404 C5.64055124,23.2263833 4.98423354,22.965169 5.03193092,22.9254832 C5.4275937,23.3660547 5.86159309,23.7743547 6.33107832,24.1469976 C6.29810287,24.2015119 6.26576566,24.2567119 6.23657708,24.3146976 C5.67233532,25.4339977 6.04693636,26.766855 7.07321728,27.2916836 C8.0994982,27.8165551 9.38890188,27.3346265 9.95310109,26.2153264 C9.98233223,26.1573407 10.0075212,26.0984549 10.0317316,26.0394406 C10.6074616,26.2013549 11.1907652,26.3133407 11.7774303,26.3750978 C11.7737711,26.4373264 11.7709203,26.4996835 11.7721542,26.562855 C11.7966624,27.7945694 12.7657576,28.7079409 13.9366624,28.6028123 C15.1075672,28.4976837 16.0368791,27.4139122 16.0123283,26.1821121 C16.0110518,26.1177407 16.0056907,26.0547835 15.9993509,25.9922549 C16.5867393,25.8236549 17.1635755,25.6080406 17.725009,25.3472549 C17.7516872,25.4021977 17.7793866,25.4567977 17.8110856,25.5097692 C18.4177912,26.5239407 19.7216615,26.7730693 20.7234343,26.0660978 C21.725207,25.3591263 22.0455155,23.9639119 21.4388099,22.9496975 C21.4077066,22.8977975 21.3736675,22.8491975 21.3391177,22.8012832 C21.7827332,22.3544118 22.1981812,21.8691403 22.5821005,21.3485974 C22.6317126,21.3800545 22.6820905,21.4106974 22.7352342,21.4378688 Z M9.94152778,21.6014117 C6.2153026,19.6958115 4.85526764,14.8565111 6.90378732,10.7925393 C8.952307,6.72852471 13.6336712,4.97883884 17.3598964,6.88443901 C21.0861216,8.79003917 22.4461991,13.6292967 20.3976794,17.6932685 C18.3491172,21.7572831 13.6677955,23.506969 9.94152778,21.6014117 Z" id="Shape" fill="url(#linearGradient-46)"></path>
                    <path d="M25.2252419,15.4380397 C26.3961467,15.3328683 27.325416,14.2490968 27.3009504,13.0173395 C27.2764421,11.7855823 26.307347,10.8722108 25.1364422,10.9773394 C25.0752568,10.9828251 25.0151351,10.9925965 24.9553538,11.0032679 C24.8331107,10.3928107 24.6654678,9.79658211 24.454042,9.21942492 C24.507909,9.18771063 24.5615207,9.15488206 24.6138559,9.11789634 C25.615586,8.41101057 26.8549522,6.70289613 26.1482139,5.75678177 C24.8068154,3.96106733 23.418613,4.7383674 22.4168403,5.44525317 C22.3654837,5.48151032 22.3172332,5.52059603 22.2695358,5.56028175 C21.873873,5.11971029 21.4398736,4.71145311 20.9703459,4.33881022 C21.0033639,4.28429593 21.0356585,4.22909592 21.0648897,4.1711102 C21.3719655,3.56193872 21.3990692,2.89028152 21.1962809,2.31929576 C20.2287175,4.03465305 19.2741316,5.75721034 18.3366929,7.48911049 C21.3093334,9.6831821 22.25575,14.0070396 20.3976369,17.6933114 C18.8230701,20.8170402 15.6930835,22.5710975 12.6368768,22.3512832 C12.5005499,22.7073832 12.3666909,23.0654547 12.2207054,23.4181261 C11.8245746,24.3752119 11.3744917,25.3126263 10.9238556,26.2487549 C11.2072742,26.3025835 11.4919268,26.3449264 11.7773878,26.375055 C11.7737285,26.4373264 11.7708778,26.4996835 11.7721117,26.5627693 C11.7966199,27.7945694 12.5390992,28.841098 14.6611861,28.7277409 C15.8350693,28.6650409 16.0368365,27.4138693 16.0122858,26.1820692 C16.0110093,26.1177407 16.0056481,26.0547835 15.9993509,25.9922549 C16.5866967,25.8236549 17.163533,25.6079978 17.7249665,25.3472549 C17.7516447,25.4021977 17.7793441,25.4567977 17.811043,25.5097692 C18.4177487,26.5239835 20.5223479,26.9549122 21.5241206,26.2479407 C22.5259359,25.5409692 22.0454304,23.9639548 21.4387674,22.9497404 C21.4076641,22.8977975 21.3736249,22.8491975 21.3390752,22.8012832 C21.7826906,22.3544118 22.1981812,21.8691403 22.5820579,21.3486402 C22.6317126,21.3800117 22.682048,21.4106974 22.7351916,21.437826 C23.7614726,21.9627403 25.0508762,21.4807688 25.6150755,20.3614259 C26.1792747,19.2421686 25.8046736,17.9092685 24.7783927,17.3844399 C24.7252065,17.3572256 24.6709566,17.3343828 24.6165365,17.3125685 C24.8071983,16.693197 24.9509713,16.0689398 25.0473872,15.4445969 C25.1062324,15.4444255 25.1652478,15.4433969 25.2252419,15.4380397 Z" id="Path" fill="url(#linearGradient-47)"></path>
                    <path d="M23.8390819,21.5642974 C24.8653628,22.089126 26.1547239,21.6072403 26.7189657,20.4878973 C27.2831649,19.3685972 26.9085638,18.03574 25.8822404,17.5109113 C25.8290542,17.4837399 25.7748043,17.4608542 25.7203841,17.4389971 C25.911046,16.8196684 26.054819,16.1954541 26.1511924,15.5709826 C26.2100376,15.5708112 26.2690955,15.5698255 26.329047,15.5644255 C27.4999518,15.4592969 28.4292211,14.3755682 28.4047129,13.1437681 C28.3802047,11.911968 27.4111522,10.9986394 26.2402048,11.1037679 C26.1790194,11.1092965 26.1188977,11.1190251 26.0591164,11.1297394 C25.9368307,10.5192822 25.7692303,9.9230107 25.5578046,9.34589636 C25.6116715,9.31413921 25.6652832,9.2813535 25.7176184,9.24441064 C26.7193486,8.53752486 27.0396572,7.1422676 26.4329941,6.12805323 C25.8262885,5.11388171 24.5223756,4.86479598 23.5206029,5.57172461 C23.4692888,5.60798176 23.4209958,5.64706747 23.3732558,5.68675319 C22.9775931,5.24618172 22.5436362,4.83792455 22.0741084,4.46528166 C22.1071264,4.41076737 22.1394211,4.35552451 22.1686948,4.29753879 C22.732894,3.17823869 22.358293,1.84538143 21.332012,1.32050996 C20.3056886,0.795638487 19.01637,1.2775671 18.4521282,2.3968672 C18.4228971,2.45485291 18.3977081,2.51373863 18.3734977,2.57275292 C17.7977678,2.41083863 17.2144641,2.2988529 16.6278841,2.23709575 C16.6315433,2.17486718 16.6343515,2.11251003 16.6331602,2.04938145 C16.6086094,0.817624203 15.6395569,-0.0957044463 14.4686095,0.00942413414 C13.2977046,0.114509857 12.3683928,1.19832424 12.392901,2.43008148 C12.39422,2.49445292 12.3995387,2.55741007 12.4058784,2.61989579 C11.8185326,2.78853866 11.2417389,3.00415296 10.6802628,3.2649387 C10.6535846,3.20999584 10.6258853,3.15539583 10.5942288,3.10233868 C9.98756575,2.08816717 8.68361032,1.83908143 7.6818376,2.54605292 C6.68006489,3.25302441 6.35979887,4.64823882 6.96646194,5.66241033 C6.99756523,5.71435319 7.0316044,5.7629532 7.0661967,5.81091034 C6.62258124,6.25778181 6.20709065,6.74301042 5.82321393,7.26359618 C5.77355929,7.23222475 5.72322387,7.20158189 5.67003767,7.17441046 C4.64375676,6.64953899 3.35439562,7.1314676 2.79019641,8.2507677 C2.2259972,9.37006779 2.60055569,10.7029679 3.62683661,11.2277965 C3.68002281,11.2550108 3.73427274,11.2778537 3.7887354,11.2997108 C3.59807351,11.9190823 3.45425803,12.5432538 3.35788463,13.1677253 C3.29908197,13.1678967 3.24002402,13.1688824 3.18002998,13.1741967 C2.00912515,13.279411 1.07981331,14.3630968 1.10432151,15.5949398 C1.12882971,16.8267399 2.09796738,17.7400256 3.26882966,17.6348971 C3.33001507,17.6294114 3.39013675,17.6197256 3.44987549,17.6090114 C3.5721612,18.2194257 3.73976155,18.81574 3.95118733,19.3928972 C3.8973629,19.4246115 3.84375121,19.4573972 3.79141599,19.4943829 C2.78964327,20.2012687 2.46937725,21.596526 3.07604032,22.6106975 C3.6827034,23.6249119 4.98665883,23.8739547 5.98838899,23.167069 C6.03974559,23.1308118 6.08803866,23.0917261 6.13573604,23.0519975 C6.53144137,23.492569 6.96535567,23.900869 7.43488344,24.2734691 C7.401908,24.3279834 7.36957079,24.3831834 7.34033965,24.4412119 C6.77614044,25.560512 7.15069894,26.8933264 8.1770224,27.4181979 C9.20330332,27.9430265 10.4926645,27.4611408 11.0568637,26.3417978 C11.0860948,26.2838121 11.1112838,26.2249264 11.1354941,26.1659549 C11.7112241,26.3278692 12.2945704,26.4398121 12.8811929,26.5015693 C12.8775337,26.5637978 12.8746829,26.626155 12.8759168,26.6892836 C12.9004676,27.9209979 13.8695627,28.8343695 15.040425,28.7292409 C16.2113298,28.6241123 17.1406416,27.5403408 17.1161334,26.3085835 C17.114857,26.2442121 17.1094958,26.1812549 17.103156,26.1187264 C17.6905018,25.9500835 18.2673381,25.734512 18.8287716,25.4737263 C18.8554498,25.5286692 18.8831917,25.5832692 18.9148907,25.6362406 C19.5215538,26.650455 20.8254667,26.8995836 21.8272394,26.1926121 C22.8290121,25.4856406 23.1492781,24.090469 22.542615,23.0762547 C22.5115118,23.0243547 22.4774726,22.9757547 22.4428803,22.9277975 C22.8864957,22.4809261 23.3019863,21.9956546 23.6859056,21.4751117 C23.7355602,21.5064403 23.7858957,21.537126 23.8390819,21.5642974 Z M11.0453754,21.7277974 C7.31915027,19.8221973 5.95907276,14.9829397 8.00759244,10.9189679 C10.0561547,6.85499615 14.7374764,5.10531028 18.4637015,7.01091045 C22.1899267,8.91651061 23.5500042,13.7557682 21.5014845,17.8197399 C19.4529649,21.8837546 14.7716006,23.6333976 11.0453754,21.7277974 Z" id="Shape" fill="url(#linearGradient-48)"></path>
                </g>
                <g transform="translate(90.0212, 24.2572)">
                    <path d="M15.7716955,14.871827 C16.4836247,15.2358985 17.3781315,14.9016128 17.7694968,14.125127 C18.1609047,13.3486412 17.9010582,12.4240411 17.1890865,12.0599268 C17.1522391,12.0410268 17.1145832,12.0252125 17.0768423,12.0100411 C17.209127,11.5803982 17.3088192,11.1473696 17.3757062,10.7141695 C17.4165107,10.714041 17.4574428,10.7133553 17.4990556,10.7096267 C18.3113153,10.6366838 18.9559746,9.88488376 18.9389975,9.03035511 C18.921978,8.17582647 18.2497044,7.54222641 17.4374447,7.61516928 C17.3949809,7.61902642 17.3532829,7.62575499 17.3118402,7.63316928 C17.2269976,7.20969781 17.1107538,6.79604064 16.9640876,6.39566917 C17.0014455,6.3736406 17.0386333,6.35088346 17.0749276,6.32525488 C17.7698372,5.83488341 17.9920279,4.86695476 17.5711761,4.16341184 C17.1503244,3.45982607 16.245776,3.28706891 15.5508238,3.77744038 C15.5152104,3.80259752 15.4817243,3.8297261 15.4486212,3.85728324 C15.1741379,3.55166893 14.873104,3.26842605 14.5473917,3.00991174 C14.5702831,2.97206888 14.5927064,2.93379745 14.6130022,2.89355459 C15.0044101,2.11706881 15.5158912,1.26888302 14.7983455,0.916082991 C13.138468,0.0999114928 12.4261984,0.798568695 12.0347905,1.57505448 C12.0145372,1.61529734 11.9970496,1.6561402 11.9802428,1.69706877 C11.5808357,1.58474019 11.1761951,1.50708304 10.7692568,1.4642259 C10.7718098,1.42106875 10.773767,1.37782589 10.772916,1.33398303 C10.7558964,0.47949724 11.0076161,0.0171114857 10.1922504,0.00112577005 C8.41429952,-0.0336742329 7.81440173,0.743625834 7.83142132,1.59806876 C7.83231484,1.64276877 7.8360166,1.68639734 7.84039915,1.72976877 C7.43295031,1.84672593 7.03281988,1.99629737 6.6433267,2.17719738 C6.62481791,2.13909738 6.60558578,2.10121166 6.58363051,2.06439737 C6.16277875,1.36085446 5.25823041,1.1880973 4.56327824,1.67851163 C3.86832608,2.16892596 3.64613541,3.13681175 4.06702972,3.84035467 C4.08855949,3.87639753 4.11221672,3.91008325 4.13617178,3.94334039 C3.82841515,4.25336899 3.5401885,4.58996902 3.27387456,4.95108334 C3.23945245,4.92931191 3.2044772,4.90805476 3.1676298,4.88919762 C2.4557006,4.52512616 1.56123636,4.8594119 1.16982848,5.63589768 C0.778420596,6.41238346 1.0382671,7.33698354 1.75023884,7.70109786 C1.78712879,7.719955 1.82478462,7.73581215 1.86252555,7.75098358 C1.73028338,8.18062647 1.63050607,8.61365508 1.56366165,9.04681226 C1.52281465,9.04694083 1.48188255,9.04762654 1.44031222,9.05131226 C0.628010022,9.12429798 -0.0166492719,9.87605519 0.000327763141,10.7305838 C0.0173473472,11.5851125 0.689620916,12.2186697 1.50188056,12.1457268 C1.54430188,12.1419125 1.58604241,12.1351839 1.62748509,12.1277697 C1.71232772,12.5512411 1.82857148,12.9648983 1.97523775,13.3652698 C1.93787976,13.3872983 1.90069197,13.4100555 1.8643977,13.4356841 C1.16944554,13.9260555 0.947297419,14.8939842 1.36814918,15.5975271 C1.7890435,16.3011129 3.18235174,16.6279415 3.87730391,16.13757 C3.91291739,16.1124129 3.45760097,15.9312128 3.49070406,15.9036557 C3.7651874,16.20927 4.06626384,16.4925129 4.39193358,16.7510272 C4.36904224,16.7888272 4.34661894,16.8271415 4.32636563,16.8673844 C3.93495775,17.6438701 4.19480425,18.5684702 4.906776,18.9325417 C5.6187052,19.296656 6.51316944,18.9623274 6.90457732,18.1858845 C6.92487317,18.1456416 6.94231825,18.1047987 6.95912509,18.0638702 C7.35853217,18.1761988 7.76317278,18.2538559 8.17011104,18.296713 C8.1675581,18.3398702 8.16560085,18.3831559 8.16645183,18.4269559 C8.18347141,19.2814417 8.85574498,19.9150418 9.66800463,19.8420989 C10.4802643,19.769156 11.1249661,19.0173131 11.1079465,18.1628273 C11.107053,18.1181702 11.1033512,18.0744987 11.0989687,18.0311273 C11.5064175,17.9141702 11.9065905,17.7645987 12.2960837,17.5836987 C12.3145925,17.6217987 12.3338246,17.6596844 12.3558224,17.6964559 C12.7766742,18.3999988 13.6812225,18.5727988 14.3761747,18.0823845 C15.0711269,17.5919701 15.2933175,16.6240843 14.8724658,15.9204986 C14.8508935,15.8844986 14.8272788,15.85077 14.8033237,15.8175557 C15.1110378,15.5075271 15.3992645,15.1709271 15.6655784,14.8098127 C15.6998729,14.8317128 15.7348056,14.8529699 15.7716955,14.871827 Z M6.89653557,14.9852699 C4.31160114,13.6633412 3.3681205,10.3062552 4.78921322,7.48702641 C6.21030594,4.6677976 9.45781277,3.45399749 12.0427472,4.77592618 C14.6276816,6.09785486 15.5712048,9.45494086 14.1501121,12.2741697 C12.7289768,15.0933985 9.48146999,16.3071986 6.89653557,14.9852699 Z" id="Shape" fill="url(#linearGradient-49)"></path>
                    <path d="M17.4990556,10.7096695 C18.3113153,10.6366838 18.9559746,9.88488376 18.9389975,9.03039797 C18.921978,8.17591218 18.2497044,7.54226927 17.4374447,7.61521213 C17.3949809,7.61902642 17.3532829,7.62579785 17.3118402,7.63321214 C17.2270401,7.20974067 17.1107538,6.79612635 16.9640876,6.39571203 C17.0014455,6.37372631 17.0386333,6.35092631 17.0749276,6.32529774 C17.7698372,5.83492627 18.6296241,4.64996902 18.1393324,3.99365468 C17.2087866,2.74796886 16.245776,3.28715462 15.5508238,3.77756895 C15.5152104,3.80272609 15.4817243,3.82981181 15.4486212,3.85736896 C15.1741379,3.55175464 14.8730615,3.26851176 14.5473492,3.01004031 C14.5702405,2.97224031 14.5926638,2.93392602 14.6129597,2.89372602 C14.8260023,2.4711117 14.844809,2.00521166 14.7040995,1.60908305 C14.0328897,2.79905458 13.3707002,3.99399754 12.7203819,5.19545479 C14.7825598,6.71752634 15.4390903,9.71701231 14.1501121,12.2742554 C13.0577952,14.4412413 10.8864792,15.6580414 8.76634962,15.5055557 C8.67176328,15.7525843 8.57892145,16.0009843 8.47765492,16.2456557 C8.20283119,16.9095986 7.89060692,17.5598701 7.57799971,18.2093273 C7.77461845,18.2466559 7.97208818,18.2760559 8.17011104,18.2969273 C8.1675581,18.3401273 8.16560085,18.3833702 8.16645183,18.4271702 C8.18347141,19.281656 8.69852657,20.0076561 10.1706355,19.9290132 C10.98498,19.8855132 11.1249236,19.0175703 11.1079465,18.1630416 C11.107053,18.1183845 11.1033512,18.0747559 11.0989687,18.0313845 C11.5064175,17.9144273 11.9065905,17.764813 12.2960411,17.583913 C12.3145499,17.622013 12.3337821,17.6598987 12.3557799,17.6966701 C12.7766317,18.4002559 14.2366567,18.6991845 14.9316088,18.2087702 C15.626561,17.7183559 15.293275,16.6243415 14.8723807,15.9207986 C14.8508084,15.8847557 14.8271937,15.85107 14.8032386,15.8178128 C15.1109527,15.5078271 15.3992219,15.1711842 15.6654933,14.8101127 C15.699958,14.8318842 15.7348481,14.8531413 15.771738,14.8719556 C16.4836672,15.2360699 17.378174,14.9017413 17.7695394,14.1252555 C18.1609473,13.3488126 17.9011008,12.4241697 17.189129,12.0600982 C17.1522391,12.0411982 17.1145832,12.0253839 17.0768423,12.0102125 C17.209127,11.5805696 17.3088192,11.1474982 17.3757062,10.7143838 C17.4164681,10.7140838 17.4574428,10.7133553 17.4990556,10.7096695 Z" id="Path" fill="url(#linearGradient-50)"></path>
                    <path d="M16.5374491,14.9595556 C17.2493783,15.3236271 18.1438426,14.9893413 18.5352505,14.2128556 C18.9266158,13.4363698 18.6667693,12.5117697 17.9547975,12.1476554 C17.9179076,12.1287982 17.8802943,12.1129411 17.8425108,12.0977697 C17.9747956,11.6681268 18.0745303,11.2350982 18.1413747,10.8018981 C18.1821792,10.8017696 18.2231538,10.8010838 18.2647667,10.7973553 C19.0770264,10.7244124 19.7216857,9.97261234 19.7047086,9.11812655 C19.687689,8.2635979 19.015458,7.62999785 18.2031558,7.70294071 C18.160692,7.706755 18.118994,7.71352643 18.0775513,7.72094072 C17.9927087,7.29746925 17.8764649,6.88381207 17.7297986,6.48344061 C17.7671566,6.46141204 17.8043444,6.43865489 17.8406812,6.41302632 C18.5355908,5.92265485 18.7577815,4.95472619 18.3369298,4.25118328 C17.916078,3.54764036 17.0115296,3.37484034 16.3165775,3.86525467 C16.280964,3.89041182 16.247478,3.91754039 16.2143323,3.94505468 C15.939849,3.63944037 15.6388151,3.35619749 15.3131028,3.09772603 C15.3359941,3.05992603 15.3584175,3.02156889 15.3787133,2.98136888 C15.7701212,2.2048831 15.5102321,1.28024017 14.7983029,0.916168705 C14.0863312,0.552054389 13.1919095,0.886382989 12.8005016,1.66286877 C12.7802058,1.70311163 12.7627607,1.74395449 12.7459539,1.78488307 C12.3465893,1.67255448 11.9419062,1.59489733 11.5350104,1.55204019 C11.5375634,1.50884018 11.5394781,1.46564018 11.5386697,1.42184018 C11.5216501,0.56735439 10.8493765,-0.0662456643 10.0371169,0.0066971991 C9.22485721,0.0795972053 8.58019792,0.831440127 8.59717495,1.68592591 C8.59806848,1.73058306 8.60177024,1.77425449 8.60615278,1.81762593 C8.19870394,1.93462594 7.79857352,2.08419738 7.40908034,2.26509739 C7.39057154,2.22699739 7.37138196,2.18911167 7.34938415,2.15229738 C6.92853238,1.44875447 6.02398404,1.27595445 5.32903188,1.76636878 C4.63407971,2.25682596 4.41193159,3.2246689 4.83278335,3.92821182 C4.85435568,3.96425468 4.87797035,3.99798325 4.90192541,4.03119754 C4.59421134,4.34122614 4.30594213,4.67782617 4.03962819,5.03894049 C4.00516353,5.01716906 3.97027339,4.99591191 3.93338344,4.97705477 C3.22141169,4.61294045 2.32699,4.94726905 1.93558211,5.72375483 C1.54417423,6.50024061 1.80402073,7.42488355 2.51599248,7.78895501 C2.55288243,7.80781215 2.59053826,7.8236693 2.62827918,7.83884073 C2.49603702,8.26848362 2.39625971,8.70151223 2.32941529,9.13471226 C2.28861084,9.13484084 2.24763619,9.13552655 2.20606585,9.13921227 C1.39380621,9.21219799 0.749104363,9.96399805 0.766123947,10.8184838 C0.783100982,11.6730125 1.4554171,12.3065697 2.26767675,12.2336268 C2.31009806,12.2298125 2.35183859,12.223084 2.39328128,12.2156697 C2.4781239,12.6391411 2.59436766,13.0527983 2.74103393,13.4531698 C2.70367594,13.4751555 2.66648815,13.4979126 2.63019389,13.5235841 C1.93524172,14.0139555 1.7130936,14.9818842 2.13394537,15.6854271 C2.55479713,16.3890129 3.45934547,16.56177 4.15425509,16.0713986 C4.18986857,16.0462414 4.22339715,16.0191129 4.25650024,15.9915557 C4.53098358,16.29717 4.83201747,16.5804129 5.15772976,16.8389272 C5.13483842,16.8767272 5.11241512,16.9150415 5.09211927,16.9552844 C4.70071138,17.7317701 4.96055788,18.6563702 5.67252963,19.0204845 C6.38445883,19.384556 7.27892307,19.0502703 7.67033095,18.2737845 C7.69062681,18.2335845 7.70807188,18.1926988 7.72487872,18.151813 C8.12424326,18.2640988 8.52892642,18.3417559 8.93586467,18.3846559 C8.93335428,18.4278131 8.93135448,18.4710988 8.93220546,18.5148988 C8.94922505,19.3693846 9.62149862,20.0029846 10.4337583,19.9300418 C11.2460179,19.8570989 11.8907198,19.105256 11.8737002,18.250813 C11.8728066,18.2061559 11.8691049,18.1624845 11.8647223,18.119113 C12.2721712,18.0021559 12.6723016,17.8525844 13.0617948,17.6716416 C13.0803036,17.7097416 13.0995357,17.7476273 13.1215335,17.7843559 C13.5423853,18.4879416 14.4469336,18.6607417 15.1418432,18.1703273 C15.8367954,17.679913 16.0589435,16.7120272 15.6381343,16.0084414 C15.616562,15.9724414 15.5929473,15.9387128 15.5689497,15.9054557 C15.8767063,15.5954271 16.164933,15.2588271 16.4312469,14.8977128 C16.4656265,14.9193985 16.5005592,14.9406556 16.5374491,14.9595556 Z M7.6622892,15.0729556 C5.07735478,13.7510269 4.13383159,10.3939409 5.55496685,7.57471213 C6.97610212,4.75548332 10.2235664,3.54168322 12.8085434,4.8636119 C15.3934778,6.18554058 16.3369584,9.54262659 14.9159083,12.3618554 C13.4947305,15.1811271 10.2472236,16.3948843 7.6622892,15.0729556 Z" id="Shape" fill="url(#linearGradient-51)"></path>
                </g>
                <g transform="translate(29.7242, 77.2071)" id="Path">
                    <path d="M9.5297936,4.52045785 C9.5297936,4.52045785 6.99081205,3.46432919 7.68031795,2.29788623 C8.3698664,1.13144327 8.5456787,1.65262903 8.5456787,1.65262903 C8.5456787,1.65262903 7.27265636,0.957743257 9.02856685,0.349686062 C10.7844773,-0.258328275 11.1649501,0.486186074 12.2682872,0.0643003235 C13.3716243,-0.357585427 14.1581418,1.41592901 13.2353825,1.91320048 C12.3126232,2.41051481 11.4497729,2.68252912 11.4497729,2.68252912 C11.4497729,2.68252912 10.1107145,5.55177222 9.5297936,4.52045785 Z" fill="url(#linearGradient-52)"></path>
                    <path d="M10.2780596,39.8630752 C10.2780596,39.8630752 10.2090877,40.4158038 10.255381,40.6009895 C10.3017168,40.7861752 11.8972603,40.9200181 12.438866,40.8556467 C12.9804717,40.7912324 12.1162598,40.2340466 11.7711877,40.1294752 C11.4261582,40.0248609 10.2780596,39.8630752 10.2780596,39.8630752 Z" fill="url(#linearGradient-53)"></path>
                    <path d="M11.0812563,38.9409608 L10.9131028,40.0499323 C10.9131028,40.0499323 10.4842519,40.244118 10.2781022,40.0522037 L10.2554236,38.8913751 L11.0812563,38.9409608 Z" fill="url(#linearGradient-54)"></path>
                    <path d="M3.43665487,38.8914179 C3.43665487,38.8914179 3.77521694,39.1444894 3.68492805,39.4475323 C3.59472425,39.7505751 2.80471771,40.9648895 2.24170987,41.3095038 C1.67874458,41.6542039 1.85519512,40.9361324 2.01905116,40.4889181 C2.18286466,40.0417037 2.60150388,39.0565894 2.76497698,38.8914608 C2.92836499,38.7263322 3.43665487,38.8914179 3.43665487,38.8914179 Z" fill="url(#linearGradient-55)"></path>
                    <path d="M4.04561558,37.673075 C3.88197228,38.1325464 3.72454113,38.5102893 3.60144699,38.7889893 C3.329006,39.4054037 3.18012719,39.6367037 3.01150566,39.8372323 C2.864499,40.0118752 2.51636341,40.3846038 2.42279825,40.3225466 C2.32778642,40.2596323 2.58244194,39.8065037 3.0733293,38.4793893 C3.1445988,38.2867464 3.36972535,37.673075 3.36972535,37.673075 L3.36972535,37.673075 L4.04561558,37.673075 Z" fill="url(#linearGradient-56)"></path>
                    <path d="M14.4226687,18.4735019 C14.5394656,19.6284163 14.6514545,21.4209593 14.4839818,23.5965595 C14.2656205,26.4310026 13.7029105,28.224617 12.997236,31.2468173 C12.5659597,33.0937889 11.9849111,35.8121748 11.459006,39.2119037 C11.3369756,39.2822751 10.9780326,39.4672465 10.5159083,39.3981608 C10.2571255,39.3594608 10.0635703,39.2557894 9.94932634,39.1813465 C8.56959121,34.9347604 8.97708261,32.3032031 9.64297383,30.6636601 C9.92677539,29.9647457 10.2708688,29.4133885 10.454808,28.3390885 C10.698188,26.917774 10.3972818,26.1232026 9.96813298,22.8309166 C9.66220596,20.4843592 9.71513687,20.1215735 9.91873364,19.7696734 C10.7321847,18.3626305 13.2205329,18.3901447 14.4226687,18.4735019 Z" fill="url(#linearGradient-57)"></path>
                    <path d="M11.0236876,18.9673448 C10.178495,23.3640166 9.34891797,25.6731597 8.72115061,26.9792741 C8.56631494,27.3013884 8.04977057,28.3405456 7.5614787,29.8303886 C7.12918127,31.1491458 6.94902897,32.1193031 6.85678283,32.546246 C6.565365,33.8939318 5.8451813,35.8616748 3.90733146,38.4426607 C3.88316365,38.4569322 3.55272843,38.6451608 3.23684495,38.4774179 C3.07694596,38.3923893 2.99725176,38.2570036 2.96559533,38.193875 C3.21893184,35.7262891 3.50971143,33.6527746 3.76219696,32.0524459 C3.81517042,31.7167887 4.04846636,30.2482886 4.41421722,28.3081885 C4.55739448,27.5488884 4.76716085,26.4364454 5.01841246,25.2938311 C5.33127496,23.8708881 5.81101449,21.9351165 6.55038777,19.6155163 C8.04147352,19.3993448 9.53264438,19.1834734 11.0236876,18.9673448 Z" fill="url(#linearGradient-58)"></path>
                    <path d="M15.0555845,13.9814729 C15.0017601,13.9939015 14.7680812,14.0721587 14.6756648,15.0555587 C14.4528359,17.4265875 15.6784587,18.3865876 15.3766589,19.6724306 C15.0869856,20.9066735 13.6096006,21.5054736 12.0889008,22.1218451 C11.072704,22.5337451 7.92961231,23.8076738 6.10166643,22.3751737 C5.33238123,21.7722593 5.24817684,21.0443735 4.69938036,18.3688447 C3.30496584,11.5709299 1.92229483,10.8487441 2.50878969,9.37715826 C3.51588103,6.8500009 7.05493333,5.94160083 7.50352702,5.76747224 C12.2873917,3.91077208 17.9366171,7.3231438 20.1689483,11.2435013 C20.4629191,11.7596728 22.218319,14.8425587 20.9849523,16.3048017 C20.2387712,17.1894161 18.5240481,17.3322161 17.3924585,16.7290017 C15.8805663,15.9230303 15.5593642,13.8651586 15.0555845,13.9814729 Z" fill="url(#linearGradient-59)"></path>
                    <path d="M20.2840433,15.7796731 C20.2989779,15.7796731 20.3141679,15.7765017 20.3287197,15.769816 C20.3828419,15.7450017 20.4067545,15.6805445 20.3821186,15.6259445 C20.3411014,15.5355588 19.3536251,13.4008872 17.0716819,12.5585728 C17.0156449,12.5377014 16.9538212,12.5667585 16.9333977,12.6232014 C16.9128891,12.6794728 16.9416097,12.7419157 16.9975616,12.7624871 C19.1924922,13.5727443 20.1760965,15.6948159 20.1857552,15.7161159 C20.2039236,15.7561445 20.2430686,15.7796731 20.2840433,15.7796731 Z" fill="url(#linearGradient-60)"></path>
                    <path d="M6.47899061,8.64622963 C6.78091803,9.47414398 5.87496557,10.1915298 6.26326738,11.0904584 C6.81985033,12.3787442 9.03158782,11.7175013 9.82236025,12.9915157 C10.7595436,14.5014158 8.61341664,16.9780018 9.49881795,17.8256733 C9.90226719,18.2119447 10.3684336,17.7172018 11.5479759,17.9886161 C13.2278514,18.3751019 13.7326097,19.712202 14.5138937,19.5094448 C14.7596139,19.4456734 15.0574992,19.2210162 15.3081126,18.529259 C15.4173783,18.9130876 15.4693731,19.2774163 15.3767015,19.6723877 C15.0870282,20.9066307 13.6096432,21.5054307 12.0889433,22.1218022 C11.072704,22.5337022 7.92965486,23.8076309 6.10175153,22.3751308 C5.33246633,21.7722165 5.24826194,21.0443307 4.69946545,18.3688019 C3.30505093,11.570887 2.76489189,10.9868727 3.3513442,9.51524399 C3.67109964,8.71282963 4.16134875,8.06020101 4.69572114,7.53682953 C5.84781934,7.79320098 6.32096377,8.21281531 6.47899061,8.64622963 Z" fill="url(#linearGradient-61)" opacity="0.3"></path>
                    <path d="M10.899317,4.74940072 C10.8220481,5.21080076 11.1403994,5.64571509 11.6012472,5.70464366 C12.1594895,5.77604367 12.8418472,5.88464368 13.1459872,6.01750083 C13.7042721,6.26140085 11.5418063,6.14932941 9.58306489,6.32157229 C8.36025033,6.42914372 7.43366163,6.39314372 6.91001158,6.35088657 C6.76938726,6.33952943 6.73747554,6.14718656 6.8658883,6.08868655 C7.3364798,5.87410082 7.88961628,5.54667222 8.55103987,5.38677221 C9.3698946,5.18877219 10.2716347,3.24652917 10.2716347,3.24652917 L11.0550887,3.81815779 L10.899317,4.74940072 Z" fill="url(#linearGradient-62)"></path>
                    <path d="M9.61450858,4.2934864 C9.61450858,4.2934864 10.4499149,5.24924362 11.7252774,4.93578645 C12.8672489,4.65502929 12.580086,2.01571478 11.7453605,1.59288617 C11.4669627,1.4518433 10.9605024,1.4626433 10.5794339,1.64688617 C10.3543499,1.75570047 10.2915476,1.86905762 9.9203505,2.03971478 C9.57800157,2.19704336 9.46954427,2.17501479 9.37738322,2.28605766 C9.26194789,2.42491481 9.21199541,2.72405769 9.57157668,3.44675776 C9.31190037,3.26105774 9.03222606,3.22175774 8.86045591,3.34415775 C8.83301183,3.36370061 8.76318898,3.43210061 8.73297922,3.52235776 C8.62358584,3.84910065 8.96031832,4.18175782 9.61450858,4.2934864 Z" fill="url(#linearGradient-63)"></path>
                    <g transform="translate(9.945, 9.433)">
                        <path d="M7.03815725,0.466242897 C7.06202721,0.208842875 6.87400336,4.28571465e-05 6.61815646,4.28571465e-05 L1.09113165,4.28571465e-05 C0.835284749,4.28571465e-05 0.610966631,0.208885732 0.590117641,0.466242897 L0.00149532689,7.73670066 C-0.0187579781,7.98707211 0.169095681,8.18982927 0.42115572,8.18982927 L5.86542281,8.18982927 C6.1174403,8.18982927 6.34056705,7.98707211 6.36379878,7.73670066 L7.03815725,0.466242897 Z" fill="url(#linearGradient-64)"></path>
                        <path d="M7.18656802,0.466071468 L6.51097563,7.73712923 C6.48876507,7.98732925 6.26555323,8.18982927 6.01276986,8.18982927 L0.569438846,8.18982927 C0.316655474,8.18982927 0.128886913,7.98732925 0.149608257,7.73712923 L0.737975277,0.466071468 C0.757164858,0.220414305 0.964123,0.0193714302 1.20516286,0.00150000013 C1.21694892,0 1.22733087,0 1.23915948,0 L6.76665233,0 C7.02249923,0 7.21018269,0.208457161 7.18656802,0.466071468 Z" fill="url(#linearGradient-65)"></path>
                        <path d="M5.92550194,8.18982927 L0.569438846,8.18982927 C0.316655474,8.18982927 0.128886913,7.98732925 0.149608257,7.73712923 L0.737975277,0.466071468 C0.757164858,0.220414305 0.964123,0.0193714302 1.20516286,0.00150000013 C1.19478091,0.0193714302 1.18890916,0.0327428599 1.18444151,0.0402000034 C1.08389832,0.251657164 1.0439874,0.497314328 1.13125531,0.719228633 C1.34710619,1.25974296 2.07443811,1.37142869 2.46320796,1.74964301 C2.72045897,1.99830017 2.856488,2.34527163 2.87567758,2.69070023 C2.8934205,2.99742883 2.78989888,3.30124314 2.83278823,3.60642888 C2.8993348,4.06362892 3.34426928,4.17531464 3.75529223,4.25717179 C4.28600541,4.36290037 4.84037581,4.43138609 5.24250603,4.81260041 C5.76279472,5.30550045 5.59136496,6.11850052 5.59727926,6.74095772 C5.60025769,7.20402919 5.55438991,7.78924352 5.89886629,8.16295784 L5.92550194,8.18982927 Z" fill="url(#linearGradient-66)" opacity="0.2"></path>
                    </g>
                    <path d="M9.37457499,14.0290015 L9.4886062,13.8412015 C9.58944724,13.4511158 9.96149535,13.1965872 10.3586899,13.2459157 L10.9578218,13.3203586 C11.1452925,13.34363 11.2721735,13.5232872 11.2335816,13.7095872 C11.1778425,13.9789444 11.0344099,14.3011873 10.6662763,14.2761587 C10.0409343,14.2336872 9.64118677,15.1516016 9.64118677,15.1516016 L9.40116809,14.8111016 C9.23778008,14.5792444 9.22731304,14.2715301 9.37457499,14.0290015 Z" fill="url(#linearGradient-67)"></path>
                    <path d="M9.37083068,13.8400872 C9.24173714,13.9583301 7.93301622,15.119373 6.3587047,14.7229016 C4.98764956,14.3776015 4.14590348,13.03493 3.99838624,11.9051728 C3.64769771,9.21828682 6.34142982,7.48672953 5.91300434,6.94295805 C5.65788078,6.61912946 5.07117317,6.72258661 4.16015738,7.28830094 C3.21442165,7.87548671 0.658888557,9.46227256 0.114219319,12.5760585 C0.0678835019,12.8407443 -0.533035461,16.5530732 1.57101061,18.0863304 C3.51643417,19.5039591 7.32703393,18.7328305 9.90779856,15.3796016 C9.72883763,14.8664302 9.54983416,14.3532587 9.37083068,13.8400872 Z" fill="url(#linearGradient-68)"></path>
                    <path d="M17.4157753,12.9836729 L17.3205933,12.8269443 C17.2364314,12.5014442 16.9259517,12.2890014 16.5944527,12.3301442 L16.0944599,12.3922442 C15.9380074,12.4116585 15.832103,12.5616157 15.8643126,12.7170585 C15.9108186,12.9418443 16.0305514,13.2107729 16.3377549,13.1899014 C16.8596179,13.1544586 17.1932017,13.9204444 17.1932017,13.9204444 L17.3935222,13.6363015 C17.5299342,13.4428872 17.5386567,13.18613 17.4157753,12.9836729 Z" fill="url(#linearGradient-69)"></path>
                </g>
            </g>
        </g>
    </g>
</svg>