<?xml version="1.0" encoding="UTF-8"?>
<svg width="120px" height="120px" viewBox="0 0 120 120" version="1.1" xmlns="http://www.w3.org/2000/svg" xmlns:xlink="http://www.w3.org/1999/xlink">
    <title>Illustration</title>
    <defs>
        <linearGradient x1="459.196791%" y1="163.926724%" x2="39.5871859%" y2="46.5672622%" id="linearGradient-1">
            <stop stop-color="#311944" offset="10%"></stop>
            <stop stop-color="#371B47" offset="26.58%"></stop>
            <stop stop-color="#462150" offset="47.7%"></stop>
            <stop stop-color="#4A2252" offset="51.5%"></stop>
            <stop stop-color="#5C295C" offset="68.06%"></stop>
            <stop stop-color="#893976" offset="100%"></stop>
        </linearGradient>
        <linearGradient x1="269.086052%" y1="160.527361%" x2="19.6491644%" y2="37.3531201%" id="linearGradient-2">
            <stop stop-color="#311944" offset="10%"></stop>
            <stop stop-color="#371B47" offset="26.7%"></stop>
            <stop stop-color="#462150" offset="48.03%"></stop>
            <stop stop-color="#612A5F" offset="71.86%"></stop>
            <stop stop-color="#853774" offset="97.36%"></stop>
            <stop stop-color="#893976" offset="100%"></stop>
        </linearGradient>
        <linearGradient x1="-117.584022%" y1="-30.3213788%" x2="195.911843%" y2="119.931605%" id="linearGradient-3">
            <stop stop-color="#AA80F9" offset="0%"></stop>
            <stop stop-color="#6165D7" offset="99.64%"></stop>
        </linearGradient>
        <linearGradient x1="272.238201%" y1="101.283889%" x2="22.7662894%" y2="43.4390498%" id="linearGradient-4">
            <stop stop-color="#311944" offset="10%"></stop>
            <stop stop-color="#371B47" offset="26.7%"></stop>
            <stop stop-color="#462150" offset="48.03%"></stop>
            <stop stop-color="#612A5F" offset="71.86%"></stop>
            <stop stop-color="#853774" offset="97.36%"></stop>
            <stop stop-color="#893976" offset="100%"></stop>
        </linearGradient>
        <linearGradient x1="163.880468%" y1="100.79002%" x2="22.8522141%" y2="40.4670561%" id="linearGradient-5">
            <stop stop-color="#311944" offset="10%"></stop>
            <stop stop-color="#371B47" offset="26.7%"></stop>
            <stop stop-color="#462150" offset="48.03%"></stop>
            <stop stop-color="#612A5F" offset="71.86%"></stop>
            <stop stop-color="#853774" offset="97.36%"></stop>
            <stop stop-color="#893976" offset="100%"></stop>
        </linearGradient>
        <linearGradient x1="16.6893862%" y1="35.8369347%" x2="206.633352%" y2="116.597812%" id="linearGradient-6">
            <stop stop-color="#AA80F9" offset="0%"></stop>
            <stop stop-color="#6165D7" offset="99.64%"></stop>
        </linearGradient>
        <linearGradient x1="51.44202%" y1="81.4076007%" x2="57.1939968%" y2="296.268449%" id="linearGradient-7">
            <stop stop-color="#FFC444" offset="0%"></stop>
            <stop stop-color="#F36F56" offset="99.64%"></stop>
        </linearGradient>
        <linearGradient x1="52.2592976%" y1="139.912245%" x2="56.3545481%" y2="338.216847%" id="linearGradient-8">
            <stop stop-color="#FFC444" offset="0%"></stop>
            <stop stop-color="#F36F56" offset="99.64%"></stop>
        </linearGradient>
        <linearGradient x1="27.8275725%" y1="-155.832322%" x2="72.8649349%" y2="186.479895%" id="linearGradient-9">
            <stop stop-color="#FFC444" offset="0%"></stop>
            <stop stop-color="#F36F56" offset="99.64%"></stop>
        </linearGradient>
        <linearGradient x1="21.9400934%" y1="-34.9077685%" x2="114.459726%" y2="265.857887%" id="linearGradient-10">
            <stop stop-color="#FFC444" offset="0%"></stop>
            <stop stop-color="#F36F56" offset="99.64%"></stop>
        </linearGradient>
        <linearGradient x1="56.1927311%" y1="74.5887835%" x2="47.4502127%" y2="28.8224189%" id="linearGradient-11">
            <stop stop-color="#444B8C" offset="0%"></stop>
            <stop stop-color="#3E4177" offset="99.64%"></stop>
        </linearGradient>
        <linearGradient x1="55.9818526%" y1="74.5901618%" x2="47.7987713%" y2="28.8230357%" id="linearGradient-12">
            <stop stop-color="#444B8C" offset="0%"></stop>
            <stop stop-color="#3E4177" offset="99.64%"></stop>
        </linearGradient>
        <linearGradient x1="50.7432032%" y1="49.7892608%" x2="29.0722709%" y2="35.6250137%" id="linearGradient-13">
            <stop stop-color="#444B8C" offset="0%"></stop>
            <stop stop-color="#3E4177" offset="99.64%"></stop>
        </linearGradient>
        <linearGradient x1="43.521695%" y1="1.00228964%" x2="61.2939308%" y2="75.3517475%" id="linearGradient-14">
            <stop stop-color="#FF9085" offset="0%"></stop>
            <stop stop-color="#FB6FBB" offset="100%"></stop>
        </linearGradient>
        <linearGradient x1="43.483227%" y1="47.5868327%" x2="65.1833796%" y2="107.068606%" id="linearGradient-15">
            <stop stop-color="#FFC444" offset="0%"></stop>
            <stop stop-color="#F36F56" offset="99.64%"></stop>
        </linearGradient>
        <linearGradient x1="473.459171%" y1="2162.92316%" x2="506.639555%" y2="2328.49686%" id="linearGradient-16">
            <stop stop-color="#FFC444" offset="0%"></stop>
            <stop stop-color="#F36F56" offset="99.64%"></stop>
        </linearGradient>
        <linearGradient x1="6433.73383%" y1="14998.9712%" x2="6913.10462%" y2="16121.0608%" id="linearGradient-17">
            <stop stop-color="#FFC444" offset="0%"></stop>
            <stop stop-color="#F36F56" offset="99.64%"></stop>
        </linearGradient>
        <linearGradient x1="33.1940022%" y1="-21.6598992%" x2="56.9997076%" y2="73.0861898%" id="linearGradient-18">
            <stop stop-color="#FF9085" offset="0%"></stop>
            <stop stop-color="#FB6FBB" offset="100%"></stop>
        </linearGradient>
        <linearGradient x1="120.626841%" y1="64.578197%" x2="35.0536696%" y2="45.8173337%" id="linearGradient-19">
            <stop stop-color="#FFC444" offset="0%"></stop>
            <stop stop-color="#F36F56" offset="99.64%"></stop>
        </linearGradient>
        <linearGradient x1="227.570548%" y1="201.392085%" x2="56.0402836%" y2="53.7088824%" id="linearGradient-20">
            <stop stop-color="#311944" offset="10%"></stop>
            <stop stop-color="#371B47" offset="26.7%"></stop>
            <stop stop-color="#462150" offset="48.03%"></stop>
            <stop stop-color="#612A5F" offset="71.86%"></stop>
            <stop stop-color="#853774" offset="97.36%"></stop>
            <stop stop-color="#893976" offset="100%"></stop>
        </linearGradient>
        <linearGradient x1="164.706988%" y1="206.140435%" x2="43.2586428%" y2="45.7031763%" id="linearGradient-21">
            <stop stop-color="#311944" offset="10%"></stop>
            <stop stop-color="#371B47" offset="26.7%"></stop>
            <stop stop-color="#462150" offset="48.03%"></stop>
            <stop stop-color="#612A5F" offset="71.86%"></stop>
            <stop stop-color="#853774" offset="97.36%"></stop>
            <stop stop-color="#893976" offset="100%"></stop>
        </linearGradient>
        <linearGradient x1="-105.496263%" y1="-53.0524695%" x2="185.388158%" y2="139.825761%" id="linearGradient-22">
            <stop stop-color="#AA80F9" offset="0%"></stop>
            <stop stop-color="#6165D7" offset="99.64%"></stop>
        </linearGradient>
        <linearGradient x1="107.147481%" y1="488.879722%" x2="47.7591874%" y2="38.7520635%" id="linearGradient-23">
            <stop stop-color="#311944" offset="0%"></stop>
            <stop stop-color="#893976" offset="100%"></stop>
        </linearGradient>
        <linearGradient x1="19.165052%" y1="324.766275%" x2="-22.5266496%" y2="695.341115%" id="linearGradient-24">
            <stop stop-color="#FFC444" offset="0%"></stop>
            <stop stop-color="#F36F56" offset="99.64%"></stop>
        </linearGradient>
        <linearGradient x1="95.5856385%" y1="181.890032%" x2="46.910704%" y2="46.8235367%" id="linearGradient-25">
            <stop stop-color="#311944" offset="0%"></stop>
            <stop stop-color="#893976" offset="100%"></stop>
        </linearGradient>
        <linearGradient x1="40.5489028%" y1="148.92243%" x2="-2.43023229%" y2="586.121219%" id="linearGradient-26">
            <stop stop-color="#FFC444" offset="0%"></stop>
            <stop stop-color="#F36F56" offset="99.64%"></stop>
        </linearGradient>
        <linearGradient x1="20.5059469%" y1="143.17503%" x2="76.189713%" y2="22.2897767%" id="linearGradient-27">
            <stop stop-color="#FFC444" offset="0%"></stop>
            <stop stop-color="#F36F56" offset="99.64%"></stop>
        </linearGradient>
        <linearGradient x1="68.5160134%" y1="89.6911818%" x2="0.218040673%" y2="-44.806187%" id="linearGradient-28">
            <stop stop-color="#444B8C" offset="0%"></stop>
            <stop stop-color="#26264F" offset="99.64%"></stop>
        </linearGradient>
        <linearGradient x1="68.4412751%" y1="89.6911628%" x2="5.60606177%" y2="-44.8066368%" id="linearGradient-29">
            <stop stop-color="#444B8C" offset="0%"></stop>
            <stop stop-color="#26264F" offset="99.64%"></stop>
        </linearGradient>
        <linearGradient x1="50.4204565%" y1="55.8227309%" x2="11.5674326%" y2="-4.41194245%" id="linearGradient-30">
            <stop stop-color="#444B8C" offset="0%"></stop>
            <stop stop-color="#26264F" offset="99.64%"></stop>
        </linearGradient>
        <linearGradient x1="45.875209%" y1="174.834317%" x2="50.8818353%" y2="10.071632%" id="linearGradient-31">
            <stop stop-color="#311944" offset="0%"></stop>
            <stop stop-color="#893976" offset="100%"></stop>
        </linearGradient>
        <linearGradient x1="189.951195%" y1="82.1793961%" x2="-50.5613797%" y2="21.7489261%" id="linearGradient-32">
            <stop stop-color="#FFC444" offset="0%"></stop>
            <stop stop-color="#F36F56" offset="99.64%"></stop>
        </linearGradient>
        <linearGradient x1="218.282613%" y1="-21.8536179%" x2="-84.7508747%" y2="102.829445%" id="linearGradient-33">
            <stop stop-color="#FFC444" offset="0%"></stop>
            <stop stop-color="#F57F53" offset="81.42%"></stop>
            <stop stop-color="#F36F56" offset="99.64%"></stop>
        </linearGradient>
        <linearGradient x1="52.7009029%" y1="39.1337987%" x2="36.6461899%" y2="85.0585413%" id="linearGradient-34">
            <stop stop-color="#FFC444" offset="0%"></stop>
            <stop stop-color="#F36F56" offset="99.64%"></stop>
        </linearGradient>
        <linearGradient x1="56.9407556%" y1="31.4223104%" x2="36.8906796%" y2="84.9045029%" id="linearGradient-35">
            <stop stop-color="#FFC444" offset="0%"></stop>
            <stop stop-color="#F36F56" offset="99.64%"></stop>
        </linearGradient>
    </defs>
    <g id="Page-1" stroke="none" stroke-width="1" fill="none" fill-rule="evenodd">
        <g id="Artboard" transform="translate(-650, -18)" fill-rule="nonzero">
            <g id="Group" transform="translate(650, 18)">
                <path d="M63.8639275,113.24806 C54.3399615,115.16 35.0373198,119.035047 22.1243743,109.761831 C-1.3114033,92.9318759 0.340113162,35.6948887 29.8876919,11.5183659 C32.4422443,9.42819487 45.7674203,-1.05704693 64.0139119,0.086952054 C95.6630425,2.07135299 123.715225,37.8897112 118.205585,66.5955801 C114.981045,83.3957476 100.874649,94.5618455 95.067182,99.1588049 C92.6737742,101.053303 81.39056,109.729558 63.8639275,113.24806 Z" id="Path" fill="#F4F7FA"></path>
                <g transform="translate(21.0039, 2.6309)">
                    <path d="M77.7299528,4.70504988 L3.25917424,0.136221303 C1.54399061,0.0474374038 0,2.03241836 0,3.69913617 L0,105.397343 C0,107.708832 2.22641535,108.174088 3.94159898,107.988276 L77.7299528,99.9963989 C79.0778354,99.8504006 80.1659839,98.5423399 80.1659839,97.0741533 L80.1659839,7.48958308 C80.1659839,6.02139651 79.0778354,4.77485896 77.7299528,4.70504988 Z" id="Path" fill="#97A6B7"></path>
                    <path d="M78.954784,3.89725311 L4.33690374,0.00439192019 C2.6217201,-0.0850962845 1.22483113,1.20374101 1.22483113,2.88346776 L1.22483113,105.376256 C1.22483113,107.055983 2.6217201,108.265233 4.33690374,108.078012 L78.954784,99.9331357 C80.3026253,99.7860188 81.390815,98.4677249 81.390815,96.9880623 L81.390815,6.70353692 C81.390815,5.22387432 80.3026253,3.96755935 78.954784,3.89725311 Z" id="Path" fill="#D8DEE8"></path>
                    <path d="M4.33690374,106.688128 C3.41175306,106.787186 2.65721887,106.131561 2.65721887,105.226404 L2.65721887,2.95174394 C2.65721887,2.04658732 3.41175306,1.34795788 4.33690374,1.39431774 L78.954784,5.13239749 C79.6834147,5.16889707 80.2748687,5.84983602 80.2748687,6.65038259 L80.2748687,97.1048527 C80.2748687,97.9053993 79.6833736,98.620062 78.954784,98.6980742 L4.33690374,106.688128 Z" id="Path" fill="#FFFFFF" opacity="0.74"></path>
                    <polygon id="Path" fill="#FFFFFF" points="74.1455242 96.2723638 10.3245415 102.793568 10.3245415 8.43641801 74.1455242 10.9854647"></polygon>
                    <g transform="translate(18.4902, 15.8235)" fill="#D8DEE8">
                        <g transform="translate(0, 36.1562)">
                            <path d="M5.93669577,1.7475472 L5.93669577,7.18441137 L0.596766454,7.37556811 L0.596766454,1.88687537 L5.93669577,1.7475472 Z M6.53346223,1.13140434 L0,1.30184623 L0,7.99763543 L6.53346223,7.7637232 L6.53346223,1.13140434 Z" id="Shape"></path>
                            <polygon id="Path" points="49.9109419 6.21077141 8.93930698 7.6775908 8.93930698 1.06867974 49.9109419 0"></polygon>
                        </g>
                        <g transform="translate(0, 45.2056)">
                            <path d="M5.93669577,2.37048454 L5.93669577,7.8066444 L0.596766454,8.07345182 L0.596766454,2.58542195 L5.93669577,2.37048454 Z M6.53346223,1.74564144 L0,2.00855447 L0,8.70434366 L6.53346223,8.37791887 L6.53346223,1.74564144 Z" id="Shape"></path>
                            <polygon id="Path" points="49.9109419 6.21081284 8.93930698 8.25777266 8.93930698 1.64882017 49.9109419 0"></polygon>
                        </g>
                        <g transform="translate(0, 54.2551)">
                            <path d="M5.93669577,2.99354617 L5.93669577,8.428836 L0.596766454,8.77125267 L0.596766454,3.28405139 L5.93669577,2.99354617 Z M6.53346223,2.3598371 L0,2.71526271 L0,9.41109333 L6.53346223,8.99215596 L6.53346223,2.3598371 Z" id="Shape"></path>
                            <polygon id="Path" points="49.9109419 6.21077141 8.93930698 8.83787167 8.93930698 2.2289606 49.9109419 0"></polygon>
                        </g>
                        <g transform="translate(0, 63.3045)">
                            <path d="M5.93669577,3.61673208 L5.93669577,9.05090331 L0.596766454,9.46892923 L0.596766454,3.98280512 L5.93669577,3.61673208 Z M6.53346223,2.97407419 L0,3.42201237 L0,10.117843 L6.53346223,9.60639305 L6.53346223,2.97407419 Z" id="Shape"></path>
                            <polygon id="Path" points="49.9109419 6.21077141 8.93930698 9.41805353 8.93930698 2.80910103 49.9109419 0"></polygon>
                        </g>
                        <polygon id="Path" points="25.9810642 30.8066045 0 31.2501925 0 0 25.9810642 0.734839021"></polygon>
                        <polygon id="Path" points="49.910983 5.22934267 30.0614461 4.78650035 30.0614461 0.850220804 49.910983 1.411635"></polygon>
                        <polygon id="Path" points="49.910983 13.7131559 30.0614461 13.5338481 30.0614461 11.565729 49.910983 11.8043228"></polygon>
                        <polygon id="Path" points="49.910983 16.8592878 30.0614461 16.7776712 30.0614461 14.8095107 49.910983 14.9504132"></polygon>
                        <polygon id="Path" points="49.910983 20.0053367 30.0614461 20.0214529 30.0614461 18.0532924 49.910983 18.0965036"></polygon>
                    </g>
                </g>
                <g transform="translate(26.115, 28.4341)">
                    <path d="M26.7969567,23.0673465 C28.0450967,23.5 29.4344494,22.7485448 29.9001752,21.3889455 C30.3658186,20.0293463 29.7315354,18.5763644 28.4833954,18.1437138 C28.4186986,18.1212589 28.3534666,18.1039827 28.2882345,18.0877837 C28.4078678,17.3547675 28.4733882,16.6236572 28.4851662,15.8997971 C28.5519632,15.8903096 28.6188837,15.8797865 28.6861749,15.8641675 C29.9999588,15.5590376 30.8859456,14.1818721 30.6652107,12.787969 C30.4444759,11.3941488 29.2004541,10.5115714 27.8867113,10.8167013 C27.8179787,10.8326932 27.7512641,10.8532423 27.6850025,10.8748686 C27.4504717,10.2016356 27.1666875,9.55160324 26.8361618,8.93024024 C26.8923339,8.88566185 26.9480941,8.83996487 27.0017953,8.78975204 C28.0291594,7.8286653 28.1744902,6.19463554 27.3264731,5.14008333 C26.4783737,4.08561399 24.9580215,4.00992188 23.9306575,4.97105006 C23.8779858,5.02031 23.8292677,5.07234573 23.7812496,5.12500291 C23.2627287,4.68787789 22.7057851,4.29346691 22.1140017,3.94512579 C22.1429526,3.87800964 22.1710386,3.81023061 22.1951712,3.73984151 C22.6608969,2.38020081 23.3069992,0.875804661 22.0522289,0.462874598 C19.1496896,-0.492411987 18.1408986,0.813370066 17.675214,2.17296933 C17.6511226,2.24344129 17.631726,2.31420326 17.6134412,2.38500666 C16.9339816,2.29270123 16.2537807,2.2582317 15.5776567,2.28118377 C15.5720972,2.21000751 15.5655081,2.13874838 15.5542243,2.06736496 C15.3334894,0.673627606 15.6413239,-0.140383619 14.302419,0.0200322741 C11.3828304,0.369823437 10.5759129,1.77851693 10.7966477,3.17225428 C10.8082198,3.24508774 10.824116,3.31564256 10.8411242,3.38557593 C10.2002931,3.67011528 9.57869398,4.0063175 8.98163925,4.39132392 C8.94276357,4.33319802 8.90273479,4.27569356 8.8584231,4.22050917 C8.01040607,3.1659984 6.49001267,3.09026486 5.4626486,4.05143446 C4.43524335,5.01260407 4.28995372,6.64655097 5.13805312,7.70110318 C5.18145881,7.75512754 5.22770605,7.80480178 5.27457101,7.85377171 C4.8405553,8.43121921 4.44455046,9.04777637 4.08989221,9.69934164 C4.02861359,9.67166659 3.96659369,9.64486155 3.90197934,9.6224895 C2.65383928,9.18979746 1.26448658,9.94129123 0.798760835,11.3008905 C0.333076268,12.6604483 0.967359404,14.1134302 2.21554065,14.5461222 C2.28023737,14.5684943 2.34546945,14.5858533 2.41070152,14.6019695 C2.29110938,15.335027 2.22554784,16.066096 2.21376983,16.7899975 C2.14701402,16.7994849 2.0800523,16.8099667 2.01280231,16.8255857 C0.698977168,17.1307985 -0.187009547,18.5079639 0.033725267,19.9017841 C0.254501263,21.2956044 1.49852314,22.1780989 2.8123071,21.8730519 C2.88095728,21.8571014 2.94771309,21.8365523 3.01397471,21.8148845 C3.24850545,22.488159 3.53228971,23.1381499 3.86285657,23.7595129 C3.8066845,23.8040913 3.75092425,23.8497883 3.69722309,23.9000426 C2.66985902,24.8611293 2.52452821,26.4951591 3.37254524,27.5496698 C4.22064464,28.604222 6.57632987,28.8200709 7.60365276,27.8589842 C7.65628318,27.8097242 6.86979186,27.6174903 6.91772756,27.5648331 C7.43624846,28.0019581 7.99319205,28.3963691 8.5849755,28.7446274 C8.55602464,28.8117435 8.52793861,28.879564 8.50384722,28.9499531 C8.03812147,30.3095938 8.67248697,31.7625342 9.92062703,32.1951848 C11.1688083,32.6278769 12.5581198,31.8763831 13.0238044,30.5167838 C13.0478957,30.4463947 13.0672924,30.3755499 13.0855772,30.3047465 C13.7650368,30.3971348 14.4452377,30.4315629 15.1213616,30.4086108 C15.1269212,30.4797871 15.1335103,30.5509634 15.1447941,30.6224296 C15.3655289,32.016167 16.6095508,32.8987444 17.9233348,32.5936145 C19.2370776,32.2884846 20.1231055,30.9112362 19.9023706,29.5174989 C19.8907985,29.4446654 19.8748612,29.3740692 19.8578942,29.3041772 C20.4988076,29.0195965 21.1203244,28.6833942 21.7173379,28.2983878 C21.7562136,28.3565137 21.7962424,28.414101 21.8405953,28.4692026 C22.6886947,29.5237133 24.2089645,29.5994054 25.2363698,28.6382358 C26.263775,27.6770662 26.4090647,26.0431193 25.5610064,24.9885671 C25.5175596,24.9346256 25.4712711,24.8848685 25.4244474,24.8359815 C25.8584631,24.2584925 26.2544679,23.6419768 26.6091262,22.9903701 C26.6703224,23.018128 26.7323011,23.044933 26.7969567,23.0673465 Z M12.2879256,25.2832568 C7.75614922,23.712283 5.45313559,18.4370777 7.14389838,13.5005603 C8.83474353,8.5640429 13.8791106,5.83577126 18.4108457,7.40670355 C22.9426221,8.97759441 25.2456357,14.2528826 23.5548729,19.1894 C21.8639866,24.1258345 16.8196195,26.8541476 12.2879256,25.2832568 Z" id="Shape" fill="url(#linearGradient-1)"></path>
                    <path d="M28.6861337,15.8641675 C29.9999177,15.5590376 30.8859044,14.1817892 30.6651696,12.787969 C30.4444347,11.3941488 29.2004129,10.5115714 27.8866289,10.8167013 C27.8179787,10.8326518 27.7512229,10.8532423 27.6850437,10.8748686 C27.4504306,10.2015942 27.1666875,9.55160324 26.8361206,8.93028167 C26.8922927,8.88578614 26.9480529,8.8400063 27.0017541,8.78975204 C28.0291182,7.82870673 29.1696088,5.6937916 28.2185136,4.73241484 C26.4133476,2.90772549 24.9579803,4.00996331 23.9306163,4.97109149 C23.8779447,5.02035143 23.8292265,5.07234573 23.7812085,5.12496148 C23.2626875,4.68783646 22.705744,4.29346691 22.1139605,3.94516722 C22.1429114,3.87805107 22.1709974,3.81027204 22.19513,3.73988294 C22.4486044,2.99990663 22.3741476,2.23349816 22.0543292,1.6177696 C21.2237732,3.71775946 20.4090723,5.82375664 19.6152918,7.93774976 C23.336156,9.95558449 25.0885269,14.7116754 23.5548317,19.1893586 C22.2552143,22.9837828 18.9740078,25.4708091 15.4675364,25.70642 C15.3684528,26.1321104 15.2724167,26.5596237 15.1618022,26.9830355 C14.8615864,28.1318817 14.4971269,29.2669733 14.1318025,30.4007392 C14.4622458,30.4168553 14.7922361,30.419714 15.1212793,30.4085694 C15.1267976,30.4798285 15.1333456,30.5510048 15.1446706,30.6224296 C15.3654054,32.0162498 16.3728786,33.0859239 18.765957,32.6205024 C20.0897893,32.3630581 20.1230231,30.9113191 19.9022471,29.5174989 C19.890675,29.4447069 19.8747788,29.3741106 19.8577707,29.3041772 C20.4986841,29.0195965 21.1202009,28.6834357 21.7172556,28.2984292 C21.7561313,28.3565551 21.7962012,28.4141425 21.8405129,28.4691611 C22.6886123,29.5237548 25.1471287,29.6786605 26.1744927,28.7174909 C27.201898,27.7563213 26.4089823,26.0431608 25.5609241,24.9886086 C25.5174772,24.9346256 25.4711888,24.88491 25.424365,24.83594 C25.8583807,24.2584925 26.2544267,23.6419354 26.6090438,22.9903701 C26.6703636,23.0181694 26.7323011,23.044933 26.7969979,23.0672637 C28.0451379,23.5000386 29.4344906,22.7485448 29.9002164,21.3888627 C30.3659009,20.0293048 29.7315766,18.576323 28.4834365,18.1437138 C28.4187398,18.1212589 28.3535489,18.1039827 28.2882757,18.0877837 C28.407909,17.3547675 28.4734293,16.6236572 28.4852074,15.8998799 C28.551922,15.8903096 28.6188425,15.8797865 28.6861337,15.8641675 Z" id="Path" fill="url(#linearGradient-2)"></path>
                    <path d="M29.9603831,15.8318109 C31.2739611,15.5270953 32.1593713,14.1502198 31.9384306,12.756731 C31.7190136,11.3629937 30.474827,10.4791319 29.1600135,10.7855462 C29.0913633,10.8011652 29.0248134,10.8210929 28.9586753,10.8439621 C28.7241446,10.1705633 28.4399485,9.51928806 28.1102465,8.89858793 C28.1659243,8.85446527 28.2213551,8.80880972 28.2762094,8.75872118 C29.303244,7.79701299 29.4482865,6.16290037 28.6008049,5.10847245 C27.7518818,4.05416883 26.2321885,3.97855958 25.2048656,4.93885916 C25.1514939,4.98869912 25.1029817,5.040942 25.0545106,5.09318488 C24.5363192,4.6563913 23.9801992,4.26135888 23.3884158,3.9136392 C23.4167489,3.84606732 23.445082,3.77841258 23.4685969,3.70847921 C23.9344874,2.3478442 23.3002042,0.895359491 22.0521877,0.463537474 C20.8040065,0.030265416 19.4150656,0.781924906 18.9489692,2.14110987 C18.9254544,2.21108468 18.9051929,2.28209523 18.887773,2.35273291 C18.2078603,2.26133893 17.5267534,2.22612367 16.852112,2.24915859 C16.8454406,2.17889378 16.838522,2.10709607 16.8286795,2.03575408 C16.6077388,0.642223875 15.3637581,-0.240146395 14.0501801,0.0645277981 C12.7351606,0.36945057 11.8497505,1.74632603 12.0706912,3.13981481 C12.0823868,3.21393259 12.0981595,3.28452884 12.11525,3.35330218 C11.47376,3.63838011 10.8529433,3.97516234 10.2554356,4.36016877 C10.2172188,4.30187715 10.1761193,4.24395839 10.1324254,4.18943688 C9.59969673,3.52738988 8.80245694,3.25084647 8.03033809,3.37538422 C7.57029544,3.44722336 7.11918926,3.66025501 6.73652734,4.01982359 C5.70949272,4.98153178 5.56432664,6.6141115 6.41193185,7.67007231 C6.45546109,7.72310236 6.50142005,7.7727766 6.54890275,7.82220226 C6.11492822,8.39952547 5.71801737,9.01566833 5.36372976,9.66826935 C5.30265705,9.64042857 5.24010179,9.61279495 5.17544625,9.59150007 C3.92718264,9.15826944 2.53824177,9.90992893 2.07214539,11.2690725 C1.606049,12.6282574 2.24053804,14.0822336 3.48855456,14.5140142 C3.55341601,14.5367591 3.61914227,14.5548639 3.68453908,14.5699443 C3.5643292,15.3034576 3.49942658,16.0338636 3.4880192,16.7582624 C3.42002794,16.7677498 3.35372513,16.7785215 3.2865575,16.7939334 C1.97297945,17.098649 1.08612791,18.4757316 1.30727454,19.8707118 C1.52821527,21.2642421 2.77219596,22.1466538 4.08577402,21.8419381 C4.1541771,21.8247862 4.22068582,21.8049414 4.28702981,21.7835222 C4.52156055,22.4568795 4.80555071,23.1067048 5.13677648,23.7271563 C5.07978077,23.773019 5.02439116,23.8186331 4.97101946,23.8685145 C3.94373776,24.8287727 3.7987364,26.4628439 4.64621806,27.5173132 C5.49382328,28.573274 7.01504031,28.6486761 8.04207493,27.6869679 C8.09396408,27.6372937 8.14416478,27.5863766 8.19098856,27.5328494 C8.70938592,27.971093 9.26682369,28.3644682 9.85873068,28.7136794 C9.83019165,28.7797598 9.80185852,28.8473731 9.77710822,28.9190051 C9.3124532,30.2779829 9.94677752,31.7304262 11.1949588,32.1637811 C12.4430165,32.5955617 13.8320809,31.8453522 14.2980537,30.4846758 C14.3215686,30.4147424 14.3403475,30.343939 14.35925,30.2730942 C15.0392862,30.3659796 15.7187458,30.3998691 16.3949109,30.3766685 C16.4003057,30.4486319 16.4070184,30.5188967 16.4183434,30.590073 C16.63949,31.9850947 17.8834707,32.867465 19.1970488,32.5627493 C20.5104209,32.2565422 21.3973136,30.8795011 21.1763317,29.4859709 C21.1647596,29.4133446 21.148987,29.3427897 21.131773,29.2724835 C21.7717392,28.9876127 22.3942855,28.6521562 22.9917932,28.2671498 C23.0299276,28.3254414 23.0693387,28.3820759 23.1147211,28.4378817 C23.9622028,29.492351 25.4834198,29.5677531 26.5104132,28.6060035 C27.3149422,27.8541783 27.5787944,26.6883873 27.2483923,25.7132559 C27.1565567,25.4411869 27.0189681,25.1861041 26.8352146,24.9572463 C26.7915618,24.9027247 26.7455205,24.8530919 26.6982437,24.8051577 C27.1320124,24.2263016 27.5274818,23.6104073 27.8834167,22.9590907 C27.9445306,22.9869314 28.0053974,23.0132807 28.0702589,23.0360256 C29.3183166,23.4678062 30.7089047,22.7174311 31.1733538,21.3569618 C31.6394502,19.9977768 31.0051671,18.5453335 29.7569858,18.11202 C29.6920832,18.0892751 29.627963,18.0724961 29.5624427,18.0558413 C29.6811288,17.3225352 29.7474728,16.5919635 29.7589626,15.8675647 C29.8254713,15.858243 29.8934214,15.8487142 29.9603831,15.8318109 Z M24.8283398,19.1580792 C23.6817954,22.5064709 20.9912192,24.8385915 17.9663698,25.5020471 C16.5308523,25.8177416 15.0207543,25.7574614 13.5622161,25.2520187 C9.0299044,23.6803407 6.7263966,18.4060882 8.41736529,13.4694051 C9.17309376,11.2620708 10.5985218,9.49766174 12.3499454,8.36049867 C14.5143409,6.9519709 17.1790549,6.50548276 19.6849716,7.37521696 C24.2170362,8.94540352 26.5193085,14.2213546 24.8283398,19.1580792 Z" id="Shape" fill="url(#linearGradient-3)"></path>
                    <path d="M26.5104544,28.6059621 C25.4834198,29.5676703 23.9622028,29.4922682 23.1147623,28.4378403 C23.0693799,28.3820344 23.0299688,28.3254 22.9918344,28.2671084 C22.3942855,28.6521148 21.7717804,28.9875713 21.1318141,29.2724421 C21.1490282,29.3427897 21.1648008,29.4133031 21.1763729,29.4859294 C21.3973136,30.8794596 20.5104209,32.2565008 19.19709,32.5627079 C17.8835119,32.8674235 16.6395312,31.9850533 16.4183846,30.5900316 C16.4071007,30.5188553 16.4003469,30.4485905 16.3949521,30.3766271 C15.718787,30.3998277 15.0393274,30.3659796 14.3592912,30.2730528 C14.3403887,30.3438562 14.3216098,30.4146596 14.2980949,30.4846344 C13.8321632,31.8453108 12.4430576,32.5955203 11.1949999,32.1637397 C9.9468187,31.7304262 9.31249438,30.2779829 9.7771494,28.9189637 C9.80189971,28.8473317 9.83023283,28.7797183 9.85877187,28.7136379 C9.26682369,28.3644268 8.70938592,27.9710516 8.19102974,27.5328079 C8.14420596,27.5863351 8.09400526,27.6372523 8.04211611,27.6869265 C7.01508149,28.6486347 5.49386446,28.5732326 4.64625925,27.5172718 C3.79877758,26.4628024 3.94377894,24.8287727 4.97106064,23.8684731 C5.02443234,23.8185917 5.07982196,23.7729776 5.13681766,23.7271149 C4.8055919,23.1066633 4.52160173,22.4568381 4.28707099,21.7834808 C4.220727,21.8048585 4.15421828,21.8247448 4.0858152,21.8418967 C2.77223715,22.1466123 1.52825645,21.2642421 1.30731573,19.8706704 C1.08616909,18.4756487 1.97306181,17.0986076 3.28659868,16.7938919 C3.35376631,16.7784386 3.42006912,16.7677083 3.48806038,16.7582209 C3.49950894,16.0338222 3.56437038,15.3034162 3.68458026,14.5699029 C3.61918345,14.5548225 3.55341601,14.5367177 3.48859575,14.5139728 C2.24053804,14.0821922 1.60609018,12.628216 2.07218657,11.269031 C2.53828295,9.9098875 3.92722383,9.15822801 5.17548744,9.59145864 C5.24014297,9.61275352 5.30269823,9.64038714 5.36377094,9.66822792 C5.71805855,9.0156269 6.1149694,8.39952547 6.54894393,7.82216083 C6.50146123,7.77273517 6.45546109,7.72310236 6.41197303,7.67003088 C5.56436782,6.61407007 5.70957509,4.98149035 6.73656852,4.01978216 C7.11927162,3.66021358 7.57033663,3.44718193 8.03037928,3.37534279 C9.81474845,4.61562445 11.5443046,6.27724641 12.3499866,8.36041581 C10.5985629,9.49757888 9.17313494,11.261988 8.41740647,13.4693223 C6.72643778,18.4060468 9.02994558,23.6802993 13.5622573,25.2519359 C15.0207955,25.7573785 16.5308934,25.8176588 17.966411,25.5019643 C20.1932794,26.7834685 23.2236883,27.0875213 27.2484335,25.7130901 C27.5787944,26.6883044 27.3149834,27.8540954 26.5104544,28.6059621 Z" id="Path" fill="#FFFFFF" opacity="0.3"></path>
                </g>
                <g transform="translate(64.111, 12.177)">
                    <g>
                        <path d="M47.5225956,39.9245676 C49.7563413,40.5898461 52.1476489,39.1566262 52.863678,36.7234171 C53.5797895,34.2902079 52.3494812,31.7783238 50.1157355,31.1130038 C49.9999732,31.0785343 49.8836345,31.0530964 49.7673369,31.0296472 C49.9217277,29.7280496 49.980906,28.434075 49.9457367,27.1570866 C50.0627756,27.1350874 50.1799792,27.1113896 50.2973475,27.0785358 C52.5898598,26.4380737 54.0456388,23.9410214 53.5489031,21.5011006 C53.0522086,19.061097 50.7911181,17.6023564 48.4985647,18.2427771 C48.3787255,18.2763352 48.2626338,18.3178063 48.1475716,18.3611004 C47.6821341,17.1925336 47.1316973,16.0687937 46.5010382,14.9992854 C46.5967036,14.9163016 46.6914631,14.8313707 46.782228,14.7386096 C48.5191968,12.9640916 48.6493727,10.0720897 47.0730131,8.27930123 C45.4966124,6.48651276 42.8104839,6.47176378 41.0734738,8.24628174 C40.9844798,8.33726141 40.9025691,8.43283978 40.8220173,8.52937104 C39.8741755,7.79925501 38.8619251,7.14739973 37.7918555,6.57956392 C37.8377321,6.45904486 37.8819614,6.33732433 37.9190663,6.2112951 C38.6351778,3.7780031 39.6581354,1.07554218 37.4143001,0.445520361 C32.2236551,-1.01197734 30.5460705,1.36878177 29.829959,3.80199091 C29.7928541,3.9279787 29.7641503,4.05433936 29.7373821,4.18057573 C28.5324418,4.07086982 27.3306314,4.06320532 26.1404342,4.15650506 C26.1251145,4.03147016 26.1081476,3.90643525 26.0826972,3.78135891 C25.5860027,1.34156244 26.065895,-0.117426734 23.7179932,0.26985833 C18.597975,1.11444469 17.2840675,3.66075698 17.780762,6.10063631 C17.8067066,6.228157 17.8402698,6.35128614 17.8756039,6.47329668 C16.7678116,7.02497489 15.6979478,7.66618273 14.6751961,8.39153435 C14.6020983,8.29214444 14.5271473,8.19374885 14.4447424,8.09999338 C12.8683829,6.30720492 10.1822131,6.29245593 8.4452031,8.06713961 C6.70819308,9.84178185 6.57801719,12.733618 8.15445911,14.5263651 C8.23517557,14.6182562 8.32062795,14.7023171 8.40686278,14.7848451 C7.68630363,15.8367873 7.03575366,16.9545612 6.46081359,18.1309582 C6.35061091,18.086877 6.23921396,18.0444944 6.12353409,18.0100249 C3.88978837,17.3447464 1.49848082,18.7778834 0.782369316,21.2111754 C0.0663401718,23.6443845 1.29660731,26.1562687 3.53035303,26.8215472 C3.64603289,26.8560168 3.76241285,26.8814546 3.87871045,26.9049038 C3.72440199,28.2064601 3.66514128,29.5004761 3.70039296,30.7774645 C3.58331291,30.7994637 3.46619168,30.8231615 3.34878217,30.8558909 C1.05626992,31.4964773 -0.399467941,33.9935297 0.0971853912,36.4334504 C0.593921087,38.8734126 2.85509393,40.3320289 5.14756499,39.6916083 C5.26736305,39.6581745 5.3835371,39.6167448 5.49859924,39.5733678 C5.96399553,40.7420175 6.51443239,41.8657573 7.14509152,42.9352242 C7.04942604,43.018208 6.95470774,43.1030975 6.86390172,43.1959001 C5.12693288,44.970418 4.99671581,47.8623785 6.57315773,49.655167 C8.14959965,51.447914 12.3190167,51.6446223 14.0559856,49.8701044 C14.1450208,49.7790833 12.7436018,49.5016284 12.8241535,49.4050557 C13.7719542,50.1351718 14.7842457,50.787027 15.8543566,51.3548628 C15.80848,51.4753819 15.7642095,51.5971439 15.7271458,51.7231317 C15.0110343,54.1563408 16.2413426,56.668225 18.4750883,57.3335864 C20.7087929,57.9988649 23.1001416,56.565645 23.8162119,54.1324359 C23.8532756,54.0063652 23.8820205,53.8800045 23.9087887,53.7538096 C25.1136879,53.8635984 26.3155395,53.8712214 27.5056543,53.7778803 C27.5210151,53.902998 27.5380233,54.0279915 27.5634325,54.1530679 C28.0602093,56.5928643 30.321341,58.0516464 32.6138121,57.4112257 C34.9063243,56.7707636 36.3621445,54.2735869 35.8653677,51.8337905 C35.8394231,51.7062698 35.8059011,51.5830992 35.770567,51.4611301 C36.8783593,50.9094519 37.9481818,50.2682855 38.9709747,49.5428924 C39.0440314,49.6422823 39.1190647,49.7406365 39.2014285,49.8343091 C40.7778292,51.6270976 43.4639166,51.6419708 45.2009678,49.8672872 C46.9379778,48.0926449 47.0681537,45.2008087 45.4917529,43.407896 C45.4110365,43.3161706 45.3255841,43.2321096 45.2393081,43.1495816 C45.9598261,42.0976395 46.6104584,40.9798655 47.1853161,39.8034685 C47.2955599,39.847674 47.4068334,39.8900981 47.5225956,39.9245676 Z M22.1154831,44.963665 C14.0052907,42.5480635 9.53833461,33.4281382 12.1383107,24.5935395 C14.7382456,15.7589822 23.4204953,10.5554503 31.5306878,12.9710104 C39.6409625,15.3866533 44.1078774,24.5065785 41.5079014,33.3411773 C38.9079253,42.1757345 30.2257167,47.3792665 22.1154831,44.963665 Z" id="Shape" fill="url(#linearGradient-4)"></path>
                        <path d="M50.2973887,27.0785773 C52.5899009,26.4380737 54.0456388,23.9410214 53.5489855,21.5011006 C53.0522498,19.0611798 50.7911181,17.6023978 48.4986059,18.2429014 C48.3787666,18.2763352 48.2626749,18.3179306 48.1475716,18.3611832 C47.6821753,17.1925336 47.1316973,16.0688766 46.5010382,14.9993682 C46.5967036,14.9164674 46.6914631,14.8314121 46.782228,14.738651 C48.5191968,12.964133 50.3651329,9.11154153 48.6142446,7.490935 C45.2911149,4.4151094 42.8104427,6.4719295 41.0734738,8.24640602 C40.9844798,8.3373857 40.9025691,8.43288121 40.8220173,8.52941247 C39.8741755,7.79933787 38.8619663,7.14756545 37.7917731,6.57968821 C37.8376909,6.45916914 37.8819614,6.33749004 37.9190663,6.21146082 C38.3087703,4.88720111 38.11851,3.54193653 37.5072064,2.48141845 C36.2049122,6.24825042 34.9311982,10.0245698 33.6948773,13.8133181 C40.4100339,17.0801347 43.8661399,25.3277571 41.5079014,33.3412187 C39.50951,40.1318405 33.9169299,44.7723839 27.7534868,45.461526 C27.6115741,46.2197314 27.4753856,46.9809611 27.3129643,47.7358936 C26.8724007,49.7846763 26.3174339,51.8141942 25.7608609,53.8414335 C26.3445727,53.8440021 26.9265137,53.8234115 27.5057367,53.7780046 C27.5210151,53.9031638 27.5380644,54.0281987 27.5635148,54.1531921 C28.0602505,56.5931129 29.9187471,58.4001946 34.1015894,57.3928723 C36.4155162,56.8356425 36.3621445,54.2738355 35.8653677,51.8339147 C35.8394231,51.7064769 35.8059011,51.5832235 35.770567,51.4612958 C36.8783593,50.9095762 37.9481818,50.2683683 38.9709335,49.5430996 C39.0440314,49.6424895 39.1190647,49.7408436 39.2014285,49.8345162 C40.7778704,51.6273461 45.1239989,51.708507 46.8610089,49.9339062 C48.5980601,48.1592639 47.0681537,45.2010159 45.4917529,43.4081445 C45.4109953,43.3163363 45.3255429,43.2322339 45.2392669,43.1496645 C45.9598672,42.0978052 46.6104172,40.9799484 47.1852749,39.8036757 C47.2955599,39.8477569 47.4068745,39.8901809 47.5225956,39.9245262 C49.7563001,40.589929 52.1476489,39.1565848 52.8637604,36.7233757 C53.5798307,34.2902079 52.3495224,31.7782409 50.1157767,31.1130038 C50.0000144,31.0785343 49.8836756,31.0530964 49.7673781,31.0297301 C49.9217689,29.7281324 49.9809472,28.4341164 49.9457779,27.1572109 C50.0627756,27.1350874 50.179938,27.1113482 50.2973887,27.0785773 Z" id="Path" fill="url(#linearGradient-5)"></path>
                        <path d="M52.3587471,30.9577666 C52.2426966,30.9230485 52.1275521,30.8976521 52.0107191,30.8737057 C52.1653982,29.5731438 52.2242471,28.2780506 52.1893661,27.0024708 C52.3064461,26.9799331 52.4236086,26.9559453 52.539865,26.9225529 C54.8332832,26.283458 56.2883622,23.7855356 55.7917912,21.3459463 C55.2952202,18.906357 53.0337179,17.4462078 50.7418234,18.0869599 C50.6223136,18.121678 50.5054807,18.1627763 50.3900479,18.2055318 C49.9256812,17.0366749 49.3748737,15.9142194 48.744997,14.8433439 C48.8402506,14.7604016 48.9340218,14.6758021 49.0252808,14.5833309 C50.7625791,12.8089787 50.892755,9.91614821 49.315407,8.12456121 C47.7395829,6.33156559 45.0543191,6.31660946 43.3170208,8.09100313 C43.2273679,8.18206566 43.1450865,8.27834834 43.0657703,8.37479674 C42.1175166,7.64323067 41.1050191,6.99220398 40.0342906,6.42366387 C40.0814026,6.30318623 40.1254672,6.18246002 40.1621191,6.05655508 C40.8782718,3.62280735 39.6479635,1.11146175 37.4141766,0.446224666 C35.1803897,-0.218970988 32.7886291,1.21371031 32.0726,3.64592514 C32.0357422,3.77332154 32.0066678,3.89976506 31.9808056,4.0248414 C30.7755358,3.91583979 29.5738077,3.90771957 28.3833223,4.00110217 C28.367632,3.87606726 28.3519005,3.75107378 28.3254206,3.62678461 C27.8290555,1.18566239 25.5673473,-0.272953919 23.2754528,0.367798198 C20.9835583,1.00859175 19.527038,3.50489836 20.0234442,5.94597915 C20.0496359,6.07333412 20.0839815,6.19662898 20.1184096,6.31839094 C20.0640907,6.34540312 20.009813,6.37249816 19.9552882,6.40257614 C18.9058918,6.93362235 17.8906352,7.54611939 16.9191138,8.23617288 C16.844657,8.13628582 16.7701178,8.03793165 16.6874658,7.94525336 C15.1117239,6.15225775 12.4248541,6.13717733 10.6891207,7.91165385 C8.95182245,9.68600609 8.82164656,12.5788366 10.3973884,14.3718736 C10.4786814,14.4628947 10.5634749,14.5464999 10.6498744,14.630188 C9.92952118,15.682213 9.27839466,16.7996555 8.70464887,17.9753896 C8.59382846,17.9317227 8.48296687,17.8895887 8.36691637,17.8548706 C6.13312947,17.1896749 3.74136892,18.6223562 3.02521623,21.0561039 C2.30906354,23.4898931 3.53937186,26.0011973 5.77315876,26.6664344 C5.88920926,26.7011939 6.00591868,26.7267146 6.12126909,26.7490038 C5.96794899,28.0511815 5.9077411,29.3446589 5.94402233,30.6218544 C5.82694228,30.6443508 5.70977986,30.66838 5.5920409,30.7001152 C3.30014638,31.3408673 1.84358488,33.8387068 2.34007349,36.2782961 C2.83656209,38.7178855 5.0982703,40.1765018 7.39016482,39.5357082 C7.51107478,39.5026473 7.62638401,39.4614247 7.74189915,39.4187521 C8.20787199,40.5862003 8.75699103,41.7100644 9.38855616,42.7795313 C9.2933025,42.8624736 9.19784293,42.9484818 9.10658391,43.0409943 C7.37076816,44.8154709 7.23923327,47.7066442 8.81654001,49.4997641 C10.3922818,51.2927183 13.0790693,51.3077987 14.8163676,49.5334464 C14.9044556,49.4422596 14.9868193,49.3460184 15.0676182,49.2496528 C16.0144717,49.9795617 17.0268867,50.6321627 18.09778,51.1991285 C18.0521505,51.3197304 18.0080036,51.4419481 17.9697456,51.5677288 C17.2535929,54.0015179 18.4838189,56.5128221 20.7176881,57.1780178 C22.951475,57.8432134 25.3432356,56.4105735 26.0593883,53.9767844 C26.0960813,53.8508794 26.1251969,53.7244774 26.1525417,53.5994425 C27.3562877,53.7084026 28.5580158,53.71644 29.7485424,53.6230988 C29.7642327,53.7481337 29.7814467,53.8732929 29.8064441,53.9974578 C30.3029327,56.4370057 32.5645174,57.8971963 34.8564119,57.2564028 C36.9911976,56.6599805 38.3991645,54.4544691 38.1830832,52.1838716 C38.1674753,52.0154598 38.1426014,51.8464265 38.1085029,51.6782218 C38.0821465,51.5508669 38.0494481,51.4277377 38.0135375,51.3058515 C39.1214121,50.7542561 40.1910288,50.1131311 41.2143158,49.3881938 C41.2873313,49.4864237 41.3618705,49.5847364 41.4443989,49.6789891 C43.0217057,51.472109 45.7069282,51.4870237 47.4442265,49.7126714 C49.1816072,47.9383192 49.311783,45.0455301 47.7344763,43.2524102 C47.6547894,43.1614305 47.5683898,43.0777425 47.4819903,42.9940545 C48.2024259,41.9420709 48.8535524,40.8246284 49.4288219,39.6490185 C49.5380774,39.6925611 49.6505039,39.734778 49.7665544,39.7694961 C51.9988588,40.4346089 54.3905781,39.0019276 55.1066896,36.5681799 C55.8229247,34.1343493 54.5926164,31.6230037 52.3587471,30.9577666 Z M43.7508306,33.1851115 C41.4520999,40.9943659 34.4041114,45.9660157 27.1976139,45.3477185 C26.2505133,45.266682 25.3010654,45.0894871 24.3589889,44.8090492 C16.2483023,42.3922463 11.7811403,33.2733982 14.3811988,24.4375152 C15.8806306,19.3425291 19.4024628,15.4565452 23.6713753,13.5419534 C26.8048213,12.1351657 30.3408612,11.7920861 33.7743995,12.815276 C41.8836447,15.2319133 46.3508067,24.3507613 43.7508306,33.1851115 Z" id="Shape" fill="url(#linearGradient-6)"></path>
                        <path d="M34.8564531,57.2563199 C32.5645586,57.8971135 30.3029739,56.4369228 29.8064853,53.997375 C29.7814879,53.8732101 29.7642739,53.7480509 29.7485836,53.623016 C28.5580981,53.7163571 27.3563289,53.7083198 26.1525828,53.5993596 C26.1251969,53.7243945 26.0960813,53.8507966 26.0594295,53.9767015 C25.3432768,56.4104907 22.9515162,57.8431305 20.7177293,57.1779349 C18.4838601,56.5126978 17.2535929,54.0013936 17.9697868,51.5676459 C18.0080447,51.4418653 18.0521917,51.3196476 18.0978212,51.1990456 C17.0269279,50.6320799 16.0145129,49.9794789 15.0676593,49.24957 C14.9868605,49.3459355 14.9044968,49.4421353 14.8164088,49.5333636 C13.0791105,51.3077158 10.392323,51.2926354 8.81658119,49.4996812 C7.23927445,47.7065613 7.37080934,44.815388 9.10662509,43.0409115 C9.19788411,42.9484403 9.29334368,42.8623908 9.38859734,42.7794485 C8.75703221,41.710023 8.20787199,40.5861174 7.74194034,39.4186692 C7.62642519,39.4613833 7.51111596,39.5026059 7.390206,39.5356254 C5.09831148,40.1764189 2.83660327,38.7178026 2.34011467,36.2782133 C1.84362606,33.838624 3.30018756,31.3408259 5.59208208,30.7000323 C5.70982104,30.6682972 5.82698346,30.6442679 5.94406351,30.6217716 C5.90778228,29.344576 5.96803136,28.0510986 6.12131027,26.7489209 C6.00595986,26.7266317 5.88925044,26.7011525 5.77319994,26.6663515 C3.53941304,26.0011144 2.30910472,23.4898102 3.02525741,21.0560211 C3.7414101,18.6222733 6.13317065,17.189592 8.36695755,17.8547877 C8.48300806,17.8895058 8.59386965,17.9316398 8.70469005,17.9753068 C9.27843584,16.7995726 9.92960354,15.6821301 10.6499156,14.6301051 C10.563516,14.5464171 10.4787226,14.4628119 10.3974296,14.3717908 C8.82168774,12.5787952 8.95186363,9.68596466 10.6891619,7.91157099 C12.4248953,6.13709447 15.1117651,6.15217489 16.687507,7.9451705 C16.770159,8.03784879 16.8446981,8.13620296 16.919155,8.23609002 C17.8906764,7.54603653 18.9058918,6.93358092 19.9553294,6.40249328 C21.6218361,8.5195522 22.9971869,10.919079 23.6714165,13.5418705 C19.402504,15.4564624 15.8806718,19.3424462 14.38124,24.4374323 C11.7811815,33.2733154 16.2483435,42.3921634 24.3590301,44.8089664 C25.3011065,45.0894042 26.2505545,45.2665991 27.1976551,45.3476357 C29.7910421,48.8390014 33.4460976,51.3696118 38.1831244,52.1837059 C38.3992057,54.4543862 36.9912388,56.6598976 34.8564531,57.2563199 Z" id="Path" fill="#FFFFFF" opacity="0.3"></path>
                    </g>
                    <g transform="translate(7.2143, 39.7443)" id="Path">
                        <path d="M40.1756863,6.19789573 L40.3225821,4.02068085 C40.3225821,4.02068085 40.0428748,3.53462732 39.9571342,2.37281356 C39.8713523,1.2109998 40.1374284,1.68748306 40.2508021,2.17614666 C40.2824297,2.31236759 40.3589456,2.43135376 40.4528815,2.53211085 C40.6889771,2.78532933 41.0115959,2.50020996 41.0834583,2.16061051 L41.6462085,0.989557924 C41.6462085,0.989557924 42.2608067,1.80352772 41.515209,3.9007418 C41.2818313,4.55727864 41.3611064,6.18501108 41.3611064,6.18501108 L40.1756863,6.19789573 Z" fill="url(#linearGradient-7)"></path>
                        <path d="M2.1588505,5.34274478 L1.75666837,3.18566475 C1.75666837,3.18566475 2.33576781,2.40811169 2.14019511,1.56054239 C1.94458124,0.712973084 2.07591022,1.01905589 1.83697302,1.53982752 C1.59803582,2.06064059 1.25845013,1.12797463 1.00110464,0.281855372 C0.743800323,-0.564222459 0.497779842,0.692631089 0.523353782,1.45009074 C0.548968904,2.20759182 0.54690981,2.65718719 0.956463491,3.23662332 C1.36601717,3.81605944 1.14478817,5.76209645 1.14478817,5.76209645 L2.1588505,5.34274478 Z" fill="url(#linearGradient-8)"></path>
                        <path d="M29.1618839,65.8135705 C29.210808,65.3476518 30.323295,65.5179694 31.0517199,65.6387371 C31.7801447,65.7595047 32.0830374,66.0776021 32.17895,66.3619343 C32.2748625,66.6462251 32.1427923,67.3228554 31.4847884,66.9905475 C30.944647,66.7177742 29.1186018,66.2254234 29.1618839,65.8135705 Z" fill="#26264F"></path>
                        <path d="M30.6319119,64.0961013 L31.0313348,65.9412155 C31.0313348,65.9412155 31.528853,66.3374494 31.7124006,66.1697418 L31.658823,64.0709949 L30.6319119,64.0961013 Z" fill="url(#linearGradient-9)"></path>
                        <polygon fill="url(#linearGradient-10)" points="27.0197267 62.7738302 28.6956228 63.6496131 28.3464006 64.5089899 26.6474014 63.9382955"></polygon>
                        <path d="M26.6911777,66.1790635 C26.6911777,66.1790635 27.8217847,66.5571098 28.3769575,65.9077817 C28.7339631,65.4902529 29.0567878,64.7617527 29.2417356,64.2947982 C29.3421781,64.0412483 29.2306165,63.7539332 28.9859962,63.6358999 C28.6307614,63.4645466 28.1448977,63.2726441 27.9251512,63.3779999 C27.5575207,63.5542005 27.7996289,64.9086625 27.6212702,65.2451961 C27.4429527,65.5817298 26.6754874,65.7530002 26.6911777,66.1790635 Z" fill="#26264F"></path>
                        <path d="M26.0649251,35.5005183 C26.0419868,39.7157442 26.2885014,44.6177506 27.0728513,50.0254897 C27.8904761,55.662418 29.113001,60.6112814 30.3949102,64.7656056 C30.5400763,64.8480508 30.8002634,64.970807 31.1475089,65.0046966 C31.5539327,65.0443034 31.8735864,64.9418062 32.034484,64.8775902 C32.4629813,62.7332291 32.731693,60.9167842 32.9040391,59.5659266 C33.3593459,55.9983716 33.5799983,54.1704093 33.2389713,52.0058305 C32.918947,49.9746554 32.5427094,50.1057391 32.2169608,47.8626924 C31.9272876,45.867934 32.0201939,44.355169 32.1688192,42.1409574 C32.2708679,40.6205694 32.4785892,38.5719524 32.9349255,36.1552737 C30.6448842,35.9370219 28.3549252,35.7187287 26.0649251,35.5005183 Z" fill="url(#linearGradient-11)"></path>
                        <path d="M30.7208235,63.3022249 C30.3634885,61.7894185 31.3107126,61.1743114 31.3324978,59.2871046 C31.3591837,56.9813747 29.9577235,56.816733 29.6875705,54.2037188 C29.4705008,52.1038947 30.3520399,51.9839556 30.2926145,49.4453493 C30.2294827,46.7473628 29.216244,46.1320071 29.544587,44.5374598 C29.7271874,43.6508637 30.3283192,42.4656836 32.2367281,41.2604929 C32.3554966,39.8625297 32.560953,38.1352831 32.9348843,36.1551494 C30.6449254,35.9369805 28.3549664,35.7186873 26.0649251,35.5004769 C26.0419868,39.7157028 26.2885014,44.6177092 27.0728513,50.0254483 C27.8904761,55.6623766 29.113001,60.61124 30.3949102,64.7655642 C30.5400763,64.8480093 30.8002634,64.9707656 31.1475089,65.0046551 C31.3317566,65.0226356 31.4948779,65.0094195 31.6367495,64.9857217 C31.2314787,64.5330191 30.8803209,63.9773637 30.7208235,63.3022249 Z" fill="url(#linearGradient-12)" opacity="0.3"></path>
                        <path d="M20.5176862,34.3789328 C20.365931,35.3847637 20.0987431,36.9050689 19.6226807,38.7203122 C18.5492753,42.8134861 17.5486794,44.0796614 17.1254534,46.7749964 C16.6320122,49.9179796 17.3223027,52.4654933 17.5848783,53.4344931 C19.3774015,60.0492872 25.2937946,63.475194 26.8634003,64.3224733 C27.0865237,63.7384385 27.3096882,63.1543622 27.5327292,62.5703274 C27.1623807,61.9944128 26.6184506,61.0709442 26.128304,59.8633092 C25.2914884,57.8015175 25.3055314,56.6214333 24.7754796,54.6111387 C23.8192778,50.9843392 22.8769131,51.4243229 22.780424,49.604398 C22.6275569,46.7201434 25.0000031,45.7218528 27.4386286,40.3939902 C28.1374438,38.8673049 28.5731479,37.5716731 28.8187978,36.7741924 C26.051788,35.9757587 23.2847371,35.1773251 20.5176862,34.3789328 Z" fill="url(#linearGradient-13)"></path>
                        <path d="M39.8593684,5.30172936 C40.4499988,5.24683497 41.0406291,5.19189916 41.6311771,5.13700477 C42.2946994,6.22499076 44.1867591,9.65002751 43.4751364,14.0051616 C43.3065379,15.0373417 42.647628,18.4551283 39.5661947,20.9997005 C37.3598349,22.8216555 35.0125508,23.2813183 33.9415751,23.4219308 C33.5952768,28.5270257 33.4741609,31.7529098 33.518555,33.6916137 C33.5239086,33.9253188 33.5722561,35.8871405 33.140423,38.3834471 C33.008847,39.1441383 32.9406498,39.528689 32.8221696,39.7330618 C31.1784365,42.5695065 23.0470354,39.6774631 20.8739094,38.551279 C20.3088941,38.2584537 19.7413668,37.8660313 19.5304333,37.2255692 C19.2594978,36.4026506 19.6200039,35.6980553 19.7893437,35.0719693 C20.2051982,33.5345122 19.3635644,32.2951006 17.7206549,29.1451986 C17.025958,27.813233 16.0213675,25.8162374 14.8649806,23.2338398 C13.3014698,23.5791566 9.63393615,24.1387479 6.21135225,22.199671 C1.18222249,19.3503832 -1.3175581,12.239551 0.699488633,4.85615267 C1.2374062,4.74052231 1.77532376,4.62485052 2.31320014,4.50922016 C2.56445072,5.98589983 3.10578638,7.98811555 4.3519909,10.0553345 C5.10813118,11.3095365 5.73776077,12.3540213 6.90930256,12.9939449 C8.74877307,13.9986985 10.4948431,13.2252884 13.0009245,12.7813689 C16.9498539,12.0819938 20.172994,12.6636671 24.0883601,13.3703753 C28.3658796,14.1424597 29.4869736,15.1136967 32.678486,14.7300989 C34.0979838,14.5595327 35.8765464,14.3228861 37.4076059,13.0194656 C40.4195242,10.4554628 39.9352254,5.92437668 39.8593684,5.30172936 Z" fill="url(#linearGradient-14)"></path>
                        <path d="M23.3724957,9.90705752 C23.3724957,9.90705752 23.0438644,10.9301231 23.376408,11.4213968 C23.7089516,11.912629 24.8038951,13.783264 25.1937226,13.89761 C25.4158165,13.9627375 25.9749015,14.0873167 26.4148886,14.1824808 C26.6465366,14.2325279 26.6742932,14.5598641 26.4510463,14.6396992 C25.9960278,14.8024766 25.2035239,14.9434205 23.8660604,14.8374847 C21.9329011,14.6843605 20.4267567,13.8375783 19.7742299,13.4075792 C19.6815707,13.3465118 19.7370839,13.2025849 19.8467512,13.2184525 L20.7129295,13.343736 C21.4547796,13.4510804 22.1108068,12.8535395 22.0782731,12.1002643 L22.0570233,11.6096949 L23.3724957,9.90705752 Z" fill="url(#linearGradient-15)"></path>
                        <g transform="translate(21.0227, 8.2457)">
                            <path d="M1.40994133,3.70195678 C1.29471446,3.62767328 0.330152744,3.44239955 0.231645715,2.90708608 C0.0978046433,2.18045015 0.794519492,1.35471431 0.883431145,1.22023343 C1.25575642,0.657369191 1.34475043,0.58395572 1.50622454,0.49525468 L1.72951263,0.383270135 C1.72951263,0.383270135 1.74227901,0.379375741 1.75553957,0.375937074 C1.89572265,0.339686065 2.35967758,0.367733988 2.45159551,0.396403357 C2.74526341,0.488045908 2.9535613,1.7444023 2.70626418,3.47127607 C2.71272974,3.53851651 2.71870111,3.60625411 2.72421948,3.6745303 C2.73859195,3.85205667 1.39696904,3.76323134 1.40994133,3.70195678 Z" fill="url(#linearGradient-16)"></path>
                            <path d="M0.727022409,0.203879428 C0.670562068,0.413182396 1.2003668,0.873756642 1.42670235,1.0724536 C1.45425302,1.09664856 1.5331163,1.17714651 1.6010252,1.30276144 C1.61090885,1.32107338 1.6191864,1.34216111 1.62581669,1.369049 C1.71233979,1.71846729 1.14102373,2.06838274 1.23071784,2.22942008 C1.29574401,2.3463762 1.67288756,2.23236159 1.70756269,2.33129578 C1.7402611,2.42438837 1.42118398,2.58202847 1.45787703,2.69339157 C1.48551006,2.77741105 1.67832357,2.72036232 1.78453161,2.85505035 C1.83740912,2.92191793 1.81582983,2.96935496 1.86084161,3.16361894 C1.88633318,3.27336628 1.92487941,3.39463108 1.95696009,3.46299013 C2.11324528,3.79542224 2.62583599,3.95840677 2.73785068,3.84128494 C2.76910771,3.80863832 2.74765196,3.77690315 2.78689828,3.66143851 C2.78689828,3.66143851 2.82330305,3.55430124 2.91044389,3.43473505 C3.03489549,3.26363029 3.30772537,3.15806736 3.5883798,2.99118843 C4.10821853,2.68220554 4.26804536,2.39302606 4.3170106,2.29479619 C4.32252897,2.28377588 4.32738843,2.2736256 4.33167134,2.26430391 C4.34003126,2.24769059 4.34732045,2.23091155 4.35374483,2.21404966 C4.4819028,1.87672884 4.08746286,1.24861279 4.08746286,1.24861279 C3.77040366,0.752574698 3.3510487,0.405517897 3.01241019,0.179974477 C2.37676805,0.00845541829 1.85108151,-0.0112651305 1.48501588,0.00431244585 C1.18694151,0.0171142307 0.771704737,0.0382019604 0.727022409,0.203879428 Z" fill="#26264F"></path>
                            <path d="M0.405639109,1.9770302 C0.405639109,1.9770302 0.784018115,2.50244197 1.36838883,1.94239495 L1.63162333,2.04050054 C1.63162333,2.04050054 0.876759683,3.44931832 0.73628833,3.43974805 C0.595816977,3.43013636 0.191987576,3.30812582 0.191987576,3.30812582 C0.0426209397,3.23288944 -0.0328242431,3.06120466 0.0136289044,2.89975302 C0.0982164619,2.6053534 0.296383612,2.18111302 0.405639109,1.9770302 Z" fill="#26264F"></path>
                            <path d="M1.48732206,2.12431287 C1.63458842,1.95519674 1.84939305,2.1462292 1.82966693,2.38063858 C1.80989964,2.61492367 1.56239661,2.83793987 1.34775671,2.77165232 C1.13295209,2.70548905 1.28919609,2.35188635 1.48732206,2.12431287 Z" fill="url(#linearGradient-17)"></path>
                        </g>
                        <path d="M30.6748234,38.7293853 C27.799876,39.5330806 24.6256599,37.8541824 23.9423704,35.8126913 C23.437316,34.3035307 24.8225916,32.9914099 24.0117207,31.4177433 C23.2308712,29.9023683 21.5994104,30.4460505 20.6034269,28.8994375 C19.5179964,27.213952 21.0185813,25.8890709 20.1045909,23.6657447 C19.4169772,21.9931024 17.60724,20.4064683 15.7323531,20.281682 C13.5038375,20.1333221 12.5323572,22.1401365 10.645857,21.5913998 C9.66041609,21.3048304 9.72461862,20.698755 8.39411482,19.6091947 C6.08504746,17.7183006 4.40985142,18.3299276 2.49435918,16.97791 C1.93152659,16.5805575 1.31346911,15.988071 0.763526438,15.0659697 C1.75106764,18.1962753 3.65284632,20.750045 6.21143462,22.1997125 C9.63401851,24.1387479 13.3015522,23.579198 14.865063,23.2338813 C16.021491,25.8162788 17.0260403,27.8132744 17.7207373,29.14524 C19.3636467,32.2951834 20.2052806,33.5345951 19.7894261,35.0720107 C19.6200862,35.6981381 19.2595801,36.402692 19.5305157,37.2256106 C19.7414492,37.8660727 20.3089765,38.2584951 20.8739917,38.5513204 C23.0471178,39.6775046 31.1784777,42.5695479 32.8222519,39.7331033 C32.9407322,39.5287304 33.0089293,39.1441797 33.1405054,38.3834886 C33.2224985,37.9096568 33.2870305,37.4552556 33.3379313,37.0281151 C32.7097019,37.7338291 31.844965,38.4022562 30.6748234,38.7293853 Z" fill="url(#linearGradient-18)" opacity="0.3"></path>
                    </g>
                </g>
                <g transform="translate(0, 66.8472)">
                    <path d="M45.6122882,8.66305581 C45.6122882,8.66305581 36.584852,15.3604608 30.1708172,11.3046979 L29.2863542,19.6710579 C29.2863542,19.6710579 41.9947493,23.2504618 45.686292,10.1868825 L45.6122882,8.66305581 Z" id="Path" fill="url(#linearGradient-19)"></path>
                    <g transform="translate(32.2272, 2.6203)">
                        <g>
                            <path d="M35.3095393,21.6294234 C36.9493189,21.4819335 38.25046,19.9665999 38.2162791,18.2449049 C38.1917759,17.0211123 37.4997146,16.0218273 36.5145619,15.5991613 C36.4999423,15.5926154 36.4868877,15.5876852 36.4722681,15.5827965 C36.0798049,15.4222563 35.6433595,15.3517844 35.1857466,15.3927169 C35.0994705,15.40092 35.0163655,15.4140118 34.9316956,15.4287608 C34.7607497,14.575267 34.5262601,13.741411 34.229833,12.9353957 C34.3063901,12.8911488 34.3812999,12.8436289 34.4546037,12.792836 C35.8566404,11.8050271 36.304452,9.85389423 35.4560643,8.43521617 C35.1401582,7.90773292 34.6890932,7.52927239 34.1744846,7.31305066 C33.5182515,7.03290286 32.757746,7.01981107 32.0461645,7.29830168 C31.8165344,7.38841133 31.593411,7.50801894 31.3784828,7.65869885 C31.3068264,7.70949169 31.2400706,7.76355748 31.1733559,7.81923903 C30.6196245,7.20326189 30.0106271,6.63153169 29.3543528,6.11059434 C29.3999823,6.03519224 29.4455295,5.95825724 29.4862583,5.87635068 C30.2401748,4.38392772 31.2140436,2.75876392 30.0431608,1.99537982 C30.0317946,1.98717673 30.0187399,1.97901507 30.0057264,1.97246918 C29.9585732,1.9446284 29.9096903,1.9167462 29.8608486,1.89217837 C26.5111566,0.245761125 25.0733329,1.65466176 24.283547,3.21908958 C24.2688451,3.24858755 24.2557904,3.27808551 24.2428181,3.30754205 C24.2183973,3.35999208 24.1955825,3.41240068 24.1743739,3.46480928 C23.3683624,3.2387687 22.5524672,3.08311723 21.7301476,2.99628053 C21.7350895,2.90944382 21.7399489,2.82260712 21.7382605,2.73415466 C21.7105862,1.32367969 22.0460537,0.417735911 21.2644631,0.12776927 C21.1276157,0.0769764279 20.9534164,0.0147075522 20.7384882,0.00327294823 C20.7124201,0.00161575925 20.6863108,0 20.6603251,0 L20.5104231,0 C16.9654466,0 15.7685368,1.52680963 15.802759,3.24204165 C15.8043651,3.33210987 15.8125191,3.43203837 15.8206319,3.52053226 C15.3825804,3.64502858 14.9494295,3.79409273 14.5228265,3.9562901 C14.5211792,3.9562901 14.5194908,3.95794729 14.5178847,3.95794729 C14.1417295,4.10050697 13.772081,4.25938996 13.405686,4.42974899 C13.3682516,4.35277256 13.3292112,4.27906908 13.285229,4.20366698 C12.9693229,3.67618373 12.5182579,3.29942182 12.0036492,3.08315866 C11.4630549,2.85214652 10.8507217,2.80301086 10.2547788,2.94880206 C9.89484931,3.03563877 9.53821433,3.19452176 9.20768866,3.42876542 C7.80565195,4.41661577 7.35784031,6.36774864 8.20622798,7.7847695 C8.25012785,7.85685722 8.29736346,7.92563056 8.34624634,7.99282958 C7.79585067,8.54653784 7.2747353,9.14449306 6.78948935,9.78176508 C6.72763418,9.86205588 6.66734393,9.94230526 6.60709485,10.0242118 C6.53712686,9.97996488 6.4670765,9.93737512 6.39216668,9.89805831 C6.33517098,9.86860178 6.27982255,9.84237676 6.22113838,9.8194247 C4.81584831,9.21819654 3.11903179,9.8997155 2.3601735,11.4035731 C1.57046999,12.9680837 2.09475636,14.8323799 3.53266247,15.5663075 C3.6059662,15.6039671 3.68248211,15.6350808 3.7590392,15.6661945 C3.49197479,16.5328215 3.28997772,17.4043372 3.1549012,18.2775515 C3.07348464,18.2775515 2.99037963,18.2792087 2.90739817,18.2873704 C1.26753617,18.4348187 -0.0335225947,19.9485366 0.000658356057,21.6719303 C0.0169663759,22.4877644 0.32961912,23.20367 0.829484638,23.7147471 C1.38478095,24.2832458 2.16806009,24.6411986 3.0311085,24.5642636 C3.10276495,24.5577177 3.17606868,24.5732124 3.24768395,24.5732124 C3.24929004,24.5732124 3.24929004,24.5732124 3.25093731,24.5732124 C3.26230351,24.5732124 3.27375207,24.5281783 3.28511826,24.5264797 C3.28680672,24.5330256 3.28837163,24.5179037 3.28837163,24.5244911 C3.28997772,24.5261068 3.28997772,24.517738 3.28997772,24.5193124 C3.46100602,25.3629873 3.69224221,26.1803543 3.98372748,26.9798651 C3.98372748,26.9814809 3.98541594,26.9822266 3.98541594,26.9839252 C3.91042375,27.0280893 3.83551393,27.0727506 3.76229257,27.1235434 C2.95619868,27.6919592 2.46440481,28.5677836 2.35531404,29.4786575 C2.27389749,30.151932 2.40086119,30.8445955 2.76074953,31.4458651 C3.41862988,32.5434214 5.2489992,33.2557641 6.69341205,32.9280964 C6.69501814,32.9280964 6.69501814,32.9280964 6.69666542,32.9280964 C7.03044446,32.9280964 7.34309721,32.8118031 7.61502108,32.6626975 C7.64434257,32.6921955 7.67201679,32.7331695 7.70137946,32.7642832 C7.70463283,32.7691719 7.70949229,32.7741435 7.71274566,32.7774165 C7.9293211,32.9887495 8.15244446,33.1968096 8.38368065,33.3966251 C8.39504685,33.4081426 8.40649541,33.4180029 8.4178616,33.4277388 C8.56282178,33.5538924 8.71095296,33.6767315 8.86241987,33.7963391 C8.86073142,33.7979963 8.86073142,33.799612 8.85916651,33.8013107 C8.81518427,33.8766713 8.76963712,33.9553049 8.73051435,34.0339386 C8.57418798,34.3435843 8.46995667,34.6646647 8.41291978,34.9857451 C8.32989713,35.4575468 8.35106461,35.9310056 8.46509721,36.3716522 C8.54976713,36.6944312 8.6849672,37.0006797 8.86727933,37.2742816 C8.97645247,37.4397933 9.10185126,37.592089 9.24672907,37.7313343 C9.4356303,37.9148266 9.65550029,38.0950459 9.90135605,38.2211994 C10.4436389,38.4996486 11.0396641,38.4980328 11.6128745,38.4980328 C11.6144806,38.4980328 11.6144806,38.4980328 11.6161279,38.4980328 C12.5589867,38.3342197 13.4415554,37.6887446 13.931702,36.717259 C13.9740781,36.6369681 14.008259,36.5190592 14.0424812,36.4371526 C14.4561119,36.5534458 14.8713075,36.6960055 15.28988,36.6960055 L15.2914861,36.6960055 C15.3663959,36.6960055 15.4413057,36.6960055 15.5161743,36.8598186 C15.5178628,36.8598186 15.5178628,36.8598186 15.5194277,36.8598186 C15.5259344,36.8598186 15.5341296,36.825432 15.5422425,36.825432 C15.5503553,36.8270477 15.5585505,36.8098958 15.5650572,36.8114701 C15.6220529,36.8213304 15.6806547,36.8217447 15.7392565,36.8299064 C15.7880982,36.8381509 15.838546,36.8415896 15.8874701,36.8481355 C16.0860902,36.8792492 16.2660138,36.9015384 16.4663224,36.9227918 C16.4598157,37.0079713 16.4378657,37.0793133 16.4378657,37.1644928 L16.4378657,37.1824733 C16.4378657,37.2031882 16.459898,37.2214173 16.4609276,37.2400606 C16.4615041,37.2558868 16.4718408,37.2718372 16.4733233,37.287332 C16.4733233,37.3037381 16.4784299,37.3184457 16.4799948,37.3348519 C16.4848542,37.4102125 16.4955615,37.4839574 16.5053628,37.5560037 C16.5069689,37.5789558 16.5114989,37.6002507 16.5147523,37.6232027 C16.6759381,38.6453983 17.3182105,39.4596167 18.1877657,39.8298327 C18.2203817,39.8445403 18.2548921,39.8576735 18.290638,39.8708067 C18.339562,39.8889115 18.3901746,39.906892 18.4422696,39.9232982 C18.4568892,39.9298441 18.4732796,39.9347328 18.4895876,39.9380057 C18.8087471,40.0297726 19.1523686,40.0657336 19.5089624,40.0346198 C19.5838722,40.028074 19.6571759,40.0182137 19.7288324,40.0052047 C19.7483938,40.0019318 19.7695612,39.9986588 19.7891226,39.9936873 C21.2937434,39.7102665 22.446671,38.2719508 22.4141373,36.6500599 C22.4124488,36.5894897 22.4091955,36.5305352 22.4043772,36.4714978 C22.4026887,36.4535173 22.4011238,36.4338382 22.3994354,36.4158163 C22.3978293,36.405956 22.3978293,36.3961372 22.396182,36.3847026 C23.2185839,36.1488017 24.0262839,35.8473176 24.8111279,35.4819903 C24.8485622,35.5590082 24.887685,35.6359846 24.9316673,35.7097295 C24.9512286,35.7425418 24.9723961,35.7752299 24.9951285,35.8080422 C25.0684322,35.9210625 25.1482839,36.0275369 25.2362072,36.1258496 C25.2378133,36.1274654 25.2378133,36.1274654 25.2393782,36.1291226 C25.6758236,36.6271493 26.2604002,36.9318235 26.887353,37.020276 C27.1707254,37.0629071 27.4638168,37.0595513 27.7569082,37.0088414 C28.1868469,36.9383694 28.6151795,36.7663946 29.0092076,36.4878626 C30.3461358,35.5458749 30.8150737,33.7274415 30.119759,32.3300997 C30.1018861,32.2940144 30.0838896,32.258012 30.0627633,32.2219267 C30.0464553,32.190813 30.0285824,32.1596993 30.0106683,32.1301599 C29.966686,32.0580722 29.9194916,31.9892988 29.8706499,31.9237984 C30.4910136,31.297961 31.0724192,30.6197978 31.609719,29.8923333 C31.6797694,29.9366631 31.7498197,29.9792114 31.8247296,30.0168711 C32.1911246,30.2036363 32.5802521,30.298676 32.9727153,30.3101106 C33.1632226,30.3182723 33.3521651,30.3052219 33.5410663,30.272451 C34.4838428,30.1119108 35.3648465,29.4844577 35.8566404,28.5113563 C36.644779,26.9468871 36.1220575,25.0842481 34.6841514,24.3503205 C34.61093,24.3126609 34.5343318,24.2798485 34.457857,24.2487348 C34.7248803,23.3838065 34.9268362,22.5106336 35.061995,21.6374193 C35.1434528,21.6376264 35.2264754,21.6360107 35.3095393,21.6294234 Z M7.0462839,32.0976375 C7.07743185,32.1308772 7.1087951,32.1642574 7.13994304,32.1976375 C7.06336503,32.1504134 7.02360475,32.1142925 7.0462839,32.0976375 Z M13.9171236,30.2463917 C8.69966913,27.5810104 6.79607845,20.8152464 9.66369549,15.1339055 C11.1292758,12.2310075 13.555588,10.1734417 16.2750738,9.20850198 C18.0223381,8.59090908 19.8901829,8.42378157 21.7009085,8.77605852 C22.5884189,8.94637611 23.4612275,9.24293008 24.2999374,9.67052627 C24.8209704,9.93754084 25.3111582,10.2439137 25.7638293,10.5896033 C25.8078115,10.620717 25.8517526,10.6551037 25.8957348,10.6894903 C26.0878482,10.8385545 26.27189,10.9958631 26.4510311,11.1580191 C26.5242525,11.2252181 26.5959089,11.2923757 26.6675242,11.3628062 C26.6789727,11.3726665 26.6903389,11.3841425 26.7017875,11.3956186 C26.7766973,11.4677063 26.8499187,11.5414098 26.9215751,11.616729 C26.9313352,11.6265893 26.9427426,11.6364081 26.9508966,11.6478842 C27.0192997,11.7183147 27.0860555,11.7887452 27.1512052,11.8624487 C27.1675133,11.8804706 27.1838213,11.8984926 27.2000057,11.9181717 C27.2651966,11.9902594 27.3270518,12.0623057 27.3873421,12.1360506 C27.4003144,12.1491424 27.4117629,12.1622342 27.421523,12.1770246 C27.4833782,12.2491123 27.54198,12.3228158 27.5989757,12.398135 C27.8448314,12.7110123 28.0712082,13.0370642 28.2780235,13.3777823 C28.3268652,13.4547587 28.3724947,13.535091 28.4180419,13.6137246 C28.4310965,13.6350195 28.4424627,13.6562729 28.4539113,13.6776092 C28.4946401,13.7463826 28.5320745,13.8152388 28.5679439,13.8856693 C28.5891113,13.9217131 28.6086727,13.9593728 28.6281518,13.9970324 C28.6623327,14.0625328 28.696596,14.128116 28.7274412,14.1936579 C28.8512339,14.4426505 28.9652665,14.6965733 29.0694155,14.9553848 C29.1101443,15.0536975 29.1475787,15.1535846 29.1850953,15.2535131 C29.217629,15.3436227 29.2502039,15.4353896 29.2811315,15.527115 C29.3055523,15.5942725 29.3266786,15.6614716 29.3479285,15.7286291 C29.362548,15.7744918 29.3771676,15.820396 29.3902222,15.8662587 C29.4080952,15.920283 29.4228383,15.9727331 29.4374578,16.0251417 C29.4537659,16.079166 29.4683854,16.1316161 29.4814401,16.1840247 C29.5009191,16.2462521 29.5172271,16.3101782 29.531929,16.3724056 C29.5872775,16.5886688 29.636078,16.8065063 29.6784541,17.0260424 C29.7012689,17.1472658 29.7224364,17.2668734 29.7419978,17.3881382 C29.7614768,17.5044314 29.7777848,17.6207661 29.7924044,17.7387165 C29.7940928,17.7534655 29.7957401,17.768173 29.7973462,17.7845792 C29.8087124,17.868143 29.8185137,17.9516653 29.8265853,18.0351876 C29.833092,18.0941835 29.8380339,18.1515223 29.8428933,18.2104768 C29.8478352,18.2579967 29.8510885,18.3055166 29.8543419,18.3546522 C29.8608486,18.4267399 29.8657081,18.5004434 29.8689615,18.5741469 C29.984559,20.6252083 29.5676749,22.771268 28.5532008,24.7813554 C27.9360081,26.005148 27.1462222,27.0781364 26.2376267,27.9839973 C26.1415082,28.0790371 26.0454309,28.1723783 25.9477063,28.2641451 C25.8484168,28.355912 25.7490862,28.4443644 25.6481082,28.5328169 C25.5926774,28.5803368 25.537329,28.629431 25.4804157,28.6753352 C25.4347861,28.7146105 25.3875505,28.7522702 25.3403149,28.7900541 C25.2377309,28.8735764 25.1334996,28.955483 25.0276622,29.0357738 C24.1189843,29.7254544 23.128931,30.2676452 22.0949366,30.6526102 C21.9255968,30.7149205 21.7562158,30.773875 21.5851875,30.8279408 C21.4109882,30.8836223 21.2351004,30.9344152 21.0576065,30.9802364 C21.0543532,30.9819351 21.0510998,30.9819351 21.0478053,30.9835094 C20.9435739,31.0097344 20.8377365,31.0360009 20.7318991,31.0588701 C20.6244145,31.0850951 20.5153237,31.1080471 20.4062329,31.1276434 C19.6327551,31.2800219 18.8446165,31.343948 18.058084,31.3176815 C17.9505993,31.3144086 17.8447619,31.3095199 17.7389245,31.299701 C17.7226165,31.299701 17.7047435,31.2980024 17.6884355,31.2964281 C16.4004314,31.2064427 15.1237935,30.8624103 13.9171236,30.2463917 Z" id="Shape" fill="url(#linearGradient-20)"></path>
                            <path d="M35.0620362,21.6376264 C34.9268773,22.5107993 34.7249215,23.3839722 34.4578982,24.248942 C34.5343729,24.2800557 34.6109712,24.312868 34.6841926,24.3505277 C36.1220987,25.0844552 36.6448202,26.9470942 35.8566816,28.5115635 C35.3648877,29.4846648 34.483884,30.112118 33.5411075,30.2726582 C33.3522062,30.3054705 33.1632638,30.3184795 32.9727565,30.3103178 C32.5802933,30.2988832 32.1911658,30.2038434 31.8247707,30.0170782 C31.7498609,29.9794186 31.6798106,29.9368288 31.6097602,29.8925405 C31.0724192,30.620005 30.4910136,31.2981267 29.8706911,31.9240056 C29.9195328,31.989506 29.9667272,32.0583207 30.0107094,32.130367 C30.0285824,32.1599064 30.0464965,32.1910201 30.0628045,32.2221339 C30.083972,32.2565205 30.1051806,32.2926058 30.1246597,32.3286083 C30.916134,33.7473277 31.4680946,35.7983477 30.1296015,36.7419511 C29.7240836,37.027029 29.1916021,37.1794075 28.6167856,37.2186829 C28.0533764,37.2563425 27.4345365,37.1859534 26.8743395,37.0204831 C26.2327672,36.8337179 25.7198059,36.5257293 25.2313065,36.1227424 L25.2313065,36.0408358 L25.2557274,36.0408358 C25.1563967,36.0408358 25.0700795,35.8778099 24.9951697,35.7680625 C24.9724373,35.7352502 24.9512698,35.7226141 24.9317084,35.6898432 C24.8877262,35.6160983 24.8486034,35.5491893 24.8111691,35.47213 C24.0263251,35.8374573 23.2186251,36.1439544 22.3962232,36.3798553 C22.3979116,36.3912899 22.3979116,36.4036359 22.3994765,36.4134962 C22.401165,36.4315181 22.4271508,36.4524402 22.428798,36.4704207 C22.4336575,36.5146676 22.462979,36.5585417 22.462979,36.6142232 L22.462979,36.6502257 C22.462979,38.360569 22.1551857,40.1363712 20.5235189,40.1363712 L20.5186594,40.1363712 C19.7027643,40.1821925 19.0319528,40.1085305 18.48967,39.9381714 C18.4733619,39.9348985 18.4570539,39.9300098 18.4424344,39.9234639 C18.3903393,39.9070577 18.3398503,39.8890772 18.2909674,39.8709724 C18.2551804,39.8578392 18.2209994,39.8447474 18.1883834,39.8299984 C17.1478,39.4007865 16.6494994,38.5816794 16.5159877,37.6233685 C16.5127344,37.6004164 16.509481,37.5791215 16.5078749,37.5561694 C16.4981148,37.4709899 16.4899196,37.385769 16.4850602,37.2990151 C16.4850602,37.2957422 16.4850602,37.2907706 16.4834541,37.2874977 C16.4785122,37.2432507 16.4556975,37.212137 16.4540914,37.1646171 C16.4524029,37.0761647 16.4377834,37.0090485 16.4377834,36.9205546 L16.4377834,36.918856 C16.2749503,36.8992597 16.0616282,36.8730347 15.8629257,36.8434953 C15.8141252,36.8369494 15.7750847,36.8287878 15.7278491,36.8205433 C15.6692473,36.8123816 15.615505,36.8402224 15.5585093,36.8304035 C15.5454546,36.8271306 15.5324412,36.8599015 15.5193865,36.8599015 C15.5177804,36.8599015 15.5177804,36.8599015 15.5161332,36.8599015 C15.4412233,36.6960884 15.3663135,36.6960884 15.2914449,36.6960884 L15.2898388,36.6960884 C15.9199626,35.3855005 16.5778429,34.100309 17.1331804,32.7619217 C17.3367424,32.2704409 17.5761326,31.7827302 17.7389657,31.2879764 C17.7405718,31.2862778 17.7405718,31.2922437 17.7405718,31.2906279 C17.7405718,31.2971738 17.9147711,31.3050455 18.032057,31.310017 C18.0434232,31.3116328 18.0532245,31.3130828 18.0629846,31.3130828 C18.8511232,31.3409236 19.6327963,31.2778262 20.4062741,31.1270634 C20.5153649,31.1057685 20.6228496,31.0832722 20.7319403,31.0586215 C20.8377777,31.0357523 20.9436151,31.009693 21.0478464,30.983468 C21.0510998,30.9818522 21.0543532,30.9819765 21.0576477,30.9802779 C21.2351004,30.9344566 21.4109882,30.8837052 21.5852286,30.8280236 C21.7562569,30.7739578 21.925638,30.7166191 22.0949778,30.6527345 C23.1322255,30.271001 24.12232,29.727153 25.0342101,29.035898 C25.1400475,28.9556072 25.2410255,28.8737007 25.3436095,28.7901784 C25.3908451,28.7524359 25.4363922,28.7147348 25.4804568,28.6754594 C25.5373702,28.6295553 25.5927186,28.5804197 25.6481494,28.5329412 C25.7491273,28.4444887 25.848458,28.3559948 25.9477475,28.2642694 C26.0454721,28.1725026 26.1415082,28.0791614 26.2376678,27.9841216 C27.1462634,27.0782193 27.9360493,26.0052308 28.5532419,24.7814796 C29.5677573,22.7713923 29.9846413,20.6253326 29.8690026,18.5742712 C29.8657493,18.5005677 29.8608898,18.4268642 29.8543831,18.3547765 C29.8511297,18.3055994 29.8478763,18.258121 29.8429345,18.2106011 C29.838075,18.1516466 29.8331744,18.0943078 29.8266265,18.0353119 C29.8185137,17.9517896 29.8087536,17.8682673 29.7973874,17.7847035 C29.7957813,17.7682973 29.794134,17.7535898 29.7924455,17.7388408 C29.777826,17.6208904 29.761518,17.5045971 29.7420389,17.3882625 C29.7224775,17.2669977 29.7013512,17.1474315 29.6784953,17.0261667 C29.6361192,16.8066306 29.5872775,16.5887931 29.5319702,16.3725299 C29.5172683,16.3103025 29.5009603,16.2463764 29.4814813,16.184149 C29.4684266,16.1316989 29.453807,16.0792903 29.437499,16.025266 C29.4228795,15.9728159 29.4081775,15.9204073 29.3902634,15.866383 C29.3772088,15.8205203 29.3625892,15.7746161 29.3479696,15.7287534 C29.3267198,15.6615959 29.3055935,15.5943968 29.2811726,15.5272393 C29.2502451,15.4354724 29.217629,15.343747 29.1851365,15.2536374 C29.1476198,15.1537089 29.1101443,15.0538218 29.0694567,14.9555091 C28.9653077,14.6966561 28.8512751,14.4427334 28.7274824,14.1937821 C28.6966372,14.1282403 28.6623739,14.0626571 28.6281929,13.9971567 C28.6087139,13.9594971 28.5891525,13.921796 28.567985,13.8857936 C28.5321156,13.815363 28.4946813,13.7465068 28.4539525,13.6777335 C28.4425039,13.6563972 28.4311377,13.6351437 28.418083,13.6138489 C28.3725359,13.5352152 28.3268652,13.4549244 28.2780647,13.3779066 C28.0712494,13.0371885 27.8448726,12.7111366 27.5990169,12.3982593 C27.5420212,12.3228987 27.4834194,12.2491952 27.4215642,12.1771489 C27.4117629,12.1623999 27.4003144,12.1492667 27.3873832,12.1361749 C27.327093,12.06243 27.2652378,11.9903423 27.2000469,11.918296 C27.1838213,11.8986168 27.1675133,11.8806363 27.1512464,11.862573 C27.0861379,11.7888695 27.0193409,11.718439 26.9509378,11.6480084 C26.9427426,11.6365324 26.9313764,11.6266721 26.9216163,11.6168533 C26.8499599,11.5414926 26.7767385,11.4677891 26.7018287,11.3957428 C26.6903801,11.3842668 26.6790139,11.3727908 26.6675654,11.3629305 C26.5959089,11.2925 26.5242937,11.2253424 26.4510723,11.1581434 C26.2719312,10.9959874 26.0878482,10.8386788 25.895776,10.6896146 C25.8517937,10.655228 25.8078527,10.6208413 25.7638705,10.5897276 C25.7312544,10.5635025 25.7003268,10.5389347 25.6678343,10.5159827 C25.7752778,10.3193986 25.8827625,10.1211988 25.9902472,9.92461477 C27.1985232,7.70153718 28.4263194,5.49163426 29.6703825,3.28823579 C29.9537549,4.08600657 29.9163206,5.02472126 29.4863819,5.87664069 C29.445653,5.95854725 29.4001059,6.03548225 29.3544764,6.11088435 C30.0107506,6.6318217 30.6197481,7.2035519 31.1734795,7.81952904 C31.2401941,7.76384749 31.3069911,7.7097817 31.3786064,7.65898886 C31.5740555,7.52135931 31.7807885,7.38049825 31.995799,7.24945603 C33.321361,6.43689485 34.9872088,5.93397942 36.6025676,8.0947467 C37.5909736,9.41681063 35.8567639,11.8053171 34.454686,12.793126 C34.3813823,12.8439189 34.3064725,12.8914388 34.2299154,12.9356857 C34.5263425,13.7416596 34.760832,14.5755571 34.931778,15.4290508 C35.0164479,15.4143018 35.0995529,15.3995943 35.1858289,15.3930069 C35.6434007,15.3520329 36.0798461,15.4225049 36.4723505,15.5830865 C36.4869701,15.5879752 36.5000247,15.5929054 36.5146443,15.5994513 C37.4997969,16.0221173 38.1918582,17.0214023 38.2163614,18.2451949 C38.2505424,19.9669314 36.9494013,21.482265 35.3096216,21.6297134 C35.2264754,21.6360107 35.1434528,21.6376264 35.0620362,21.6376264 Z" id="Path" fill="url(#linearGradient-21)"></path>
                            <path d="M36.8548889,21.804754 C38.4947509,21.6589213 39.7958096,20.1435877 39.7599402,18.4218098 C39.7257593,16.6984161 38.3693521,15.4222563 36.7311374,15.5697047 C36.6578336,15.5746349 36.5861772,15.5861109 36.5145619,15.5991613 C36.5015073,15.6008184 36.4901411,15.6040914 36.4771276,15.6057072 C36.4754391,15.5975041 36.4738742,15.5909582 36.4722681,15.5827965 C36.3012398,14.7374644 36.0683564,13.91177 35.775265,13.1107263 C35.8517397,13.0664793 35.9267319,13.0206166 35.9999533,12.9698238 C37.4020723,11.9820149 37.849884,10.030882 37.0014963,8.61220396 C36.8858164,8.42050862 36.7523048,8.24683522 36.6025264,8.09449812 C35.9690669,7.44086136 35.0668957,7.16237075 34.1745258,7.31309209 C33.7446694,7.38517981 33.3180253,7.55881178 32.923956,7.83568663 C32.8522172,7.88478086 32.7855437,7.94050384 32.7170583,7.99622681 C32.5021301,7.75705302 32.2774418,7.52276792 32.0462056,7.29834311 C32.0298976,7.28032118 32.0120247,7.26391501 31.9957167,7.24916602 C31.6471945,6.91167949 31.2824879,6.59059913 30.8997848,6.28754069 C30.9453319,6.21218002 30.9910026,6.1352036 31.0316903,6.05329703 C31.7872129,4.55764255 31.3410897,2.78672898 30.0432019,1.99546268 C30.0318357,1.98725959 30.0187811,1.97909793 30.0057676,1.97255204 C29.9586144,1.94471126 29.9097315,1.91682906 29.8608898,1.89226123 C28.4245898,1.15833366 26.6186825,1.83160812 25.8288966,3.3961188 C25.7881678,3.47802536 25.7539868,3.55993193 25.7198059,3.64183849 C25.2312653,3.50425038 24.7378242,3.39284585 24.2428593,3.30762491 C23.9204465,3.25194336 23.5979513,3.20608065 23.2755796,3.17330974 C23.2804391,3.08643161 23.2852573,2.99802058 23.2836924,2.91118387 C23.2560182,1.55800622 22.4173495,0.45551982 21.2644631,0.127852129 C21.095082,0.0770592874 20.9192355,0.0180633598 20.7384882,0.00335580768 C20.7124201,0.0016986187 20.6863108,8.28594488e-05 20.6603251,8.28594488e-05 L20.6521299,8.28594488e-05 C20.6048943,8.28594488e-05 20.5576587,0.0230349268 20.5104231,0.0230349268 C20.4258355,0.0230349268 20.3394771,0.0377424789 20.2532011,0.0459455643 C18.6150276,0.191736764 17.3138864,1.71361626 17.3480674,3.43539418 C17.3497558,3.52550383 17.3562626,3.61727067 17.3660227,3.70406594 C16.5436208,3.94000822 15.7359208,4.24302522 14.9510767,4.60835253 C14.9136424,4.5313761 14.8745196,4.45601544 14.8305374,4.38231196 C14.7393196,4.22997486 14.6367767,4.09068813 14.5228265,3.96291886 C14.5211792,3.96126167 14.5194908,3.95964591 14.5178847,3.95798872 C13.8811306,3.23719437 12.9383129,2.9243171 12.0036492,3.08320009 C11.6551271,3.1404974 11.3083346,3.26503515 10.9810623,3.45830481 C10.9045052,3.50255176 10.8279069,3.55168741 10.7530383,3.60413744 C9.35100156,4.59364498 8.90318992,6.54307923 9.75157759,7.96179871 C9.79555983,8.03388643 9.84279543,8.10265978 9.89159594,8.16985879 C9.27123228,8.79399759 8.68826175,9.47224361 8.15083837,10.1995838 C8.08247647,10.1569941 8.01082002,10.1144043 7.93751629,10.0750875 C7.57112121,9.88832233 7.18199374,9.79332397 6.78953053,9.78184794 C6.60058812,9.77364485 6.4100808,9.78677807 6.22117957,9.81950755 C5.27832069,9.98004774 4.39575207,10.6091167 3.90560547,11.5806023 C3.1158196,13.145113 3.64018833,15.0094091 5.07640599,15.7433367 C5.15131581,15.7809963 5.2278729,15.81211 5.30438881,15.8432238 C5.03736558,16.7081935 4.8354097,17.5814078 4.70025081,18.4545393 C4.61883425,18.4545393 4.53581161,18.4561965 4.45114168,18.4643581 C2.81296814,18.6101908 1.51182701,20.1255244 1.54600796,21.848918 C1.57051118,23.071012 2.25931911,24.0686812 3.24447176,24.4913473 C3.24616022,24.4913473 3.24616022,24.5249054 3.24772513,24.5249054 C3.26234469,24.5314513 3.27539934,24.5732539 3.29001891,24.5732539 L3.29170736,24.5732539 C3.68417057,24.737067 4.11728028,24.7723237 4.57654047,24.7313497 C4.66121039,24.7248038 4.74588032,24.6956787 4.82890296,24.6792725 C4.9998489,25.5327663 5.23598573,26.3587093 5.53076554,27.1662989 C5.45585573,27.2105458 5.38094591,27.2524727 5.30764218,27.3032655 C3.90560547,28.2927317 3.45618775,30.205832 4.30618151,31.6244687 C4.8354097,32.5074604 5.74408762,32.9281792 6.69345323,32.9281792 C6.69505933,32.9281792 6.69505933,32.9281792 6.6967066,32.9281792 C7.0321741,32.9281792 7.3708126,32.8920939 7.70142064,32.7643661 C7.70467401,32.7643661 7.70953347,32.7627503 7.71278684,32.7610931 C7.94241693,32.6726407 8.16710521,32.5694392 8.38211574,32.4187179 C8.4553371,32.3679251 8.5221341,32.3204052 8.58884872,32.2647236 C9.14258012,32.8806593 9.7499715,33.455621 10.4077695,33.9765998 C10.3606162,34.0519605 10.316634,34.1338671 10.2759463,34.2141579 C9.48616045,35.7786271 10.0105292,37.6428819 11.4467468,38.3768094 C11.5004892,38.4047331 11.5575261,38.4308752 11.6128333,38.4555259 C11.6144394,38.4555259 11.6144394,38.4571417 11.6160867,38.4571417 C13.0213768,39.0583698 14.7181933,38.3768509 15.4770516,36.8729933 C15.4916711,36.8434539 15.5063731,36.8139559 15.5193453,36.7845408 C15.5437662,36.7320494 15.5665809,36.6796822 15.5877896,36.6272736 C16.3938011,36.8533142 17.2096963,37.0105814 18.0304098,37.0957609 C18.0254679,37.1842134 18.0222146,37.2710087 18.023903,37.3595025 C18.0483239,38.5832952 18.7403852,39.5465363 19.7287912,39.9692023 C19.7483526,39.977364 19.7695201,39.9856085 19.7890814,39.9937701 C20.0187115,40.0839212 20.2629612,40.1362884 20.5186182,40.1362884 L20.5234777,40.1362884 C20.6961121,40.3001015 20.8736471,40.1919699 21.0543944,40.1756466 C21.1552899,40.1657864 21.2546618,40.1526946 21.3539924,40.1330154 C22.7788439,39.856182 23.8674042,38.5537558 23.940708,37.0335335 C23.9439613,36.9663345 23.9285181,36.8975611 23.9285181,36.8270892 L23.9285181,36.8091087 C23.9285181,36.7223134 23.9285181,36.6436798 23.9285181,36.5617732 L23.9285181,36.5535287 C24.4170586,36.4273752 24.8029739,36.2881299 25.2296593,36.1259739 C25.2312653,36.1259739 25.2345187,36.0841299 25.2360836,36.0841299 C25.2410255,36.0825141 25.2491383,36.2046075 25.255645,36.0407944 L25.2573335,36.0407944 C25.6269819,36.0407944 25.993377,35.786043 26.3565187,35.6173412 C26.393953,35.6942762 26.4329934,35.7930032 26.4769757,35.8667481 C26.7928818,36.39419 27.2423819,36.7826765 27.756867,36.9989811 C28.0288732,37.1168901 28.3187112,37.1906764 28.6167032,37.2136285 C29.2664707,37.262847 29.9486895,37.0883864 30.5529099,36.6624474 C30.9257294,36.4003216 31.2302693,36.0706652 31.4598994,35.7004492 C32.0347571,34.7846452 32.1569025,33.6270572 31.7302584,32.64741 C31.6797694,32.5311167 31.6211676,32.4183865 31.5543706,32.3069819 C31.5119945,32.2348942 31.4631528,32.1662866 31.4159583,32.0990876 C31.429013,32.0859544 31.4436325,32.0713297 31.4549987,32.0581964 C31.9924221,31.5159228 32.4988356,30.9311836 32.9727153,30.3102764 C33.0345705,30.2316428 33.0948607,30.1497362 33.1551098,30.0694454 C33.2250778,30.1136923 33.2951282,30.1563235 33.370038,30.1939831 C33.4270337,30.2235225 33.4823821,30.2496647 33.5410663,30.2726167 C34.9463564,30.8738035 36.6414844,30.1939831 37.4003427,28.6884684 C38.1901286,27.1239163 37.6657599,25.2613601 36.2295422,24.5273497 C36.1546324,24.4880743 36.0797637,24.4569606 36.0031655,24.4258469 C36.2702299,23.5608357 36.4705385,22.6877042 36.6056974,21.8144899 C36.6887612,21.8145314 36.7718662,21.8128742 36.8548889,21.804754 Z M18.0581663,31.3178058 C18.0516596,31.3178058 18.0434644,31.3161901 18.0369165,31.3145329 C18.0353104,31.3145329 18.0336631,31.3145329 18.032057,31.3129171 C17.1543067,31.1408595 16.2912995,30.8476199 15.4607847,30.4217223 C10.2449364,27.7579568 8.34142806,20.9921513 11.2090039,15.3108104 C12.4498136,12.8518319 14.3811609,10.9990532 16.5957158,9.9047285 C18.1997084,9.11018924 19.9535207,8.71536397 21.700785,8.77601709 C23.1142702,8.82349555 24.5228137,9.17080093 25.8451223,9.84738976 C25.893964,9.87199902 25.9428469,9.8981826 25.9900825,9.92440762 C31.0967577,12.6373088 32.9384932,19.3293693 30.0969031,24.9582603 C28.3105984,28.4968145 25.0944592,30.7820781 21.6617857,31.3571226 C20.4697766,31.5569796 19.2518228,31.5503923 18.0581663,31.3178058 Z" id="Shape" fill="url(#linearGradient-22)"></path>
                        </g>
                        <path d="M31.4599818,35.7016921 C31.2303517,36.0719081 30.9258117,36.4028073 30.5529923,36.6649332 C29.9487719,37.0908722 29.2665531,37.2678186 28.6167856,37.2186415 C28.0533764,37.2563011 27.44755,37.185912 26.8873942,37.0204417 C26.2604414,36.9319892 25.6758648,36.6272736 25.2394194,36.1292883 C24.8111691,36.2931014 24.3796655,36.4356611 23.941614,36.5617732 C23.9497268,36.6485685 23.957922,36.7370209 23.9594869,36.8270892 C23.9611753,36.8975611 23.9594869,36.9663759 23.9562335,37.0335335 C23.891125,38.5620003 22.7837446,39.856182 21.3540336,40.1330154 C21.254703,40.1526946 21.1553311,40.1658278 21.0544355,40.1756466 C20.8736883,40.1919699 20.6961533,40.3001015 20.5235189,40.1362884 L20.5186594,40.1362884 C19.7027643,40.1821097 19.0319528,40.1084476 18.48967,39.9380886 C18.4733619,39.9348156 18.4570539,39.9299269 18.4424344,39.923381 C18.3903393,39.9069749 18.3398503,39.8889944 18.2909674,39.8708896 C18.2551804,39.8577564 18.2209994,39.8446646 18.1883834,39.8299156 C17.1478,39.4007036 16.6494994,38.5815966 16.5159877,37.6232856 C16.5127344,37.6003335 16.509481,37.5790387 16.5078749,37.5560866 C16.4981148,37.4709071 16.4695346,37.3856861 16.4647163,37.2989323 C16.4614629,37.2546853 16.4378246,37.2234888 16.4378246,37.1825562 L16.4378246,37.1645757 C16.4378246,37.0793962 16.4378246,37.0057341 16.4378246,36.9205132 L16.4378246,36.9122687 C16.2749914,36.8909738 16.0616694,36.8697203 15.8630492,36.8386066 C15.8141252,36.8320607 15.7758672,36.8270892 15.7270255,36.8189275 C15.6684237,36.8107658 15.6159168,36.8009056 15.5589211,36.7910867 C15.5524144,36.7893881 15.5472666,36.7878138 15.5391538,36.7878138 C15.531041,36.7878138 15.5243695,36.7861152 15.5178628,36.7845408 C15.5048905,36.8139559 15.490971,36.8434953 15.4763103,36.8729933 C14.717452,38.3768094 13.0210473,39.0583284 11.6157572,38.4571417 C11.0408995,38.5554544 10.4451214,38.4800937 9.90119132,38.2015617 C9.65533557,38.0754082 9.43558912,37.9165666 9.2466467,37.7313757 C9.10176889,37.5921304 8.97645247,37.4397933 8.86727933,37.274323 C8.68327875,37.0007626 8.54811985,36.6960469 8.46513839,36.3716936 C8.3511058,35.9310471 8.3299795,35.4575468 8.41300214,34.9857865 C8.46999785,34.6663219 8.57583525,34.3468987 8.73059671,34.0388687 C8.77132558,33.9586193 8.81695509,33.8816015 8.86250224,33.8046665 C8.86081378,33.8029679 8.86081378,33.8029679 8.85924887,33.8013935 C8.70942923,33.6834017 8.56290414,33.5572482 8.41794397,33.4278217 C8.40657777,33.4180857 8.39512921,33.4082254 8.38376302,33.396708 C8.15252683,33.1886479 7.92944465,32.9724262 7.71282802,32.7610931 C7.70957465,32.7627918 7.70471519,32.7643661 7.70146182,32.7643661 C7.37085378,32.8920939 7.03221528,32.9281792 6.69674778,32.9281792 C6.69510051,32.9281792 6.69510051,32.9281792 6.69349441,32.9281792 C5.24908156,33.2558055 3.41871225,32.5431728 2.7608319,31.4456165 C2.40094355,30.8443055 2.27397985,30.1513519 2.3553964,29.4780775 C2.46288108,28.5590833 2.95467495,27.6760502 3.76237494,27.1059358 C3.8355963,27.0551429 3.90890002,27.0174833 3.98380984,26.9748935 C3.98380984,26.9731949 3.9854983,26.9731949 3.9854983,26.9731949 C3.69401303,26.173767 3.46269448,25.3873894 3.29174855,24.5437145 C3.29006009,24.5420987 3.29006009,24.5732539 3.29006009,24.5732539 L3.288454,24.5732539 C3.27539934,24.5732539 3.26403315,24.5732539 3.25101968,24.5682823 C3.24933122,24.5682823 3.24933122,24.5732539 3.24776631,24.5732539 C3.24616022,24.5732539 3.24616022,24.5732539 3.24451294,24.5732539 C3.17446258,24.5732539 3.10124122,24.5568477 3.03119086,24.5633936 C2.16818363,24.6404114 1.3849045,24.3037535 0.829567002,23.7352548 C0.329660302,23.2241777 0.0170487396,22.498039 0.000740719793,21.6822048 C-0.0334402309,19.9588112 1.26761854,18.439956 2.90748053,18.2925076 C2.99050318,18.284346 3.07356701,18.2801616 3.15498356,18.2801616 C3.29006009,17.4069887 3.49205715,16.5341473 3.75912157,15.6675617 C3.68256448,15.636448 3.60604856,15.6046714 3.53274484,15.5670118 C2.09483872,14.8330842 1.57055236,12.9684566 2.36025587,11.4039874 C3.11911415,9.9001298 4.81593067,9.21848654 6.22122075,9.81967327 C6.41012198,9.78690236 6.60067048,9.77372771 6.78957171,9.78193079 C7.27481767,9.1447002 7.79597421,8.54666213 8.3463287,7.9929953 C8.29744582,7.92579628 8.25021022,7.85698151 8.20631035,7.78493522 C7.35792268,6.36791436 7.80573431,4.41674006 9.20777102,3.42888971 C9.5382967,3.19464605 9.89493168,3.03572162 10.2548612,2.94888492 C10.4892684,3.10776792 10.7319531,3.27816837 10.9811446,3.45834624 C12.8521605,4.82299993 15.043983,6.79704344 16.2750738,9.20850198 C16.3891064,9.43624117 16.4981972,9.66882765 16.5958394,9.9047285 C14.3812432,10.9990947 12.449896,12.8518734 11.2091275,15.3108104 C8.34151042,20.9921513 10.2450599,27.7579153 15.4609083,30.4217223 C16.291423,30.8476199 17.1544302,31.1408595 18.0321806,31.3129171 C18.0435468,31.3145329 18.0533481,31.3145329 18.0631082,31.3145329 C18.8512468,31.3423737 19.6329198,31.2785305 20.4063977,31.1277677 C20.5154884,31.1064728 20.6229731,31.0836036 20.7320639,31.0589943 C20.8379013,31.0361251 20.9437387,31.0098587 21.04797,30.9836337 C21.2450252,31.1147588 21.4502345,31.2408708 21.6618681,31.3572055 C23.7250385,32.5039388 26.4884242,32.95776 30.1198414,32.3303069 C30.1215298,32.3303069 30.1230948,32.3303069 30.1247009,32.3286083 C30.5562868,32.2549462 30.9991566,32.1647951 31.4550811,32.0583207 C31.4615878,32.0583207 31.4665297,32.056705 31.4730364,32.0550478 C31.5771853,32.2532476 31.6635437,32.4514888 31.7303407,32.6481143 C32.0852461,33.6948777 31.9241014,34.7285908 31.4599818,35.7016921 Z" id="Path" fill="#FFFFFF" opacity="0.3"></path>
                    </g>
                    <g id="Path">
                        <path d="M11.6270749,49.2338591 C11.5874991,49.2213059 11.5079769,49.1970281 11.4076991,49.2095813 C11.2808589,49.2255318 11.193018,49.2915293 11.142735,49.3302247 C11.0953346,49.3668486 10.7059601,49.67608 10.7103665,50.1001961 C10.7139082,50.4396713 10.9656529,50.4607176 11.2158328,51.026399 C11.4193947,51.4867247 11.3028912,51.5861146 11.4880449,51.8234241 C11.7974443,52.2199065 12.4759979,52.3950714 12.7683068,52.134147 C12.9047424,52.0124265 12.9228212,51.8261999 12.9276395,51.7766085 C12.9724865,51.3146256 12.494118,51.1826305 12.3891866,50.6631846 C12.2839257,50.1419987 12.6898142,49.9000077 12.4950651,49.6044066 C12.415996,49.4843433 12.1530085,49.4009038 11.6270749,49.2338591 Z" fill="url(#linearGradient-23)"></path>
                        <path d="M12.0064011,48.436627 C11.5727972,48.838081 11.3840195,49.2844448 11.5201668,49.5127226 C11.5708617,49.5976536 11.6647563,49.6494407 11.7064324,49.6724756 C11.9972587,49.8329744 12.3069464,49.7153968 12.3657953,49.6917819 L12.9245097,48.9020899 L12.0064011,48.436627 Z" fill="url(#linearGradient-24)"></path>
                        <path d="M0.989551226,51.496585 C0.849862329,51.4472422 0.696583415,51.4779416 0.585968916,51.5769172 C0.414858253,51.73 0.166696315,51.9691738 0.0346672451,52.1763225 C-0.179643198,52.5125661 0.636046068,52.6734792 1.47965664,52.8503426 C2.3233084,53.0271647 3.36801003,53.3054896 3.33683536,53.0492882 C3.30570186,52.7931282 3.06355248,52.4038959 2.24794558,51.9871543 C2.03178195,51.8766613 1.34684512,51.6229042 0.989551226,51.496585 Z" fill="url(#linearGradient-25)"></path>
                        <path d="M1.07385051,50.5574974 L0.720963081,51.682563 C0.720963081,51.682563 0.912664678,52.0479317 1.42167257,51.8324557 L2.00929665,50.8505713 L1.07385051,50.5574974 Z" fill="url(#linearGradient-26)"></path>
                        <path d="M32.5524882,2.20018452 C32.5530647,2.20329175 30.8844578,4.61798181 29.2863542,5.09123355 L33.5002065,5.78045844 C33.5002065,5.78045844 32.950305,5.59381754 32.950305,4.81705163 C32.950305,4.33282101 33.3251424,3.16889434 33.3251424,3.16889434 L32.5524882,2.20018452 Z" fill="url(#linearGradient-27)"></path>
                        <path d="M23.5101442,26.93344 C23.9381062,28.6023536 24.497603,31.0545375 24.9315364,34.0729829 C25.6841762,39.3088301 25.2231452,40.4341857 24.9802545,40.9252522 C24.0776715,42.7502316 22.5828932,43.1029228 18.8170173,45.3650272 C16.1299416,46.9789635 14.0791669,48.4882484 12.8001404,49.4809875 C12.6104156,49.4504952 12.3163358,49.3793603 12.0003062,49.1963652 C11.7187869,49.0333807 11.5247791,48.8423897 11.404734,48.704263 C11.7497145,47.0209733 12.3909986,45.9043179 12.8904111,45.2136016 C13.4822357,44.3951988 14.007181,43.9917561 16.5607039,41.944962 C18.3737357,40.4916901 19.2812193,39.7633556 19.3284137,39.6750688 C20.8801465,36.775651 15.874614,32.9279482 17.0119336,29.9129 C17.4377542,28.78394 18.8479449,27.4448899 23.5101442,26.93344 Z" fill="url(#linearGradient-28)"></path>
                        <path d="M12.8904111,45.2136016 C13.4822357,44.3951988 14.007181,43.9917561 16.5607039,41.944962 C18.3737357,40.4916901 19.2812193,39.7633556 19.3284137,39.6750688 C20.8801465,36.775651 15.874614,32.9279482 17.0119336,29.9129 C17.4377542,28.7839815 18.8479449,27.4449313 23.5101854,26.9334814 C23.7271315,27.7795592 23.9778467,28.828477 24.2289325,30.0487067 C22.5166728,30.9345156 21.9873211,31.8160159 21.885643,32.5325015 C21.6434936,34.238619 23.7510993,35.4281907 23.2394146,36.8907014 C22.8241366,38.0775801 21.2120312,37.934689 20.8928306,39.1605945 C20.5833488,40.3492548 21.9575054,41.0272108 21.7051017,41.9752471 C21.2926653,43.5242631 17.3723162,42.6622348 15.2971618,44.6991272 C14.6295214,45.3543798 13.9703232,46.4939458 13.9220992,48.6313467 C13.500191,48.9431053 13.1248183,49.2289704 12.8001404,49.4809875 C12.6104156,49.4504952 12.3163358,49.3793603 12.0003062,49.1963652 C11.7187869,49.0333807 11.5247791,48.8423897 11.404734,48.704263 C11.7497145,47.0209733 12.3909986,45.9042765 12.8904111,45.2136016 Z" fill="url(#linearGradient-29)" opacity="0.3"></path>
                        <path d="M24.3675507,27.5386868 C22.9770449,28.4967906 21.0418266,29.8851835 18.8170173,31.6698932 C15.6139739,34.2391161 12.1691107,37.0023545 8.7266771,41.143504 C6.85874992,43.390528 4.42164813,46.7286866 2.19782724,51.2633771 C2.04088314,51.2963551 1.74474433,51.3365834 1.39300999,51.2454794 C0.971884204,51.1362292 0.702266512,50.8985883 0.585927734,50.7824608 C0.182386607,47.4411121 0.774623055,45.0953197 1.35306358,43.6095669 C2.64024405,40.3032678 4.12427386,40.5747982 6.67796152,35.7556926 C7.36985809,34.449952 8.15309604,32.7464446 9.81894379,29.800584 C10.4558214,28.674317 10.9410262,27.862833 11.7321299,26.9485204 C12.9943129,25.4895726 14.3398893,24.5720285 15.3055629,24.0178231 C18.326253,25.1914858 21.3469018,26.3650656 24.3675507,27.5386868 Z" fill="url(#linearGradient-30)"></path>
                        <g transform="translate(31.2946, 0)">
                            <path d="M2.7062599,1.34635933 C2.83907142,0.906831387 2.52645986,0.245695845 2.0116865,0.0543733776 C1.62964231,-0.0876062878 1.27156597,0.0795626501 1.01067883,0.20136604 C0.889892411,0.257751895 0.0444286548,0.664881796 0.00131123865,1.37979312 C-0.0123611416,1.60699373 0.0820688824,1.87989132 0.229376425,2.07291241 C0.305274609,2.17226089 0.429561487,2.28689694 0.692878353,2.49785709 C0.926544274,2.68503659 0.913160167,2.6803136 0.983704708,2.73396509 C1.15304455,2.8627701 1.46779757,3.07070589 1.9887482,3.26472129 C1.97647601,3.13711774 1.96926918,2.97632898 1.98335338,2.79436963 C1.9887482,2.7243534 2.01275723,2.44979861 2.10516935,2.19670443 C2.29267039,1.68301727 2.60244041,1.6900189 2.7062599,1.34635933 Z" fill="url(#linearGradient-31)"></path>
                            <path d="M1.35112934,3.1119699 C1.35112934,3.1119699 1.98845993,3.63949458 2.77795753,3.30383095 C3.48480312,3.00334116 3.02644892,1.33459329 2.44471385,1.15002387 C2.2506237,1.08841787 1.92545167,1.1485324 1.69891021,1.30712538 C1.56506914,1.40083942 1.53636538,1.48038449 1.31484811,1.62915863 C1.1104625,1.76637388 1.03835305,1.76351523 0.990417352,1.84471749 C0.93041537,1.94617888 0.929221096,2.14396439 1.23582011,2.57147771 C1.04922506,2.47913086 0.864895017,2.4832324 0.766840989,2.58001224 C0.751191879,2.59542409 0.71330456,2.64683838 0.703215002,2.70811294 C0.666521958,2.92992769 0.917937264,3.10869695 1.35112934,3.1119699 Z" fill="url(#linearGradient-32)"></path>
                        </g>
                        <path d="M50.0728611,3.99028005 L51.0641086,2.96526724 C51.0641086,2.96526724 52.3008413,2.35790748 53.203342,2.8118944 C54.1058838,3.26588132 53.3179923,3.20307386 52.8545316,3.26480415 C52.3910708,3.32653444 51.6943971,3.74625898 51.2454736,3.99028005 C50.7965912,4.23446685 50.3152576,4.56002162 50.3152576,4.56002162 L50.0728611,3.99028005 Z" fill="url(#linearGradient-33)"></path>
                        <path d="M49.9842789,3.41730697 C50.305168,3.82074962 50.6260571,4.22431657 50.9469874,4.62780065 C50.0680428,7.64144023 48.6584698,9.29796633 47.5174026,10.2571473 C43.8694715,13.3238169 40.0830458,11.6891243 35.2404287,15.3869344 C33.7460211,16.5280747 32.8039447,17.6784953 32.0200478,18.6357291 C28.4847492,22.9527892 28.7062252,25.7470998 25.6609908,27.5039687 C23.9841887,28.4713113 22.3707654,28.5161797 21.3146152,28.5456363 C18.3024087,28.6295315 14.2015182,27.4545016 13.5572691,25.0333071 C13.4346295,24.5724014 13.4703753,24.1909579 13.4921605,23.9976883 C14.082132,18.7625454 20.2424453,11.5832714 22.7280181,8.77429462 C24.4617336,6.8148758 25.9561824,5.23184603 28.2635202,4.83975512 C29.2299351,4.6755277 30.0108668,4.78067634 31.5728127,4.99101505 C34.413085,5.37353569 35.2987835,6.01370779 37.7923456,6.5412739 C39.4747073,6.89719667 41.3536712,7.29479773 43.4357853,6.97773605 C44.6640757,6.79055655 47.2570508,6.1578418 49.9842789,3.41730697 Z" fill="url(#linearGradient-34)"></path>
                        <path d="M19.9902887,25.6319666 C20.9336006,23.6298338 19.8687198,22.1281305 21.0733307,20.6381934 C22.5292745,18.8373675 24.6958525,20.2758904 26.8494995,18.5498867 C29.3503508,16.5456409 28.3229456,13.0879161 30.4596257,12.2849666 C31.8021134,11.7804354 32.4092165,13.0696456 34.430752,12.7389535 C36.617674,12.3810836 36.6609149,10.7488767 38.8531493,10.0150734 C41.2355204,9.21759267 42.3527433,10.7543454 45.53186,10.5598329 C46.1652783,10.5209718 46.8514506,10.4092358 47.5785577,10.2041173 C47.5582962,10.2214763 47.5374994,10.2402854 47.5174438,10.2571473 C43.8695127,13.3238169 40.083087,11.6891243 35.2404699,15.3869344 C33.7460623,16.5280747 32.8039859,17.6784953 32.020089,18.6357291 C28.4847903,22.9527892 28.7062664,25.7470998 25.661032,27.5039687 C23.9842299,28.4713113 22.3708066,28.5161797 21.3146564,28.5456363 C20.1414262,28.5782829 18.8045804,28.4174527 17.5696185,28.0687801 C18.9067114,27.3116934 19.6105507,26.4379405 19.9902887,25.6319666 Z" fill="url(#linearGradient-35)" opacity="0.3"></path>
                    </g>
                </g>
            </g>
        </g>
    </g>
</svg>