<?xml version="1.0" encoding="UTF-8"?>
<svg width="125px" height="132px" viewBox="0 0 125 132" version="1.1" xmlns="http://www.w3.org/2000/svg" xmlns:xlink="http://www.w3.org/1999/xlink">
    <title>Group 5</title>
    <defs>
        <linearGradient x1="24.4564478%" y1="28.0925464%" x2="42.0497264%" y2="50.7730662%" id="linearGradient-1">
            <stop stop-color="#AA80F9" offset="0%"></stop>
            <stop stop-color="#6165D7" offset="99.64%"></stop>
        </linearGradient>
        <linearGradient x1="122.366077%" y1="35.1096578%" x2="50.9076058%" y2="55.2445931%" id="linearGradient-2">
            <stop stop-color="#FF9085" offset="0%"></stop>
            <stop stop-color="#FB6FBB" offset="100%"></stop>
        </linearGradient>
        <linearGradient x1="58.8808%" y1="66.5800356%" x2="36.5798621%" y2="24.5194361%" id="linearGradient-3">
            <stop stop-color="#09005D" offset="0%"></stop>
            <stop stop-color="#1A0F91" offset="100%"></stop>
        </linearGradient>
        <linearGradient x1="11.997167%" y1="49.688747%" x2="101.19563%" y2="50.419303%" id="linearGradient-4">
            <stop stop-color="#09005D" offset="0%"></stop>
            <stop stop-color="#1A0F91" offset="100%"></stop>
        </linearGradient>
        <linearGradient x1="21.4569795%" y1="53.7115518%" x2="78.0304667%" y2="40.375135%" id="linearGradient-5">
            <stop stop-color="#F36F56" offset="0.36%"></stop>
            <stop stop-color="#FFC444" offset="100%"></stop>
        </linearGradient>
        <linearGradient x1="86.8057185%" y1="-227.385883%" x2="21.5807943%" y2="270.691678%" id="linearGradient-6">
            <stop stop-color="#444B8C" offset="0%"></stop>
            <stop stop-color="#26264F" offset="99.64%"></stop>
        </linearGradient>
        <linearGradient x1="66.9458049%" y1="27.3636717%" x2="18.8547261%" y2="86.9604295%" id="linearGradient-7">
            <stop stop-color="#AB316D" offset="0%"></stop>
            <stop stop-color="#792D3D" offset="100%"></stop>
        </linearGradient>
        <linearGradient x1="252.386032%" y1="-107.737161%" x2="87.9870227%" y2="22.3055097%" id="linearGradient-8">
            <stop stop-color="#444B8C" offset="0%"></stop>
            <stop stop-color="#26264F" offset="99.64%"></stop>
        </linearGradient>
        <linearGradient x1="2.1842266%" y1="48.0577633%" x2="98.555725%" y2="52.8489846%" id="linearGradient-9">
            <stop stop-color="#F36F56" offset="0.36%"></stop>
            <stop stop-color="#FFC444" offset="100%"></stop>
        </linearGradient>
        <linearGradient x1="96.4077959%" y1="78.1549241%" x2="32.0867477%" y2="43.1326057%" id="linearGradient-10">
            <stop stop-color="#AB316D" offset="0%"></stop>
            <stop stop-color="#792D3D" offset="100%"></stop>
        </linearGradient>
        <linearGradient x1="59.2410677%" y1="22.6615594%" x2="31.490133%" y2="99.2443683%" id="linearGradient-11">
            <stop stop-color="#AB316D" offset="0%"></stop>
            <stop stop-color="#792D3D" offset="100%"></stop>
        </linearGradient>
        <linearGradient x1="59.0054682%" y1="21.4385058%" x2="37.9612249%" y2="97.3037795%" id="linearGradient-12">
            <stop stop-color="#AB316D" offset="0%"></stop>
            <stop stop-color="#792D3D" offset="100%"></stop>
        </linearGradient>
        <linearGradient x1="49.4794778%" y1="99.5843041%" x2="52.1737836%" y2="-59.06481%" id="linearGradient-13">
            <stop stop-color="#F36F56" offset="0.36%"></stop>
            <stop stop-color="#FFC444" offset="100%"></stop>
        </linearGradient>
        <linearGradient x1="49.6463062%" y1="38.0245304%" x2="42.7646849%" y2="175.583602%" id="linearGradient-14">
            <stop stop-color="#F36F56" offset="0.36%"></stop>
            <stop stop-color="#FFC444" offset="100%"></stop>
        </linearGradient>
        <linearGradient x1="49.3697641%" y1="80.3583452%" x2="52.1294386%" y2="-29.4613818%" id="linearGradient-15">
            <stop stop-color="#444B8C" offset="0%"></stop>
            <stop stop-color="#26264F" offset="99.64%"></stop>
        </linearGradient>
        <linearGradient x1="41.7841213%" y1="-19.171561%" x2="61.6448366%" y2="179.828118%" id="linearGradient-16">
            <stop stop-color="#F36F56" offset="0.36%"></stop>
            <stop stop-color="#FFC444" offset="100%"></stop>
        </linearGradient>
        <linearGradient x1="-90.915349%" y1="-18.747402%" x2="88.9519474%" y2="78.4785316%" id="linearGradient-17">
            <stop stop-color="#F36F56" offset="0.36%"></stop>
            <stop stop-color="#FFC444" offset="100%"></stop>
        </linearGradient>
        <linearGradient x1="40.572801%" y1="88.1926178%" x2="24.9499273%" y2="161.84154%" id="linearGradient-18">
            <stop stop-color="#F36F56" offset="0.36%"></stop>
            <stop stop-color="#FFC444" offset="100%"></stop>
        </linearGradient>
        <linearGradient x1="1.64902485%" y1="116.587209%" x2="74.1620218%" y2="2.66217815%" id="linearGradient-19">
            <stop stop-color="#F36F56" offset="0.36%"></stop>
            <stop stop-color="#FFC444" offset="100%"></stop>
        </linearGradient>
        <linearGradient x1="58.5407446%" y1="0.878387207%" x2="38.4617696%" y2="116.343651%" id="linearGradient-20">
            <stop stop-color="#F36F56" offset="0.36%"></stop>
            <stop stop-color="#FFC444" offset="100%"></stop>
        </linearGradient>
        <linearGradient x1="99.9987581%" y1="50.0014801%" x2="-0.00227100494%" y2="50.0014801%" id="linearGradient-21">
            <stop stop-color="#311944" offset="0%"></stop>
            <stop stop-color="#893976" offset="100%"></stop>
        </linearGradient>
        <linearGradient x1="38.5397504%" y1="-22.7431734%" x2="56.5319789%" y2="103.728376%" id="linearGradient-22">
            <stop stop-color="#311944" offset="0%"></stop>
            <stop stop-color="#A03976" offset="100%"></stop>
        </linearGradient>
        <linearGradient x1="52.1548369%" y1="115.156928%" x2="39.9762933%" y2="-506.993544%" id="linearGradient-23">
            <stop stop-color="#FFC444" offset="0%"></stop>
            <stop stop-color="#F36F56" offset="99.64%"></stop>
        </linearGradient>
        <linearGradient x1="29.7384022%" y1="-148.45008%" x2="58.216713%" y2="147.185556%" id="linearGradient-24">
            <stop stop-color="#311944" offset="0%"></stop>
            <stop stop-color="#A03976" offset="100%"></stop>
        </linearGradient>
        <linearGradient x1="50.800831%" y1="135.274343%" x2="46.9580731%" y2="-303.195843%" id="linearGradient-25">
            <stop stop-color="#FFC444" offset="0%"></stop>
            <stop stop-color="#F36F56" offset="99.64%"></stop>
        </linearGradient>
        <linearGradient x1="-0.000123083633%" y1="50.0000176%" x2="99.9998503%" y2="50.0000176%" id="linearGradient-26">
            <stop stop-color="#444B8C" offset="0%"></stop>
            <stop stop-color="#3E4177" offset="99.64%"></stop>
        </linearGradient>
        <linearGradient x1="-7.42791939%" y1="49.9999786%" x2="99.9998575%" y2="49.9999786%" id="linearGradient-27">
            <stop stop-color="#444B8C" offset="0%"></stop>
            <stop stop-color="#3E4177" offset="99.64%"></stop>
        </linearGradient>
        <linearGradient x1="-0.000161532726%" y1="50.0000115%" x2="99.9998763%" y2="50.0000115%" id="linearGradient-28">
            <stop stop-color="#444B8C" offset="0%"></stop>
            <stop stop-color="#3E4177" offset="99.64%"></stop>
        </linearGradient>
        <linearGradient x1="54.1548583%" y1="43.8726462%" x2="40.6725545%" y2="112.309423%" id="linearGradient-29">
            <stop stop-color="#311944" offset="0%"></stop>
            <stop stop-color="#893976" offset="100%"></stop>
        </linearGradient>
        <linearGradient x1="48.0283596%" y1="81.2053672%" x2="53.3624408%" y2="-25.9218901%" id="linearGradient-30">
            <stop stop-color="#26264F" offset="0.36%"></stop>
            <stop stop-color="#444B8C" offset="100%"></stop>
        </linearGradient>
        <linearGradient x1="150.65385%" y1="-67.4657158%" x2="17.973504%" y2="91.1020066%" id="linearGradient-31">
            <stop stop-color="#311944" offset="0%"></stop>
            <stop stop-color="#893976" offset="100%"></stop>
        </linearGradient>
        <linearGradient x1="42.6134509%" y1="104.512988%" x2="52.4373478%" y2="27.6281525%" id="linearGradient-32">
            <stop stop-color="#6165D7" offset="0.36%"></stop>
            <stop stop-color="#AA80F9" offset="100%"></stop>
        </linearGradient>
        <linearGradient x1="44.8891616%" y1="143.945589%" x2="58.5876485%" y2="-13.9889267%" id="linearGradient-33">
            <stop stop-color="#AA80F9" offset="0%"></stop>
            <stop stop-color="#6165D7" offset="99.64%"></stop>
        </linearGradient>
    </defs>
    <g id="Page-1" stroke="none" stroke-width="1" fill="none" fill-rule="evenodd">
        <g id="Artboard" transform="translate(-648, -9)" fill-rule="nonzero">
            <g id="Group-5" transform="translate(648, 9)">
                <g id="Group" transform="translate(13.2051, 0)">
                    <path d="M98.0533645,50.5095055 C99.708787,58.7341924 103.063912,75.4035513 95.0348744,86.5549216 C80.4630491,106.793566 30.9056358,105.367356 9.97292127,79.8507044 C8.16318002,77.6446658 -0.915232428,66.1372866 0.0752875454,50.3800021 C1.79343473,23.0484968 32.8059948,-1.17683262 57.6603093,3.58122223 C72.2064032,6.36586315 81.8743021,18.5478772 85.8544776,23.5630998 C87.494803,25.6299047 95.0069464,35.3738574 98.0533645,50.5095055 Z" id="Path" fill="#E8F1FA"></path>
                    <g transform="translate(29.944, 0)">
                        <g id="SVGID_1_-link" transform="translate(5.087, 2.6854)" fill="url(#linearGradient-1)">
                            <path d="M0,65.7617398 C4.77066692,63.5951909 11.4026774,59.7320237 16.1316441,52.8350059 C22.3335773,43.7896627 19.8132237,37.4734207 25.9298388,20.8063689 C29.7972912,10.2679413 32.6070361,2.95078143 39.5268688,0.708931323 C44.9495726,-1.04787452 52.2470434,0.522483866 55.5830968,4.73189634 C58.3569293,8.23193241 58.7167507,13.9662617 58.1277524,17.7983321 C57.6477116,20.9214942 56.511973,22.9461678 57.7697092,25.0576451 C59.0550595,27.2155002 61.3239915,26.9187425 62.6299479,28.626228 C65.2784356,32.0889813 60.6144948,39.4118255 59.8607178,40.5953121 C51.4757286,53.7604554 34.5299886,59.1546251 27.1086025,61.4221886 C20.9723925,63.2971291 11.725645,65.4653164 0,65.7617398 Z" id="SVGID_1_"></path>
                        </g>
                        <g opacity="0.5" fill="#FFFFFF" id="Path">
                            <path d="M0.0127959742,69.7571961 L0,69.5206259 C7.14437243,69.1655866 13.5498209,68.0900362 19.0385965,66.3238679 C27.1355194,63.7184853 32.9910548,59.6690713 36.4426555,54.2882431 C39.1455348,50.0744504 40.3209514,45.2110005 41.9478183,38.4797993 C43.2464877,33.1067621 43.6615026,29.1867177 44.0276348,25.7281106 C44.5056185,21.2127451 44.8832218,17.6462688 47.0243334,12.9656551 C49.1974525,8.21505686 52.5252774,3.85280161 56.9152728,0 L57.0821086,0.17481121 C52.7175657,4.00517627 49.4097541,8.34064808 47.2505119,13.0608851 C45.1250901,17.7073256 44.7492301,21.2574176 44.2734082,25.7520853 C43.906474,29.2176139 43.4906572,33.1456833 42.1884663,38.5332993 C40.6177343,45.0323775 39.3770478,50.1657013 36.6530046,54.4123965 C33.1703728,59.8417759 27.2704175,63.9249953 19.1171506,66.5485678 C13.6071762,68.321524 7.17951777,69.4010868 0.0127959742,69.7571961 Z"></path>
                            <path d="M42.9577938,34.6711017 L42.8531596,34.5825927 C42.8220239,34.5562774 39.7153915,31.8985986 37.2928382,27.2054794 C35.8701141,24.4492269 34.9566838,21.5391285 34.5780345,18.5561698 C34.1047578,14.827856 34.4703322,10.9752884 35.6644371,7.10543368 L35.9013544,7.17264304 C34.7168029,11.0112672 34.3541573,14.831601 34.82325,18.5275473 C35.1985172,21.4838563 36.1039283,24.3682078 37.5142399,27.1004188 C39.6672759,31.2715119 42.3583355,33.8144332 42.9136877,34.3141899 C49.0692835,25.7531888 56.3637559,21.4494157 61.4094142,19.3445256 C66.9040473,17.052352 70.9972249,16.8006346 71.0379489,16.7982939 L71.0523488,17.0348642 C71.0119386,17.037138 66.9538366,17.2880195 61.497173,19.566283 C56.4623581,21.6683978 49.1726624,25.9761834 43.0366616,34.560758 L42.9577938,34.6711017 Z"></path>
                            <path d="M39.4167607,49.1110828 C39.3264567,49.1110828 39.2371987,49.1099793 39.1481847,49.107739 L39.0584385,49.1055321 L39.0329163,49.022975 C39.0140536,48.9617844 37.1073837,42.8387776 33.9427685,37.0590068 C30.7907051,31.3023078 20.5164792,26.4706905 20.4131003,26.422507 L20.5209421,26.2094099 C20.6250881,26.2578943 30.9721499,31.1239857 34.1614855,36.9488637 C37.1369156,42.3830246 39.0038726,48.1186246 39.2436838,48.8726734 C45.7087887,48.9757612 54.3736506,43.106846 60.5145328,38.1502059 C67.211081,32.7449684 72.4358481,27.2296212 72.4878339,27.1745831 L72.6709523,27.333545 C72.6188968,27.3887168 67.3845763,32.9142959 60.6757551,38.3297652 C56.7333399,41.5121117 53.0599887,44.0350374 49.7575465,45.8283904 C45.7450149,48.0074115 42.2676828,49.1110828 39.4167607,49.1110828 Z"></path>
                            <path d="M33.3294334,66.7505303 C26.4539507,66.7505303 21.6972652,65.8755045 21.6458721,65.865908 L21.4042479,65.8206002 L21.5864946,65.6619393 C24.0699248,63.4997373 25.5856027,60.9060913 26.0915143,57.9529254 C26.4968364,55.5868885 26.2593613,52.9840806 25.3857832,50.2170278 C23.8954532,45.4963895 21.0340363,41.8938007 21.0052715,41.8579557 L21.2011859,41.7135726 C21.2301947,41.7497185 24.1189469,45.3867814 25.6222473,50.1483472 C26.5069128,52.9504091 26.7467937,55.5891622 26.3353352,57.9913117 C25.8327358,60.9251172 24.3531098,63.5091332 21.9359258,65.6753811 C23.0922356,65.8685161 28.2706304,66.6527256 35.1896612,66.4920585 C42.418759,66.3242022 53.0814316,65.0612013 62.8250255,59.9970931 L81.7331519,50.1699478 L81.8508609,50.3782969 L62.9427694,60.2054421 C53.1538143,65.2930234 42.4471751,66.5611403 35.1891382,66.72903 C34.5542905,66.7437425 33.9333545,66.7505303 33.3294334,66.7505303 Z"></path>
                        </g>
                    </g>
                    <g transform="translate(16.206, 22.0224)">
                        <g id="SVGID_00000080190888280709922230000010498584505192920723_-link" transform="translate(27.4273, 5.2622)" fill="url(#linearGradient-2)">
                            <path d="M0,33.6998913 C6.05783035,37.8379816 14.4251074,42.1444297 24.3530749,43.3899094 C26.8867127,43.7077662 42.5383159,45.6712492 45.1133052,38.7861352 C46.0203202,36.360847 44.5387765,34.8858189 45.6991307,31.626399 C47.0740181,27.7642349 50.0341767,27.3630853 54.0656407,24.107611 C56.4711793,22.1650934 63.5110919,16.4803519 62.295056,9.89564024 C61.5683702,5.96081646 57.9264337,1.88257927 54.0053218,0.506559591 C48.2538975,-1.51179432 43.0289212,2.67892659 34.2912583,9.9186118 C26.5456494,16.3363031 25.852261,18.7235395 20.2066214,23.2503406 C16.0165849,26.6099058 9.56340427,30.7755151 0,33.6998913 Z" id="SVGID_00000080190888280709922230000010498584505192920723_"></path>
                        </g>
                        <g opacity="0.5" fill="#FFFFFF" id="Path">
                            <path d="M31.6085317,39.0341929 C27.2548323,39.0341929 23.0669575,38.3507974 19.0628984,36.9821674 C11.7939832,34.4975946 5.38027131,29.9433078 0,23.4459684 L0.193473735,23.2985759 C5.54463159,29.7607391 11.9210712,34.2894796 19.1458805,36.7590056 C28.7713818,40.0491211 39.4820655,39.3527853 50.9796841,34.6889908 C62.9551121,29.8313925 72.7838846,21.887614 78.9203387,16.0789532 C83.1741459,12.0525107 86.4668604,6.6427591 88.7071321,0 L88.9422364,0.0728937332 C86.6896219,6.75220001 83.3761619,12.1941853 79.0939386,16.2476453 C72.9420387,22.0707846 63.0873953,30.0349934 51.0758805,34.9071704 C44.2968733,37.6570029 37.7865117,39.0341929 31.6085317,39.0341929 Z"></path>
                            <path d="M65.7193912,26.8998273 L65.7146145,26.7819601 C65.7131501,26.746951 65.5838654,23.2310322 66.6125641,18.6850713 C67.5624996,14.4868939 69.722474,8.52355116 74.6177186,3.95485284 L74.7899587,4.12468186 C69.940668,8.65044645 67.7985452,14.5644688 66.8554436,18.7288076 C65.9376201,22.7814985 65.9459183,26.0080493 65.9584004,26.6546636 C85.1361488,25.9694625 92.1460066,15.1414662 93.8403052,11.8331273 C93.8886649,11.7386664 93.9088874,11.6994442 93.9235313,11.677877 L94.1308121,11.8067451 C94.1226185,11.8192842 94.0931913,11.8767298 94.0620556,11.937586 C92.3488245,15.2828734 85.2505804,26.2480971 65.8422604,26.8957479 L65.7193912,26.8998273 Z"></path>
                            <path d="M69.5364616,43.0957448 C69.3802601,43.0957448 69.2226639,43.0939392 69.0623481,43.0901942 C66.3550756,43.0270307 63.6187594,42.4328465 60.9294083,41.3240592 C57.5718423,39.9398139 54.2786397,37.7450773 51.1413945,34.8009061 L51.0946387,34.7570695 L51.1061446,34.6954108 C51.1259836,34.5890461 53.1846362,23.9337879 61.4708488,13.129666 L69.8358944,2.22285761 L70.0349119,2.36319477 L61.6698663,13.2700701 C53.7457065,23.6021214 51.5409288,33.7922641 51.3614365,34.6759501 C55.2566775,38.3196337 61.4765669,42.6763049 69.0683452,42.8533564 C73.6175057,42.9601223 76.5360338,41.4906114 76.5649381,41.4757651 L76.6814617,41.6846826 C76.6530107,41.6992279 73.8795268,43.0957448 69.5364616,43.0957448 Z"></path>
                        </g>
                    </g>
                </g>
                <g id="Group" transform="translate(4, 27)">
                    <path d="M4.92152587,42.7435416 C4.92152587,43.4346296 5.47941088,44 6.16126542,44 L73.2024196,44 C73.8842742,44 74.4421592,43.4345848 74.4421592,42.7435416 L75,3.65968427 C75,2.96864112 74.1974441,1.61948511 72.7265479,1.72087455 L7.20659317,0.00106241975 C6.35103995,-0.0213839377 5.52384029,0.31266804 4.91799272,0.925260943 C4.31214515,1.53785385 3.98064698,2.37544796 4.00087428,3.24256733 L4.92152587,42.7435416 Z" id="Path" fill="url(#linearGradient-3)"></path>
                    <path d="M5.93356795,41.8170201 C5.93356795,42.4676435 6.4608025,43 7.10516598,43 L71.302535,43 C71.9469426,43 72.4741772,42.4676435 72.4741772,41.8170201 L73,6.54077099 C72.9380606,4.41793748 71.0948352,3.6549718 69.9775003,3.70000673 L7.2508823,2.00079557 C6.65050283,1.98453667 6.06997572,2.21808577 5.64473818,2.64638534 C5.21950064,3.07468491 4.98563984,3.66076264 5.00068352,4.26706378 L5.93356795,41.8170201 Z" id="Path" fill="#7D97F4"></path>
                    <g transform="translate(49, 4)" fill="#FFFFFF" id="Path">
                        <path d="M22.5678513,21 C22.5669705,21 22.5661337,21 22.5661337,21 C22.4705606,20.998634 22.394939,20.9207266 22.3963924,20.8258982 L22.4378808,17.9958525 C22.4392462,17.9020376 22.5157486,17.8269063 22.6091636,17.8269063 C22.6100004,17.8269063 22.6108812,17.8269063 22.6108812,17.8269063 C22.7064543,17.8282724 22.7820759,17.9061797 22.7806225,18.0010081 L22.7391341,20.8310539 C22.7377687,20.9248247 22.6612663,21 22.5678513,21 Z"></path>
                        <path d="M22.6696344,14.0649248 C22.6696344,14.0649248 22.6679167,14.0649248 22.6670799,14.0649248 C22.5723878,14.0635588 22.4967661,13.9855193 22.4982196,13.8908231 L22.6572584,3.0517001 C22.6542635,2.40786292 22.4589774,1.89379786 22.0766412,1.52730728 C21.3629705,0.843238542 20.2299676,0.878182275 20.1822251,0.880385537 L0.166809927,0.343362491 C0.072205838,0.340982969 -0.00249087254,0.262062129 0,0.167365934 C0.00253001484,0.0727138045 0.0752447962,-0.00792557962 0.176014887,0.000623076395 L20.1795385,0.537646122 C20.3040037,0.530287228 21.5103379,0.509400305 22.313724,1.27957252 C22.7656919,1.712866 22.9965647,2.3097737 23,3.05337458 L22.8408731,13.8958906 C22.8395518,13.9897936 22.7630493,14.0649248 22.6696344,14.0649248 Z"></path>
                    </g>
                    <path d="M0.249582879,47 L78.7504171,47 C78.8877009,47 79,46.9004279 79,46.7787026 L79,44.2212974 C79,44.0995721 78.8877009,44 78.7504171,44 L0.249582879,44 C0.112299053,44 0,44.0995721 0,44.2212974 L0,46.7787026 C0,46.9003888 0.112343196,47 0.249582879,47 Z" id="Path" fill="url(#linearGradient-4)"></path>
                    <path d="M34.3509676,41 L9.6491206,41 C8.73834575,41 8,40.2521342 8,39.329616 L8,6.67038276 C8,5.72281218 8.77736384,4.96498792 9.71216678,5.00124917 L34.4139697,5.95873354 C35.2995701,5.99307454 36,6.73022274 36,7.62786713 L36,39.329616 C36,40.2521342 35.2617424,41 34.3509676,41 Z" id="Path" fill="#91B3FA"></path>
                    <g transform="translate(13, 18)" fill="#FFFFFF" id="Path" opacity="0.51">
                        <path d="M16.5999668,2.23205993 L0.235160611,2.23205993 C0.105299745,2.23205993 0,2.12399134 0,1.99071579 L0,0.241344139 C0,0.108023338 0.105299745,0 0.235160611,0 L16.5999668,0 C16.7298718,0 16.8351274,0.108068592 16.8351274,0.241344139 L16.8351274,1.99071579 C16.8351274,2.12399134 16.7298718,2.23205993 16.5999668,2.23205993 Z"></path>
                        <path d="M16.6330824,5.79646803 L0.268276234,5.79646803 C0.138415368,5.79646803 0.0331156232,5.68839944 0.0331156232,5.55512389 L0.0331156232,3.80575224 C0.0331156232,3.67243144 0.138415368,3.5644081 0.268276234,3.5644081 L16.6330824,3.5644081 C16.7629874,3.5644081 16.868243,3.67247669 16.868243,3.80575224 L16.868243,5.55512389 C16.868243,5.68839944 16.7629874,5.79646803 16.6330824,5.79646803 Z"></path>
                        <path d="M16.7317238,9.4355919 L0.366917578,9.4355919 C0.237056712,9.4355919 0.131756967,9.32752331 0.131756967,9.19424776 L0.131756967,7.44487611 C0.131756967,7.3115553 0.237056712,7.20353197 0.366917578,7.20353197 L16.7317238,7.20353197 C16.8616287,7.20353197 16.9668844,7.31160056 16.9668844,7.44487611 L16.9668844,9.19424776 C16.9668844,9.32752331 16.8616287,9.4355919 16.7317238,9.4355919 Z"></path>
                        <path d="M16.7648394,13 L0.400033201,13 C0.27012824,13 0.16487259,12.8919314 0.16487259,12.7586559 L0.16487259,11.0092842 C0.16487259,10.8759634 0.270172335,10.7679401 0.400033201,10.7679401 L16.7648394,10.7679401 C16.8947444,10.7679401 17,10.8760087 17,11.0092842 L17,12.7586559 C17,12.8919314 16.8947003,13 16.7648394,13 Z"></path>
                    </g>
                    <g transform="translate(41, 6)" fill="#FFFFFF" opacity="0.51">
                        <path d="M23.693569,13.891204 L0.232460402,13.891204 C0.104047062,13.891204 0,13.7845955 0,13.6531206 L0,11.9273843 C0,11.7958647 0.104090651,11.6893009 0.232460402,11.6893009 L23.693569,11.6893009 C23.8219823,11.6893009 23.9260294,11.7959094 23.9260294,11.9273843 L23.9260294,13.6531206 C23.9260294,13.7845955 23.8219823,13.891204 23.693569,13.891204 Z" id="Path"></path>
                        <path d="M23.7675396,17.4100435 L0.306431019,17.4100435 C0.178017679,17.4100435 0.0739706173,17.303435 0.0739706173,17.1719601 L0.0739706173,15.4462238 C0.0739706173,15.3147043 0.178061268,15.2081404 0.306431019,15.2081404 L23.7675396,15.2081404 C23.8959529,15.2081404 24,15.3147489 24,15.4462238 L24,17.1719601 C24,17.303435 23.8959529,17.4100435 23.7675396,17.4100435 Z" id="Path"></path>
                        <path d="M14.0189358,21 L0.306431019,21 C0.178017679,21 0.0739706173,20.8933915 0.0739706173,20.7619166 L0.0739706173,19.0361803 C0.0739706173,18.9046608 0.178061268,18.7980969 0.306431019,18.7980969 L14.0189358,18.7980969 C14.1473056,18.7980969 14.2513962,18.9047054 14.2513962,19.0361803 L14.2513962,20.7619166 C14.2513962,20.8933915 14.1473056,21 14.0189358,21 Z" id="Path"></path>
                        <g transform="translate(6.3086, 0)">
                            <path d="M6.39255208,3.48276764 L6.02810404,3.48276764 C5.84712231,3.48276764 5.70044515,3.33254251 5.70044515,3.147183 L5.70044515,1.87136316 C5.70044515,1.4146609 5.33896116,1.04447761 4.89308877,1.04447761 L2.63487088,1.04447761 C2.1889549,1.04447761 1.8275145,1.4146609 1.8275145,1.87136316 L1.8275145,3.147183 C1.8275145,3.33254251 1.68083735,3.48276764 1.49985561,3.48276764 L1.13540757,3.48276764 C0.954425832,3.48276764 0.80774868,3.33254251 0.80774868,3.147183 L0.80774868,1.87136316 C0.80774868,0.837823187 1.62578438,0 2.63491447,0 L4.89313236,0 C5.90226245,0 6.72029815,0.837823187 6.72029815,1.87136316 L6.72029815,3.147183 C6.72021097,3.33254251 6.57349023,3.48276764 6.39255208,3.48276764 Z" id="Path"></path>
                            <path d="M6.84426541,3.78388755 L0.683563477,3.78388755 C0.306038718,3.78388755 0,4.09732905 0,4.48398577 L0,9.3264136 C0,9.71307032 0.306038718,10.0265118 0.683563477,10.0265118 L6.84426541,10.0265118 C7.22179017,10.0265118 7.52782888,9.71307032 7.52782888,9.3264136 L7.52782888,4.48398577 C7.52782888,4.09732905 7.22179017,3.78388755 6.84426541,3.78388755 Z M4.64537221,8.46417046 C4.68364339,8.62729754 4.56290172,8.7841299 4.39913766,8.7841299 L3.12873481,8.7841299 C2.96492716,8.7841299 2.84422908,8.62729754 2.88250027,8.46412582 L3.17894939,7.20031506 C2.8290165,6.98607125 2.60026117,6.58561971 2.62366849,6.13244429 C2.65391929,5.54551716 3.11831703,5.06506461 3.69103355,5.02863557 C4.35476401,4.98640289 4.90590396,5.5252044 4.90590396,6.1958826 C4.90590396,6.62280769 4.68251008,6.99611602 4.34896667,7.2003597 L4.64537221,8.46417046 Z" id="Shape"></path>
                        </g>
                    </g>
                </g>
                <g id="logo-(1)" transform="translate(56.9231, 50.8378)">
                    <polygon id="Path" fill="#4D4D4D" points="5.21986676 8.69149632 10.38218 0.00264205988 31.1714187 0 36.3057348 8.77516154 36.3120567 26.3290074 31.1723218 35.0988848 10.3894051 35.1059303 5.167485 26.3298881"></polygon>
                    <polyline id="Path" fill="#EDEDED" points="5.17275525 26.3379111 14.5248227 26.3379111 9.38812708 17.5109845 13.5656363 8.73592406 5.22504173 8.73416588 0 17.5821906"></polyline>
                    <polygon id="Path" fill="#E0E0E0" points="17.3943381 26.3379111 24.2286695 26.3379111 30.2716858 17.7217962 24.3341181 8.76801924 16.2947885 8.76801924 11.452264 17.4202807"></polygon>
                    <polygon id="Path" fill="#ACACAC" points="0 17.5360385 5.17243422 26.3040577 14.5248227 26.3040577 9.44433485 17.5659574"></polygon>
                    <polygon id="Path" fill="#9E9E9E" points="11.5570104 17.5360385 17.3965318 26.3040577 24.2238644 26.3040577 30.1669394 17.5395591"></polygon>
                    <polyline id="Path" fill="#00B8E3" points="13.799485 17.5426694 12.0315434 18.0438388 10.33497 17.5417902 17.2612897 5.85663061 18.9939989 8.77396391"></polyline>
                    <polyline id="Path" fill="#33C6E9" points="18.9939989 26.3206583 17.269604 29.2492997 12.6666989 24.426534 10.33497 17.5734076 10.33497 17.5698918 13.8036427 17.5698918"></polyline>
                    <polyline id="Path" fill="#008AAA" points="10.3655005 17.5813155 10.3618737 17.5813155 10.3618737 17.5839626 8.62373442 20.5151338 6.87834152 17.5971979 8.64821526 14.6095561 13.8417792 5.85663061 17.3180578 5.85663061"></polyline>
                    <polygon id="Path" fill="#D4D4D4" points="29.4337152 26.3379111 65.6410256 26.3379111 65.619199 8.76801924 29.4337152 8.76801924"></polygon>
                    <polygon id="Path" fill="#919191" points="29.4337152 17.5698918 29.4337152 26.3379111 65.6410256 26.3379111 65.6410256 17.5698918"></polygon>
                    <polygon id="Path" fill="#00B8E3" points="17.3180578 29.2492997 13.8539046 29.2492997 8.65902891 20.4882055 10.3897513 17.5698918"></polygon>
                    <path d="M31.1445717,17.5716495 L24.2142761,29.2492997 C23.5771841,28.3388507 22.4855428,26.3228566 22.4855428,26.3228566 L27.6843941,17.5698918 L31.1445717,17.5716495 Z" id="Path" fill="#008AAA"></path>
                    <path d="M27.6704881,29.283153 L24.2132562,29.2822715 L31.1367469,17.5685695 L32.8662655,14.6436701 L34.6012002,17.5879631 M31.1358442,17.5694511 L27.6804175,17.5694511 L22.4855428,8.77800391 L24.2051321,5.85663061 L28.4097761,11.0770207 L31.1358442,17.5694511 Z" id="Shape" fill="#00B8E3"></path>
                    <polygon id="Path" fill="#33C6E9" points="32.9252591 14.616626 32.9252591 14.6192633 31.1950779 17.5360385 24.2662302 5.85663061 27.7329104 5.85838876"></polygon>
                </g>
                <g id="Group" transform="translate(95.3846, 107.1333) scale(-1, 1) translate(-95.3846, -107.1333)translate(80, 82.2666)">
                    <path d="M18.7353264,42.004788 L18.6197969,43.769851 C18.6197969,43.769851 18.88214,44.03534 19.3868382,43.8505365 L19.9381634,42.1173443 L18.7353264,42.004788 Z" id="Path" fill="url(#linearGradient-5)"></path>
                    <path d="M18.9665965,43.3025473 C18.9665965,43.3025473 18.0617504,43.6551431 18.2373848,44.037458 C18.3316945,44.2427354 18.6580839,44.7064754 18.9401335,45.0919169 C19.2011746,45.4486478 19.6726883,45.6065224 20.1091527,45.481628 C20.2556144,45.4397051 20.4054191,45.3987236 20.5380159,45.366046 C20.8122885,45.2984718 20.8283352,44.9321596 20.5612063,44.8421952 C20.4316711,44.7985914 20.3033675,44.7632915 20.1916385,44.7468182 C19.8603578,44.6979698 19.404574,43.9503176 19.3512257,43.6508399 C19.2978773,43.3513957 18.9665965,43.3025473 18.9665965,43.3025473 Z" id="Path" fill="url(#linearGradient-6)"></path>
                    <path d="M16.7916297,25.0637867 C18.1244241,25.5031866 23.0530611,27.2830084 24.1508552,31.3654941 C24.2094822,31.5834123 24.3597796,32.189495 24.3665713,33.1793719 C24.3948994,37.2999815 21.8867164,40.7873443 20.062596,42.8161145 C19.4875174,42.8069365 18.9124388,42.7977585 18.3373602,42.7885806 C18.0503487,41.736912 17.786598,40.1639141 18.1993441,38.39401 C18.8301992,35.688927 20.4668261,34.9872991 20.151205,33.6595516 C19.578097,31.2484665 13.717799,31.6132659 13.1655588,29.4542558 C12.9661358,28.6743294 13.40443,27.3508851 16.7916297,25.0637867 Z" id="Path" fill="url(#linearGradient-7)"></path>
                    <path d="M0.306805309,49.733318 L2.80939314,49.6775777 C2.9635967,49.6741822 3.0298247,49.4904882 2.91172631,49.3956827 C2.79531706,49.3022556 2.63442736,49.2257724 2.4287757,49.2462127 C1.95307428,49.2934474 0.8851918,48.6574438 0.400692822,48.7939031 C0.242407203,48.8384819 0.113822131,49.1942042 0.0479108449,49.2925397 C-0.081518792,49.485647 0.0668431844,49.7386634 0.306805309,49.733318 Z" id="Path" fill="url(#linearGradient-8)"></path>
                    <path d="M1.43113291,47.896512 L0.400657631,48.7939368 C0.400657631,48.7939368 0.760442462,49.0507184 1.28530463,48.9406836 L2.33861835,48.2481328 L1.43113291,47.896512 Z" id="Path" fill="url(#linearGradient-9)"></path>
                    <g opacity="0.3" transform="translate(13.1253, 26.9754)" fill="url(#linearGradient-10)" id="Path">
                        <path d="M8.08764999,8.71998697 C8.77889152,6.93710588 9.60776201,4.73882882 8.66107466,3.49069103 C7.70305605,2.22755918 5.60413525,3.2937175 3.49859869,2.27590325 C2.7175869,1.89836225 1.91496832,1.22275547 1.24723385,0 C0.0651942919,1.16583856 -0.0954138818,1.94832003 0.0403148049,2.47886096 C0.59251977,4.63787106 6.45281784,4.27307165 7.02596099,6.68415677 C7.34158209,8.01190428 5.70495524,8.71353213 5.07410013,11.4186151 C4.71924193,12.9402096 4.86468312,14.315259 5.0947216,15.3396626 C5.29981021,14.3883466 5.61845767,13.3892582 6.10573668,12.38079 C6.86105961,10.8174744 7.35949391,10.5981778 8.08764999,8.71998697 Z"></path>
                    </g>
                    <path d="M17.5551519,24.5489459 C16.7438765,28.1070093 15.0153328,33.5400362 11.0550604,39.211119 C8.12318706,43.4095229 4.90226122,46.4007705 2.37595518,48.3992837 C2.19623871,48.4505862 1.88987264,48.5136218 1.51432259,48.4696146 C1.23522894,48.4368697 1.01391763,48.356285 0.865062993,48.2884756 C1.03907864,47.2854201 1.40611266,45.8035968 2.27647242,44.2031659 C3.86914668,41.2744831 5.28738302,41.3685826 6.88706013,38.7838219 C8.05840187,36.8912085 8.43926564,34.8806598 9.20099319,30.8595623 C9.78916256,27.7545817 9.78958484,27.012443 10.5949483,26.1221455 C12.2233054,24.3220851 15.2809486,24.301712 17.5551519,24.5489459 Z" id="Path" fill="url(#linearGradient-11)"></path>
                    <g opacity="0.3" transform="translate(0.8651, 24.7135)" fill="url(#linearGradient-12)" id="Path">
                        <path d="M2.02199497,20.1519152 C2.59042263,19.2949005 3.59890402,18.4024177 5.58820727,16.6418933 C7.64412562,14.8224684 7.56508838,15.1513627 7.96974074,14.6137282 C9.78147414,12.2065093 8.80044113,9.63428842 9.24834227,6.53011466 C9.49826323,4.79823354 10.2987352,2.53507187 12.6292077,0 C11.5370087,0.192401352 10.4912609,0.606149987 9.72988527,1.40863474 C8.79502183,2.39397307 8.86392429,3.35883744 8.33593019,6.14605157 C7.57420265,10.1671154 7.19333887,12.1776642 6.02199714,14.0703112 C4.42232002,16.6550719 3.00408369,16.5609724 1.41140943,19.4896552 C0.541049665,21.0900861 0.174015648,22.5718757 0,23.5749649 C0.148819449,23.642808 0.370165946,23.7233926 0.649259598,23.7561039 C0.870570905,23.7820241 1.06689715,23.7704256 1.22842027,23.7463544 C1.09701998,21.7112974 1.73364629,20.5866421 2.02199497,20.1519152 Z"></path>
                    </g>
                    <path d="M19.7454617,1.42760172 C19.7454617,1.42760172 20.4119293,6.16807787 15.1834013,9.51037478 L20.7470106,10.7782469 C20.7470106,10.7782469 22.5277414,7.5972538 21.2385125,2.32822024 L19.7454617,1.42760172 Z" id="Path" fill="url(#linearGradient-13)"></path>
                    <path d="M20.7245241,2.32825386 C20.7245241,2.32825386 21.0243096,1.62114611 20.9759582,1.30284173 C20.9275717,0.984503723 20.1343841,0.559728067 19.5937567,0.121034158 C19.0531293,-0.317659751 19.6140262,0.562249489 19.7397609,0.762383204 C19.8654604,0.962584156 20.3065346,1.26280154 20.2431218,1.94338392 L20.7245241,2.32825386 Z" id="Path" fill="url(#linearGradient-14)"></path>
                    <path d="M14.499233,5.93711556 C14.7724851,5.42301431 14.885129,5.4260064 14.9522368,5.15463409 C15.1051735,4.5362468 14.7103744,3.75084048 14.3755394,3.73994793 C14.1596826,3.73292157 14.1418411,4.05347842 13.6848961,4.55315714 C13.1251252,5.16519044 12.785434,5.08490835 12.4560184,5.61622251 C12.3789518,5.74051184 12.0321873,6.29993146 12.2454401,6.71744542 C12.5176364,7.25030606 13.5907271,7.33468967 14.0392616,6.92366417 C14.2520217,6.72874139 14.1626386,6.57046329 14.499233,5.93711556 Z" id="Path" fill="url(#linearGradient-15)"></path>
                    <path d="M13.6947846,6.49186215 C13.6947846,6.49186215 13.8864305,7.46896382 13.7500332,8.26341365 C13.6266915,8.98141394 12.2344255,9.72728435 11.9676133,9.94120185 C11.700801,10.1550857 12.6753942,10.3871911 13.5694722,10.2753744 C14.4634798,10.1636249 16.9114172,9.41530034 17.283413,8.9981898 C17.6554441,8.58111289 16.8502918,8.78662564 16.1731615,8.70765469 C15.4960313,8.62868373 14.8496221,7.54453926 14.8299155,6.99123829 C14.8101386,6.43787008 13.6947846,6.49186215 13.6947846,6.49186215 Z" id="Path" fill="url(#linearGradient-16)"></path>
                    <path d="M13.9863355,7.22112479 C13.9863355,7.22112479 14.6707502,7.5082644 15.2769721,7.0451295 C15.8197461,6.63043953 15.0126936,5.35665047 14.4605238,5.34037889 C14.2763382,5.33496623 14.0074849,5.46103736 13.8487418,5.64550464 C13.754995,5.75446371 13.7493998,5.82704706 13.592557,6.0022355 C13.4479603,6.16377464 13.3843364,6.17833165 13.3624129,6.25679832 C13.3348941,6.35489847 13.3821194,6.5188918 13.7537986,6.80082046 C13.5686276,6.76817644 13.4089344,6.81483957 13.3471052,6.91794894 C13.3372519,6.93442224 13.316736,6.98582564 13.3228591,7.03890999 C13.3450993,7.23110963 13.6079351,7.32009903 13.9863355,7.22112479 Z" id="Path" fill="url(#linearGradient-17)"></path>
                    <path d="M29.0278329,3.82251611 C29.0278329,3.82251611 29.4423386,3.76734739 29.3131201,3.01105509 C29.2118074,2.41821822 29.2885221,2.21885774 29.435019,2.32395063 C29.5814807,2.42904352 29.6021726,2.77162081 29.6021726,2.77162081 C29.6021726,2.77162081 30.1364657,2.33625517 30.356475,1.76574129 C30.5764842,1.19526103 30.7179137,1.67567608 30.7650334,1.96093302 C30.8121883,2.24615634 30.4507496,3.13191528 30.2464703,3.29708527 C30.0421911,3.46218802 29.7436372,4.19003867 29.7436372,4.19003867 L29.0278329,3.82251611 Z" id="Path" fill="url(#linearGradient-18)"></path>
                    <path d="M30.1322429,4.02513763 C29.6607643,3.70962362 29.1892153,3.39424409 28.7176663,3.07873007 C28.1439601,6.44805663 26.8398457,7.77035787 25.7321983,8.34883944 C23.0600639,9.7441947 20.6751874,7.25760137 15.5604646,8.27235629 C14.1510258,8.55196525 11.6942556,9.07285753 10.3320069,10.9910886 C9.97391123,11.4953059 9.84652262,11.8770829 9.25191344,15.4942148 C8.49183983,20.1179323 8.46484893,20.9248548 8.57200316,21.9204133 C8.76811827,23.7423596 8.88695565,24.8464737 9.76628892,25.8237099 C12.1012305,28.4187244 17.0641427,27.0807231 17.6863411,26.9046605 C18.8358297,26.5794306 20.6223317,26.0738014 21.3321185,24.6227059 C21.6661089,23.9400055 21.6306371,23.3157685 21.1173173,20.818955 C20.1005663,15.8729325 19.9706791,15.5528799 20.2544883,15.0112447 C21.2122958,13.1834487 24.2470653,14.2293012 26.8107082,12.5295598 C28.3097765,11.5357495 29.9993294,9.37001559 30.1322429,4.02513763 Z" id="Path" fill="url(#linearGradient-19)"></path>
                    <path d="M15.3606897,26.2440814 C15.8610946,25.2635843 15.1885743,24.3599736 15.9263725,23.1814944 C16.8666552,21.6794997 18.5584251,22.1894659 19.1949811,21.0796701 C20.283661,19.1817449 15.9985124,16.5347891 16.8692241,13.5132172 C17.2849614,12.0705936 18.7365932,11.0263885 19.9492483,10.6307605 C22.6415114,9.75249858 24.4025005,11.9912865 26.9265192,11.291306 C27.5247178,11.1253627 28.2113494,10.7815752 28.9057932,10.0682479 C28.2920054,11.3054259 27.5296444,12.0528764 26.8107434,12.5295262 C24.2470653,14.2292676 21.2122958,13.1834151 20.2545235,15.0112111 C19.9707143,15.5528463 20.1006366,15.8729325 21.1173525,20.8189214 C21.6306723,23.3157349 21.6661792,23.9399383 21.3321536,24.6226723 C20.6223669,26.0737678 18.8358649,26.5793634 17.6863763,26.9046269 C17.3457701,27.0010461 15.704287,27.4442786 13.9054684,27.4013136 C14.7080518,27.0898338 15.1399414,26.6766567 15.3606897,26.2440814 Z" id="Path" fill="url(#linearGradient-20)" opacity="0.3"></path>
                </g>
                <g id="Group" transform="translate(24.5, 92.5) scale(-1, 1) translate(-24.5, -92.5)translate(0, 53)">
                    <path d="M3,3.45364669 C3,3.45364669 2.28591244,3.37163995 2.50858357,2.24729777 C2.68306931,1.3660068 2.55086997,1.06961537 2.29857973,1.22589914 C2.0462274,1.38213172 2.01058511,1.89137211 2.01058511,1.89137211 C2.01058511,1.89137211 1.09015729,1.24417405 0.711132034,0.396054346 C0.332106775,-0.452014168 0.0884476802,0.262140709 0.00722798189,0.686200561 C-0.0739917164,1.11026041 0.548692637,2.42702666 0.900644663,2.67248381 C1.25253459,2.91799214 1.76692602,4 1.76692602,4 L3,3.45364669 Z" id="Path" fill="url(#linearGradient-21)"></path>
                    <path d="M28.4178056,76.33969 C28.4178056,76.33969 24.0722316,78.5213151 24.0012955,78.8695714 C23.9303024,79.2178277 26.7959134,78.7527931 27.9657309,78.8029939 C29.1356054,78.8532577 30.0978609,78.4713032 29.992027,77.9240074 C29.8860791,77.3766485 29.4766002,76 29.4766002,76 L28.4178056,76.33969 Z" id="Path" fill="url(#linearGradient-22)"></path>
                    <path d="M28,74.2045823 L28.3280023,75.9154345 C28.3280023,75.9154345 29.1817989,76.1295403 29.7552898,75.8763928 L30,74 L28,74.2045823 Z" id="Path" fill="url(#linearGradient-23)"></path>
                    <path d="M48.3111278,75 L48.8444832,75.6983963 C48.993647,75.8936823 49.0381133,76.1288696 48.96657,76.3514435 C48.7800401,76.9321972 48.4075819,78.0640115 48.2451203,78.3591735 C48.0239319,78.7611808 45.0564809,79 45.0564809,79 C45.0564809,79 44.7919092,78.6962982 45.4079996,78.3293825 C46.02409,77.9625649 46.4200751,77.9048478 46.6375329,77.3634557 C46.8549306,76.8221126 47,75.2908431 47,75.2908431 L48.3111278,75 Z" id="Path" fill="url(#linearGradient-24)"></path>
                    <path d="M46,72.2154245 C46.16268,72.3514683 46.9584956,74.8855924 46.9584956,74.8855924 C46.9584956,74.8855924 47.2160806,75.2311572 47.7054269,74.7211381 C48.1946726,74.2111191 47.9268384,74.492378 47.9268384,74.492378 L47.8350986,72 L46,72.2154245 Z" id="Path" fill="url(#linearGradient-25)"></path>
                    <path d="M26.1564113,37.5440237 C25.938539,43.0050127 25.9296507,48.9382025 26.2488174,55.276578 C26.6081441,62.4140666 27.3303745,69.0110053 28.2404521,74.9910417 C28.5788045,75.0016595 28.9342832,75.0034203 29.3056959,74.9931759 C29.5564116,74.9863464 29.7994856,74.9742879 30.0343216,74.9583345 C30.506595,73.7183405 31.0648792,72.0876737 31.564739,70.1399654 C32.0902882,68.0918944 32.4073412,66.2547932 32.6332347,64.4980461 C33.428577,58.3126424 32.4964954,57.773053 33.1419827,53.1890236 C33.7135995,49.1292705 34.52661,48.9708031 35.4809124,43.2068052 C36.516402,36.9526789 35.7455568,36.0144133 35.3707297,35.6754958 C33.7748964,34.2325889 30.0264088,35.2149266 26.1564113,37.5440237 Z" id="Path" fill="url(#linearGradient-26)"></path>
                    <path d="M35.3240106,35.6747443 C33.688875,34.2983964 29.949501,35.1316218 26,37.2322397 C30.5435505,41.7308349 31.0388538,44.6492046 30.4941774,46.54269 C29.8785853,48.6828456 28.007006,49.2991741 28.0141092,51.6392589 C28.0229009,54.5149962 30.8549855,55.2768297 30.7947829,58.3198951 C30.7549583,60.3321002 29.5104993,60.3112375 29.2165895,62.7966139 C28.8688815,65.7372868 30.4947014,66.7505926 29.9680741,68.9263374 C29.7415283,69.8623286 29.0949033,71.0854347 27.2533089,72.3454106 C27.3861157,73.2388228 27.5221829,74.1233244 27.6641306,74.9911252 C28.0274423,75.0016366 28.4094436,75.0034507 28.8083878,74.9930994 C29.0777275,74.9862697 29.3388578,74.9742644 29.59108,74.9583106 C30.0984937,73.7182903 30.6982491,72.0876422 31.2352401,70.1398925 C31.7998288,68.0917247 32.1404335,66.2546378 32.3831071,64.4978534 C33.2374719,58.3123717 32.2362104,57.7727174 32.9296467,53.1885907 C33.543725,49.1287513 34.4171287,48.9701205 35.4423198,43.2061069 C36.5547289,36.9518478 35.7267392,36.0135622 35.3240106,35.6747443 Z" id="Path" fill="url(#linearGradient-27)" opacity="0.3"></path>
                    <path d="M28,37.0909961 C31.7987974,42.4417745 35.8962769,49.1010085 39.5606307,57.0718544 C42.3297862,63.0954735 44.3381307,68.7510793 45.8127145,73.7914792 C46.0122316,73.8804076 46.4829541,74.057829 47.0843889,73.9813092 C47.9047329,73.8768701 48.3964304,73.3727974 48.5249378,73.2321121 C49.1250722,69.6188114 49.0589811,66.5586735 48.8552237,64.3501039 C48.7247941,62.9360664 48.4939558,60.5812058 47.5576556,57.6741075 C46.5089043,54.4177721 45.7878949,54.2347451 44.4196562,50.7896137 C42.999517,47.2137566 43.3435414,46.3213706 41.983557,41.8463789 C41.4248637,40.0080539 40.4895812,37.2723904 38.9464186,34 C35.2976124,35.0302957 31.6488062,36.0607003 28,37.0909961 Z" id="Path" fill="url(#linearGradient-28)"></path>
                    <path d="M26.709777,7 C26.709777,7 26.8370487,8.62236604 27.3946093,9.82338808 C27.8985939,10.9088167 30.3867426,11.5257283 30.8944961,11.7561825 C31.4022495,11.986524 29.9885761,12.7472089 28.5505501,12.9316737 C27.112582,13.1161385 22.9828304,12.9218108 22.2232005,12.4126586 C21.4636866,11.9035064 22.804302,11.9031119 23.8221863,11.5047062 C24.8401285,11.1063569 25.3730464,9.13101099 25.1629755,8.24813862 C24.9529626,7.36515353 26.709777,7 26.709777,7 Z" id="Path" fill="url(#linearGradient-29)"></path>
                    <g transform="translate(25, 3)" id="Path">
                        <path d="M0.567347789,3.11674211 C-0.0926181226,2.15221343 0.188629977,0.259031801 0.777336943,0.0159111698 C0.94561108,-0.0535598134 1.05939308,0.0445005096 2.73809425,1.55778877 C3.57168756,2.30939918 3.97686865,2.69618958 3.99898872,3.21363439 C4.01257388,3.52945203 3.88808536,3.90678682 3.69789316,4.17215597 C3.59996893,4.30870622 3.44033071,4.46566948 3.10262088,4.75378773 C2.80293939,5.00942315 2.82005972,5.00313794 2.72966035,5.07627993 C2.51255035,5.25209881 2.10969237,5.5350999 1.44548425,5.79490692 C1.46321061,5.61780875 1.47502818,5.39460054 1.46028147,5.14157932 C1.45462519,5.04424207 1.42876794,4.66234634 1.31579398,4.30915119 C1.12141008,3.70126618 0.781528646,3.42977869 0.567347789,3.11674211 Z" fill="url(#linearGradient-30)"></path>
                        <path d="M2.25705849,5.59461467 C2.25705849,5.59461467 1.43947446,6.31552213 0.443414797,5.83462051 C-0.448458329,5.40388929 0.161308156,3.09443798 0.902532497,2.84892563 C1.14979245,2.76699548 1.56148836,2.85654575 1.84622113,3.08108887 C2.01444476,3.21369001 2.04949346,3.32471009 2.32816593,3.53557038 C2.58512236,3.72996676 2.67673379,3.72735256 2.73617516,3.84104247 C2.81056526,3.98315485 2.80879767,4.25786837 2.41255551,4.84600782 C2.65087654,4.72124928 2.88465234,4.73037117 3.00747428,4.86664331 C3.02706923,4.88839124 3.07428901,4.96047642 3.08610658,5.04574385 C3.12873064,5.35455321 2.80672707,5.59817444 2.25705849,5.59461467 Z" fill="url(#linearGradient-31)"></path>
                    </g>
                    <path d="M43.4278541,39.4614212 C41.8448615,40.8428295 39.1031382,40.9551312 38.5044626,40.9796156 C35.687192,41.0949097 35.2848941,39.916232 32.4980005,40.0307101 C29.7025246,40.1456234 28.9655714,41.3759904 26.9838381,40.8846706 C26.6326956,40.7975606 25.2611,40.4132104 23.8035114,38.577753 C19.6726324,33.3760751 23.1256183,27.652608 19.0080646,20.2943466 C18.3873685,19.1852044 17.8414291,18.2095294 16.7433395,17.1631217 C13.1896804,13.7766608 9.80134445,15.3168367 5.32333189,12.5992889 C1.64951977,10.3698507 -0.816213099,5.88844871 0.250087915,3.86821587 C0.73335349,2.95260914 1.15185617,3.07356194 1.80095315,3 C2.8913638,4.78191827 5.5902318,6.95515123 8.69472895,8.22044923 C11.6403396,9.42094525 13.9101464,8.84714036 18.4172938,8.90802483 C21.1720035,8.94513226 25.9009935,9.00900927 29.6508611,10.3026547 C39.0280991,13.5375845 42.4998306,24.5378149 43.5263818,27.7903734 C44.4235766,30.6334988 46.388371,36.8778845 43.4278541,39.4614212 Z" id="Path" fill="url(#linearGradient-32)"></path>
                    <path d="M35.8597488,36.9927669 C36.8697121,35.7313096 31.6585867,32.2562804 32.3579251,28.2024756 C32.9468241,24.7889585 37.1256193,24.4480766 38.1942606,21.2958915 C38.6558753,19.9340922 38.5691413,17.9510152 36.6043785,15 C40.9126333,19.5241375 42.8297063,25.6139445 43.5442162,27.8885425 C44.4305767,30.7104848 46.3715224,36.9085186 43.4469403,39.4728553 C41.8831062,40.8439976 39.1747177,40.9554646 38.5833088,40.979767 C35.8002341,41.0942044 35.4027636,39.9242862 32.6497531,40.0379135 C29.8882086,40.1519728 29.1602005,41.3731961 27.2025215,40.8855277 C26.8555854,40.7990651 25.5006939,40.4175712 24.0607975,38.5957542 C24.0393231,38.5685895 24.0210839,38.5412088 24,38.5139901 C25.0869921,37.5108404 26.3914049,36.701732 27.9482668,36.3648466 C31.7829706,35.5349461 35.04166,38.0144944 35.8597488,36.9927669 Z" id="Path" fill="url(#linearGradient-33)" opacity="0.3"></path>
                </g>
            </g>
        </g>
    </g>
</svg>