<?xml version="1.0" encoding="UTF-8"?>
<svg width="33px" height="33px" viewBox="0 0 33 33" version="1.1" xmlns="http://www.w3.org/2000/svg" xmlns:xlink="http://www.w3.org/1999/xlink">
    <title>Group</title>
    <g id="Symbols" stroke="none" stroke-width="1" fill="none" fill-rule="evenodd">
        <g id="icon/Header/suite_symbol" transform="translate(-8, -8)">
            <g id="Group" transform="translate(8.8591, 8.7735)">
                <path d="M0,17.827214 L1.32022078,17.9415628 C1.32022078,17.9415628 1.52787013,7.62637674 11.1977403,5.5849814 C11.1977403,5.5849814 20.5182078,4.06467907 21.9817143,12.8288651 L23.386987,12.8004698 C23.386987,12.8004698 22.1571818,2.82526047 11.2260909,4.29107442 C11.2260909,4.29107442 0.688844156,5.64330698 0,17.827214" id="Fill-47" fill="#CC6699"></path>
                <path d="M6.13285844,28.4312651 L7.14811818,27.5771023 C7.14811818,27.5771023 0.0121831169,20.1344512 5.4080013,11.8445442 C5.4080013,11.8445442 10.9248844,4.16782326 18.1481701,9.32886977 L19.121287,8.31277674 C19.121287,8.31277674 11.2091571,2.13026512 4.51533896,10.9090326 C4.51533896,10.9090326 -1.98155714,19.3271023 6.13285844,28.4312651" id="Fill-49" fill="#666699"></path>
                <path d="M17.8425961,31.6239767 L17.9575312,30.3032093 C17.9575312,30.3032093 7.65705065,30.0936977 5.61886883,20.4108837 C5.61886883,20.4108837 4.10172597,11.074186 12.8513494,9.60913953 L12.8229987,8.20011628 C12.8229987,8.20011628 2.86425844,9.43262791 4.32776494,20.3809535 C4.32776494,20.3809535 5.6771026,30.934814 17.8425961,31.6239767" id="Fill-51" fill="#6699CC"></path>
                <path d="M28.4029831,25.5091535 L27.5509312,24.492293 C27.5509312,24.492293 20.1199961,31.6402465 11.8423727,26.2351535 C11.8423727,26.2351535 4.1785026,20.7088047 9.33065844,13.4748977 L8.31693117,12.5002465 C8.31693117,12.5002465 2.14568442,20.4240837 10.9091,27.1292233 C10.9091,27.1292233 19.3131519,33.6363628 28.4029831,25.5091535" id="Fill-53" fill="#66CCCC"></path>
                <path d="M31.5240831,13.7142628 L30.2038623,13.5991465 C30.2038623,13.5991465 29.9954468,23.9151 20.3271091,25.9564953 C20.3271091,25.9564953 11.0058753,27.4767977 9.54313506,18.7126116 L8.13632987,18.741007 C8.13632987,18.741007 9.36613506,28.7162163 20.2979922,27.2488674 C20.2979922,27.2488674 30.8344727,25.8981698 31.5240831,13.7142628" id="Fill-55" fill="#FFCC00"></path>
                <path d="M25.4787286,3.15664186 L24.4650013,4.00926977 C24.4650013,4.00926977 31.6009364,11.4526884 26.2051182,19.7433628 C26.2051182,19.7433628 20.6867026,27.4193163 13.4641831,22.2582698 L12.4910662,23.2751302 C12.4910662,23.2751302 20.4031961,29.4568744 27.0970143,20.678107 C27.0970143,20.678107 33.5939104,12.2600372 25.4787286,3.15664186" id="Fill-57" fill="#FF9933"></path>
                <path d="M13.7106039,0 L13.5956688,1.32153488 C13.5956688,1.32153488 23.8961494,1.53027907 25.9327987,11.2138605 C25.9327987,11.2138605 27.4507078,20.5497907 18.7003182,22.0148372 L18.7294351,23.423093 C18.7294351,23.423093 28.6889416,22.1913488 27.2239026,11.2430233 C27.2239026,11.2430233 25.8753312,0.689162791 13.7106039,0" id="Fill-59" fill="#FF3333"></path>
                <path d="M3.16814675,6.0548093 L4.02096494,7.07013488 C4.02096494,7.07013488 11.4519,-0.0762837209 19.7287571,5.3288093 C19.7287571,5.3288093 27.3933935,10.8551581 22.2404714,18.0875302 L23.2549649,19.0629488 C23.2549649,19.0629488 29.4269779,11.1391116 20.6627961,4.43397209 C20.6627961,4.43397209 12.2572117,-2.07316744 3.16814675,6.0548093" id="Fill-61" fill="#993333"></path>
            </g>
        </g>
    </g>
</svg>