<svg xmlns="http://www.w3.org/2000/svg" width="238" height="51" viewBox="0 0 238 51"><g fill="none"><g fill="#092F87" transform="translate(57.58 5.512)"><g transform="translate(.148)"><path d="M11.04 6.504C11.04 3.576 9 1.488 4.848 1.488 4.824 1.488 0 1.488 0 1.488L0 16.488 2.928 16.488 2.928 11.832 4.632 11.808C8.664 11.784 11.04 9.96 11.04 6.504ZM8.112 6.6C8.112 8.352 6.984 9.312 4.752 9.36L2.88 9.408 2.88 3.936C2.88 3.936 4.464 3.936 4.656 3.936 6.96 3.936 8.112 4.848 8.112 6.6ZM16.2 9.648C16.944 8.304 17.856 7.68 18.84 7.68 19.368 7.68 19.896 7.824 20.424 8.112L21.048 5.568C20.448 5.208 19.752 5.064 19.08 5.064 17.784 5.064 16.896 5.712 16.2 6.888L16.2 5.088 13.368 5.496 13.368 16.488 16.2 16.488 16.2 9.648ZM33.432 10.944C33.432 7.296 31.104 5.04 27.84 5.04 24.576 5.04 22.104 7.32 22.104 10.968 22.104 14.64 24.456 16.848 27.696 16.848 30.936 16.848 33.432 14.568 33.432 10.944ZM30.624 10.968C30.624 13.104 29.616 14.544 27.792 14.544 25.944 14.544 24.888 13.056 24.888 10.944 24.888 8.808 25.896 7.32 27.744 7.32 29.568 7.32 30.624 8.832 30.624 10.968ZM43.104 5.424C42.408 5.208 41.544 5.064 40.752 5.064 37.608 5.064 35.16 7.512 35.16 11.04 35.16 14.472 37.056 16.848 39.984 16.848 41.352 16.848 42.36 16.128 43.104 15.408 43.104 15.528 43.104 16.488 43.104 16.488L45.936 16.488 45.936.072 43.104.456 43.104 5.424ZM43.104 7.968C43.104 7.968 43.104 13.632 43.104 13.536 42.48 14.112 41.76 14.448 40.824 14.448 39.12 14.448 38.04 13.08 38.04 10.92 38.04 8.88 39.12 7.32 41.016 7.32 41.856 7.32 42.552 7.56 43.104 7.968ZM48.864 5.424 48.864 13.032C48.864 15.408 50.184 16.848 52.344 16.848 53.76 16.848 55.08 16.152 55.992 15.168 55.992 15.264 55.992 16.8 55.992 16.8L58.824 16.416 58.824 5.424 55.992 5.424 55.992 13.368C55.464 13.872 54.576 14.328 53.568 14.328 52.368 14.328 51.696 13.8 51.696 12.168L51.696 5.424 48.864 5.424ZM70.776 15.936 70.32 13.632C69.456 14.184 68.4 14.496 67.248 14.496 65.376 14.496 64.104 13.176 64.104 10.92 64.104 8.784 65.208 7.392 67.248 7.392 68.28 7.392 69.336 7.704 70.248 8.28L70.848 6C69.84 5.4 68.544 5.064 67.032 5.064 63.552 5.064 61.2 7.392 61.2 10.992 61.2 14.616 63.336 16.848 66.936 16.848 68.424 16.848 69.816 16.512 70.776 15.936ZM79.608 16.416 79.224 14.112C78.648 14.304 78.072 14.448 77.496 14.448 76.536 14.448 76.008 13.968 76.032 12.936L76.176 7.824 79.392 7.824 79.464 5.496 76.344 5.496 76.392 2.904 73.656 2.904 73.608 5.352 71.88 5.904 71.808 7.704 73.536 7.896 73.368 13.104C73.272 15.768 74.568 16.848 77.04 16.848 78 16.848 78.768 16.704 79.608 16.416ZM84.888 1.704C84.888.696 84.264 0 83.136 0 82.032 0 81.408.696 81.408 1.704 81.408 2.736 82.032 3.408 83.136 3.408 84.264 3.408 84.888 2.736 84.888 1.704ZM84.552 16.488 84.552 5.088 81.72 5.496 81.72 16.488 84.552 16.488Z"/><polygon points="97.56 5.424 94.512 5.424 91.848 13.512 89.064 5.424 86.04 5.424 90.264 16.512 93.288 16.512"/><path d="M102.216 1.704C102.216.696 101.592 0 100.464 0 99.36 0 98.736.696 98.736 1.704 98.736 2.736 99.36 3.408 100.464 3.408 101.592 3.408 102.216 2.736 102.216 1.704ZM101.88 16.488 101.88 5.088 99.048 5.496 99.048 16.488 101.88 16.488ZM111.384 16.416 111 14.112C110.424 14.304 109.848 14.448 109.272 14.448 108.312 14.448 107.784 13.968 107.808 12.936L107.952 7.824 111.168 7.824 111.24 5.496 108.12 5.496 108.168 2.904 105.432 2.904 105.384 5.352 103.656 5.904 103.584 7.704 105.312 7.896 105.144 13.104C105.048 15.768 106.344 16.848 108.816 16.848 109.776 16.848 110.544 16.704 111.384 16.416ZM123.408 5.424 120.384 5.424 117.744 13.344 114.984 5.424 111.936 5.424 116.256 16.344 115.776 17.616C115.176 19.128 114.744 19.488 113.928 19.488 113.352 19.488 112.824 19.272 112.176 18.96L111.336 21.288C112.224 21.696 113.136 21.936 114.144 21.936 116.184 21.936 117.432 21.024 118.536 18L119.184 16.272 123.408 5.424ZM135.072 14.376C133.272 14.376 131.688 13.776 130.296 12.936L129.624 15.456C131.04 16.32 133.032 16.848 135.024 16.848 138.552 16.848 140.736 14.904 140.736 12.168 140.736 9.312 138.408 8.28 136.152 7.656 134.088 7.104 132.744 6.624 132.744 5.4 132.744 4.368 133.512 3.624 135.264 3.624 136.68 3.624 138.36 4.128 139.68 4.92L140.4 2.448C138.96 1.632 137.28 1.128 135.24 1.128 131.904 1.128 129.864 2.904 129.864 5.568 129.864 8.52 132.36 9.48 134.52 10.08 136.728 10.68 137.856 11.136 137.856 12.384 137.856 13.584 136.704 14.376 135.072 14.376ZM143.112 5.424 143.112 13.032C143.112 15.408 144.432 16.848 146.592 16.848 148.008 16.848 149.328 16.152 150.24 15.168 150.24 15.264 150.24 16.8 150.24 16.8L153.072 16.416 153.072 5.424 150.24 5.424 150.24 13.368C149.712 13.872 148.824 14.328 147.816 14.328 146.616 14.328 145.944 13.8 145.944 12.168L145.944 5.424 143.112 5.424ZM159.264 1.704C159.264.696 158.64 0 157.512 0 156.408 0 155.784.696 155.784 1.704 155.784 2.736 156.408 3.408 157.512 3.408 158.64 3.408 159.264 2.736 159.264 1.704ZM158.928 16.488 158.928 5.088 156.096 5.496 156.096 16.488 158.928 16.488ZM168.432 16.416 168.048 14.112C167.472 14.304 166.896 14.448 166.32 14.448 165.36 14.448 164.832 13.968 164.856 12.936L165 7.824 168.216 7.824 168.288 5.496 165.168 5.496 165.216 2.904 162.48 2.904 162.432 5.352 160.704 5.904 160.632 7.704 162.36 7.896 162.192 13.104C162.096 15.768 163.392 16.848 165.864 16.848 166.824 16.848 167.592 16.704 168.432 16.416ZM172.68 11.496C172.68 11.496 179.904 11.4 179.928 11.4 180.072 10.92 180.168 10.152 180.168 9.552 180.168 6.84 178.536 5.064 175.608 5.064 172.296 5.064 169.896 7.464 169.896 11.064 169.896 14.592 172.248 16.848 175.8 16.848 177.288 16.848 178.752 16.512 179.808 15.936L179.448 13.584C178.44 14.208 177.168 14.592 175.992 14.592 174.024 14.592 172.8 13.368 172.68 11.568L172.68 11.496ZM172.752 9.84C172.896 8.472 173.832 7.2 175.392 7.2 176.856 7.2 177.504 8.136 177.504 9.624 177.504 9.648 177.504 9.768 177.504 9.816L172.752 9.84Z"/></g><path d="M1.7 8.92 3.84 8.78 6.88 13.74 8.9 13.74 5.52 8.5C7.24 7.94 8.34 6.78 8.34 4.9 8.34 2.68 6.76 1.24 3.74 1.24 3.72 1.24 0 1.24 0 1.24L0 13.74 1.7 13.74 1.7 8.92ZM1.7 7.42 1.7 2.8 3.54 2.8C5.44 2.8 6.64 3.5 6.64 4.98 6.64 6.52 5.4 7.3 3.76 7.36L1.7 7.42ZM15.44 11.66C14.92 12.22 14.18 12.64 13.34 12.64 12.34 12.64 11.72 12.04 11.72 11.22 11.72 10.1 12.72 9.54 15.44 9.18L15.44 11.66ZM15.5 12.76C15.74 13.56 16.4 14.08 17.88 13.96L17.98 12.58C17.18 12.58 17.08 12.44 17.08 11.68L17.08 7.84C17.12 5.34 16.02 4.28 13.54 4.28 12.24 4.28 10.9 4.78 10.1 5.34L10.42 6.82C11.28 6.24 12.44 5.8 13.38 5.8 14.86 5.8 15.44 6.4 15.44 7.88L15.44 8.14C11.16 8.34 9.98 9.78 9.98 11.42 9.98 12.9 11.18 14.04 12.9 14.04 13.88 14.04 14.72 13.58 15.42 12.76L15.5 12.76ZM25.8 4.58C25.22 4.4 24.48 4.28 23.82 4.28 21.08 4.28 19.16 6.42 19.16 9.2 19.16 11.96 20.66 14.04 23.24 14.04 24.32 14.04 25.14 13.52 25.8 12.9 25.8 13 25.8 13.74 25.8 13.74L27.44 13.74 27.44 0 25.8.26 25.8 4.58ZM25.8 6.42C25.8 6.42 25.8 11.74 25.8 11.64 25.18 12.18 24.44 12.52 23.58 12.52 21.88 12.52 20.86 11.18 20.86 9.16 20.86 7.28 21.9 5.76 23.76 5.76 24.56 5.76 25.26 5.98 25.8 6.42ZM32.18 1.38C32.18.76 31.84.2 31.1.2 30.36.2 30.02.76 30.02 1.38 30.02 2 30.36 2.56 31.1 2.56 31.84 2.56 32.18 2 32.18 1.38ZM31.92 13.74 31.92 4.28 30.28 4.54 30.28 13.74 31.92 13.74ZM34.68 4.58 34.68 10.88C34.68 12.86 35.78 14.04 37.54 14.04 38.7 14.04 39.78 13.54 40.62 12.7 40.62 12.8 40.62 14.04 40.62 14.04L42.26 13.78 42.26 4.58 40.62 4.58 40.62 11.46C40.1 11.96 39.18 12.46 38.12 12.46 36.92 12.46 36.32 11.92 36.32 10.34L36.32 4.58 34.68 4.58ZM50.96 11.14C50.96 9.4 49.52 8.76 48.18 8.4 47.04 8.1 46.06 7.8 46.06 6.92 46.06 6.18 46.7 5.78 47.68 5.78 48.44 5.78 49.54 6.04 50.3 6.46L50.72 4.96C49.88 4.54 48.82 4.28 47.76 4.28 45.92 4.28 44.48 5.36 44.48 7.06 44.48 8.74 45.9 9.38 47.2 9.74 48.28 10.04 49.36 10.34 49.36 11.26 49.36 12.08 48.58 12.56 47.54 12.56 46.6 12.56 45.48 12.22 44.72 11.7L44.3 13.2C45.14 13.72 46.38 14.06 47.5 14.06 49.5 14.06 50.96 12.88 50.96 11.14Z" transform="translate(0 28.748)"/></g><path fill="#C69" d="M0,28.2755471 L2.0939876,28.4569145 C2.0939876,28.4569145 2.42333794,12.0961119 17.7606122,8.85827731 C17.7606122,8.85827731 32.5437028,6.44694259 34.8649542,20.3477212 L37.0938418,20.3026836 C37.0938418,20.3026836 35.1432615,4.48111442 17.8055787,6.80602575 C17.8055787,6.80602575 1.09256811,8.95078687 0,28.2755471"/><path fill="#669" d="M9.72725904,45.0945155 L11.3375513,43.7397374 C11.3375513,43.7397374 0.0193235083,31.9350306 8.57757113,18.7865007 C8.57757113,18.7865007 17.3278385,6.61053845 28.7846122,14.7964173 L30.3280621,13.1848034 C30.3280621,13.1848034 17.7787204,3.37878998 7.16172926,17.3026961 C7.16172926,17.3026961 -3.1429259,30.6545035 9.72725904,45.0945155"/><path fill="#69C" d="M28.2999447,50.1584403 L28.4822419,48.0635856 C28.4822419,48.0635856 12.1447635,47.7312815 8.91202581,32.3734773 C8.91202581,32.3734773 6.50570226,17.5646442 20.3833833,15.2409501 L20.3384166,13.0061139 C20.3384166,13.0061139 4.54296868,14.960987 6.86422016,32.3260052 C6.86422016,32.3260052 9.00438974,49.0653667 28.2999447,50.1584403"/><path fill="#6CC" d="M45.0496579,40.4597866 L43.6982277,38.8469555 C43.6982277,38.8469555 31.9121036,50.1842456 18.7830566,41.6112872 C18.7830566,41.6112872 6.62747682,32.8460063 14.7992543,21.3723864 L13.1913927,19.8265029 C13.1913927,19.8265029 3.40324635,32.3944137 17.302803,43.0293615 C17.302803,43.0293615 30.6323771,53.3502635 45.0496579,40.4597866"/><path fill="#FC0" d="M50,21.7520407 L47.9060126,21.5694561 C47.9060126,21.5694561 47.5754468,37.931476 32.2406033,41.1693106 C32.2406033,41.1693106 17.4562973,43.5806453 15.1362611,29.6798666 L12.904943,29.7249042 C12.904943,29.7249042 14.8555234,45.5464734 32.1944213,43.2191276 C32.1944213,43.2191276 48.9062166,41.076801 50,21.7520407"/><path fill="#F93" d="M40.41153,5.00671479 L38.8036684,6.3590585 C38.8036684,6.3590585 50.1218961,18.1649826 41.5636486,31.3147296 C41.5636486,31.3147296 32.8109505,43.4894747 21.3553922,35.3035958 L19.8119421,36.9164271 C19.8119421,36.9164271 32.361284,46.7212233 42.9782751,32.7973171 C42.9782751,32.7973171 53.2829303,19.4455097 40.41153,5.00671479"/><path fill="#F33" d="M21.7462374,0 L21.5639402,2.09607189 C21.5639402,2.09607189 37.9014186,2.42715874 41.1317257,17.7861802 C41.1317257,17.7861802 43.5392645,32.5937961 29.6603682,34.9174902 L29.70655,37.1511092 C29.70655,37.1511092 45.5032134,35.1974533 43.1795313,17.8324351 C43.1795313,17.8324351 41.0405771,1.09307348 21.7462374,0"/><path fill="#933" d="M5.02496258,9.60346617 L6.37760808,11.2138629 C6.37760808,11.2138629 18.1637321,-0.120992766 31.2915638,8.45196559 C31.2915638,8.45196559 43.4483589,17.2172465 35.2753662,28.688432 L36.884443,30.2355326 C36.884443,30.2355326 46.6738047,17.6676219 32.7730326,7.03267416 C32.7730326,7.03267416 19.4410282,-3.28822799 5.02496258,9.60346617"/></g></svg>