<?xml version="1.0" encoding="UTF-8"?>
<svg width="137px" height="137px" viewBox="0 0 137 137" version="1.1" xmlns="http://www.w3.org/2000/svg" xmlns:xlink="http://www.w3.org/1999/xlink">
    <title>EPS logo</title>
    <defs>
        <polygon id="path-1" points="0 0 127.113402 0 127.113402 112.989691 0 112.989691"></polygon>
        <polygon id="path-3" points="0 0 112.989691 0 112.989691 137 0 137"></polygon>
    </defs>
    <g id="Page-1" stroke="none" stroke-width="1" fill="none" fill-rule="evenodd">
        <g id="8" transform="translate(-148, -122)">
            <g id="EPS-logo" transform="translate(148, 122)">
                <path d="M99.4879897,60.7319588 C109.119792,69.1783283 110.766007,85.1121842 106.614368,96.7203726 C97.9013416,121.988189 66.3885977,135.916945 41.1700992,127.463447 C29.1411769,123.449683 17.7277802,116.384604 9.88659794,106.490999 C17.332472,112.103495 25.3938716,116.329353 34.1249486,119.339675 C39.6917548,121.24853 45.6087427,122.783099 51.4228421,123.132432 C71.572731,123.799016 92.7154032,113.208527 101.110739,94.6083346 C105.867073,84.1515188 106.085485,70.5507074 99.4879897,60.7319588" id="Fill-1" fill="#5F5D99"></path>
                <g id="Group-5" transform="translate(0, 7.0619)">
                    <mask id="mask-2" fill="white">
                        <use xlink:href="#path-1"></use>
                    </mask>
                    <g id="Clip-3"></g>
                    <path d="M127.113402,23.8013686 C107.796082,8.60859889 83.521172,1.25474814 60.4163539,12.0420852 C44.6291117,19.1371123 32.0749239,35.0068054 32.7319756,52.9470881 C32.9893958,58.9706213 34.2314935,65.2529782 37.7561709,70.2683659 C32.7967807,66.123567 30.3521883,59.6113457 29.065087,53.361568 C26.6060935,40.1669897 31.848106,26.2104198 41.0738319,16.6918619 C52.6073395,4.56877736 69.8076929,-1.33348877 86.3365935,0.253842541 C102.381256,2.11447719 117.538449,11.3362024 127.113402,23.8013686" id="Fill-2" fill="#9CC73D" mask="url(#mask-2)"></path>
                    <path d="M0.288022663,46.7552291 C2.4031891,61.7470936 8.0268316,76.5543427 17.6845915,88.1615898 C23.6358598,94.5000553 31.1388502,99.5118231 39.2430879,102.51454 C55.3903585,108.690109 75.400733,106.376986 87.5336877,93.2330862 C91.5822062,88.7914544 95.1176844,83.475614 96.1509657,77.4267414 C96.7432123,83.8774242 93.8971884,90.2158897 90.4193147,95.5443998 C80.9127667,109.557078 62.4541143,115.20957 46.2438387,112.206854 C30.0803669,109.300065 14.6603536,98.9688364 7.37698047,83.9914514 C1.76413881,72.5778696 -1.23849745,59.4176804 0.288022663,46.7552291" id="Fill-4" fill="#4BA4D0" mask="url(#mask-2)"></path>
                </g>
                <path d="M136.520248,83.3298969 C133.556404,58.7892011 121.611377,36.2736026 97.7822855,27.4510011 C81.6918214,21.2287262 61.7356296,23.5314578 49.6310248,36.7181804 C45.5931682,41.1730317 42.0645262,46.5097802 41.0371319,52.5778138 C40.4454389,46.1051236 43.2873584,39.7467534 46.7568311,34.3991173 C54.2695395,23.2901156 67.7386242,17.1331664 80.9028974,16.9607791 C97.5169202,16.5887854 113.766962,24.6637703 124.295512,37.571044 C134.293331,50.325891 138.508695,67.6680553 136.520248,83.3298969" id="Fill-6" fill="#77BA43"></path>
                <path d="M30.5076119,9.88659794 C21.5366213,21.9719886 15.1840264,36.3481921 13.8543306,51.3936016 C13.1894827,71.5293055 23.7967477,92.6498786 42.3928821,101.0375 C52.8504227,105.786879 66.4468296,106.010549 76.2680412,99.4249125 C72.1898321,104.388942 65.7837642,106.840292 59.6379316,108.131805 C43.2252788,111.268595 26.3652352,102.175692 17.1054903,88.5715102 C7.81366156,75.0719484 4.21136235,56.8644957 9.54084016,41.151684 C13.5584465,29.129426 20.6204502,17.7276716 30.5076119,9.88659794" id="Fill-7" fill="#5CBCAD"></path>
                <g id="Group-12" transform="translate(16.9485, 0)">
                    <mask id="mask-4" fill="white">
                        <use xlink:href="#path-3"></use>
                    </mask>
                    <g id="Clip-9"></g>
                    <path d="M89.1879431,127.173123 C104.380953,107.863067 111.734921,83.5972845 100.949223,60.5011545 C93.8522733,44.7198486 77.9823289,32.1721809 60.0417622,32.827186 C54.0181336,33.086309 47.7356773,34.3261402 42.7202102,37.8494922 C46.8650748,32.8919668 53.3792091,30.4500931 59.6272757,29.1634758 C72.822063,26.7054069 86.7788537,31.9454483 96.2993724,41.1659057 C108.420839,52.6950764 114.323198,69.8907615 112.735842,86.4116474 C110.875178,102.452076 101.653307,117.603569 89.1879431,127.173123" id="Fill-8" fill="#39A747" mask="url(#mask-4)"></path>
                    <path d="M66.2337193,0.395432801 C51.2416174,2.51160335 36.4359439,8.13313124 24.8267031,17.7872596 C18.4881372,23.7362901 13.47629,31.2346597 10.4735257,39.3376495 C4.29785847,55.4788483 6.61101871,75.4798991 19.7569364,87.6100909 C24.1968284,91.6570872 29.514563,95.1912359 35.5617213,96.2241287 C29.1109365,96.8143532 22.7723706,93.9711988 17.4419662,90.4946329 C3.43268586,80.9898601 -2.21989584,62.539948 0.782868504,46.3339685 C3.68789368,30.1783739 14.0192854,14.7623594 28.9969074,7.48352446 C40.4106699,1.8709939 53.5728775,-1.13051331 66.2337193,0.395432801" id="Fill-10" fill="#FBD91E" mask="url(#mask-4)"></path>
                    <path d="M36.3689744,136.625711 C60.8453953,133.652996 83.3036834,121.664961 92.1038282,97.7500748 C98.3102652,81.6016781 96.0133948,61.571836 82.8602372,49.4236494 C78.4167252,45.3730543 73.0935607,41.8317077 67.0409724,40.7988149 C73.4989972,40.206791 79.841183,43.0589426 85.1733974,46.5391074 C96.2541228,54.0788648 102.3954,67.596444 102.567349,80.8099136 C102.938396,97.4819546 94.8839645,113.790504 82.0095445,124.356961 C69.2871632,134.388977 51.989141,138.621318 36.3689744,136.625711" id="Fill-11" fill="#61327E" mask="url(#mask-4)"></path>
                </g>
            </g>
        </g>
    </g>
</svg>